<svg xmlns="http://www.w3.org/2000/svg" width="169" height="32" viewBox="0 0 169 32" fill="none"><g id="Layer_1-2"><path id="Vector" d="M25.7257 13.1598C25.4597 12.8118 25.1522 12.4697 24.7679 12.0804L16.6322 3.96387C16.6322 3.96387 15.0358 5.5565 7.00052 13.5432C5.03163 15.5075 4.90155 18.5629 6.70489 20.362C6.70489 20.362 12.5998 26.2429 12.6648 26.3078C14.6987 28.337 17.8679 28.626 20.1088 26.8977C22.0895 25.3758 22.8463 22.8689 22.1841 20.71C23.0769 20.6452 23.9579 20.3325 24.7088 19.7545C26.8196 18.1323 27.2748 15.1771 25.7257 13.1539M32.0759 15.997C32.0759 24.8332 24.898 31.9941 16.0409 31.9941C7.18382 31.9941 0 24.8332 0 15.997C0 7.16092 7.1779 0 16.035 0C24.8921 0 32.07 7.16092 32.07 15.997M23.1242 13.7084C22.6926 13.2719 22.2196 12.8649 21.782 12.4225C21.7525 12.4461 21.6933 12.4756 21.652 12.5228C21.0903 13.0831 20.5167 13.6317 19.9728 14.2098C17.927 16.3569 20.9897 19.7014 23.2957 17.9259C24.3658 17.106 24.691 15.6077 23.8869 14.5578C23.6563 14.257 23.4021 13.9797 23.1301 13.7084M16.6381 17.572C16.5967 17.6074 16.5198 17.6487 16.4607 17.7076C15.3728 18.7871 13.8355 19.8194 13.3802 21.3589C12.8895 23.0282 13.8355 24.7683 15.3964 25.4525C16.6144 25.9893 17.8029 25.718 18.6661 25.0337C20.0437 23.9425 20.6232 21.8013 19.2692 20.1969C18.471 19.2531 17.5131 18.445 16.6381 17.5779M18.1754 12.7292C18.1754 12.7292 18.1872 12.7174 18.1931 12.7056C18.3173 12.57 18.4296 12.4284 18.5301 12.2809C18.5419 12.2691 18.5478 12.2514 18.5597 12.2337C18.5833 12.1924 18.607 12.1571 18.6306 12.1158C19.1687 11.2133 19.2574 10.1574 18.7016 9.3965C18.4769 9.08977 18.2227 8.81253 17.9507 8.5412C17.5131 8.1106 17.0401 7.70359 16.6026 7.2612C16.5671 7.29069 8.62649 15.1771 8.62649 15.1771C7.56814 16.233 7.43806 17.8315 8.33677 18.7281L8.61467 19.0053C9.18819 19.5775 10.0514 19.7132 10.8142 19.5067C11.7779 19.2472 12.3987 18.4863 13.0787 17.8079C14.7579 16.1327 16.437 14.4575 18.1162 12.7823C18.134 12.7646 18.1517 12.741 18.1754 12.7174" fill="#2D51FF"></path><path id="Vector_2" d="M47.4131 15.8671C48.0872 15.8671 48.643 15.7963 49.0805 15.6606C49.518 15.5249 49.8669 15.3362 50.127 15.0943C50.3872 14.8525 50.5646 14.5576 50.6592 14.2037C50.7538 13.8497 50.8011 13.4663 50.8011 13.0534C50.8011 12.6405 50.7479 12.2453 50.6473 11.9209C50.5468 11.5965 50.3635 11.3192 50.1034 11.0951C49.8432 10.8709 49.4944 10.6999 49.0568 10.576C48.6193 10.458 48.0635 10.3931 47.3895 10.3931H44.652V15.8612H47.4191L47.4131 15.8671ZM40.8442 7.22559H47.4368C48.8499 7.22559 50.0147 7.38485 50.9371 7.70337C51.8594 8.0219 52.5926 8.4407 53.1365 8.96568C53.6805 9.49066 54.0589 10.0982 54.2718 10.7942C54.4846 11.4903 54.597 12.2158 54.597 12.9708C54.597 13.779 54.4905 14.5517 54.2718 15.2949C54.0589 16.0322 53.6746 16.6811 53.1365 17.2414C52.5926 17.8018 51.8712 18.2442 50.9666 18.5686C50.062 18.8931 48.9209 19.0582 47.5432 19.0582H44.646V25.6352H40.8442V7.22559Z" fill="#2D51FF"></path><path id="Vector_3" d="M61.4262 23.1637C62.4609 23.1637 63.2296 22.7921 63.7381 22.0548C64.2465 21.3174 64.5008 20.2557 64.5008 18.8813C64.5008 17.5069 64.2465 16.457 63.7381 15.7373C63.2296 15.0177 62.4609 14.652 61.4262 14.652C60.3915 14.652 59.6229 15.0118 59.1144 15.7373C58.6059 16.457 58.3517 17.5069 58.3517 18.8813C58.3517 20.2557 58.6 21.3351 59.1026 22.0666C59.6051 22.798 60.3797 23.1637 61.4262 23.1637ZM61.4262 26.054C59.2563 26.054 57.5712 25.4347 56.3828 24.196C55.1943 22.9573 54.5972 21.1877 54.5972 18.8813C54.5972 17.7842 54.7568 16.7873 55.0761 15.9025C55.3954 15.0177 55.8506 14.2686 56.4478 13.661C57.045 13.0535 57.7604 12.5816 58.6059 12.2572C59.4514 11.9327 60.3915 11.7676 61.4262 11.7676C62.4609 11.7676 63.4247 11.9327 64.2702 12.2572C65.1157 12.5816 65.8311 13.0535 66.4283 13.661C67.0255 14.2745 67.4748 15.0177 67.7882 15.9025C68.1016 16.7873 68.2553 17.7842 68.2553 18.8813C68.2553 19.9785 68.0956 20.9989 67.7764 21.8837C67.4571 22.7685 67.0018 23.5235 66.4046 24.1429C65.8075 24.7622 65.092 25.2341 64.2465 25.5585C63.401 25.883 62.4609 26.0481 61.4262 26.0481" fill="#2D51FF"></path><path id="Vector_4" d="M69.1362 12.1807H72.7547V20.5862C72.7547 21.5477 72.9262 22.1966 73.2751 22.5328C73.618 22.869 74.091 23.0342 74.6941 23.0342C75.1612 23.0342 75.5455 22.9634 75.847 22.8277C76.1486 22.692 76.4383 22.4915 76.7162 22.2319C76.9941 21.9901 77.2129 21.7011 77.3725 21.3707C77.538 21.0345 77.6208 20.6688 77.6208 20.2736V12.1748H81.2393V25.6354H77.7213V23.7774C77.1715 24.5678 76.5447 25.1459 75.847 25.5057C75.1494 25.8655 74.4044 26.0484 73.6121 26.0484C72.0748 26.0484 70.9514 25.6472 70.2241 24.8509C69.5028 24.0487 69.1362 22.7923 69.1362 21.0699V12.1748V12.1807Z" fill="#2D51FF"></path><path id="Vector_5" d="M90.9064 12.0038C90.865 11.9979 90.8236 11.992 90.7763 11.9861C90.5516 11.9625 90.2678 11.9448 89.9249 11.9448C89.2154 11.9448 88.5472 12.1218 87.9087 12.4757C87.2701 12.8296 86.7261 13.3546 86.2768 14.0624V12.1808H82.7588V25.6414H86.3773V17.8552C86.3773 17.4954 86.4483 17.1415 86.5961 16.7994C86.7439 16.4573 86.9686 16.1446 87.2819 15.8733C87.5716 15.6138 87.9028 15.4368 88.2634 15.3424C88.6241 15.2481 89.0025 15.2009 89.3986 15.2009C89.9899 15.2009 90.4925 15.2481 90.9004 15.3483V12.0038H90.9064Z" fill="#2D51FF"></path><path id="Vector_6" d="M92.5088 7.22559H97.1324L101.738 20.9753L106.468 7.22559H110.968V25.6411H107.426V13.366L103.211 25.6411H100.213L95.9736 13.3896V25.6411H92.5088V7.22559Z" fill="#2D51FF"></path><path id="Vector_7" d="M122.214 12.1807L119.269 21.0286L116.118 12.1807H111.932L117.543 25.0514L117.129 26.184C116.922 26.7679 116.674 27.175 116.378 27.4109C116.082 27.6409 115.698 27.7589 115.213 27.7589C114.699 27.7589 114.19 27.6881 113.688 27.5525V30.4015C113.96 30.4664 114.22 30.5254 114.474 30.5608C114.912 30.6197 115.355 30.6492 115.804 30.6492C116.526 30.6492 117.135 30.5549 117.625 30.3661C118.116 30.1773 118.536 29.8883 118.891 29.5049C119.246 29.1156 119.559 28.6378 119.837 28.0597C120.115 27.4817 120.404 26.8092 120.718 26.0365L126.175 12.1866H122.22L122.214 12.1807Z" fill="#2D51FF"></path><path id="Vector_8" d="M134.068 22.621C134.707 22.621 135.239 22.562 135.659 22.4381C136.079 22.3201 136.422 22.1432 136.682 21.9072C136.942 21.6772 137.119 21.4059 137.226 21.0932C137.326 20.7865 137.38 20.4326 137.38 20.0374C137.38 19.247 137.161 18.6453 136.735 18.2324C136.303 17.8195 135.547 17.6131 134.459 17.6131H130.84V22.6151H134.068V22.621ZM134.199 14.5222C135.216 14.5222 135.913 14.3334 136.292 13.9559C136.67 13.5784 136.859 13.0357 136.859 12.3279C136.859 11.5729 136.611 11.0361 136.12 10.7176C135.629 10.399 134.796 10.2398 133.625 10.2398H130.834V14.5222H134.193H134.199ZM127.115 7.22559H133.761C135.121 7.22559 136.244 7.35536 137.137 7.61489C138.024 7.87443 138.728 8.22245 139.242 8.67075C139.762 9.11904 140.117 9.64402 140.318 10.2457C140.513 10.8473 140.614 11.5021 140.614 12.204C140.614 12.906 140.46 13.6079 140.147 14.239C139.839 14.8761 139.248 15.4188 138.391 15.8671C138.94 16.1561 139.396 16.4628 139.75 16.7813C140.105 17.0999 140.383 17.442 140.578 17.8018C140.779 18.1616 140.915 18.5332 140.992 18.9107C141.069 19.2883 141.11 19.6658 141.11 20.0433C141.11 20.816 140.992 21.5474 140.762 22.2376C140.531 22.9277 140.141 23.5176 139.597 24.0189C139.053 24.5203 138.343 24.9155 137.462 25.2046C136.581 25.4995 135.499 25.6411 134.204 25.6411H127.121V7.22559H127.115Z" fill="#2D51FF"></path><path id="Vector_9" d="M151.552 17.4126C151.552 16.4865 151.321 15.761 150.866 15.2478C150.411 14.7346 149.695 14.4751 148.731 14.4751C148.247 14.4751 147.827 14.5518 147.466 14.7051C147.105 14.8585 146.798 15.0708 146.55 15.3363C146.301 15.6017 146.106 15.9143 145.97 16.2624C145.834 16.6163 145.757 16.9997 145.74 17.4126H151.558H151.552ZM154.886 21.4355C154.644 22.9514 154.035 24.0957 153.065 24.8802C152.09 25.6648 150.671 26.0541 148.814 26.0541C146.573 26.0541 144.888 25.4347 143.759 24.196C142.63 22.9573 142.068 21.2054 142.068 18.9344C142.068 17.8019 142.233 16.7873 142.559 15.9025C142.884 15.0178 143.345 14.2627 143.942 13.6434C144.539 13.024 145.249 12.558 146.077 12.2395C146.904 11.921 147.821 11.7617 148.82 11.7617C150.889 11.7617 152.444 12.3575 153.485 13.5431C154.526 14.7287 155.052 16.3272 155.052 18.3387V19.7838H145.692C145.728 20.8692 146 21.7127 146.52 22.3261C147.034 22.9396 147.815 23.2404 148.844 23.2404C150.275 23.2404 151.12 22.6388 151.38 21.4355H154.898H154.886Z" fill="#2D51FF"></path><path id="Vector_10" d="M154.75 12.1807H158.943L161.964 21.5418L164.991 12.1807H169L163.673 25.6413H160.054L154.75 12.1807Z" fill="#2D51FF"></path></g></svg>