<svg width="24" height="24" viewBox="0 0 24 24" fill="none" xmlns="http://www.w3.org/2000/svg">
<path fill-rule="evenodd" clip-rule="evenodd" d="M11.4773 1.33636C11.8196 1.24368 12.1804 1.24368 12.5227 1.33636C12.9201 1.44395 13.2546 1.7066 13.5216 1.91624C13.5471 1.93625 13.572 1.95578 13.5963 1.97465L20.3786 7.24977C20.4047 7.27008 20.4306 7.29019 20.4563 7.31013C20.8329 7.60241 21.1647 7.85991 21.412 8.19421C21.629 8.48759 21.7906 8.8181 21.889 9.1695C22.0011 9.56992 22.0006 9.98993 22.0001 10.4667C22.0001 10.4992 22 10.532 22 10.5651V17.8386C22 18.3657 22.0001 18.8204 21.9694 19.195C21.9371 19.5904 21.8658 19.9836 21.673 20.362C21.3854 20.9264 20.9265 21.3854 20.362 21.673C19.9836 21.8658 19.5904 21.9371 19.195 21.9694C18.8205 22 18.3657 22 17.8386 22H15.8C15.7924 22 15.7847 22 15.7769 22C15.6578 22 15.5155 22.0001 15.3902 21.9899C15.245 21.978 15.037 21.9475 14.819 21.8365C14.5368 21.6927 14.3073 21.4632 14.1635 21.181C14.0525 20.963 14.022 20.755 14.0101 20.6098C13.9999 20.4845 14 20.3422 14 20.2231L14 13.6C14 13.3035 13.9992 13.1412 13.9897 13.0246C13.9893 13.02 13.989 13.0156 13.9886 13.0114C13.9844 13.011 13.98 13.0107 13.9754 13.0103C13.8588 13.0008 13.6965 13 13.4 13H10.6C10.3035 13 10.1412 13.0008 10.0247 13.0103C10.02 13.0107 10.0156 13.011 10.0115 13.0114C10.0111 13.0156 10.0107 13.02 10.0103 13.0246C10.0008 13.1412 10 13.3035 10 13.6L10 20.2231C10.0001 20.3422 10.0001 20.4845 9.98988 20.6098C9.97802 20.755 9.94758 20.963 9.83653 21.181C9.69272 21.4632 9.46325 21.6927 9.181 21.8365C8.96306 21.9475 8.75507 21.978 8.60985 21.9899C8.48453 22.0001 8.34228 22 8.22317 22C8.21535 22 8.20763 22 8.20002 22H6.16145C5.63431 22 5.17956 22 4.80499 21.9694C4.40964 21.9371 4.01643 21.8658 3.63805 21.673C3.07356 21.3854 2.61462 20.9264 2.327 20.362C2.1342 19.9836 2.06289 19.5904 2.03059 19.195C1.99998 18.8204 2 18.3657 2.00002 17.8385L2.00002 10.5651C2.00002 10.532 1.99998 10.4992 1.99995 10.4667C1.99943 9.98993 1.99898 9.56992 2.11106 9.1695C2.20942 8.8181 2.37107 8.48759 2.58806 8.19421C2.83532 7.85991 3.16713 7.6024 3.54377 7.31012C3.56946 7.29018 3.59537 7.27007 3.62147 7.24977L10.4038 1.97465C10.428 1.95578 10.4529 1.93625 10.4784 1.91623C10.7454 1.7066 11.08 1.44395 11.4773 1.33636Z" fill="black"/>
</svg>
