<svg width="56" height="56" viewBox="0 0 56 56" fill="none" xmlns="http://www.w3.org/2000/svg">
<rect width="56" height="56" rx="28" fill="black"/>
<path fill-rule="evenodd" clip-rule="evenodd" d="M28 17.3334C28.7364 17.3334 29.3333 17.9303 29.3333 18.6667V26.6667H37.3333C38.0697 26.6667 38.6666 27.2637 38.6666 28C38.6666 28.7364 38.0697 29.3334 37.3333 29.3334H29.3333V37.3334C29.3333 38.0698 28.7364 38.6667 28 38.6667C27.2636 38.6667 26.6666 38.0698 26.6666 37.3334V29.3334H18.6666C17.9303 29.3334 17.3333 28.7364 17.3333 28C17.3333 27.2637 17.9303 26.6667 18.6666 26.6667H26.6666V18.6667C26.6666 17.9303 27.2636 17.3334 28 17.3334Z" fill="white"/>
</svg>
