<svg width="20" height="20" viewBox="0 0 20 20" fill="none" xmlns="http://www.w3.org/2000/svg">
<path fill-rule="evenodd" clip-rule="evenodd" d="M12.4596 3.00373C12.3147 3.05518 12.1193 3.14446 11.79 3.29646L6.29368 5.83323L12.4995 5.83323V3.75044C12.4995 3.38773 12.4987 3.17289 12.4847 3.01983C12.484 3.01126 12.4832 3.00328 12.4824 2.99584C12.4753 2.99823 12.4677 3.00085 12.4596 3.00373ZM14.1662 5.83323L14.1662 3.71662C14.1662 3.39923 14.1663 3.1066 14.1445 2.86829C14.122 2.62134 14.0683 2.30979 13.8742 2.02659C13.6191 1.65444 13.2239 1.40163 12.7791 1.32594C12.4406 1.26834 12.1353 1.35021 11.9016 1.43323C11.6761 1.51334 11.4104 1.63599 11.1223 1.76902L3.6995 5.19492C3.66675 5.21004 3.63426 5.22498 3.60204 5.2398C3.13803 5.45319 2.73014 5.64078 2.41884 5.94501C2.14628 6.21139 1.93823 6.53656 1.81059 6.89566C1.66481 7.30579 1.66542 7.75476 1.66611 8.26548C1.66616 8.30095 1.66621 8.33671 1.66621 8.37278V9.23679C1.6662 9.25809 1.66621 9.27952 1.66621 9.30111L1.66621 14.8653C1.66619 15.3046 1.66618 15.6836 1.69168 15.9957C1.7186 16.3252 1.77803 16.6529 1.93869 16.9682C2.17837 17.4386 2.56082 17.8211 3.03123 18.0607C3.34655 18.2214 3.67423 18.2808 4.00368 18.3078C4.31582 18.3333 4.69479 18.3332 5.13407 18.3332H14.865C15.3043 18.3332 15.6833 18.3333 15.9954 18.3078C16.3248 18.2808 16.6525 18.2214 16.9678 18.0607C17.4383 17.8211 17.8207 17.4386 18.0604 16.9682C18.2211 16.6529 18.2805 16.3252 18.3074 15.9957C18.3329 15.6836 18.3329 15.3046 18.3329 14.8654V9.30109C18.3329 8.86181 18.3329 8.48284 18.3074 8.1707C18.2805 7.84125 18.2211 7.51357 18.0604 7.19825C17.8207 6.72785 17.4383 6.3454 16.9678 6.10571C16.6525 5.94505 16.3249 5.88562 15.9954 5.8587C15.6833 5.8332 15.3043 5.83321 14.865 5.83323L14.1662 5.83323ZM5.16621 7.49989C4.68575 7.49989 4.37552 7.50054 4.1394 7.51983C3.91302 7.53833 3.82908 7.56973 3.78788 7.59072C3.63108 7.67062 3.5036 7.7981 3.4237 7.9549C3.40271 7.99611 3.37131 8.08004 3.35281 8.30642C3.33352 8.54254 3.33287 8.85277 3.33287 9.33323V12.4999C3.33287 12.4998 3.33287 12.5 3.33287 12.4999L3.33287 14.8332C3.33287 15.3137 3.33352 15.6239 3.35281 15.86C3.37131 16.0864 3.40271 16.1703 3.4237 16.2115C3.5036 16.3684 3.63108 16.4958 3.78788 16.5757C3.82908 16.5967 3.91302 16.6281 4.1394 16.6466C4.37552 16.6659 4.68575 16.6666 5.16621 16.6666H14.8329C15.3133 16.6666 15.6236 16.6659 15.8597 16.6466C16.0861 16.6281 16.17 16.5967 16.2112 16.5757C16.368 16.4958 16.4955 16.3684 16.5754 16.2116C16.5964 16.1703 16.6278 16.0864 16.6463 15.86C16.6656 15.6239 16.6662 15.3137 16.6662 14.8332V9.33323C16.6662 8.85277 16.6656 8.54254 16.6463 8.30642C16.6278 8.08004 16.5964 7.99611 16.5754 7.9549C16.4955 7.7981 16.368 7.67062 16.2112 7.59072C16.17 7.56973 16.0861 7.53833 15.8597 7.51983C15.6236 7.50054 15.3133 7.4999 14.8329 7.4999L5.16621 7.49989ZM12.4995 12.0832C12.4995 11.3929 13.0592 10.8332 13.7495 10.8332C14.4399 10.8332 14.9995 11.3929 14.9995 12.0832C14.9995 12.7736 14.4399 13.3332 13.7495 13.3332C13.0592 13.3332 12.4995 12.7736 12.4995 12.0832Z" fill="#6C6E6F"/>
</svg>
