<svg width="28" height="28" viewBox="0 0 28 28" fill="none" xmlns="http://www.w3.org/2000/svg">
    <circle cx="14" cy="14" r="14" fill="#FAB514"/>
    <g id="Icon/alert--custom">
        <g id="Icon (Stroke)_2">
            <path d="M13.9993 7.63623C14.7022 7.63623 15.272 8.20605 15.272 8.90896V13.9999C15.272 14.7028 14.7022 15.2726 13.9993 15.2726C13.2964 15.2726 12.7266 14.7028 12.7266 13.9999V8.90896C12.7266 8.20605 13.2964 7.63623 13.9993 7.63623Z" fill="#634308"/>
            <path d="M12.7266 19.0908C12.7266 18.3879 13.2964 17.818 13.9993 17.818H14.012C14.7149 17.818 15.2847 18.3879 15.2847 19.0908C15.2847 19.7937 14.7149 20.3635 14.012 20.3635H13.9993C13.2964 20.3635 12.7266 19.7937 12.7266 19.0908Z" fill="#634308"/>
        </g>
    </g>
</svg>