<svg width="32" height="32" viewBox="0 0 32 32" fill="none" xmlns="http://www.w3.org/2000/svg">
<g id="Icon/alert-triangle">
<g id="Icon (Stroke)">
<path fill-rule="evenodd" clip-rule="evenodd" d="M15.3073 5.85667C15.6235 5.31049 15.8156 4.9815 15.9728 4.75957C15.9823 4.74612 15.9912 4.73371 15.9997 4.72227C16.0081 4.73371 16.0171 4.74612 16.0266 4.75957C16.1838 4.9815 16.3758 5.31048 16.692 5.85666L27.6585 24.7988C27.9758 25.3469 28.1663 25.6786 28.281 25.9265C28.288 25.9416 28.2943 25.9556 28.3001 25.9687C28.2859 25.9703 28.2705 25.9718 28.254 25.9734C27.982 25.9983 27.5995 25.9997 26.9662 25.9997H5.03316C4.39986 25.9997 4.01732 25.9983 3.74537 25.9734C3.72884 25.9718 3.71348 25.9703 3.69926 25.9687C3.70503 25.9556 3.71137 25.9416 3.71834 25.9265C3.83301 25.6786 4.02351 25.3469 4.34082 24.7988L15.3073 5.85667ZM15.9997 10.6663C16.7361 10.6663 17.333 11.2633 17.333 11.9997V17.333C17.333 18.0694 16.7361 18.6663 15.9997 18.6663C15.2633 18.6663 14.6663 18.0694 14.6663 17.333V11.9997C14.6663 11.2633 15.2633 10.6663 15.9997 10.6663ZM14.6663 22.6663C14.6663 21.9299 15.2633 21.333 15.9997 21.333H16.013C16.7494 21.333 17.3463 21.9299 17.3463 22.6663C17.3463 23.4027 16.7494 23.9997 16.013 23.9997H15.9997C15.2633 23.9997 14.6663 23.4027 14.6663 22.6663Z" fill="#CF292C"/>
<path fill-rule="evenodd" clip-rule="evenodd" d="M17.0831 2.22417C16.3934 1.91747 15.606 1.91746 14.9162 2.22417C14.3835 2.46104 14.0375 2.87826 13.7967 3.21823C13.5599 3.55248 13.3064 3.99038 13.0277 4.47197L2.00482 23.5114L1.29812 24.8068C1.12286 25.1857 0.932718 25.6949 0.993316 26.2762C1.07173 27.0283 1.46578 27.7118 2.0774 28.1565C2.55006 28.5001 3.08606 28.5907 3.50174 28.6289C3.91075 28.6664 4.41831 28.6664 4.97685 28.6663H27.0225C27.581 28.6664 28.0886 28.6664 28.4976 28.6289C28.9133 28.5907 29.4493 28.5001 29.9219 28.1565C30.5336 27.7118 30.9276 27.0283 31.006 26.2762C31.0666 25.6949 30.8765 25.1857 30.7012 24.8068C30.5288 24.4341 30.2744 23.9948 29.9945 23.5114L18.9717 4.47193C18.6929 3.99035 18.4394 3.55247 18.2027 3.21823C17.9619 2.87826 17.6158 2.46104 17.0831 2.22417ZM15.9728 4.75957C15.8156 4.9815 15.6235 5.31049 15.3073 5.85667L4.34082 24.7988C4.02351 25.3469 3.83301 25.6786 3.71834 25.9265C3.71137 25.9416 3.70503 25.9556 3.69926 25.9687C3.71348 25.9703 3.72884 25.9718 3.74537 25.9734C4.01732 25.9983 4.39986 25.9997 5.03316 25.9997H26.9662C27.5995 25.9997 27.982 25.9983 28.254 25.9734C28.2705 25.9718 28.2859 25.9703 28.3001 25.9687C28.2943 25.9556 28.288 25.9416 28.281 25.9265C28.1663 25.6786 27.9758 25.3469 27.6585 24.7988L16.692 5.85666C16.3758 5.31048 16.1838 4.9815 16.0266 4.75957C16.0171 4.74612 16.0081 4.73371 15.9997 4.72227C15.9912 4.73371 15.9823 4.74612 15.9728 4.75957Z" fill="#CF292C"/>
<path fill-rule="evenodd" clip-rule="evenodd" d="M15.9728 4.75957C15.8156 4.9815 15.6235 5.31049 15.3073 5.85667L4.34082 24.7988C4.02351 25.3469 3.83301 25.6786 3.71834 25.9265C3.71137 25.9416 3.70503 25.9556 3.69926 25.9687C3.71348 25.9703 3.72884 25.9718 3.74537 25.9734C4.01732 25.9983 4.39986 25.9997 5.03316 25.9997H26.9662C27.5995 25.9997 27.982 25.9983 28.254 25.9734C28.2705 25.9718 28.2859 25.9703 28.3001 25.9687C28.2943 25.9556 28.288 25.9416 28.281 25.9265C28.1663 25.6786 27.9758 25.3469 27.6585 24.7988L16.692 5.85666C16.3758 5.31048 16.1838 4.9815 16.0266 4.75957C16.0171 4.74612 16.0081 4.73371 15.9997 4.72227C15.9912 4.73371 15.9823 4.74612 15.9728 4.75957ZM17.333 11.9997C17.333 11.2633 16.7361 10.6663 15.9997 10.6663C15.2633 10.6663 14.6663 11.2633 14.6663 11.9997V17.333C14.6663 18.0694 15.2633 18.6663 15.9997 18.6663C16.7361 18.6663 17.333 18.0694 17.333 17.333V11.9997ZM14.6663 22.6663C14.6663 21.9299 15.2633 21.333 15.9997 21.333H16.013C16.7494 21.333 17.3463 21.9299 17.3463 22.6663C17.3463 23.4027 16.7494 23.9997 16.013 23.9997H15.9997C15.2633 23.9997 14.6663 23.4027 14.6663 22.6663Z" fill="#CF292C"/>
</g>
</g>
</svg>
