<svg width="30" height="29" viewBox="0 0 30 29" fill="none" xmlns="http://www.w3.org/2000/svg">
<path d="M15 28.5C9.96875 28.5 5.375 25.875 2.85938 21.5C0.34375 17.1797 0.34375 11.875 2.85938 7.5C5.375 3.17969 9.96875 0.5 15 0.5C19.9766 0.5 24.5703 3.17969 27.0859 7.5C29.6016 11.875 29.6016 17.1797 27.0859 21.5C24.5703 25.875 19.9766 28.5 15 28.5ZM12.8125 18.875C12.0469 18.875 11.5 19.4766 11.5 20.1875C11.5 20.9531 12.0469 21.5 12.8125 21.5H17.1875C17.8984 21.5 18.5 20.9531 18.5 20.1875C18.5 19.4766 17.8984 18.875 17.1875 18.875H16.75V14.0625C16.75 13.3516 16.1484 12.75 15.4375 12.75H12.8125C12.0469 12.75 11.5 13.3516 11.5 14.0625C11.5 14.8281 12.0469 15.375 12.8125 15.375H14.125V18.875H12.8125ZM15 7.5C14.0156 7.5 13.25 8.32031 13.25 9.25C13.25 10.2344 14.0156 11 15 11C15.9297 11 16.75 10.2344 16.75 9.25C16.75 8.32031 15.9297 7.5 15 7.5Z" fill="#2F54EB"/>
</svg>
