<svg width="20" height="20" viewBox="0 0 20 20" fill="none" xmlns="http://www.w3.org/2000/svg">
<path fill-rule="evenodd" clip-rule="evenodd" d="M9.62014 5.05977C8.40562 5.43648 7.12612 5.83333 5.83326 5.83333C4.97725 5.83333 4.21196 5.74238 3.56587 5.61824C3.12601 5.53372 2.83298 5.47777 2.62191 5.44987C2.58031 5.44437 2.54588 5.44054 2.51759 5.43792C2.51578 5.45626 2.51396 5.47783 2.51229 5.50299C2.50037 5.68236 2.49992 5.9332 2.49992 6.32404L2.49992 15.281C2.49992 15.312 2.49996 15.3319 2.50017 15.3474C2.50202 15.3503 2.50393 15.3533 2.50589 15.3563C2.50785 15.3593 2.50978 15.3622 2.51169 15.365C2.94608 15.5491 3.92726 15.8333 5.83326 15.8333C7.36412 15.8333 8.71795 15.452 10.0674 15.0368C10.171 15.005 10.2751 14.9727 10.3797 14.9402C11.5942 14.5635 12.8737 14.1667 14.1666 14.1667C15.0226 14.1667 15.7879 14.2576 16.434 14.3818C16.8738 14.4663 17.1669 14.5222 17.3779 14.5501C17.4195 14.5556 17.454 14.5595 17.4823 14.5621C17.4841 14.5437 17.4859 14.5222 17.4876 14.497C17.4995 14.3176 17.4999 14.0668 17.4999 13.676V4.71895C17.4999 4.68797 17.4999 4.66812 17.4997 4.65263C17.4978 4.64971 17.4959 4.64674 17.494 4.64372C17.492 4.64073 17.4901 4.6378 17.4882 4.63495C17.0538 4.45088 16.0726 4.16667 14.1666 4.16667C12.6357 4.16667 11.2819 4.54795 9.9325 4.96315C9.82888 4.99503 9.72475 5.02733 9.62014 5.05977ZM17.581 14.5669C17.5828 14.5667 17.5839 14.5667 17.5841 14.5667L17.581 14.5669ZM2.41891 5.43308C2.41686 5.43328 2.41578 5.43332 2.41575 5.4333L2.41891 5.43308ZM9.44235 3.37018C10.8013 2.95205 12.3641 2.5 14.1666 2.5C16.2879 2.5 17.5132 2.82409 18.1963 3.12542C18.1983 3.12629 18.2005 3.12725 18.2029 3.1283C18.239 3.14413 18.3218 3.1804 18.4127 3.24003C18.5053 3.30084 18.5827 3.36935 18.6506 3.43412C18.7555 3.53428 18.8433 3.66171 18.8902 3.73359C18.937 3.80547 19.0182 3.9372 19.0675 4.07365C19.1667 4.34839 19.1666 4.54346 19.1666 4.70775L19.1666 13.7041C19.1666 14.0587 19.1666 14.3659 19.1506 14.6075C19.1356 14.833 19.1018 15.1483 18.9395 15.4265C18.8511 15.578 18.7358 15.738 18.5666 15.8778C18.3975 16.0175 18.2186 16.1005 18.0532 16.1587C17.7376 16.2698 17.3924 16.2332 17.1595 16.2024C16.8941 16.1673 16.5525 16.1017 16.1457 16.0235L16.1195 16.0185C15.5643 15.9118 14.9048 15.8333 14.1666 15.8333C13.1378 15.8333 12.0951 16.1552 10.8113 16.5516C10.7277 16.5773 10.6432 16.6035 10.5575 16.6298C9.19856 17.0479 7.63573 17.5 5.83326 17.5C3.71197 17.5 2.48662 17.1759 1.8035 16.8746C1.80153 16.8737 1.79934 16.8727 1.79694 16.8717C1.76083 16.8559 1.67804 16.8196 1.58716 16.76C1.4945 16.6992 1.41712 16.6306 1.34926 16.5659C1.2443 16.4657 1.15653 16.3383 1.10968 16.2664C1.06282 16.1945 0.981658 16.0628 0.932373 15.9263C0.83314 15.6516 0.833202 15.4565 0.833254 15.2922L0.833256 6.29588C0.833245 5.94132 0.833236 5.63407 0.849286 5.3925C0.864268 5.167 0.898058 4.85168 1.06039 4.57348C1.14876 4.42202 1.26405 4.26199 1.43321 4.12224C1.60236 3.98249 1.78128 3.89947 1.94669 3.84126C2.2623 3.7302 2.60742 3.76679 2.84032 3.79758C3.10578 3.83267 3.44739 3.89831 3.85414 3.97647L3.88035 3.98151C4.43558 4.08819 5.09506 4.16667 5.83326 4.16667C6.86207 4.16667 7.90479 3.84476 9.18856 3.44844C9.27212 3.42265 9.35669 3.39654 9.44235 3.37018ZM14.9999 6.66667C15.4602 6.66667 15.8333 7.03976 15.8333 7.5V10.8333C15.8333 11.2936 15.4602 11.6667 14.9999 11.6667C14.5397 11.6667 14.1666 11.2936 14.1666 10.8333V7.5C14.1666 7.03976 14.5397 6.66667 14.9999 6.66667ZM9.99992 8.75C9.30957 8.75 8.74992 9.30964 8.74992 10C8.74992 10.6904 9.30957 11.25 9.99992 11.25C10.6903 11.25 11.2499 10.6904 11.2499 10C11.2499 9.30964 10.6903 8.75 9.99992 8.75ZM7.08326 10C7.08326 8.38917 8.38909 7.08333 9.99992 7.08333C11.6108 7.08333 12.9166 8.38917 12.9166 10C12.9166 11.6108 11.6108 12.9167 9.99992 12.9167C8.38909 12.9167 7.08326 11.6108 7.08326 10ZM4.99992 8.33333C5.46016 8.33333 5.83326 8.70643 5.83326 9.16667V12.5C5.83326 12.9602 5.46016 13.3333 4.99992 13.3333C4.53969 13.3333 4.16659 12.9602 4.16659 12.5V9.16667C4.16659 8.70643 4.53969 8.33333 4.99992 8.33333Z" fill="#6C6E6F"/>
</svg>
