<svg width="20" height="20" viewBox="0 0 20 20" fill="none" xmlns="http://www.w3.org/2000/svg">
<path fill-rule="evenodd" clip-rule="evenodd" d="M6.66602 0.833008C7.12625 0.833008 7.49935 1.2061 7.49935 1.66634V2.49967H12.4993V1.66634C12.4993 1.2061 12.8724 0.833008 13.3327 0.833008C13.7929 0.833008 14.166 1.2061 14.166 1.66634V2.50103C14.5622 2.50375 14.9085 2.51194 15.2092 2.5365C15.6776 2.57477 16.1082 2.65691 16.5127 2.86299C17.1399 3.18256 17.6498 3.6925 17.9694 4.31971C18.1754 4.72415 18.2576 5.15474 18.2959 5.62315C18.3327 6.07414 18.3327 6.62777 18.3327 7.29857V14.3674C18.3327 15.0382 18.3327 15.5919 18.2959 16.0429C18.2576 16.5113 18.1754 16.9419 17.9694 17.3463C17.6498 17.9735 17.1399 18.4835 16.5127 18.803C16.1082 19.0091 15.6776 19.0912 15.2092 19.1295C14.7582 19.1664 14.2046 19.1664 13.5338 19.1663H6.46491C5.79411 19.1664 5.24049 19.1664 4.78949 19.1295C4.32108 19.0912 3.89049 19.0091 3.48605 18.803C2.85884 18.4835 2.34891 17.9735 2.02933 17.3463C1.82325 16.9419 1.74112 16.5113 1.70284 16.0429C1.666 15.5919 1.66601 15.0382 1.66602 14.3674V7.29859C1.66601 6.62778 1.666 6.07415 1.70284 5.62315C1.74112 5.15474 1.82325 4.72415 2.02933 4.31971C2.34891 3.6925 2.85884 3.18256 3.48605 2.86299C3.89049 2.65691 4.32108 2.57477 4.78949 2.5365C5.09017 2.51194 5.43646 2.50375 5.83268 2.50103V1.66634C5.83268 1.2061 6.20578 0.833008 6.66602 0.833008ZM5.83268 4.16781C5.46141 4.17042 5.16987 4.17764 4.92521 4.19763C4.55987 4.22748 4.37303 4.28159 4.2427 4.348C3.9291 4.50779 3.67413 4.76275 3.51434 5.07636C3.44793 5.20669 3.39383 5.39353 3.36398 5.75887C3.33333 6.13395 3.33268 6.61919 3.33268 7.33301V7.49967H16.666V7.33301C16.666 6.61919 16.6654 6.13395 16.6347 5.75887C16.6049 5.39353 16.5508 5.20669 16.4844 5.07636C16.3246 4.76275 16.0696 4.50779 15.756 4.348C15.6257 4.28159 15.4388 4.22748 15.0735 4.19763C14.8288 4.17764 14.5373 4.17042 14.166 4.16781V4.99967C14.166 5.45991 13.7929 5.83301 13.3327 5.83301C12.8724 5.83301 12.4993 5.45991 12.4993 4.99967V4.16634H7.49935V4.99967C7.49935 5.45991 7.12625 5.83301 6.66602 5.83301C6.20578 5.83301 5.83268 5.45991 5.83268 4.99967V4.16781ZM16.666 9.16634H3.33268V14.333C3.33268 15.0468 3.33333 15.5321 3.36398 15.9071C3.39383 16.2725 3.44793 16.4593 3.51434 16.5897C3.67413 16.9033 3.9291 17.1582 4.2427 17.318C4.37303 17.3844 4.55987 17.4385 4.92521 17.4684C5.30029 17.499 5.78553 17.4997 6.49935 17.4997H13.4993C14.2132 17.4997 14.6984 17.499 15.0735 17.4684C15.4388 17.4385 15.6257 17.3844 15.756 17.318C16.0696 17.1582 16.3246 16.9033 16.4844 16.5897C16.5508 16.4593 16.6049 16.2725 16.6347 15.9071C16.6654 15.5321 16.666 15.0468 16.666 14.333V9.16634Z" fill="#284B73"/>
</svg>
