<svg width="20" height="20" viewBox="0 0 20 20" fill="none" xmlns="http://www.w3.org/2000/svg">
<g clip-path="url(#clip0_6172_7279)">
<path fill-rule="evenodd" clip-rule="evenodd" d="M9.99998 0.833313C4.93737 0.833313 0.833313 4.93737 0.833313 9.99998C0.833313 15.0626 4.93737 19.1666 9.99998 19.1666C15.0626 19.1666 19.1666 15.0626 19.1666 9.99998C19.1666 4.93737 15.0626 0.833313 9.99998 0.833313ZM10.8333 6.66665C10.8333 6.20641 10.4602 5.83331 9.99998 5.83331C9.53974 5.83331 9.16665 6.20641 9.16665 6.66665V9.16665H6.66665C6.20641 9.16665 5.83331 9.53974 5.83331 9.99998C5.83331 10.4602 6.20641 10.8333 6.66665 10.8333H9.16665V13.3333C9.16665 13.7936 9.53974 14.1666 9.99998 14.1666C10.4602 14.1666 10.8333 13.7936 10.8333 13.3333V10.8333H13.3333C13.7936 10.8333 14.1666 10.4602 14.1666 9.99998C14.1666 9.53974 13.7936 9.16665 13.3333 9.16665H10.8333V6.66665Z" fill="#284B73"/>
</g>
<defs>
<clipPath id="clip0_6172_7279">
<rect width="20" height="20" fill="white"/>
</clipPath>
</defs>
</svg>
