<svg width="20" height="20" viewBox="0 0 20 20" fill="none" xmlns="http://www.w3.org/2000/svg">
<g clip-path="url(#clip0_4845_16378)">
<path fill-rule="evenodd" clip-rule="evenodd" d="M10.0007 2.5C5.85852 2.5 2.50065 5.85787 2.50065 10C2.50065 14.1421 5.85852 17.5 10.0007 17.5C14.1428 17.5 17.5007 14.1421 17.5007 10C17.5007 5.85787 14.1428 2.5 10.0007 2.5ZM0.833984 10C0.833984 4.93739 4.93804 0.833336 10.0007 0.833336C15.0633 0.833336 19.1673 4.93739 19.1673 10C19.1673 15.0626 15.0633 19.1667 10.0007 19.1667C4.93804 19.1667 0.833984 15.0626 0.833984 10ZM10.0007 4.16667C10.4609 4.16667 10.834 4.53977 10.834 5V9.48497L13.7067 10.9213C14.1183 11.1271 14.2852 11.6277 14.0793 12.0393C13.8735 12.451 13.373 12.6179 12.9613 12.412L9.62797 10.7454C9.34565 10.6042 9.16732 10.3156 9.16732 10V5C9.16732 4.53977 9.54041 4.16667 10.0007 4.16667Z" fill="#284B73"/>
</g>
<defs>
<clipPath id="clip0_4845_16378">
<rect width="20" height="20" fill="white"/>
</clipPath>
</defs>
</svg>
