<svg width="196" height="32" viewBox="0 0 196 32" fill="none" xmlns="http://www.w3.org/2000/svg">
<path d="M8.38163 9.48441C9.84589 8.66261 11.5293 8.18862 13.3193 8.18862C14.8293 8.18862 16.0865 8.441 17.1246 8.90884L18.9724 6.71124C17.2616 5.8679 15.3468 5.38159 13.3193 5.38159C10.7044 5.38159 8.27204 6.17261 6.23242 7.5238L8.38163 9.48133V9.48441Z" fill="#52C41A"/>
<path d="M21.5541 15.0335C21.9681 16.1107 22.1994 17.2834 22.1994 18.5084C22.1994 23.8301 17.9193 28.1576 12.6559 28.1576C7.39242 28.1576 3.11227 23.8301 3.11227 18.5084C3.11227 16.8987 3.48975 15.3813 4.14121 14.0209L2.47299 11.3185C1.13049 13.3837 0.342041 15.8553 0.342041 18.5084C0.342041 25.7414 6.16256 31.6294 13.3195 31.6294C20.4764 31.6294 26.2969 25.7445 26.2969 18.5084C26.2969 15.7229 25.4263 13.1437 23.959 11.0168L21.5571 15.0335H21.5541Z" fill="#52C41A"/>
<path d="M3.34034 8.72397L12.9418 24.2827C13.0848 24.5289 13.441 24.5289 13.5841 24.2827L27.5418 0.94001C27.767 0.549119 27.2404 0.164384 26.9421 0.499873L13.4989 16.4864C13.3649 16.6372 13.1396 16.6557 12.9874 16.5264L3.89439 8.24074C3.57475 7.97604 3.12725 8.36078 3.3373 8.72089L3.34034 8.72397Z" fill="#6A6C6E"/>
<path d="M41.9865 10.2782C42.6927 10.2782 43.4325 10.3459 44.2027 10.4814C44.9728 10.6168 45.6182 10.7953 46.1357 11.02L45.7826 12.7128C45.2468 12.522 44.6745 12.3681 44.0596 12.2481C43.4477 12.128 42.8419 12.0695 42.2422 12.0695C40.2756 12.0695 38.7413 12.6266 37.6424 13.7378C36.5434 14.8489 35.9894 16.4432 35.9894 18.5085C35.9894 20.5737 36.5404 22.165 37.6424 23.2792C38.7444 24.3934 40.2756 24.9474 42.2422 24.9474C42.8388 24.9474 43.4446 24.8889 44.0596 24.7689C44.6745 24.6488 45.2468 24.495 45.7826 24.3041L46.1357 25.997C45.6152 26.2216 44.9728 26.4002 44.2027 26.5356C43.4325 26.671 42.6927 26.7387 41.9865 26.7387C40.6957 26.7387 39.545 26.5325 38.5313 26.117C37.5176 25.7046 36.6622 25.1321 35.9711 24.3995C35.2801 23.667 34.7473 22.8021 34.379 21.7987C34.0076 20.7984 33.825 19.6996 33.825 18.5085C33.825 17.3173 34.0076 16.2185 34.379 15.2151C34.7473 14.2148 35.2801 13.3469 35.9711 12.6143C36.6622 11.8849 37.5176 11.3124 38.5313 10.8969C39.545 10.4844 40.6988 10.2751 41.9865 10.2751V10.2782Z" fill="#6A6C6E"/>
<path d="M55.174 26.7356C53.9472 26.7356 52.8543 26.514 51.8954 26.0677C50.9364 25.6214 50.1328 25.0274 49.4904 24.2794C48.8451 23.5315 48.355 22.6574 48.014 21.6571C47.6761 20.6537 47.5056 19.6041 47.5056 18.5084C47.5056 17.4127 47.6761 16.3601 48.014 15.3598C48.3519 14.3594 48.8451 13.4853 49.4904 12.7374C50.1358 11.9895 50.9364 11.3924 51.8954 10.9491C52.8543 10.5029 53.9472 10.2812 55.174 10.2812C56.4008 10.2812 57.4937 10.5029 58.4526 10.9491C59.4115 11.3954 60.2152 11.9926 60.8605 12.7374C61.5059 13.4853 61.996 14.3594 62.337 15.3598C62.6749 16.3631 62.8423 17.4127 62.8423 18.5084C62.8423 19.6041 62.6718 20.6537 62.337 21.6571C61.9991 22.6574 61.5059 23.5315 60.8605 24.2794C60.2152 25.0274 59.4146 25.6245 58.4526 26.0677C57.4937 26.514 56.4008 26.7356 55.174 26.7356ZM55.174 24.972C56.072 24.972 56.8665 24.8058 57.5576 24.4703C58.2486 24.1379 58.824 23.6762 59.2806 23.0883C59.7372 22.5004 60.0843 21.811 60.3187 21.0261C60.5561 20.2382 60.6718 19.401 60.6718 18.5084C60.6718 17.6158 60.5561 16.7787 60.3187 15.9907C60.0812 15.2028 59.7372 14.5195 59.2806 13.9408C58.824 13.3591 58.2517 12.9005 57.5576 12.5558C56.8665 12.2142 56.072 12.0418 55.174 12.0418C54.2759 12.0418 53.4844 12.2142 52.7904 12.5558C52.0993 12.8974 51.524 13.3591 51.0673 13.9408C50.6107 14.5226 50.2667 15.2059 50.0293 15.9907C49.7918 16.7787 49.6761 17.6158 49.6761 18.5084C49.6761 19.401 49.7949 20.2382 50.0293 21.0261C50.2667 21.8141 50.6107 22.5004 51.0673 23.0883C51.524 23.6762 52.0963 24.1379 52.7904 24.4703C53.4814 24.8058 54.2759 24.972 55.174 24.972Z" fill="#6A6C6E"/>
<path d="M75.485 10.5645H77.6555V20.82C77.6555 21.6479 77.5215 22.4235 77.2536 23.1468C76.9858 23.8701 76.5931 24.498 76.0725 25.0305C75.5519 25.563 74.9127 25.9816 74.1516 26.2832C73.3875 26.5848 72.5047 26.7356 71.4971 26.7356C70.4894 26.7356 69.6066 26.5848 68.8425 26.2832C68.0784 25.9816 67.4391 25.563 66.9216 25.0305C66.4011 24.498 66.0084 23.8701 65.7405 23.1468C65.4726 22.4235 65.3386 21.6479 65.3386 20.82V10.5645H67.5091V20.9154C67.5091 22.1065 67.844 23.076 68.5107 23.824C69.1804 24.5719 70.1728 24.9443 71.494 24.9443C72.8152 24.9443 73.8106 24.5719 74.4804 23.824C75.1501 23.076 75.4819 22.1065 75.4819 20.9154V10.5645H75.485Z" fill="#6A6C6E"/>
<path d="M83.1532 26.4494H80.9827V10.5645H85.0649C85.9143 10.5645 86.7058 10.6599 87.4364 10.8507C88.167 11.0415 88.8093 11.3247 89.3573 11.6971C89.9083 12.0695 90.3406 12.5405 90.6541 13.1037C90.9677 13.667 91.126 14.3164 91.126 15.0458C91.126 16.1416 90.7759 17.0988 90.0757 17.9083C89.3755 18.7208 88.3953 19.3087 87.1381 19.675L92.6815 26.4494H90.0148L84.8945 20.0566C84.8153 20.0566 84.6996 20.0597 84.5413 20.0689C84.383 20.0782 84.2187 20.0813 84.0451 20.0813H83.1471V26.4494H83.1532ZM88.9554 15.0951C88.9554 14.6026 88.8489 14.1779 88.6358 13.8178C88.4227 13.4607 88.1365 13.1745 87.7743 12.959C87.412 12.7436 86.995 12.5866 86.5231 12.482C86.0513 12.3773 85.5551 12.325 85.0376 12.325H83.1501V18.3115H84.2339C84.8945 18.3115 85.5124 18.2468 86.0848 18.1206C86.6601 17.9945 87.1594 17.7975 87.5825 17.5359C88.0056 17.2742 88.3405 16.9387 88.584 16.5325C88.8276 16.1293 88.9494 15.646 88.9494 15.0889L88.9554 15.0951Z" fill="#6A6C6E"/>
<path d="M103.939 10.5645V12.3527H99.3149V26.4494H97.1444V12.3527H92.5203V10.5645H103.939Z" fill="#6A6C6E"/>
<path d="M117.866 15.4057C117.866 16.5353 117.55 17.4864 116.923 18.2558C116.296 19.0253 115.388 19.6193 114.21 20.0318L119.519 26.4491H115.416L110.862 20.6535H109.799V26.4491H106.496V10.5642H111.191C112.165 10.5642 113.063 10.6627 113.882 10.8628C114.7 11.0628 115.404 11.3645 115.994 11.7707C116.582 12.177 117.041 12.6818 117.373 13.2851C117.702 13.8914 117.869 14.5962 117.869 15.4088L117.866 15.4057ZM114.563 15.4765C114.563 14.667 114.25 14.0791 113.62 13.7129C112.99 13.3466 112.171 13.165 111.166 13.165H109.796V18.1266H110.786C111.918 18.1266 112.831 17.905 113.522 17.4587C114.213 17.0124 114.56 16.3537 114.56 15.4796L114.563 15.4765Z" fill="#52C41A"/>
<path d="M120.932 10.5646H130.369V13.2116H124.235V17.0497H130.086V19.6967H124.235V23.7995H130.439V26.4465H120.932V10.5615V10.5646Z" fill="#52C41A"/>
<path d="M143.085 21.9189C143.085 22.6175 142.945 23.2639 142.662 23.8518C142.378 24.4396 141.98 24.9506 141.471 25.3784C140.96 25.8093 140.342 26.1417 139.62 26.3818C138.896 26.6188 138.095 26.7388 137.212 26.7388C136.378 26.7388 135.541 26.6465 134.701 26.4649C133.861 26.2833 133.084 26.0155 132.378 25.6646L133.063 23.1131C133.629 23.3839 134.263 23.6148 134.963 23.8056C135.663 23.9964 136.381 24.0918 137.121 24.0918C137.906 24.0918 138.549 23.9287 139.042 23.6025C139.538 23.2762 139.785 22.8022 139.785 22.1836C139.785 21.6111 139.547 21.1432 139.078 20.777C138.607 20.4107 137.882 20.029 136.908 19.632C136.217 19.3458 135.602 19.0472 135.066 18.7363C134.53 18.4255 134.083 18.0807 133.721 17.6991C133.358 17.3174 133.078 16.8927 132.884 16.4218C132.686 15.9509 132.588 15.4245 132.588 14.8367C132.588 13.3747 133.078 12.2482 134.065 11.4602C135.048 10.6723 136.363 10.2783 138.016 10.2783C138.865 10.2783 139.645 10.3583 140.351 10.5184C141.057 10.6784 141.742 10.9308 142.403 11.2817L141.788 13.8333C141.237 13.5624 140.658 13.3439 140.053 13.1777C139.447 13.0115 138.829 12.9284 138.202 12.9284C137.511 12.9284 136.951 13.0576 136.527 13.3223C136.104 13.584 135.891 13.9933 135.891 14.5504C135.891 14.8059 135.928 15.0275 135.998 15.2183C136.068 15.4091 136.199 15.5877 136.387 15.7539C136.576 15.9232 136.823 16.0894 137.13 16.2556C137.438 16.4218 137.824 16.6095 138.299 16.8157C138.926 17.0866 139.529 17.3728 140.104 17.6745C140.68 17.9761 141.185 18.327 141.626 18.724C142.068 19.1211 142.421 19.5828 142.689 20.106C142.957 20.6323 143.088 21.2356 143.088 21.9189H143.085Z" fill="#52C41A"/>
<path d="M145.28 10.5646H154.717V13.2116H148.583V17.0497H154.433V19.6967H148.583V23.7995H154.787V26.4465H145.28V10.5615V10.5646Z" fill="#52C41A"/>
<path d="M168.802 15.4057C168.802 16.5353 168.485 17.4864 167.858 18.2558C167.228 19.0253 166.324 19.6193 165.146 20.0318L170.455 26.4491H166.351L161.797 20.6535H160.735V26.4491H157.432V10.5642H162.126C163.1 10.5642 163.998 10.6627 164.817 10.8628C165.636 11.0628 166.339 11.3645 166.93 11.7707C167.52 12.177 167.98 12.6818 168.309 13.2851C168.638 13.8914 168.805 14.5962 168.805 15.4088L168.802 15.4057ZM165.499 15.4765C165.499 14.667 165.185 14.0791 164.555 13.7129C163.925 13.3466 163.109 13.165 162.102 13.165H160.735V18.1266H161.724C162.857 18.1266 163.77 17.905 164.461 17.4587C165.152 17.0124 165.499 16.3537 165.499 15.4796V15.4765Z" fill="#52C41A"/>
<path d="M186.151 10.5646H195.588V13.2116H189.454V17.0497H195.305V19.6967H189.454V23.7995H195.658V26.4465H186.151V10.5615V10.5646Z" fill="#52C41A"/>
<path d="M175.296 26.4491L169.329 10.5642H172.851L176.047 19.7978C176.595 21.3491 176.927 22.6049 177.043 23.5621H177.156C177.241 22.8727 177.573 21.6169 178.151 19.7978L181.347 10.5642H184.9L178.906 26.4491H175.299H175.296Z" fill="#52C41A"/>
</svg>
