<svg width="20" height="20" viewBox="0 0 20 20" fill="none" xmlns="http://www.w3.org/2000/svg">
<path d="M4.58852 7H11.0478C11.4928 7 11.8876 7.01429 12.2392 7.06429C14.1268 7.27143 14.6364 8.15714 14.6364 10.5714V13.4286C14.6364 15.8429 14.1268 16.7286 12.2392 16.9357C11.8876 16.9857 11.4928 17 11.0478 17H4.58852C4.14354 17 3.7488 16.9857 3.39713 16.9357C1.50957 16.7286 1 15.8429 1 13.4286V10.5714C1 8.15714 1.50957 7.27143 3.39713 7.06429C3.7488 7.01429 4.14354 7 4.58852 7Z" stroke="#284B73" stroke-width="1.25" stroke-linecap="round" stroke-linejoin="round"/>
<path d="M5 6.54545V5.57143C5 3.15714 5.50957 2.27143 7.39713 2.06429C7.7488 2.01429 8.14354 2 8.58852 2H15.0478C15.4928 2 15.8876 2.01429 16.2392 2.06429C18.1268 2.27143 18.6364 3.15714 18.6364 5.57143V8.42857C18.6364 10.8429 18.1268 11.7286 16.2392 11.9357C16.0831 11.9579 15.1738 11.99 15 12" stroke="#284B73" stroke-width="1.25" stroke-linecap="round" stroke-linejoin="round"/>
</svg>
