<svg id="Layer_1" viewBox="0 0 16 16" xmlns="http://www.w3.org/2000/svg" data-name="Layer 1"><g id="_47_Upload" data-name="47_Upload"><g><path d="m8 12.5c-.276 0-.5-.224-.5-.5v-11c0-.276.224-.5.5-.5s.5.224.5.5v11c0 .276-.224.5-.5.5z"/><path d="m12 5.5c-.128 0-.256-.049-.354-.146l-3.646-3.646-3.646 3.646c-.195.195-.512.195-.707 0s-.195-.512 0-.707l3.999-4.001c.195-.195.512-.195.707 0l4 4c.195.195.195.512 0 .707-.098.098-.226.146-.354.146z"/></g><path d="m12 15.5h-8c-.276 0-.5-.224-.5-.5s.224-.5.5-.5h8c.276 0 .5.224.5.5s-.224.5-.5.5z"/></g></svg>