<svg width="20" height="20" viewBox="0 0 20 20" fill="none" xmlns="http://www.w3.org/2000/svg">
<path fill-rule="evenodd" clip-rule="evenodd" d="M5.41669 6.25008C5.41669 4.63925 6.72252 3.33341 8.33335 3.33341C9.94419 3.33341 11.25 4.63925 11.25 6.25008C11.25 7.86091 9.94419 9.16675 8.33335 9.16675C6.72252 9.16675 5.41669 7.86091 5.41669 6.25008ZM8.33335 1.66675C5.80205 1.66675 3.75002 3.71878 3.75002 6.25008C3.75002 8.78139 5.80205 10.8334 8.33335 10.8334C10.8647 10.8334 12.9167 8.78139 12.9167 6.25008C12.9167 3.71878 10.8647 1.66675 8.33335 1.66675ZM18.2976 8.36912C17.3969 7.46841 15.9365 7.46842 15.0358 8.36915L9.65507 13.7499L9.63616 13.7687L9.63616 13.7687C9.56496 13.8397 9.47528 13.9291 9.39847 14.0337C9.33173 14.1246 9.27438 14.222 9.22732 14.3245C9.17317 14.4425 9.1386 14.5643 9.11115 14.661L9.11114 14.661L9.10383 14.6867L8.36542 17.2711C8.28228 17.5621 8.36343 17.8753 8.57743 18.0893C8.79143 18.3033 9.10463 18.3845 9.39562 18.3014L11.9801 17.5629L12.0057 17.5556C12.1025 17.5282 12.2243 17.4936 12.3422 17.4394C12.4447 17.3924 12.5422 17.335 12.6331 17.2683C12.7377 17.1915 12.8271 17.1018 12.8981 17.0306L12.9169 17.0117L18.2976 11.631C19.1984 10.7303 19.1984 9.26987 18.2976 8.36912ZM16.2143 9.54767C16.4642 9.2978 16.8693 9.2978 17.1191 9.54766C17.369 9.79753 17.369 10.2027 17.1191 10.4525L11.7384 15.8332C11.6896 15.882 11.6655 15.9059 11.6476 15.9228L11.6463 15.924L11.6447 15.9245C11.6212 15.932 11.5886 15.9414 11.5222 15.9604L10.38 16.2867L10.7064 15.1446C10.7253 15.0781 10.7347 15.0456 10.7422 15.0221L10.7428 15.0204L10.7439 15.0192C10.7608 15.0012 10.7847 14.9772 10.8336 14.9284L16.2143 9.54767ZM7.50002 11.6667C6.60007 11.6667 5.20268 11.9609 3.85889 12.6438C2.50539 13.3317 1.12062 14.4588 0.383659 16.1848C-0.108881 17.3384 0.869905 18.3334 1.8722 18.3334H5.41668C5.87692 18.3334 6.25002 17.9603 6.25002 17.5001C6.25002 17.0398 5.87692 16.6667 5.41668 16.6667H1.99432C2.55007 15.4996 3.54097 14.675 4.61402 14.1296C5.74891 13.5528 6.88925 13.3334 7.50002 13.3334C7.96026 13.3334 8.33335 12.9603 8.33335 12.5001C8.33335 12.0398 7.96026 11.6667 7.50002 11.6667Z" fill="black"/>
</svg>
