<svg fill="none" height="24" viewBox="0 0 24 24" width="24" xmlns="http://www.w3.org/2000/svg"><g clip-rule="evenodd" fill-rule="evenodd"><path d="m16.2048 5.75c-.1928 0-.3798.0189-.5589.05443-.4063.0806-.801-.18344-.8816-.58974s.1835-.801.5898-.88159c.275-.05455.5596-.0831.8507-.0831 2.1663 0 4.0452 1.61423 4.0452 3.75 0 2.1358-1.8789 3.75-4.0452 3.75-.2911 0-.5757-.0286-.8507-.0831-.4063-.0806-.6704-.4753-.5898-.8816s.4753-.6703.8816-.5897c.1791.0355.3661.0544.5589.0544 1.4735 0 2.5452-1.07206 2.5452-2.25s-1.0717-2.25-2.5452-2.25zm.5452 9.25c0-.4142.3358-.75.75-.75.5269 0 1.2296.1415 1.9237.3569.7055.2189 1.4678.5345 2.1176.9236.6217.3722 1.2615.8827 1.5509 1.5413.1552.3532.2114.7555.0981 1.173-.1105.4073-.363.7586-.6992 1.0584-.8939.7974-1.9795 1.4468-3.3848 1.4468h-.4902c-.4142 0-.75-.3358-.75-.75s.3358-.75.75-.75h.4902c.8943 0 1.6379-.3984 2.3863-1.0661.1854-.1654.236-.28.2501-.3319.0113-.0416.0135-.0918-.0238-.1768-.0957-.2177-.3954-.5268-.9482-.8578-.5246-.3142-1.1718-.5856-1.7915-.7779-.6309-.1957-1.1691-.2895-1.4792-.2895-.4142 0-.75-.3358-.75-.75z" fill="#b288bd"/><path d="m8.99999 4.25c-1.79493 0-3.25 1.45507-3.25 3.25s1.45507 3.25 3.25 3.25c1.79491 0 3.25001-1.45507 3.25001-3.25s-1.4551-3.25-3.25001-3.25zm-4.75 3.25c0-2.62335 2.12665-4.75 4.75-4.75 2.62331 0 4.75001 2.12665 4.75001 4.75 0 2.6234-2.1267 4.75-4.75001 4.75-2.62335 0-4.75-2.1266-4.75-4.75zm-1.99875 11.0941c-.00313.025-.0226.1809.33082.484.8445.7241 1.70132 1.1719 2.74365 1.1719h7.34859c1.0423 0 1.8991-.4478 2.7436-1.1719.3534-.3031.334-.459.3308-.484l-.0001-.001c-.0099-.0819-.0873-.2582-.3838-.5195-.4693-.4134-1.1431-.7576-1.7355-1.0602-.1631-.0834-.3201-.1635-.4649-.2412-2.5434-1.3629-5.78545-1.3629-8.32884 0-.14482.0777-.30177.1578-.46488.2412-.59241.3026-1.26615.6468-1.73547 1.0602-.29654.2613-.3739.4376-.38385.5195zm1.8758-3.144c2.98596-1.6001 6.75996-1.6001 9.74586 0 .0931.0499.2096.109.3425.1764.5924.3006 1.5111.7667 2.1409 1.3216.3883.342.8044.8304.8814 1.4642.0842.6938-.2603 1.3045-.8434 1.8045-.9949.8531-2.1867 1.5332-3.72 1.5332h-7.34859c-1.53329 0-2.72511-.6801-3.72003-1.5332-.5831-.5-.927652-1.1107-.843377-1.8045.076967-.6338.493087-1.1222.881367-1.4642.62985-.5549 1.54853-1.021 2.14094-1.3216.13287-.0674.24933-.1265.34243-.1764z" fill="#65008d"/></g></svg>