<svg id="Layer_1" enable-background="new 0 0 512 512" height="512" viewBox="0 0 512 512" width="512" xmlns="http://www.w3.org/2000/svg"><path d="m400 402c11.046 0 20 8.954 20 20s-8.954 20-20 20h-43c-11.046 0-20-8.954-20-20s8.954-20 20-20zm112 90c0 11.046-8.954 20-20 20h-472c-11.046 0-20-8.954-20-20 0-56.326 17.943-109.764 51.889-154.535 25.358-33.446 58.954-60.32 96.819-77.9-27.603-27.535-44.708-65.589-44.708-107.565 0-83.813 68.187-152 152-152s152 68.187 152 152c0 41.946-17.08 79.977-44.649 107.507 38.885 17.907 72.539 45.242 98.463 80.23 32.832 44.311 50.186 96.963 50.186 152.263zm-256-228c61.757 0 112-50.243 112-112s-50.243-112-112-112-112 50.243-112 112 50.243 112 112 112zm-16.602 122.591 16.602 16.884 16.602-16.884-16.602-41.799zm231.691 85.409c-7.745-84.717-64.304-157.147-145.899-184.681-13.388 6.873-27.925 11.809-43.236 14.455l32.634 82.164c2.924 7.362 1.228 15.756-4.327 21.405l-40 40.68c-3.76 3.823-8.898 5.977-14.261 5.977s-10.501-2.154-14.261-5.978l-40-40.68c-5.554-5.648-7.251-14.043-4.327-21.405l32.634-82.164c-15.313-2.646-29.851-7.582-43.24-14.457-80.514 27.24-137.929 100.584-145.865 184.684z"/></svg>