<svg width="317" height="279" viewBox="0 0 317 279" fill="none" xmlns="http://www.w3.org/2000/svg">
<path fill-rule="evenodd" clip-rule="evenodd" d="M234.579 262.621V168.366H235.618V262.621H234.579Z" fill="#26282B"/>
<path fill-rule="evenodd" clip-rule="evenodd" d="M70.6127 263.314L69.2238 168.028L70.2627 168.012L71.6516 263.299L70.6127 263.314Z" fill="#26282B"/>
<path fill-rule="evenodd" clip-rule="evenodd" d="M262.455 217.803V141.905H263.494V217.803H262.455Z" fill="#26282B"/>
<path fill-rule="evenodd" clip-rule="evenodd" d="M255.527 218.842V142.944H256.567V218.842H255.527Z" fill="#26282B"/>
<path fill-rule="evenodd" clip-rule="evenodd" d="M247.908 219.534V143.637H248.947V219.534H247.908Z" fill="#26282B"/>
<path fill-rule="evenodd" clip-rule="evenodd" d="M240.288 220.573V144.676H241.327V220.573H240.288Z" fill="#26282B"/>
<path fill-rule="evenodd" clip-rule="evenodd" d="M232.428 220.92V145.022H233.467V220.92H232.428Z" fill="#26282B"/>
<path fill-rule="evenodd" clip-rule="evenodd" d="M223.769 221.266V145.369H224.808V221.266H223.769Z" fill="#26282B"/>
<path fill-rule="evenodd" clip-rule="evenodd" d="M213.964 221.959V146.061H215.004V221.959H213.964Z" fill="#26282B"/>
<path fill-rule="evenodd" clip-rule="evenodd" d="M283.583 216.071V139.827H284.622V216.071H283.583Z" fill="#26282B"/>
<path fill-rule="evenodd" clip-rule="evenodd" d="M276.655 217.11V141.212H277.694V217.11H276.655Z" fill="#26282B"/>
<path fill-rule="evenodd" clip-rule="evenodd" d="M269.036 217.11V141.905H270.075V217.11H269.036Z" fill="#26282B"/>
<path fill-rule="evenodd" clip-rule="evenodd" d="M162.011 226.115V150.91H163.05V226.115H162.011Z" fill="#26282B"/>
<path fill-rule="evenodd" clip-rule="evenodd" d="M152.313 226.115V150.91H153.352V226.115H152.313Z" fill="#26282B"/>
<path fill-rule="evenodd" clip-rule="evenodd" d="M142.961 226.115V150.91H144V226.115H142.961Z" fill="#26282B"/>
<path fill-rule="evenodd" clip-rule="evenodd" d="M255.181 182.818C230.751 185.15 198.487 187.803 167.158 189.085C135.803 190.37 98.6441 187.715 69.3367 184.741C54.6803 183.254 49.602 182.725 40.5678 181.53C36.0506 180.932 32.4491 180.427 29.9767 180.072C28.7405 179.894 27.7865 179.753 27.1413 179.657C26.8188 179.609 26.5734 179.573 26.4086 179.548C26.3262 179.535 26.264 179.526 26.2223 179.519L26.1603 179.51C26.1596 179.51 26.1592 179.51 26.238 178.996C26.3168 178.483 26.3177 178.483 26.3177 178.483L26.3787 178.492C26.42 178.498 26.4819 178.508 26.5639 178.52C26.728 178.545 26.9725 178.582 27.2943 178.63C27.9378 178.725 28.8901 178.866 30.1246 179.043C32.5935 179.398 36.1911 179.902 40.7041 180.5C49.7303 181.694 54.7978 182.221 69.4416 183.707C98.7346 186.679 135.835 189.329 167.116 188.047C198.418 186.766 230.662 184.115 255.082 181.783C267.291 180.618 272.695 180.225 279.895 179.431C283.495 179.034 286.332 178.709 288.268 178.484C289.237 178.372 291.712 178.284 292.213 178.225C292.463 178.195 292.653 178.172 292.78 178.157L292.971 178.134C292.971 178.134 292.972 178.134 293.035 178.65C293.097 179.166 293.096 179.166 293.096 179.166L292.904 179.189C292.777 179.204 292.586 179.227 292.335 179.257C291.833 179.316 289.357 179.404 288.388 179.517C286.45 179.742 283.611 180.066 280.009 180.463C272.805 181.258 267.396 181.651 255.181 182.818Z" fill="#26282B"/>
<path fill-rule="evenodd" clip-rule="evenodd" d="M256.99 191.961C232.561 194.294 200.297 196.947 168.968 198.229C137.612 199.514 100.454 196.859 71.1462 193.885C56.4898 192.398 50.3726 191.523 41.3383 190.327C36.8211 189.729 33.2196 189.225 30.7472 188.869C29.511 188.691 28.557 188.551 27.9118 188.455C27.5893 188.407 27.3439 188.37 27.1791 188.345C27.0967 188.333 27.0345 188.323 26.9928 188.317L26.9308 188.307C26.9301 188.307 26.9297 188.307 27.0085 187.794C27.0873 187.28 27.0882 187.28 27.0882 187.28L27.1492 187.29C27.1906 187.296 27.2524 187.305 27.3344 187.318C27.4985 187.342 27.743 187.379 28.0648 187.427C28.7083 187.523 29.6606 187.663 30.8951 187.841C33.364 188.196 36.9616 188.7 41.4746 189.297C50.5008 190.492 56.6073 191.365 71.2511 192.851C100.544 195.823 137.645 198.473 168.925 197.191C200.228 195.91 232.472 193.259 256.892 190.927C269.101 189.761 274.158 189.369 281.358 188.574C284.958 188.177 287.795 187.853 289.731 187.628C290.7 187.516 291.443 187.428 291.944 187.369C292.195 187.339 292.385 187.316 292.512 187.301L292.703 187.278C292.703 187.278 292.704 187.278 292.766 187.794C292.829 188.309 292.828 188.31 292.828 188.31L292.636 188.333C292.508 188.348 292.318 188.371 292.067 188.401C291.565 188.46 290.821 188.548 289.851 188.66C287.913 188.886 285.074 189.21 281.472 189.607C274.268 190.402 269.206 190.795 256.99 191.961Z" fill="#26282B"/>
<path fill-rule="evenodd" clip-rule="evenodd" d="M255.951 165.638C231.522 167.971 199.258 170.624 167.929 171.906C136.574 173.191 99.4147 170.535 70.1073 167.561C55.4509 166.074 49.6799 165.892 40.6456 164.697C36.1284 164.099 32.527 163.594 30.0546 163.238C28.8183 163.061 27.8643 162.92 27.2192 162.824C26.8967 162.776 26.6513 162.739 26.4865 162.715C26.4041 162.702 26.3419 162.693 26.3002 162.686L26.2382 162.677C26.2375 162.677 26.2371 162.677 26.3159 162.163C26.3947 161.65 26.3956 161.65 26.3956 161.65L26.4566 161.659C26.4979 161.665 26.5598 161.675 26.6418 161.687C26.8058 161.712 27.0504 161.749 27.3722 161.797C28.0157 161.892 28.968 162.032 30.2025 162.21C32.6714 162.565 36.269 163.069 40.782 163.667C49.8081 164.861 55.5684 165.042 70.2122 166.528C99.5052 169.5 136.606 172.149 167.886 170.868C199.189 169.587 231.433 166.935 255.853 164.604C268.062 163.438 273.119 163.045 280.319 162.251C283.919 161.854 286.756 161.53 288.693 161.305C289.661 161.193 291.097 161.105 291.598 161.045C291.848 161.016 292.038 160.993 292.166 160.978L292.357 160.955C292.357 160.955 292.357 160.955 292.42 161.47C292.482 161.986 292.482 161.986 292.482 161.986L292.289 162.009C292.162 162.025 291.971 162.047 291.72 162.077C291.218 162.137 289.782 162.225 288.812 162.337C286.874 162.562 284.035 162.887 280.433 163.284C273.229 164.079 268.167 164.472 255.951 165.638Z" fill="#26282B"/>
<path fill-rule="evenodd" clip-rule="evenodd" d="M255.951 157.672C231.522 160.004 199.258 162.657 167.929 163.939C136.573 165.224 99.4147 162.569 70.1073 159.595C55.4508 158.108 49.6799 157.926 40.6456 156.73C36.1284 156.133 32.527 155.628 30.0546 155.272C28.8183 155.094 27.8643 154.954 27.2192 154.858C26.8967 154.81 26.6513 154.773 26.4865 154.748C26.4041 154.736 26.3419 154.726 26.3002 154.72L26.2382 154.711C26.2375 154.71 26.2371 154.71 26.3159 154.197C26.3947 153.683 26.3956 153.683 26.3956 153.683L26.4566 153.693C26.4979 153.699 26.5598 153.708 26.6418 153.721C26.8058 153.746 27.0504 153.782 27.3722 153.83C28.0157 153.926 28.968 154.066 30.2025 154.244C32.6714 154.599 36.269 155.103 40.782 155.7C49.8081 156.895 55.5683 157.076 70.2122 158.561C99.5052 161.534 136.606 164.183 167.886 162.901C199.189 161.62 231.433 158.969 255.853 156.638C268.062 155.472 272.773 155.079 279.973 154.285C283.573 153.888 286.41 153.564 288.346 153.339C289.314 153.226 290.75 153.139 291.251 153.079C291.502 153.049 291.692 153.027 291.819 153.011L292.01 152.988C292.01 152.988 292.011 152.988 292.074 153.504C292.136 154.02 292.135 154.02 292.135 154.02L291.943 154.043C291.815 154.058 291.625 154.081 291.374 154.111C290.872 154.171 289.435 154.258 288.466 154.371C286.528 154.596 283.689 154.92 280.087 155.318C272.883 156.112 268.167 156.506 255.951 157.672Z" fill="#26282B"/>
<path fill-rule="evenodd" clip-rule="evenodd" d="M255.605 150.745C231.175 153.077 198.911 155.73 167.582 157.012C136.227 158.297 99.0683 155.642 69.7609 152.668C55.1044 151.181 50.0262 150.999 40.992 149.803C36.4747 149.205 32.8733 148.701 30.4009 148.345C29.1647 148.167 28.2107 148.027 27.5655 147.931C27.243 147.883 26.9976 147.846 26.8328 147.821C26.7504 147.809 26.6882 147.799 26.6465 147.793L26.5845 147.783C26.5838 147.783 26.5834 147.783 26.6622 147.27C26.741 146.756 26.7419 146.756 26.7419 146.756L26.8029 146.766C26.8442 146.772 26.9061 146.781 26.9881 146.794C27.1522 146.818 27.3967 146.855 27.7185 146.903C28.362 146.999 29.3143 147.139 30.5488 147.317C33.0177 147.672 36.6153 148.176 41.1283 148.773C50.1544 149.968 55.2219 150.148 69.8658 151.634C99.1588 154.607 136.259 157.256 167.54 155.974C198.843 154.693 231.086 152.042 255.506 149.71C267.716 148.545 273.466 148.152 280.666 147.358C284.265 146.961 288.141 146.637 290.078 146.412C291.046 146.299 291.789 146.212 292.29 146.152C292.541 146.122 292.731 146.1 292.858 146.084L293.049 146.061C293.049 146.061 293.05 146.061 293.113 146.577C293.175 147.093 293.174 147.093 293.174 147.093L292.982 147.116C292.854 147.131 292.664 147.154 292.413 147.184C291.911 147.243 291.167 147.331 290.198 147.444C288.259 147.669 284.382 147.993 280.779 148.391C273.575 149.185 267.82 149.579 255.605 150.745Z" fill="#26282B"/>
<path fill-rule="evenodd" clip-rule="evenodd" d="M255.951 174.297C231.522 176.63 199.258 179.283 167.929 180.565C136.573 181.85 99.4146 179.194 70.1072 176.22C55.4508 174.733 50.0262 174.205 40.992 173.009C36.4747 172.412 32.8733 171.907 30.4009 171.551C29.1647 171.373 28.2107 171.233 27.5655 171.137C27.243 171.089 26.9976 171.052 26.8328 171.027C26.7504 171.015 26.6882 171.005 26.6465 170.999L26.5845 170.989C26.5838 170.989 26.5834 170.989 26.6622 170.476C26.741 169.962 26.7419 169.962 26.7419 169.962L26.8029 169.972C26.8442 169.978 26.9061 169.987 26.9881 170C27.1522 170.025 27.3967 170.061 27.7185 170.109C28.362 170.205 29.3143 170.345 30.5488 170.523C33.0177 170.878 36.6153 171.382 41.1283 171.979C50.1544 173.174 55.5683 173.701 70.2121 175.187C99.5051 178.159 136.606 180.808 167.886 179.527C199.189 178.246 231.433 175.594 255.853 173.263C268.062 172.097 273.466 171.704 280.666 170.91C284.265 170.513 288.141 170.189 290.078 169.964C291.046 169.852 291.789 169.764 292.29 169.704C292.541 169.675 292.731 169.652 292.858 169.637L293.049 169.614C293.049 169.614 293.05 169.614 293.113 170.129C293.175 170.645 293.174 170.645 293.174 170.645L292.982 170.668C292.854 170.684 292.664 170.706 292.413 170.736C291.911 170.796 291.167 170.884 290.198 170.996C288.259 171.221 284.382 171.546 280.779 171.943C273.575 172.738 268.167 173.131 255.951 174.297Z" fill="#26282B"/>
<path fill-rule="evenodd" clip-rule="evenodd" d="M255.181 219.76C230.751 222.092 198.487 224.746 167.158 226.028C135.803 227.312 98.6441 224.657 69.3367 221.683C54.6803 220.196 50.2948 220.014 41.2605 218.819C36.7433 218.221 33.1419 217.716 30.6694 217.36C29.4332 217.183 28.4792 217.042 27.8341 216.946C27.5115 216.898 27.2662 216.861 27.1014 216.836C27.019 216.824 26.9567 216.815 26.915 216.808L26.853 216.799C26.8523 216.799 26.852 216.799 26.9308 216.285C27.0095 215.772 27.0105 215.772 27.0105 215.772L27.0715 215.781C27.1128 215.787 27.1747 215.797 27.2567 215.809C27.4207 215.834 27.6653 215.871 27.987 215.918C28.6305 216.014 29.5828 216.154 30.8173 216.332C33.2863 216.687 36.8838 217.191 41.3968 217.789C50.423 218.983 54.7978 219.164 69.4416 220.65C98.7346 223.622 135.835 226.271 167.116 224.989C198.418 223.708 230.662 221.057 255.082 218.726C267.291 217.56 273.388 216.821 280.588 216.027C284.188 215.63 287.024 215.306 288.961 215.081C289.929 214.968 290.673 214.881 291.174 214.821C291.424 214.791 291.614 214.769 291.741 214.753L291.932 214.73C291.932 214.73 291.933 214.73 291.996 215.246C292.058 215.762 292.057 215.762 292.057 215.762L291.865 215.785C291.737 215.8 291.547 215.823 291.296 215.853C290.794 215.912 290.05 216 289.081 216.113C287.142 216.338 284.304 216.662 280.702 217.06C273.497 217.854 267.396 218.594 255.181 219.76Z" fill="#26282B"/>
<path fill-rule="evenodd" clip-rule="evenodd" d="M34.3108 217.456V140.866H35.3499V217.456H34.3108Z" fill="#26282B"/>
<path fill-rule="evenodd" clip-rule="evenodd" d="M43.3162 218.495V142.598H44.3552V218.495H43.3162Z" fill="#26282B"/>
<path fill-rule="evenodd" clip-rule="evenodd" d="M60.9803 220.227V144.676H62.0194V220.227H60.9803Z" fill="#26282B"/>
<path fill-rule="evenodd" clip-rule="evenodd" d="M70.6785 220.573V145.022H71.7175V220.573H70.6785Z" fill="#26282B"/>
<path fill-rule="evenodd" clip-rule="evenodd" d="M51.9751 219.881V142.598H53.0142V219.881H51.9751Z" fill="#26282B"/>
<path fill-rule="evenodd" clip-rule="evenodd" d="M255.181 201.289C230.751 203.621 198.487 206.274 167.158 207.557C135.803 208.841 98.6441 206.186 69.3367 203.212C54.6803 201.725 49.9485 201.197 40.9142 200.001C36.397 199.403 32.7956 198.898 30.3231 198.543C29.0869 198.365 28.1329 198.225 27.4878 198.129C27.1652 198.081 26.9199 198.044 26.7551 198.019C26.6727 198.007 26.6104 197.997 26.5687 197.991L26.5067 197.981C26.506 197.981 26.5057 197.981 26.5844 197.468C26.6632 196.954 26.6641 196.954 26.6641 196.954L26.7251 196.963C26.7665 196.97 26.8284 196.979 26.9104 196.992C27.0744 197.016 27.3189 197.053 27.6407 197.101C28.2842 197.197 29.2365 197.337 30.471 197.514C32.94 197.869 36.5375 198.374 41.0505 198.971C50.0767 200.166 54.7978 200.693 69.4416 202.179C98.7347 205.151 135.835 207.8 167.116 206.518C198.419 205.237 230.662 202.586 255.082 200.255C267.292 199.089 273.041 198.696 280.241 197.902C283.841 197.505 288.41 197.181 290.346 196.956C291.315 196.843 292.058 196.756 292.559 196.696C292.81 196.666 293 196.644 293.127 196.628L293.318 196.605C293.318 196.605 293.319 196.605 293.381 197.121C293.444 197.637 293.443 197.637 293.443 197.637L293.251 197.66C293.123 197.675 292.933 197.698 292.682 197.728C292.18 197.788 291.436 197.875 290.466 197.988C288.528 198.213 283.957 198.538 280.355 198.935C273.151 199.729 267.396 200.123 255.181 201.289Z" fill="#26282B"/>
<path fill-rule="evenodd" clip-rule="evenodd" d="M257.337 211.358C232.907 213.69 200.643 216.343 169.314 217.625C137.959 218.91 100.8 216.255 71.4926 213.281C56.8362 211.794 50.0262 210.573 40.992 209.377C36.4747 208.779 32.8733 208.274 30.4009 207.919C29.1647 207.741 28.2107 207.601 27.5655 207.505C27.243 207.457 26.9976 207.42 26.8328 207.395C26.7504 207.382 26.6882 207.373 26.6465 207.367L26.5845 207.357C26.5838 207.357 26.5834 207.357 26.6622 206.843C26.741 206.33 26.7419 206.33 26.7419 206.33L26.8029 206.339C26.8442 206.346 26.9061 206.355 26.9881 206.367C27.1522 206.392 27.3967 206.429 27.7185 206.477C28.362 206.573 29.3143 206.713 30.5488 206.89C33.0177 207.245 36.6153 207.75 41.1283 208.347C50.1544 209.541 56.9537 210.761 71.5975 212.247C100.891 215.219 137.991 217.869 169.271 216.587C200.574 215.306 232.818 212.655 257.238 210.323C269.447 209.158 274.505 208.765 281.705 207.971C285.305 207.574 288.141 207.249 290.078 207.024C291.046 206.912 291.789 206.824 292.29 206.765C292.541 206.735 292.731 206.712 292.858 206.697L293.049 206.674C293.049 206.674 293.05 206.674 293.113 207.19C293.175 207.706 293.174 207.706 293.174 207.706L292.982 207.729C292.854 207.744 292.664 207.767 292.413 207.797C291.911 207.856 291.167 207.944 290.198 208.057C288.259 208.282 285.421 208.606 281.819 209.003C274.614 209.798 269.552 210.191 257.337 211.358Z" fill="#26282B"/>
<path fill-rule="evenodd" clip-rule="evenodd" d="M119.363 141.897C126.301 142.225 133.165 142.55 139.836 142.894C182.62 145.102 263.247 137.766 298.337 133.38L298.767 138.895C263.662 143.283 182.771 150.656 139.657 148.431C133.018 148.089 126.173 147.765 119.245 147.437C103.799 146.706 87.945 145.956 73.0624 144.936C51.5247 143.459 31.8591 141.409 18.2717 137.99L19.1169 132.553C32.3723 135.889 51.7586 137.925 73.2993 139.402C88.1445 140.419 103.936 141.167 119.363 141.897Z" fill="white"/>
<path d="M290.963 227.456V133.592H293.387C293.387 181.476 293.387 179.572 293.387 227.456" fill="#26282B"/>
<path d="M25.9982 227.456C25.9982 186.747 25.9982 172.396 25.9982 131.687H28.4227V227.456" fill="#26282B"/>
<path fill-rule="evenodd" clip-rule="evenodd" d="M27.0036 132.257L27.5562 132.396C40.7618 135.718 51.7936 137.407 73.3348 138.883C88.1735 139.901 103.959 140.647 119.388 141.378L119.389 141.378C126.326 141.706 133.19 142.031 139.863 142.375C182.597 144.581 257.297 137.943 292.385 133.557L292.925 133.49L293.435 140.042L292.943 140.103C257.836 144.492 182.794 151.178 139.631 148.95C132.993 148.607 126.148 148.283 119.22 147.956L119.217 147.955C103.773 147.225 87.9148 146.474 73.0269 145.454C51.4896 143.977 40.0947 142.272 26.4575 138.84L25.9982 138.725L27.0036 132.257ZM27.8555 133.541L27.1706 137.947C40.6908 141.285 51.8023 142.957 73.0979 144.417C87.974 145.437 103.823 146.187 119.27 146.918C126.197 147.245 133.044 147.569 139.684 147.912C182.548 150.125 256.961 143.528 292.322 139.134L291.974 134.656C256.6 139.049 182.424 145.612 139.809 143.413C133.139 143.068 126.276 142.744 119.339 142.415L119.335 142.415C103.91 141.685 88.1144 140.938 73.2637 139.92C52.02 138.464 41.1431 136.807 27.8555 133.541Z" fill="#26282B"/>
<path d="M94.7745 37.8242H97.5213C100.544 37.8242 103.146 39.6247 104.313 42.2117C105.169 44.1093 105.367 46.2635 106.144 48.1949L171.642 211.004L144.799 226.936L136.833 278.024H34.484L70.8517 200.44L67.6471 187.229C64.1847 172.955 64.4554 158.03 68.4333 143.892L75.6593 118.208C77.4154 111.966 78.6306 105.585 79.2914 99.1341L84.6341 46.9789C85.1668 41.7786 89.547 37.8242 94.7745 37.8242Z" fill="white"/>
<path fill-rule="evenodd" clip-rule="evenodd" d="M83.9451 46.5619C84.514 41.0082 89.1918 36.7851 94.7746 36.7851H97.5213C101.971 36.7851 105.587 40.3555 105.66 44.7876L172.506 210.95L145.433 227.019L137.426 278.37H33.3943L70.1211 200.02L66.974 187.046C63.4835 172.657 63.7564 157.611 67.7665 143.358L74.9925 117.674C76.7379 111.47 77.9456 105.128 78.6023 98.7171L83.9451 46.5619ZM94.7746 38.1705C89.9023 38.1705 85.8198 41.8562 85.3233 46.7031L79.9806 98.8583C79.3157 105.348 78.0931 111.769 76.3262 118.049L69.1002 143.733C65.1545 157.757 64.8859 172.561 68.3203 186.719L71.5823 200.167L35.5738 276.985H136.24L144.165 226.161L170.778 210.365L104.275 45.0586V44.9245C104.275 41.1944 101.251 38.1705 97.5213 38.1705H94.7746Z" fill="#26282B"/>
<path d="M194.769 1.28333H119.494C111.567 1.28333 105.141 7.70943 105.141 15.6364V200.492C105.141 208.419 111.567 214.845 119.494 214.845H194.769C202.696 214.845 209.122 208.419 209.122 200.492V15.6364C209.122 7.70943 202.696 1.28333 194.769 1.28333Z" fill="white"/>
<path fill-rule="evenodd" clip-rule="evenodd" d="M119.494 2.14921C112.045 2.14921 106.007 8.18764 106.007 15.6364V200.492C106.007 207.94 112.045 213.979 119.494 213.979H194.768C202.217 213.979 208.256 207.94 208.256 200.492V15.6364C208.256 8.18764 202.217 2.14921 194.768 2.14921H119.494ZM104.275 15.6364C104.275 7.2312 111.089 0.417419 119.494 0.417419H194.768C203.174 0.417419 209.987 7.2312 209.987 15.6364V200.492C209.987 208.897 203.174 215.711 194.768 215.711H119.494C111.089 215.711 104.275 208.897 104.275 200.492V15.6364Z" fill="#26282B"/>
<path d="M170.468 5.02747H147.861C145.981 5.02747 144.456 6.5518 144.456 8.43217V8.53608C144.456 10.4164 145.981 11.9408 147.861 11.9408H170.468C172.348 11.9408 173.873 10.4164 173.873 8.53608V8.43217C173.873 6.5518 172.348 5.02747 170.468 5.02747Z" fill="#26282B"/>
<path fill-rule="evenodd" clip-rule="evenodd" d="M111.466 35.2784H202.797V92.774H111.466V35.2784ZM113.197 37.0102V91.0422H201.065V37.0102H113.197Z" fill="#E0F4DB"/>
<path fill-rule="evenodd" clip-rule="evenodd" d="M108.847 145.005H200.179V187.725H108.847V145.005ZM110.579 146.737V185.993H198.447V146.737H110.579Z" fill="#E0F4DB"/>
<path d="M180.62 153.089H131.156V156.705H180.62V153.089Z" fill="#E9E8E8"/>
<path d="M172.678 163.41H117.111V165.218H172.678V163.41Z" fill="#E9E8E8"/>
<path d="M172.678 168.589H117.111V170.396H172.678V168.589Z" fill="#E9E8E8"/>
<path d="M176.699 24.0564H139.524V27.6724H176.699V24.0564Z" fill="#E9E8E8"/>
<path d="M209.426 37.4708L220.506 30.4848C225.906 27.0801 233.051 28.8396 236.255 34.3605C239.265 39.549 237.679 46.1887 232.65 49.4549L209.426 64.5423V37.4674V37.4708Z" fill="white"/>
<path fill-rule="evenodd" clip-rule="evenodd" d="M235.656 34.7082C232.649 29.5266 225.943 27.8754 220.876 31.0707L210.119 37.8529V63.2661L232.272 48.8739C236.992 45.8088 238.481 39.5775 235.656 34.7082ZM208.734 37.4673H209.424L209.057 36.8848L220.137 29.8988C220.137 29.8988 220.137 29.8988 220.137 29.8988C225.869 26.2846 233.454 28.1525 236.854 34.0128C240.049 39.5203 238.366 46.5684 233.027 50.0357C233.027 50.0357 233.027 50.0357 233.027 50.0357L208.734 65.8183V37.4673Z" fill="#26282B"/>
<path fill-rule="evenodd" clip-rule="evenodd" d="M103.571 113.762C103.571 113.762 103.571 113.762 104.151 113.382C104.73 113.003 104.73 113.003 104.73 113.003L104.732 113.005L104.736 113.011L104.751 113.034C104.764 113.054 104.783 113.084 104.808 113.123C104.858 113.201 104.932 113.317 105.028 113.471C105.22 113.779 105.502 114.238 105.863 114.847C106.586 116.065 107.627 117.882 108.904 120.288C111.457 125.1 114.955 132.268 118.741 141.706C120.695 146.574 120.966 154.185 120.335 162.744C119.702 171.338 118.148 181.009 116.36 190.074C114.572 199.142 112.548 207.618 110.972 213.827C110.183 216.931 109.506 219.47 109.026 221.233C108.786 222.114 108.596 222.802 108.465 223.269C108.4 223.503 108.349 223.682 108.315 223.802C108.298 223.862 108.285 223.908 108.276 223.939L108.263 223.985C108.263 223.985 108.263 223.986 107.597 223.795C106.931 223.604 106.931 223.604 106.931 223.603L106.944 223.559C106.952 223.529 106.965 223.484 106.982 223.425C107.016 223.305 107.066 223.128 107.131 222.896C107.261 222.431 107.451 221.747 107.69 220.869C108.168 219.113 108.842 216.582 109.629 213.486C111.201 207.293 113.219 198.842 115.001 189.806C116.783 180.767 118.326 171.157 118.954 162.642C119.584 154.093 119.28 146.768 117.456 142.222C113.688 132.832 110.212 125.709 107.68 120.937C106.414 118.552 105.384 116.754 104.672 115.554C104.316 114.955 104.04 114.504 103.853 114.205C103.759 114.056 103.688 113.944 103.641 113.87C103.617 113.833 103.6 113.806 103.588 113.788L103.575 113.768L103.572 113.763L103.571 113.762Z" fill="#26282B"/>
<path d="M106.821 223.795C106.821 223.795 124.877 160.792 117.323 141.964C109.769 123.136 103.375 113.382 103.375 113.382L90.1023 185.325L106.821 223.795Z" fill="white"/>
<path fill-rule="evenodd" clip-rule="evenodd" d="M195.089 32.0394L187.535 39.2506L186.339 37.9979L193.893 30.7867L195.089 32.0394Z" fill="#66C949"/>
<path fill-rule="evenodd" clip-rule="evenodd" d="M199.74 39.6609L189.744 42.6846L189.243 41.027L199.239 38.0033L199.74 39.6609Z" fill="#66C949"/>
<path fill-rule="evenodd" clip-rule="evenodd" d="M198.068 47.7501L187.719 46.3577L187.95 44.6414L198.299 46.0338L198.068 47.7501Z" fill="#66C949"/>
<path d="M186.705 106.885H124.475C119.844 106.885 116.09 110.639 116.09 115.27V117.726C116.09 122.357 119.844 126.111 124.475 126.111H186.705C191.336 126.111 195.091 122.357 195.091 117.726V115.27C195.091 110.639 191.336 106.885 186.705 106.885Z" fill="#66C949"/>
<path d="M126.224 119.97V112.686C126.685 112.575 127.27 112.52 127.973 112.52C128.891 112.52 129.563 112.7 129.996 113.06C130.415 113.368 130.623 113.805 130.623 114.369C130.623 114.73 130.512 115.055 130.287 115.35C130.062 115.644 129.757 115.859 129.369 115.997V116.032C129.781 116.129 130.138 116.333 130.443 116.648C130.748 116.964 130.9 117.376 130.9 117.882C130.9 118.467 130.689 118.962 130.263 119.367C129.771 119.828 128.919 120.06 127.71 120.06C127.145 120.06 126.65 120.032 126.224 119.974V119.97ZM127.18 113.327V115.724H128.049C128.541 115.724 128.929 115.606 129.217 115.37C129.504 115.135 129.646 114.837 129.646 114.47C129.646 113.663 129.106 113.261 128.029 113.261C127.668 113.261 127.388 113.282 127.18 113.327ZM127.18 116.441V119.267C127.357 119.295 127.623 119.312 127.984 119.312C128.534 119.312 128.988 119.198 129.348 118.966C129.708 118.734 129.889 118.37 129.889 117.871C129.889 117.372 129.708 117.036 129.348 116.797C128.988 116.558 128.531 116.441 127.973 116.441H127.18Z" fill="white"/>
<path d="M135.091 120.116H135.081C134.09 120.116 133.286 119.769 132.67 119.076C132.053 118.384 131.745 117.476 131.745 116.354C131.745 115.232 132.067 114.248 132.708 113.531C133.349 112.818 134.173 112.458 135.178 112.458C136.182 112.458 136.999 112.807 137.609 113.504C138.219 114.2 138.523 115.104 138.523 116.209C138.523 117.435 138.198 118.391 137.543 119.08C136.889 119.769 136.071 120.116 135.091 120.116ZM135.122 119.336H135.133C135.867 119.336 136.445 119.042 136.871 118.456C137.297 117.871 137.509 117.137 137.509 116.257C137.509 115.45 137.301 114.747 136.889 114.144C136.476 113.542 135.894 113.244 135.146 113.244C134.398 113.244 133.806 113.545 133.387 114.144C132.968 114.744 132.76 115.474 132.76 116.333C132.76 117.192 132.975 117.861 133.404 118.45C133.834 119.038 134.405 119.336 135.126 119.336H135.122Z" fill="white"/>
<path d="M142.669 120.116H142.659C141.668 120.116 140.865 119.769 140.248 119.076C139.632 118.384 139.323 117.476 139.323 116.354C139.323 115.232 139.645 114.248 140.286 113.531C140.927 112.818 141.751 112.458 142.756 112.458C143.76 112.458 144.578 112.807 145.187 113.504C145.797 114.2 146.102 115.104 146.102 116.209C146.102 117.435 145.776 118.391 145.121 119.08C144.467 119.769 143.649 120.116 142.669 120.116ZM142.7 119.336H142.711C143.445 119.336 144.023 119.042 144.449 118.456C144.875 117.871 145.087 117.137 145.087 116.257C145.087 115.45 144.879 114.747 144.467 114.144C144.055 113.542 143.473 113.244 142.725 113.244C141.976 113.244 141.384 113.545 140.965 114.144C140.546 114.744 140.338 115.474 140.338 116.333C140.338 117.192 140.553 117.861 140.982 118.45C141.412 119.038 141.983 119.336 142.704 119.336H142.7Z" fill="white"/>
<path d="M147.345 119.994V112.579H148.301V116.153H148.336C148.505 115.911 148.699 115.648 148.918 115.36L151.183 112.575H152.371L149.686 115.72L152.579 119.987H151.446L149.015 116.347L148.301 117.161V119.987H147.345V119.994Z" fill="white"/>
<path d="M160.625 118.979L160.812 119.748C160.358 119.984 159.703 120.102 158.855 120.102C157.777 120.102 156.898 119.773 156.219 119.111C155.54 118.45 155.201 117.532 155.201 116.351C155.201 115.17 155.557 114.255 156.274 113.538C156.991 112.821 157.923 112.464 159.073 112.464C159.8 112.464 160.386 112.572 160.832 112.783L160.59 113.576C160.178 113.372 159.682 113.268 159.104 113.268C158.224 113.268 157.521 113.538 156.998 114.075C156.475 114.612 156.212 115.36 156.212 116.313C156.212 117.265 156.461 117.954 156.967 118.484C157.469 119.018 158.165 119.281 159.052 119.281C159.676 119.281 160.199 119.177 160.625 118.973V118.979Z" fill="white"/>
<path d="M164.694 120.116H164.684C163.693 120.116 162.89 119.769 162.273 119.076C161.657 118.384 161.348 117.476 161.348 116.354C161.348 115.232 161.671 114.248 162.311 113.531C162.952 112.818 163.776 112.458 164.781 112.458C165.785 112.458 166.603 112.807 167.212 113.504C167.822 114.2 168.127 115.104 168.127 116.209C168.127 117.435 167.801 118.391 167.146 119.08C166.492 119.769 165.674 120.116 164.694 120.116ZM164.725 119.336H164.736C165.47 119.336 166.048 119.042 166.474 118.456C166.901 117.871 167.112 117.137 167.112 116.257C167.112 115.45 166.904 114.747 166.492 114.144C166.08 113.542 165.498 113.244 164.75 113.244C164.001 113.244 163.409 113.545 162.99 114.144C162.571 114.744 162.363 115.474 162.363 116.333C162.363 117.192 162.578 117.861 163.007 118.45C163.437 119.038 164.008 119.336 164.729 119.336H164.725Z" fill="white"/>
<path d="M169.356 112.579H170.323V116.978C170.323 117.771 170.482 118.36 170.797 118.747C171.112 119.135 171.531 119.329 172.051 119.329C172.615 119.329 173.059 119.135 173.377 118.747C173.696 118.36 173.855 117.767 173.855 116.978V112.579H174.822V116.912C174.822 117.996 174.565 118.803 174.056 119.326C173.547 119.849 172.865 120.112 172.016 120.112C171.168 120.112 170.555 119.856 170.073 119.347C169.592 118.837 169.353 118.037 169.353 116.943V112.575L169.356 112.579Z" fill="white"/>
<path d="M176.484 119.994V112.69C177.018 112.579 177.631 112.523 178.32 112.523C179.304 112.523 180.021 112.728 180.478 113.14C180.866 113.486 181.06 113.954 181.06 114.55C181.06 115.01 180.928 115.405 180.668 115.731C180.408 116.056 180.072 116.292 179.66 116.43V116.461C180.187 116.645 180.55 117.144 180.748 117.958C181.018 119.101 181.205 119.78 181.309 119.994H180.318C180.201 119.79 180.041 119.198 179.833 118.224C179.723 117.712 179.556 117.345 179.328 117.13C179.099 116.915 178.77 116.797 178.337 116.784H177.437V119.994H176.481H176.484ZM177.44 113.362V116.056H178.42C178.926 116.056 179.331 115.928 179.636 115.672C179.941 115.415 180.093 115.073 180.093 114.65C180.093 114.189 179.941 113.843 179.636 113.614C179.331 113.386 178.916 113.275 178.386 113.275C177.974 113.275 177.658 113.303 177.44 113.362Z" fill="white"/>
<path d="M183.91 119.994V113.393H181.655V112.579H187.145V113.393H184.88V119.994H183.914H183.91Z" fill="white"/>
<path d="M133.265 23.0831L130.117 26.2142L133.265 28.6491" fill="white"/>
<path fill-rule="evenodd" clip-rule="evenodd" d="M132.899 22.7148L133.632 23.4515L130.903 26.1653L133.583 28.2382L132.948 29.0601L129.331 26.2632L132.899 22.7148Z" fill="#26282B"/>
<path d="M182.958 23.0831L186.106 26.2142L182.958 28.6491" fill="white"/>
<path fill-rule="evenodd" clip-rule="evenodd" d="M185.32 26.1653L182.591 23.4515L183.324 22.7148L186.892 26.2632L183.276 29.0601L182.64 28.2382L185.32 26.1653Z" fill="#26282B"/>
<path d="M181.302 44.0275H96.9602V99.7912H181.302V44.0275Z" fill="#E0F4DB"/>
<path fill-rule="evenodd" clip-rule="evenodd" d="M96.4407 43.5079H181.822V100.311H96.4407V43.5079ZM97.4798 44.547V99.2717H180.783V44.547H97.4798Z" fill="#26282B"/>
<path fill-rule="evenodd" clip-rule="evenodd" d="M96.787 43.8543H181.475V99.9644H96.787V43.8543ZM97.1333 44.2006V99.618H181.129V44.2006H97.1333Z" fill="#26282B"/>
<path fill-rule="evenodd" clip-rule="evenodd" d="M110.984 99.7946V44.4084H111.331V99.7946H110.984Z" fill="#26282B"/>
<path fill-rule="evenodd" clip-rule="evenodd" d="M126.889 99.2371V43.8508H127.235V99.2371H126.889Z" fill="#26282B"/>
<path fill-rule="evenodd" clip-rule="evenodd" d="M142.392 99.237V43.8508H142.738V99.237H142.392Z" fill="#26282B"/>
<path fill-rule="evenodd" clip-rule="evenodd" d="M158.096 99.3514V43.9651H158.442V99.3514H158.096Z" fill="#26282B"/>
<path fill-rule="evenodd" clip-rule="evenodd" d="M172.737 99.6042V44.218H173.083V99.6042H172.737Z" fill="#26282B"/>
<path fill-rule="evenodd" clip-rule="evenodd" d="M181.098 48.447H97.0745V48.1006H181.098V48.447Z" fill="#26282B"/>
<path fill-rule="evenodd" clip-rule="evenodd" d="M181.098 57.9718H97.0745V57.6255H181.098V57.9718Z" fill="#26282B"/>
<path fill-rule="evenodd" clip-rule="evenodd" d="M181.098 67.4933H97.0745V67.1469H181.098V67.4933Z" fill="#26282B"/>
<path fill-rule="evenodd" clip-rule="evenodd" d="M179.581 76.4604H95.5541V76.1141H179.581V76.4604Z" fill="#26282B"/>
<path fill-rule="evenodd" clip-rule="evenodd" d="M181.302 85.4277H97.2754V85.0814H181.302V85.4277Z" fill="#26282B"/>
<path fill-rule="evenodd" clip-rule="evenodd" d="M181.098 94.3949H97.0745V94.0486H181.098V94.3949Z" fill="#26282B"/>
<path d="M113.367 51.249V50.1684L113.121 50.2342V50.0195L113.478 49.8601H113.641V51.249H113.364H113.367Z" fill="#26282B"/>
<path d="M129.421 51.249V51.0516C129.504 50.9858 129.587 50.9165 129.667 50.8507C129.747 50.7814 129.819 50.7156 129.882 50.6498C129.944 50.584 129.996 50.5182 130.034 50.4558C130.072 50.3935 130.089 50.3312 130.089 50.2723C130.089 50.2342 130.083 50.1995 130.069 50.1718C130.055 50.1441 130.034 50.1164 130.003 50.0956C129.975 50.0783 129.937 50.0679 129.892 50.0679C129.847 50.0679 129.805 50.0783 129.774 50.0991C129.743 50.1199 129.719 50.1476 129.702 50.1822C129.684 50.2169 129.677 50.255 129.677 50.3H129.417C129.417 50.1995 129.442 50.1129 129.483 50.0437C129.525 49.9744 129.584 49.9224 129.656 49.8913C129.729 49.8601 129.809 49.8393 129.895 49.8393C129.996 49.8393 130.079 49.8566 130.145 49.8947C130.211 49.9294 130.263 49.9813 130.297 50.0402C130.332 50.1026 130.349 50.1718 130.349 50.255C130.349 50.3173 130.339 50.3762 130.315 50.4351C130.294 50.4939 130.263 50.5494 130.221 50.6048C130.183 50.6602 130.138 50.7121 130.089 50.7641C130.041 50.8161 129.989 50.8611 129.937 50.9096C129.885 50.9546 129.833 50.9962 129.781 51.0377H130.377V51.2559H129.407L129.421 51.249Z" fill="#26282B"/>
<path d="M145.423 51.249C145.333 51.249 145.25 51.2317 145.173 51.2006C145.097 51.1659 145.038 51.1174 144.993 51.0482C144.948 50.9789 144.924 50.8958 144.921 50.7919H145.184C145.184 50.8369 145.198 50.875 145.215 50.9096C145.232 50.9443 145.26 50.972 145.295 50.9927C145.329 51.0135 145.371 51.0239 145.419 51.0239C145.468 51.0239 145.506 51.0135 145.537 50.9962C145.572 50.9789 145.596 50.9546 145.613 50.9235C145.631 50.8923 145.637 50.8577 145.637 50.8196C145.637 50.7745 145.627 50.733 145.603 50.7053C145.582 50.6741 145.547 50.6499 145.509 50.636C145.468 50.6187 145.423 50.6118 145.371 50.6118H145.267V50.3901H145.371C145.437 50.3901 145.492 50.3762 145.537 50.3451C145.582 50.3139 145.603 50.2689 145.603 50.2065C145.603 50.1546 145.586 50.1165 145.554 50.0853C145.523 50.0541 145.475 50.0403 145.416 50.0403C145.353 50.0403 145.305 50.0576 145.267 50.0957C145.229 50.1338 145.211 50.1788 145.208 50.2342H144.945C144.948 50.1476 144.969 50.0714 145.011 50.0091C145.052 49.9467 145.104 49.8983 145.173 49.8636C145.243 49.829 145.322 49.8151 145.416 49.8151C145.513 49.8151 145.592 49.8324 145.662 49.8671C145.728 49.9017 145.779 49.9467 145.814 50.0022C145.849 50.0576 145.866 50.1199 145.866 50.1857C145.866 50.2411 145.856 50.2862 145.835 50.3312C145.814 50.3728 145.786 50.4074 145.752 50.4351C145.717 50.4628 145.679 50.4836 145.637 50.4975C145.689 50.5078 145.734 50.5252 145.773 50.5563C145.811 50.5875 145.842 50.6256 145.866 50.6706C145.887 50.7157 145.901 50.7711 145.901 50.83C145.901 50.9062 145.883 50.9754 145.845 51.0378C145.807 51.1001 145.755 51.1521 145.683 51.1902C145.61 51.2283 145.523 51.249 145.419 51.249H145.423Z" fill="#26282B"/>
<path d="M161.033 51.249V50.9962H160.351V50.7849L160.999 49.8601H161.303V50.7641H161.483V50.9962H161.303V51.249H161.037H161.033ZM160.635 50.7641H161.05V50.1545L160.635 50.7641Z" fill="#26282B"/>
<path d="M175.268 51.2489C175.164 51.2489 175.078 51.2316 175.005 51.197C174.932 51.1623 174.874 51.1139 174.832 51.0515C174.79 50.9892 174.766 50.9199 174.763 50.8402H175.026C175.036 50.8922 175.061 50.9337 175.106 50.9718C175.151 51.0065 175.206 51.0238 175.272 51.0238C175.32 51.0238 175.362 51.0134 175.397 50.9892C175.431 50.9649 175.459 50.9337 175.48 50.8922C175.5 50.8506 175.511 50.8056 175.511 50.7536C175.511 50.7017 175.5 50.6532 175.48 50.6151C175.459 50.577 175.431 50.5458 175.397 50.525C175.362 50.5043 175.32 50.4939 175.275 50.4939C175.22 50.4939 175.171 50.5077 175.13 50.5354C175.088 50.5631 175.061 50.5943 175.043 50.6324H174.783L174.898 49.8358H175.681V50.0713H175.099L175.043 50.383C175.071 50.3519 175.109 50.3242 175.158 50.3068C175.206 50.2895 175.261 50.2791 175.324 50.2791C175.4 50.2791 175.466 50.293 175.521 50.3172C175.577 50.3415 175.622 50.3761 175.66 50.4211C175.698 50.4662 175.726 50.5181 175.743 50.5735C175.76 50.6289 175.771 50.6878 175.771 50.7502C175.771 50.8229 175.757 50.8922 175.732 50.9511C175.708 51.0134 175.674 51.0654 175.629 51.1104C175.584 51.1554 175.532 51.1901 175.469 51.2143C175.407 51.2385 175.341 51.2524 175.272 51.2524L175.268 51.2489Z" fill="#26282B"/>
<path d="M175.009 61.0232V59.9425L174.763 60.0083V59.7936L175.119 59.6343H175.282V61.0232H175.005H175.009Z" fill="#26282B"/>
<path d="M175.729 61.0232V59.9425L175.483 60.0083V59.7936L175.84 59.6343H176.003V61.0232H175.726H175.729Z" fill="#26282B"/>
<path d="M160.593 60.999V59.9184L160.347 59.9842V59.7695L160.704 59.6101H160.867V60.999H160.59H160.593Z" fill="#26282B"/>
<path d="M161.709 61.0233C161.58 61.0233 161.473 60.9921 161.38 60.9332C161.289 60.8709 161.22 60.7878 161.172 60.6804C161.123 60.573 161.099 60.4483 161.099 60.3063C161.099 60.1643 161.123 60.0396 161.172 59.9323C161.22 59.8249 161.289 59.7418 161.38 59.6794C161.47 59.6171 161.58 59.5894 161.709 59.5894C161.837 59.5894 161.944 59.6205 162.034 59.6794C162.124 59.7383 162.193 59.8249 162.242 59.9323C162.29 60.0396 162.315 60.1643 162.315 60.3063C162.315 60.4483 162.29 60.573 162.242 60.6804C162.193 60.7878 162.124 60.8709 162.034 60.9332C161.944 60.9921 161.837 61.0233 161.709 61.0233ZM161.709 60.7843C161.774 60.7843 161.833 60.7635 161.882 60.7254C161.934 60.6873 161.972 60.6319 162 60.5592C162.027 60.4864 162.041 60.4033 162.041 60.3063C162.041 60.2093 162.027 60.1227 162 60.0535C161.972 59.9842 161.93 59.9288 161.882 59.8872C161.83 59.8491 161.774 59.8283 161.709 59.8283C161.643 59.8283 161.584 59.8491 161.535 59.8872C161.483 59.9253 161.445 59.9807 161.418 60.0535C161.39 60.1262 161.376 60.2093 161.376 60.3063C161.376 60.4033 161.39 60.4899 161.418 60.5592C161.445 60.6319 161.483 60.6873 161.535 60.7254C161.584 60.7635 161.643 60.7843 161.709 60.7843Z" fill="#26282B"/>
<path d="M145.412 61.0233C145.315 61.0233 145.236 61.006 145.166 60.9679C145.101 60.9298 145.049 60.8813 145.011 60.819C144.972 60.7566 144.952 60.6908 144.945 60.6216H145.194C145.204 60.6804 145.229 60.7255 145.267 60.7566C145.305 60.7878 145.353 60.8017 145.416 60.8017C145.478 60.8017 145.523 60.7843 145.565 60.7497C145.606 60.7151 145.637 60.6631 145.662 60.5973C145.686 60.5315 145.7 60.4449 145.7 60.3445C145.7 60.341 145.7 60.3375 145.7 60.3341V60.3237C145.679 60.3549 145.651 60.386 145.617 60.4172C145.582 60.4484 145.54 60.4691 145.495 60.4865C145.45 60.5038 145.405 60.5107 145.357 60.5107C145.281 60.5107 145.208 60.4934 145.142 60.4553C145.076 60.4172 145.021 60.3652 144.979 60.2994C144.938 60.2336 144.917 60.1505 144.917 60.0604C144.917 59.9739 144.938 59.8977 144.979 59.8249C145.021 59.7522 145.076 59.6968 145.153 59.6517C145.225 59.6102 145.312 59.5859 145.405 59.5859C145.509 59.5859 145.596 59.6067 145.669 59.6448C145.741 59.6829 145.797 59.7349 145.842 59.8007C145.887 59.8665 145.915 59.9392 145.935 60.0189C145.953 60.0985 145.963 60.1817 145.963 60.2613C145.963 60.4172 145.942 60.5488 145.897 60.6666C145.856 60.7809 145.79 60.8709 145.71 60.9333C145.627 60.9956 145.527 61.0268 145.409 61.0268L145.412 61.0233ZM145.423 60.2821C145.468 60.2821 145.509 60.2717 145.547 60.2544C145.585 60.2371 145.613 60.2094 145.634 60.1713C145.655 60.1366 145.665 60.0951 145.665 60.0501C145.665 60.005 145.655 59.9635 145.634 59.9288C145.613 59.8942 145.585 59.8665 145.547 59.8457C145.509 59.8249 145.468 59.8145 145.419 59.8145C145.371 59.8145 145.333 59.8249 145.295 59.8457C145.256 59.8665 145.229 59.8942 145.208 59.9254C145.187 59.96 145.177 60.0016 145.177 60.0466C145.177 60.0916 145.187 60.1366 145.208 60.1713C145.229 60.2059 145.256 60.2336 145.295 60.2509C145.333 60.2717 145.374 60.2787 145.419 60.2787L145.423 60.2821Z" fill="#26282B"/>
<path d="M129.663 61.0233C129.566 61.0233 129.483 61.006 129.407 60.9714C129.331 60.9367 129.269 60.8882 129.224 60.8259C129.179 60.7636 129.154 60.6908 129.154 60.6112C129.154 60.5557 129.165 60.5038 129.185 60.4553C129.206 60.4068 129.234 60.3687 129.269 60.3306C129.303 60.296 129.345 60.2683 129.39 60.2509C129.331 60.2232 129.282 60.1817 129.244 60.1332C129.206 60.0812 129.189 60.0224 129.189 59.96C129.189 59.8977 129.206 59.8353 129.241 59.7764C129.276 59.7176 129.331 59.6725 129.4 59.6379C129.469 59.6033 129.56 59.5859 129.66 59.5859C129.76 59.5859 129.85 59.6033 129.923 59.6379C129.996 59.6725 130.044 59.7176 130.083 59.7764C130.117 59.8319 130.134 59.8942 130.134 59.96C130.134 60.0258 130.117 60.0812 130.079 60.1332C130.044 60.1851 129.996 60.2267 129.934 60.2544C129.982 60.2752 130.024 60.3029 130.058 60.3375C130.093 60.3722 130.121 60.4137 130.138 60.4588C130.155 60.5038 130.166 60.5557 130.166 60.6146C130.166 60.6977 130.145 60.7705 130.1 60.8294C130.055 60.8882 129.992 60.9402 129.916 60.9748C129.84 61.0095 129.754 61.0268 129.66 61.0268L129.663 61.0233ZM129.663 60.7982C129.743 60.7982 129.805 60.7774 129.847 60.7393C129.889 60.6977 129.909 60.6493 129.909 60.5869C129.909 60.5176 129.889 60.4657 129.844 60.4276C129.802 60.3895 129.74 60.3687 129.663 60.3687C129.587 60.3687 129.525 60.3895 129.483 60.4276C129.438 60.4657 129.418 60.5211 129.418 60.5869C129.418 60.6493 129.438 60.6977 129.48 60.7393C129.521 60.7774 129.584 60.7982 129.663 60.7982ZM129.663 60.1747C129.729 60.1747 129.781 60.1574 129.819 60.1228C129.857 60.0882 129.875 60.0431 129.875 59.9912C129.875 59.9323 129.857 59.8873 129.819 59.8561C129.785 59.8249 129.733 59.8076 129.663 59.8076C129.594 59.8076 129.546 59.8249 129.511 59.8561C129.473 59.8873 129.456 59.9358 129.456 59.9946C129.456 60.0466 129.473 60.0916 129.511 60.1263C129.549 60.1609 129.598 60.1782 129.663 60.1782V60.1747Z" fill="#26282B"/>
<path d="M113.198 61.0232L113.707 59.8629H113.035V59.6343H113.984V59.8213L113.475 61.0232H113.198Z" fill="#26282B"/>
<path d="M100.112 61.0233C100.008 61.0233 99.9182 61.006 99.8455 60.9644C99.7727 60.9263 99.7173 60.8744 99.6723 60.8086C99.6307 60.7428 99.5996 60.67 99.5788 60.5904C99.558 60.5107 99.5476 60.4311 99.5476 60.3479C99.5476 60.1921 99.5684 60.057 99.6134 59.9427C99.6584 59.8284 99.7208 59.7418 99.8004 59.6795C99.8836 59.6171 99.9806 59.5859 100.098 59.5859C100.195 59.5859 100.278 59.6033 100.344 59.6414C100.41 59.6795 100.462 59.7279 100.504 59.7868C100.542 59.8492 100.562 59.915 100.569 59.9842H100.32C100.31 59.9254 100.285 59.8803 100.244 59.8492C100.206 59.818 100.154 59.8041 100.091 59.8041C100.036 59.8041 99.9875 59.8215 99.9459 59.8561C99.9044 59.8907 99.8697 59.9427 99.8489 60.012C99.8247 60.0812 99.8108 60.1678 99.8074 60.2717V60.2787C99.8282 60.2509 99.8559 60.2163 99.8905 60.1886C99.9251 60.1609 99.9632 60.1366 100.012 60.1228C100.06 60.1089 100.105 60.0985 100.154 60.0985C100.23 60.0985 100.303 60.1159 100.368 60.154C100.434 60.1921 100.486 60.244 100.528 60.3098C100.569 60.3791 100.587 60.4588 100.587 60.5488C100.587 60.6319 100.566 60.7081 100.528 60.7809C100.49 60.8536 100.431 60.9125 100.358 60.9541C100.285 60.9956 100.202 61.0199 100.105 61.0199L100.112 61.0233ZM100.095 60.7947C100.143 60.7947 100.185 60.7843 100.22 60.7636C100.254 60.7428 100.285 60.7151 100.306 60.6804C100.327 60.6458 100.337 60.6042 100.337 60.5592C100.337 60.5107 100.327 60.4692 100.306 60.4345C100.285 60.3999 100.258 60.3722 100.22 60.3514C100.181 60.3341 100.14 60.3237 100.091 60.3237C100.043 60.3237 100.005 60.3341 99.9667 60.3514C99.9286 60.3722 99.9009 60.3964 99.8801 60.4345C99.8593 60.4692 99.8455 60.5107 99.8455 60.5557C99.8455 60.6008 99.8559 60.6423 99.8801 60.677C99.9044 60.7116 99.9321 60.7393 99.9702 60.7601C100.008 60.7809 100.05 60.7913 100.095 60.7913V60.7947Z" fill="#26282B"/>
<path d="M175.009 70.5447V69.464L174.763 69.5298V69.3151L175.119 69.1558H175.282V70.5447H175.005H175.009Z" fill="#26282B"/>
<path d="M175.642 70.5447L176.152 69.3844H175.48V69.1558H176.429V69.3428L175.919 70.5447H175.642Z" fill="#26282B"/>
<path d="M160.593 70.524V69.4434L160.347 69.5092V69.2945L160.704 69.1351H160.867V70.524H160.59H160.593Z" fill="#26282B"/>
<path d="M161.667 70.5448C161.563 70.5448 161.473 70.5275 161.4 70.4859C161.328 70.4478 161.272 70.3959 161.227 70.3301C161.186 70.2643 161.154 70.1915 161.134 70.1119C161.113 70.0322 161.103 69.9525 161.103 69.8694C161.103 69.7135 161.123 69.5785 161.168 69.4642C161.213 69.3499 161.276 69.2633 161.355 69.2009C161.439 69.1386 161.535 69.1074 161.653 69.1074C161.75 69.1074 161.833 69.1247 161.899 69.1628C161.965 69.2009 162.017 69.2494 162.058 69.3083C162.097 69.3706 162.117 69.4365 162.124 69.5057H161.875C161.865 69.4469 161.84 69.4018 161.799 69.3707C161.761 69.3395 161.709 69.3256 161.646 69.3256C161.591 69.3256 161.542 69.3429 161.501 69.3776C161.459 69.4122 161.425 69.4642 161.404 69.5334C161.38 69.6027 161.366 69.6893 161.362 69.7932V69.8001C161.383 69.7724 161.411 69.7378 161.445 69.7101C161.48 69.6824 161.518 69.6581 161.567 69.6443C161.615 69.6304 161.66 69.62 161.709 69.62C161.785 69.62 161.858 69.6374 161.923 69.6755C161.989 69.7135 162.041 69.7655 162.083 69.8313C162.124 69.9006 162.142 69.9802 162.142 70.0703C162.142 70.1534 162.121 70.2296 162.083 70.3024C162.045 70.3751 161.986 70.434 161.913 70.4755C161.84 70.5171 161.757 70.5413 161.66 70.5413L161.667 70.5448ZM161.65 70.3162C161.698 70.3162 161.74 70.3058 161.774 70.285C161.809 70.2643 161.84 70.2365 161.861 70.2019C161.882 70.1673 161.892 70.1257 161.892 70.0807C161.892 70.0322 161.882 69.9906 161.861 69.956C161.84 69.9214 161.813 69.8937 161.774 69.8729C161.736 69.8556 161.695 69.8452 161.646 69.8452C161.598 69.8452 161.56 69.8556 161.522 69.8729C161.484 69.8937 161.456 69.9179 161.435 69.956C161.414 69.9906 161.4 70.0322 161.4 70.0772C161.4 70.1222 161.411 70.1638 161.435 70.1984C161.459 70.2331 161.487 70.2608 161.525 70.2816C161.563 70.3024 161.605 70.3127 161.65 70.3127V70.3162Z" fill="#26282B"/>
<path d="M144.924 79.5809V79.3835C145.007 79.3177 145.09 79.2484 145.17 79.1826C145.25 79.1134 145.322 79.0476 145.385 78.9817C145.447 78.9159 145.499 78.8501 145.537 78.7878C145.575 78.7254 145.593 78.6631 145.593 78.6042C145.593 78.5661 145.586 78.5315 145.572 78.5038C145.558 78.4761 145.537 78.4483 145.506 78.4276C145.478 78.4102 145.44 78.3999 145.395 78.3999C145.35 78.3999 145.309 78.4103 145.277 78.431C145.246 78.4518 145.222 78.4795 145.205 78.5142C145.187 78.5488 145.18 78.5869 145.18 78.6319H144.921C144.921 78.5315 144.945 78.4449 144.986 78.3756C145.028 78.3063 145.087 78.2544 145.16 78.2232C145.232 78.192 145.312 78.1713 145.399 78.1713C145.499 78.1713 145.582 78.1886 145.648 78.2267C145.714 78.2613 145.766 78.3133 145.8 78.3722C145.835 78.4345 145.852 78.5038 145.852 78.5869C145.852 78.6492 145.842 78.7081 145.818 78.767C145.797 78.8259 145.766 78.8813 145.724 78.9367C145.686 78.9921 145.641 79.0441 145.593 79.096C145.544 79.148 145.492 79.193 145.44 79.2415C145.388 79.2865 145.336 79.3281 145.284 79.3697H145.88V79.5879H144.91L144.924 79.5809Z" fill="#26282B"/>
<path d="M146.275 79.5809V78.5003L146.029 78.5661V78.3514L146.386 78.192H146.549V79.5809H146.272H146.275Z" fill="#26282B"/>
<path d="M160.347 79.5809V79.3835C160.43 79.3177 160.514 79.2484 160.593 79.1826C160.673 79.1134 160.746 79.0476 160.808 78.9817C160.87 78.9159 160.922 78.8501 160.96 78.7878C160.999 78.7254 161.016 78.6631 161.016 78.6042C161.016 78.5661 161.009 78.5315 160.995 78.5038C160.981 78.4761 160.96 78.4483 160.929 78.4276C160.902 78.4102 160.863 78.3999 160.818 78.3999C160.773 78.3999 160.732 78.4103 160.701 78.431C160.669 78.4518 160.645 78.4795 160.628 78.5142C160.611 78.5488 160.604 78.5869 160.604 78.6319H160.344C160.344 78.5315 160.368 78.4449 160.41 78.3756C160.451 78.3063 160.51 78.2544 160.583 78.2232C160.656 78.192 160.735 78.1713 160.822 78.1713C160.922 78.1713 161.005 78.1886 161.071 78.2267C161.137 78.2613 161.189 78.3133 161.224 78.3722C161.258 78.4345 161.276 78.5038 161.276 78.5869C161.276 78.6492 161.265 78.7081 161.241 78.767C161.22 78.8259 161.189 78.8813 161.147 78.9367C161.109 78.9921 161.064 79.0441 161.016 79.096C160.967 79.148 160.915 79.193 160.863 79.2415C160.811 79.2865 160.76 79.3281 160.708 79.3697H161.303V79.5879H160.333L160.347 79.5809Z" fill="#26282B"/>
<path d="M161.494 79.5809V79.3835C161.577 79.3177 161.66 79.2484 161.74 79.1826C161.819 79.1134 161.892 79.0476 161.954 78.9817C162.017 78.9159 162.069 78.8501 162.107 78.7878C162.145 78.7254 162.162 78.6631 162.162 78.6042C162.162 78.5661 162.155 78.5315 162.142 78.5038C162.128 78.4761 162.107 78.4483 162.076 78.4276C162.048 78.4102 162.01 78.3999 161.965 78.3999C161.92 78.3999 161.878 78.4103 161.847 78.431C161.816 78.4518 161.792 78.4795 161.774 78.5142C161.757 78.5488 161.75 78.5869 161.75 78.6319H161.49C161.49 78.5315 161.515 78.4449 161.556 78.3756C161.598 78.3063 161.657 78.2544 161.729 78.2232C161.802 78.192 161.882 78.1713 161.968 78.1713C162.069 78.1713 162.152 78.1886 162.218 78.2267C162.284 78.2613 162.335 78.3133 162.37 78.3722C162.405 78.4345 162.422 78.5038 162.422 78.5869C162.422 78.6492 162.412 78.7081 162.387 78.767C162.367 78.8259 162.335 78.8813 162.294 78.9367C162.256 78.9921 162.211 79.0441 162.162 79.096C162.114 79.148 162.062 79.193 162.01 79.2415C161.958 79.2865 161.906 79.3281 161.854 79.3697H162.45V79.5879H161.48L161.494 79.5809Z" fill="#26282B"/>
<path d="M174.763 79.5601V79.3627C174.846 79.2969 174.929 79.2276 175.008 79.1618C175.088 79.0926 175.161 79.0267 175.223 78.9609C175.286 78.8951 175.337 78.8293 175.376 78.767C175.414 78.7046 175.431 78.6423 175.431 78.5834C175.431 78.5453 175.424 78.5107 175.41 78.483C175.396 78.4552 175.376 78.4275 175.344 78.4068C175.317 78.3894 175.279 78.379 175.234 78.379C175.189 78.379 175.147 78.3894 175.116 78.4102C175.085 78.431 175.06 78.4587 175.043 78.4933C175.026 78.528 175.019 78.5661 175.019 78.6111H174.759C174.759 78.5107 174.783 78.4241 174.825 78.3548C174.866 78.2855 174.925 78.2336 174.998 78.2024C175.071 78.1712 175.15 78.1505 175.237 78.1505C175.337 78.1505 175.421 78.1678 175.486 78.2059C175.552 78.2405 175.604 78.2925 175.639 78.3513C175.673 78.4137 175.691 78.483 175.691 78.5661C175.691 78.6284 175.68 78.6873 175.656 78.7462C175.635 78.8051 175.604 78.8605 175.563 78.9159C175.525 78.9713 175.479 79.0233 175.431 79.0752C175.382 79.1272 175.331 79.1722 175.279 79.2207C175.227 79.2657 175.175 79.3073 175.123 79.3489H175.718V79.5671H174.749L174.763 79.5601Z" fill="#26282B"/>
<path d="M176.401 79.5811C176.311 79.5811 176.228 79.5638 176.152 79.5327C176.075 79.498 176.016 79.4495 175.971 79.3803C175.926 79.311 175.902 79.2279 175.899 79.124H176.162C176.162 79.169 176.176 79.2071 176.193 79.2417C176.21 79.2763 176.238 79.3041 176.273 79.3248C176.307 79.3456 176.349 79.356 176.397 79.356C176.446 79.356 176.484 79.3456 176.515 79.3283C176.55 79.311 176.574 79.2867 176.591 79.2556C176.609 79.2244 176.616 79.1898 176.616 79.1517C176.616 79.1066 176.605 79.0651 176.581 79.0374C176.56 79.0062 176.526 78.9819 176.487 78.9681C176.446 78.9508 176.401 78.9438 176.349 78.9438H176.245V78.7222H176.349C176.415 78.7222 176.47 78.7083 176.515 78.6771C176.56 78.646 176.581 78.6009 176.581 78.5386C176.581 78.4867 176.564 78.4485 176.533 78.4174C176.501 78.3862 176.453 78.3724 176.394 78.3724C176.332 78.3724 176.283 78.3897 176.245 78.4278C176.207 78.4659 176.19 78.5109 176.186 78.5663H175.923C175.926 78.4797 175.947 78.4035 175.989 78.3412C176.03 78.2788 176.082 78.2303 176.152 78.1957C176.221 78.1611 176.3 78.1472 176.394 78.1472C176.491 78.1472 176.571 78.1645 176.64 78.1992C176.706 78.2338 176.758 78.2788 176.792 78.3343C176.827 78.3897 176.844 78.452 176.844 78.5178C176.844 78.5732 176.834 78.6183 176.813 78.6633C176.792 78.7049 176.765 78.7395 176.73 78.7672C176.695 78.7949 176.657 78.8157 176.616 78.8295C176.668 78.8399 176.713 78.8573 176.751 78.8884C176.789 78.9196 176.82 78.9577 176.844 79.0027C176.865 79.0478 176.879 79.1032 176.879 79.1621C176.879 79.2382 176.862 79.3075 176.823 79.3699C176.785 79.4322 176.733 79.4842 176.661 79.5223C176.588 79.5604 176.501 79.5811 176.397 79.5811H176.401Z" fill="#26282B"/>
<path d="M174.763 88.4895V88.2921C174.846 88.2263 174.929 88.157 175.009 88.0912C175.088 88.022 175.161 87.9562 175.223 87.8903C175.286 87.8245 175.338 87.7587 175.376 87.6964C175.414 87.634 175.431 87.5717 175.431 87.5128C175.431 87.4747 175.424 87.4401 175.41 87.4124C175.396 87.3847 175.376 87.3569 175.345 87.3362C175.317 87.3188 175.279 87.3085 175.234 87.3085C175.189 87.3085 175.147 87.3189 175.116 87.3396C175.085 87.3604 175.061 87.3881 175.043 87.4228C175.026 87.4574 175.019 87.4955 175.019 87.5405H174.759C174.759 87.4401 174.783 87.3535 174.825 87.2842C174.867 87.2149 174.925 87.163 174.998 87.1318C175.071 87.1006 175.151 87.0799 175.237 87.0799C175.338 87.0799 175.421 87.0972 175.487 87.1353C175.552 87.1699 175.604 87.2219 175.639 87.2807C175.674 87.3431 175.691 87.4124 175.691 87.4955C175.691 87.5578 175.68 87.6167 175.656 87.6756C175.635 87.7345 175.604 87.7899 175.563 87.8453C175.525 87.9007 175.48 87.9527 175.431 88.0046C175.383 88.0566 175.331 88.1016 175.279 88.1501C175.227 88.1951 175.175 88.2367 175.123 88.2783H175.719V88.4965H174.749L174.763 88.4895Z" fill="#26282B"/>
<path d="M176.404 88.5139C176.307 88.5139 176.228 88.4965 176.158 88.4585C176.093 88.4204 176.041 88.3719 176.003 88.3095C175.964 88.2472 175.944 88.1814 175.937 88.1121H176.186C176.197 88.171 176.221 88.216 176.259 88.2472C176.297 88.2783 176.345 88.2922 176.408 88.2922C176.47 88.2922 176.515 88.2749 176.557 88.2402C176.598 88.2056 176.629 88.1537 176.654 88.0878C176.678 88.022 176.692 87.9354 176.692 87.835C176.692 87.8315 176.692 87.8281 176.692 87.8246V87.8142C176.671 87.8454 176.643 87.8766 176.609 87.9077C176.574 87.9389 176.532 87.9597 176.487 87.977C176.442 87.9943 176.397 88.0013 176.349 88.0013C176.273 88.0013 176.2 87.9839 176.134 87.9458C176.068 87.9077 176.013 87.8558 175.971 87.79C175.93 87.7242 175.909 87.641 175.909 87.551C175.909 87.4644 175.93 87.3882 175.971 87.3155C176.013 87.2427 176.068 87.1873 176.145 87.1423C176.217 87.1007 176.304 87.0765 176.397 87.0765C176.501 87.0765 176.588 87.0973 176.661 87.1354C176.733 87.1735 176.789 87.2254 176.834 87.2912C176.879 87.357 176.907 87.4298 176.927 87.5094C176.945 87.5891 176.955 87.6722 176.955 87.7519C176.955 87.9077 176.934 88.0394 176.889 88.1571C176.848 88.2714 176.782 88.3615 176.702 88.4238C176.619 88.4862 176.519 88.5173 176.401 88.5173L176.404 88.5139ZM176.415 87.7727C176.46 87.7727 176.501 87.7623 176.539 87.745C176.578 87.7276 176.605 87.6999 176.626 87.6618C176.647 87.6272 176.657 87.5856 176.657 87.5406C176.657 87.4956 176.647 87.454 176.626 87.4194C176.605 87.3847 176.578 87.357 176.539 87.3362C176.501 87.3155 176.46 87.3051 176.411 87.3051C176.363 87.3051 176.325 87.3155 176.287 87.3362C176.248 87.357 176.221 87.3847 176.2 87.4159C176.179 87.4505 176.169 87.4921 176.169 87.5371C176.169 87.5822 176.179 87.6272 176.2 87.6618C176.221 87.6965 176.248 87.7242 176.287 87.7415C176.325 87.7623 176.366 87.7692 176.411 87.7692L176.415 87.7727Z" fill="#26282B"/>
<path d="M144.924 88.5136V88.3161C145.007 88.2503 145.09 88.1811 145.17 88.1152C145.25 88.046 145.322 87.9802 145.385 87.9144C145.447 87.8486 145.499 87.7827 145.537 87.7204C145.575 87.6581 145.593 87.5957 145.593 87.5368C145.593 87.4987 145.586 87.4641 145.572 87.4364C145.558 87.4087 145.537 87.381 145.506 87.3602C145.478 87.3429 145.44 87.3325 145.395 87.3325C145.35 87.3325 145.309 87.3429 145.277 87.3637C145.246 87.3844 145.222 87.4121 145.205 87.4468C145.187 87.4814 145.18 87.5195 145.18 87.5645H144.921C144.921 87.4641 144.945 87.3775 144.986 87.3082C145.028 87.239 145.087 87.187 145.16 87.1558C145.232 87.1247 145.312 87.1039 145.399 87.1039C145.499 87.1039 145.582 87.1212 145.648 87.1593C145.714 87.1939 145.766 87.2459 145.8 87.3048C145.835 87.3671 145.852 87.4364 145.852 87.5195C145.852 87.5819 145.842 87.6407 145.818 87.6996C145.797 87.7585 145.766 87.8139 145.724 87.8693C145.686 87.9248 145.641 87.9767 145.593 88.0287C145.544 88.0806 145.492 88.1256 145.44 88.1741C145.388 88.2192 145.336 88.2607 145.284 88.3023H145.88V88.5205H144.91L144.924 88.5136Z" fill="#26282B"/>
<path d="M146.175 88.5136L146.684 87.3533H146.012V87.1247H146.961V87.3117L146.452 88.5136H146.175Z" fill="#26282B"/>
<path d="M129.421 88.4895V88.2921C129.504 88.2263 129.587 88.157 129.667 88.0912C129.747 88.022 129.819 87.9562 129.882 87.8903C129.944 87.8245 129.996 87.7587 130.034 87.6964C130.072 87.634 130.089 87.5717 130.089 87.5128C130.089 87.4747 130.083 87.4401 130.069 87.4124C130.055 87.3847 130.034 87.3569 130.003 87.3362C129.975 87.3188 129.937 87.3085 129.892 87.3085C129.847 87.3085 129.805 87.3189 129.774 87.3396C129.743 87.3604 129.719 87.3881 129.702 87.4228C129.684 87.4574 129.677 87.4955 129.677 87.5405H129.417C129.417 87.4401 129.442 87.3535 129.483 87.2842C129.525 87.2149 129.584 87.163 129.656 87.1318C129.729 87.1006 129.809 87.0799 129.895 87.0799C129.996 87.0799 130.079 87.0972 130.145 87.1353C130.211 87.1699 130.263 87.2219 130.297 87.2807C130.332 87.3431 130.349 87.4124 130.349 87.4955C130.349 87.5578 130.339 87.6167 130.315 87.6756C130.294 87.7345 130.263 87.7899 130.221 87.8453C130.183 87.9007 130.138 87.9527 130.089 88.0046C130.041 88.0566 129.989 88.1016 129.937 88.1501C129.885 88.1951 129.833 88.2367 129.781 88.2783H130.377V88.4965H129.407L129.421 88.4895Z" fill="#26282B"/>
<path d="M131.125 88.5139C131.021 88.5139 130.931 88.4965 130.858 88.455C130.786 88.4169 130.73 88.3649 130.685 88.2991C130.644 88.2333 130.612 88.1606 130.592 88.0809C130.571 88.0013 130.561 87.9216 130.561 87.8385C130.561 87.6826 130.581 87.5475 130.626 87.4332C130.671 87.3189 130.734 87.2323 130.813 87.17C130.897 87.1077 130.993 87.0765 131.111 87.0765C131.208 87.0765 131.291 87.0938 131.357 87.1319C131.423 87.17 131.475 87.2185 131.516 87.2774C131.555 87.3397 131.575 87.4055 131.582 87.4748H131.333C131.323 87.4159 131.298 87.3709 131.257 87.3397C131.219 87.3085 131.167 87.2947 131.104 87.2947C131.049 87.2947 131 87.312 130.959 87.3466C130.917 87.3813 130.883 87.4332 130.862 87.5025C130.838 87.5718 130.824 87.6584 130.82 87.7623V87.7692C130.841 87.7415 130.869 87.7069 130.903 87.6791C130.938 87.6514 130.976 87.6272 131.025 87.6133C131.073 87.5995 131.118 87.5891 131.167 87.5891C131.243 87.5891 131.316 87.6064 131.381 87.6445C131.447 87.6826 131.499 87.7346 131.541 87.8004C131.582 87.8696 131.6 87.9493 131.6 88.0394C131.6 88.1225 131.579 88.1987 131.541 88.2714C131.503 88.3441 131.444 88.403 131.371 88.4446C131.298 88.4862 131.215 88.5104 131.118 88.5104L131.125 88.5139ZM131.108 88.2853C131.156 88.2853 131.198 88.2749 131.232 88.2541C131.267 88.2333 131.298 88.2056 131.319 88.171C131.34 88.1363 131.35 88.0948 131.35 88.0497C131.35 88.0013 131.34 87.9597 131.319 87.9251C131.298 87.8904 131.271 87.8627 131.232 87.8419C131.194 87.8246 131.153 87.8142 131.104 87.8142C131.056 87.8142 131.018 87.8246 130.98 87.8419C130.942 87.8627 130.914 87.887 130.893 87.9251C130.872 87.9597 130.858 88.0013 130.858 88.0463C130.858 88.0913 130.869 88.1329 130.893 88.1675C130.917 88.2021 130.945 88.2299 130.983 88.2506C131.021 88.2714 131.063 88.2818 131.108 88.2818V88.2853Z" fill="#26282B"/>
<path d="M113.121 88.4893V88.2918C113.205 88.226 113.288 88.1568 113.367 88.091C113.447 88.0217 113.52 87.9559 113.582 87.8901C113.644 87.8243 113.696 87.7585 113.734 87.6961C113.773 87.6338 113.79 87.5714 113.79 87.5125C113.79 87.4744 113.783 87.4398 113.769 87.4121C113.755 87.3844 113.734 87.3567 113.703 87.3359C113.676 87.3186 113.637 87.3082 113.592 87.3082C113.547 87.3082 113.506 87.3186 113.475 87.3394C113.444 87.3601 113.419 87.3878 113.402 87.4225C113.385 87.4571 113.378 87.4952 113.378 87.5402H113.118C113.118 87.4398 113.142 87.3532 113.184 87.2839C113.225 87.2147 113.284 87.1627 113.357 87.1315C113.43 87.1004 113.509 87.0796 113.596 87.0796C113.696 87.0796 113.779 87.0969 113.845 87.135C113.911 87.1696 113.963 87.2216 113.998 87.2805C114.032 87.3428 114.05 87.4121 114.05 87.4952C114.05 87.5576 114.039 87.6164 114.015 87.6753C113.994 87.7342 113.963 87.7896 113.921 87.845C113.883 87.9005 113.838 87.9524 113.79 88.0044C113.741 88.0563 113.689 88.1013 113.637 88.1498C113.586 88.1949 113.534 88.2364 113.482 88.278H114.077V88.4962H113.108L113.121 88.4893Z" fill="#26282B"/>
<path d="M114.801 88.5135C114.697 88.5135 114.611 88.4962 114.538 88.4616C114.465 88.4269 114.406 88.3784 114.365 88.3161C114.323 88.2537 114.299 88.1845 114.296 88.1048H114.559C114.569 88.1568 114.593 88.1983 114.638 88.2364C114.683 88.2711 114.739 88.2884 114.805 88.2884C114.853 88.2884 114.895 88.278 114.929 88.2537C114.964 88.2295 114.992 88.1983 115.012 88.1568C115.033 88.1152 115.044 88.0702 115.044 88.0182C115.044 87.9663 115.033 87.9178 115.012 87.8797C114.992 87.8416 114.964 87.8104 114.929 87.7896C114.895 87.7688 114.853 87.7585 114.808 87.7585C114.753 87.7585 114.704 87.7723 114.663 87.8C114.621 87.8277 114.593 87.8589 114.576 87.897H114.316L114.431 87.1004H115.213V87.3359H114.632L114.576 87.6476C114.604 87.6164 114.642 87.5887 114.69 87.5714C114.739 87.5541 114.794 87.5437 114.857 87.5437C114.933 87.5437 114.999 87.5576 115.054 87.5818C115.109 87.6061 115.155 87.6407 115.193 87.6857C115.231 87.7307 115.258 87.7827 115.276 87.8381C115.293 87.8935 115.303 87.9524 115.303 88.0148C115.303 88.0875 115.29 88.1568 115.265 88.2156C115.241 88.278 115.206 88.3299 115.161 88.375C115.116 88.42 115.064 88.4546 115.002 88.4789C114.94 88.5031 114.874 88.517 114.805 88.517L114.801 88.5135Z" fill="#26282B"/>
<path d="M99.6165 88.5136V88.3161C99.6996 88.2503 99.7828 88.1811 99.8624 88.1152C99.9421 88.046 100.015 87.9802 100.077 87.9144C100.14 87.8486 100.191 87.7827 100.23 87.7204C100.268 87.6581 100.285 87.5957 100.285 87.5368C100.285 87.4987 100.278 87.4641 100.264 87.4364C100.25 87.4087 100.23 87.381 100.198 87.3602C100.171 87.3429 100.133 87.3325 100.088 87.3325C100.043 87.3325 100.001 87.3429 99.9698 87.3637C99.9386 87.3844 99.9144 87.4121 99.8971 87.4468C99.8797 87.4814 99.8728 87.5195 99.8728 87.5645H99.6131C99.6131 87.4641 99.6373 87.3775 99.6789 87.3082C99.7204 87.239 99.7793 87.187 99.852 87.1558C99.9248 87.1247 100.004 87.1039 100.091 87.1039C100.191 87.1039 100.275 87.1212 100.34 87.1593C100.406 87.1939 100.458 87.2459 100.493 87.3048C100.527 87.3671 100.545 87.4364 100.545 87.5195C100.545 87.5819 100.534 87.6407 100.51 87.6996C100.489 87.7585 100.458 87.8139 100.417 87.8693C100.378 87.9248 100.333 87.9767 100.285 88.0287C100.236 88.0806 100.185 88.1256 100.133 88.1741C100.081 88.2192 100.029 88.2607 99.9767 88.3023H100.572V88.5205H99.6027L99.6165 88.5136Z" fill="#26282B"/>
<path d="M101.418 88.5136V88.2607H100.735V88.0494L101.383 87.1247H101.688V88.0287H101.868V88.2607H101.688V88.5136H101.421H101.418ZM101.019 88.0287H101.435V87.4191L101.019 88.0287Z" fill="#26282B"/>
<path d="M88.7273 59.9254H66.3352V82.0646H88.7273V59.9254Z" fill="white"/>
<path fill-rule="evenodd" clip-rule="evenodd" d="M65.8157 59.4058H89.2468V82.5842H65.8157V59.4058ZM66.8548 60.4449V81.5451H88.2078V60.4449H66.8548Z" fill="#26282B"/>
<path d="M158.003 67.4725H142.832V76.0172H158.003V67.4725Z" fill="#66C949"/>
<path d="M172.73 85.4554H158.373V94.0001H172.73V85.4554Z" fill="#66C949"/>
<path d="M145.17 70.5236V69.443L144.924 69.5088V69.294L145.281 69.1347H145.444V70.5236H145.167H145.17Z" fill="#26282B"/>
<path d="M146.216 70.5444C146.112 70.5444 146.026 70.5271 145.953 70.4924C145.88 70.4578 145.821 70.4093 145.78 70.3469C145.738 70.2846 145.714 70.2153 145.71 70.1357H145.974C145.984 70.1876 146.008 70.2292 146.053 70.2673C146.098 70.3019 146.154 70.3192 146.219 70.3192C146.268 70.3192 146.31 70.3088 146.344 70.2846C146.379 70.2604 146.407 70.2292 146.427 70.1876C146.448 70.1461 146.458 70.101 146.458 70.0491C146.458 69.9971 146.448 69.9486 146.427 69.9105C146.407 69.8724 146.379 69.8413 146.344 69.8205C146.31 69.7997 146.268 69.7893 146.223 69.7893C146.168 69.7893 146.119 69.8032 146.077 69.8309C146.036 69.8586 146.008 69.8898 145.991 69.9279H145.731L145.845 69.1312H146.628V69.3668H146.046L145.991 69.6785C146.019 69.6473 146.057 69.6196 146.105 69.6023C146.154 69.585 146.209 69.5746 146.271 69.5746C146.348 69.5746 146.413 69.5884 146.469 69.6127C146.524 69.6369 146.569 69.6715 146.607 69.7166C146.645 69.7616 146.673 69.8136 146.691 69.869C146.708 69.9244 146.718 69.9833 146.718 70.0456C146.718 70.1183 146.704 70.1876 146.68 70.2465C146.656 70.3088 146.621 70.3608 146.576 70.4058C146.531 70.4509 146.479 70.4855 146.417 70.5097C146.355 70.534 146.289 70.5478 146.219 70.5478L146.216 70.5444Z" fill="#26282B"/>
<path d="M69.3762 72.1968L71.5998 69.9697L75.6107 73.3848L84.0688 65.4324L86.1989 67.7426L75.4617 78.0364L69.3762 72.1968Z" fill="#66C949"/>
<path d="M144.287 71.5422L137.966 67.6249V59.9254H88.7272V82.0646H137.966V77.6035L144.287 71.5422Z" fill="white"/>
<path fill-rule="evenodd" clip-rule="evenodd" d="M88.2076 59.4058H138.485V67.3357L145.13 71.4535L138.485 77.8251V82.5842H88.2076V59.4058ZM89.2467 60.4449V81.5451H137.446V77.3819L143.443 71.6309L137.446 67.9142V60.4449H89.2467Z" fill="#26282B"/>
<path d="M117.6 65.6506H94.0958V66.8144H117.6V65.6506Z" fill="#26282B"/>
<path d="M125.389 70.4131H93.8915V71.5768H125.389V70.4131Z" fill="#26282B"/>
<path d="M125.389 75.1235H93.5487V76.2873H125.389V75.1235Z" fill="#26282B"/>
<path d="M160.347 88.4895V88.2921C160.43 88.2263 160.514 88.157 160.593 88.0912C160.673 88.022 160.746 87.9562 160.808 87.8903C160.87 87.8245 160.922 87.7587 160.96 87.6964C160.999 87.634 161.016 87.5717 161.016 87.5128C161.016 87.4747 161.009 87.4401 160.995 87.4124C160.981 87.3847 160.96 87.3569 160.929 87.3362C160.902 87.3188 160.863 87.3085 160.818 87.3085C160.773 87.3085 160.732 87.3189 160.701 87.3396C160.669 87.3604 160.645 87.3881 160.628 87.4228C160.611 87.4574 160.604 87.4955 160.604 87.5405H160.344C160.344 87.4401 160.368 87.3535 160.41 87.2842C160.451 87.2149 160.51 87.163 160.583 87.1318C160.656 87.1006 160.735 87.0799 160.822 87.0799C160.922 87.0799 161.005 87.0972 161.071 87.1353C161.137 87.1699 161.189 87.2219 161.224 87.2807C161.258 87.3431 161.276 87.4124 161.276 87.4955C161.276 87.5578 161.265 87.6167 161.241 87.6756C161.22 87.7345 161.189 87.7899 161.147 87.8453C161.109 87.9007 161.064 87.9527 161.016 88.0046C160.967 88.0566 160.915 88.1016 160.863 88.1501C160.811 88.1951 160.76 88.2367 160.708 88.2783H161.303V88.4965H160.333L160.347 88.4895Z" fill="#26282B"/>
<path d="M162.006 88.5139C161.909 88.5139 161.826 88.4965 161.75 88.4619C161.674 88.4273 161.612 88.3788 161.567 88.3164C161.522 88.2541 161.497 88.1814 161.497 88.1017C161.497 88.0463 161.508 87.9943 161.528 87.9458C161.549 87.8974 161.577 87.8593 161.612 87.8212C161.646 87.7865 161.688 87.7588 161.733 87.7415C161.674 87.7138 161.625 87.6722 161.587 87.6237C161.549 87.5718 161.532 87.5129 161.532 87.4505C161.532 87.3882 161.549 87.3259 161.584 87.267C161.619 87.2081 161.674 87.1631 161.743 87.1284C161.813 87.0938 161.903 87.0765 162.003 87.0765C162.103 87.0765 162.193 87.0938 162.266 87.1284C162.339 87.1631 162.387 87.2081 162.426 87.267C162.46 87.3224 162.478 87.3847 162.478 87.4505C162.478 87.5164 162.46 87.5718 162.422 87.6237C162.387 87.6757 162.339 87.7172 162.277 87.745C162.325 87.7657 162.367 87.7934 162.401 87.8281C162.436 87.8627 162.464 87.9043 162.481 87.9493C162.498 87.9943 162.509 88.0463 162.509 88.1052C162.509 88.1883 162.488 88.261 162.443 88.3199C162.398 88.3788 162.336 88.4307 162.259 88.4654C162.183 88.5 162.097 88.5173 162.003 88.5173L162.006 88.5139ZM162.006 88.2887C162.086 88.2887 162.148 88.268 162.19 88.2299C162.232 88.1883 162.252 88.1398 162.252 88.0775C162.252 88.0082 162.232 87.9562 162.187 87.9181C162.145 87.88 162.083 87.8593 162.006 87.8593C161.93 87.8593 161.868 87.88 161.826 87.9181C161.781 87.9562 161.761 88.0116 161.761 88.0775C161.761 88.1398 161.781 88.1883 161.823 88.2299C161.864 88.268 161.927 88.2887 162.006 88.2887ZM162.006 87.6653C162.072 87.6653 162.124 87.648 162.162 87.6133C162.2 87.5787 162.218 87.5337 162.218 87.4817C162.218 87.4228 162.2 87.3778 162.162 87.3466C162.128 87.3155 162.076 87.2981 162.006 87.2981C161.937 87.2981 161.889 87.3155 161.854 87.3466C161.816 87.3778 161.799 87.4263 161.799 87.4852C161.799 87.5371 161.816 87.5822 161.854 87.6168C161.892 87.6514 161.941 87.6688 162.006 87.6688V87.6653Z" fill="#26282B"/>
<path d="M201.308 111.079C197.588 111.079 193.958 109.195 191.883 105.783C188.725 100.584 190.377 93.806 195.576 90.6472L208.148 83.0066C213.347 79.8478 220.125 81.4999 223.284 86.6987C226.443 91.8976 224.791 98.6758 219.592 101.835L207.019 109.475C205.232 110.563 203.258 111.079 201.308 111.079Z" fill="white"/>
<path fill-rule="evenodd" clip-rule="evenodd" d="M208.418 83.4506C208.418 83.4507 208.418 83.4507 208.418 83.4507L195.845 91.0913L195.845 91.0913C190.892 94.101 189.317 100.56 192.327 105.513C194.304 108.764 197.762 110.56 201.308 110.56C203.166 110.56 205.046 110.068 206.749 109.032L206.749 109.031L219.322 101.391L219.322 101.391C224.276 98.381 225.85 91.9224 222.84 86.9686C219.83 82.0152 213.372 80.4408 208.418 83.4506ZM207.879 82.5627C213.322 79.255 220.42 80.9848 223.728 86.4291C227.036 91.873 225.306 98.9708 219.862 102.279L207.289 109.919C205.418 111.058 203.35 111.599 201.308 111.599C197.414 111.599 193.612 109.626 191.439 106.053L191.439 106.053C188.132 100.609 189.861 93.5113 195.306 90.2034C195.306 90.2034 195.306 90.2033 195.306 90.2033L207.878 82.5627L207.879 82.5627Z" fill="#26282B"/>
<path d="M199.628 105.676C197.661 105.676 195.738 104.678 194.644 102.874C192.971 100.124 193.847 96.539 196.597 94.8695L201.214 91.7939C203.964 90.121 207.549 90.9972 209.219 93.7473C210.892 96.4974 210.015 100.082 207.265 101.752L202.648 104.827C201.703 105.402 200.66 105.676 199.628 105.676Z" fill="white"/>
<path fill-rule="evenodd" clip-rule="evenodd" d="M201.493 92.2323L196.876 95.3079L196.867 95.3136C194.362 96.8341 193.564 100.099 195.088 102.604L195.088 102.604C196.084 104.247 197.834 105.156 199.628 105.156C200.564 105.156 201.51 104.909 202.369 104.389L206.986 101.313L206.996 101.308C209.5 99.787 210.298 96.5219 208.775 94.0173L208.775 94.0169C207.256 91.5151 203.997 90.7159 201.493 92.2323ZM209.663 93.4775C207.844 90.4822 203.94 89.5278 200.944 91.3499L200.935 91.3555L196.318 94.4312C193.33 96.2519 192.38 100.151 194.2 103.143C195.392 105.11 197.487 106.195 199.628 106.195C200.753 106.195 201.889 105.897 202.918 105.271L202.927 105.266L207.544 102.19C210.532 100.369 211.483 96.4697 209.663 93.4775Z" fill="#26282B"/>
<path d="M204.927 129.131C203.019 128.653 201.398 127.219 200.774 125.204C199.822 122.131 201.54 118.865 204.616 117.913L209.842 116.053C212.914 115.1 216.18 116.818 217.133 119.894C218.085 122.966 216.367 126.232 213.292 127.185L208.065 129.045C207.009 129.374 205.928 129.384 204.931 129.135L204.927 129.131Z" fill="white"/>
<path d="M204.91 134.119C201.294 133.236 198.215 130.544 197.013 126.738C195.177 120.937 198.391 114.747 204.193 112.911L218.22 108.471C224.022 106.635 230.211 109.85 232.047 115.651C233.883 121.453 230.668 127.642 224.867 129.478L210.839 133.918C208.844 134.548 206.804 134.583 204.91 134.119Z" fill="white"/>
<path fill-rule="evenodd" clip-rule="evenodd" d="M218.377 108.966C218.377 108.966 218.377 108.966 218.377 108.966L204.35 113.407L204.35 113.407C198.822 115.156 195.759 121.053 197.508 126.581L197.508 126.582C198.653 130.208 201.586 132.772 205.033 133.614L205.033 133.614C206.838 134.056 208.781 134.024 210.683 133.423L224.71 128.982L224.71 128.982C230.238 127.233 233.301 121.336 231.552 115.808C229.803 110.28 223.905 107.217 218.377 108.966ZM218.064 107.976C224.139 106.053 230.62 109.419 232.542 115.494C234.465 121.569 231.099 128.051 225.024 129.973C225.024 129.973 225.024 129.973 225.024 129.973L210.996 134.413L210.996 134.413C208.908 135.073 206.771 135.11 204.786 134.623C201.002 133.699 197.776 130.881 196.517 126.895C194.595 120.82 197.961 114.338 204.036 112.416C204.036 112.416 204.036 112.416 204.036 112.416L218.064 107.976L218.064 107.976Z" fill="#26282B"/>
<path fill-rule="evenodd" clip-rule="evenodd" d="M210.006 116.546L204.779 118.406L204.769 118.409C201.968 119.277 200.403 122.251 201.27 125.05L201.27 125.05C201.838 126.885 203.313 128.192 205.053 128.627L205.193 128.662L205.194 128.663C206.06 128.855 206.99 128.834 207.901 128.552L213.128 126.692L213.138 126.688C215.939 125.821 217.504 122.846 216.636 120.048C215.77 117.25 212.801 115.685 210.006 116.546ZM217.629 119.74C216.591 116.39 213.034 114.519 209.688 115.557L209.678 115.56L204.451 117.42C201.108 118.461 199.242 122.015 200.278 125.357M217.629 119.74C218.665 123.083 216.799 126.636 213.456 127.678L208.229 129.538L208.22 129.541C207.069 129.899 205.891 129.91 204.804 129.639L204.665 129.604L204.659 129.598C202.644 129.043 200.942 127.504 200.278 125.357" fill="#26282B"/>
<path d="M201.843 159.851C198.507 158.199 196.09 154.9 195.749 150.923C195.225 144.861 199.714 139.523 205.776 138.999L220.435 137.731C226.497 137.207 231.835 141.696 232.359 147.758C232.883 153.821 228.394 159.158 222.332 159.682L207.673 160.951C205.588 161.13 203.59 160.718 201.843 159.851Z" fill="white"/>
<path fill-rule="evenodd" clip-rule="evenodd" d="M220.48 138.249C220.48 138.249 220.48 138.249 220.48 138.249L205.821 139.517L205.821 139.517C200.044 140.016 195.767 145.102 196.266 150.879L196.267 150.879C196.592 154.667 198.893 157.811 202.073 159.386L202.073 159.386C203.738 160.211 205.641 160.604 207.628 160.433L222.287 159.165L222.287 159.165C228.063 158.665 232.341 153.58 231.841 147.803C231.342 142.026 226.256 137.749 220.48 138.249ZM220.39 137.213C226.739 136.665 232.328 141.365 232.877 147.714C233.425 154.062 228.725 159.651 222.376 160.2C222.376 160.2 222.376 160.2 222.376 160.2L207.718 161.468L207.717 161.468C205.536 161.656 203.442 161.225 201.612 160.317C198.121 158.588 195.589 155.133 195.231 150.968C194.683 144.62 199.383 139.03 205.731 138.482C205.731 138.482 205.731 138.482 205.731 138.482L220.39 137.213L220.39 137.213Z" fill="#26282B"/>
<path fill-rule="evenodd" clip-rule="evenodd" d="M210.655 143.816L205.148 144.489L205.137 144.49C202.214 144.725 200.037 147.286 200.273 150.206L200.273 150.206C200.425 152.121 201.58 153.718 203.182 154.524L203.311 154.588L203.311 154.589C204.115 154.966 205.027 155.148 205.978 155.072L211.485 154.399L211.495 154.398C214.418 154.163 216.595 151.602 216.36 148.682C216.126 145.762 213.571 143.587 210.655 143.816ZM217.396 148.599C217.115 145.103 214.053 142.5 210.561 142.781L210.55 142.782L205.043 143.455C201.553 143.741 198.956 146.801 199.237 150.289M217.396 148.599C217.677 152.087 215.08 155.147 211.589 155.433L206.083 156.106L206.073 156.107C204.872 156.205 203.72 155.959 202.719 155.456L202.59 155.392L202.586 155.385C200.74 154.403 199.416 152.529 199.237 150.29" fill="#26282B"/>
<path fill-rule="evenodd" clip-rule="evenodd" d="M277.452 262.942L254.724 169.329L253.378 169.656L276.204 263.672L291.654 278.101L292.599 277.088L277.452 262.942Z" fill="#26282B"/>
<path d="M104.622 99.9956H101.851V117.66H104.622V99.9956Z" fill="white"/>
<path d="M292.348 277.851H178.916L145.146 257.762L108.085 238.193L108.672 237.062C113.655 227.466 125.077 223.181 135.142 227.13L154.471 234.716C159.695 236.766 165.645 235.05 168.975 230.531C171.498 227.107 172.088 222.629 170.54 218.668L136.821 132.417C134.617 126.778 137.834 120.481 143.695 118.963C148.516 117.715 153.528 120.167 155.5 124.74L180.767 183.319C181.615 185.284 184.556 184.313 184.184 182.206C183.089 176.005 187.125 169.999 193.296 168.745C199.105 167.564 204.872 170.949 206.672 176.597L207.317 178.619L207.403 177.141C207.755 171.055 212.361 166.068 218.4 165.234C224.668 164.367 230.626 168.224 232.401 174.298L232.601 174.982L232.476 173.767C231.871 167.888 236.055 162.594 241.916 161.825C247.806 161.053 253.233 165.132 254.127 171.005L255.288 178.619L276.242 263.477L292.348 277.851Z" fill="white"/>
<path d="M139.749 128.328C140.248 126.107 141.859 124.192 144.172 123.409C147.698 122.218 151.522 124.112 152.714 127.642L155.017 133.634C156.208 137.16 154.314 140.984 150.784 142.175C147.258 143.367 143.435 141.472 142.243 137.943L139.94 131.951C139.531 130.738 139.486 129.491 139.746 128.328H139.749Z" fill="white"/>
<path fill-rule="evenodd" clip-rule="evenodd" d="M144.394 124.066C147.557 122.997 150.988 124.696 152.057 127.864L144.394 124.066ZM153.365 127.406C152.046 123.524 147.835 121.441 143.951 122.753C141.589 123.552 139.892 125.422 139.216 127.635H139.191L139.07 128.177C138.783 129.461 138.833 130.836 139.283 132.172L139.288 132.186L141.591 138.178C142.91 142.061 147.122 144.144 151.006 142.831M153.365 127.406L155.668 133.399L155.673 133.412C156.987 137.301 154.897 141.518 151.006 142.831M144.394 124.066C142.319 124.768 140.873 126.485 140.425 128.48L140.383 128.669C140.196 129.653 140.251 130.697 140.592 131.716L142.895 137.707L142.899 137.721C143.969 140.888 147.4 142.588 150.563 141.519C153.725 140.451 155.425 137.028 154.365 133.869L152.062 127.877L152.057 127.864" fill="#26282B"/>
<path d="M129.528 248.486C131.17 244.763 130.159 240.257 126.491 238.373L119.796 235.276C115.989 233.319 111.32 234.819 109.363 238.626" fill="white"/>
<path fill-rule="evenodd" clip-rule="evenodd" d="M120.099 234.654L126.794 237.75L126.807 237.757C130.878 239.848 131.914 244.792 130.162 248.766L128.894 248.207C130.424 244.739 129.442 240.677 126.187 238.995L119.492 235.899L119.479 235.893C116.013 234.111 111.761 235.476 109.979 238.942L108.747 238.309C110.877 234.167 115.955 232.532 120.099 234.654Z" fill="#26282B"/>
<path fill-rule="evenodd" clip-rule="evenodd" d="M154.254 124.951C152.384 120.751 147.705 118.57 143.285 119.838C138.079 121.333 135.275 126.971 137.226 132.024L170.711 218.767C172.502 223.407 171.344 228.669 167.769 232.128C164.417 235.373 159.504 236.414 155.123 234.809L128.925 225.21C121.721 222.57 113.635 224.664 108.617 230.468C105.991 233.505 106.913 238.161 110.509 239.897C115.149 242.138 121.149 244.95 127.587 247.776C138.997 252.786 167.165 269.3 179.793 276.911L179.077 278.098C166.421 270.469 138.34 254.01 127.03 249.045C120.574 246.21 114.558 243.391 109.907 241.145C105.47 239.002 104.362 233.272 107.569 229.562C112.964 223.322 121.657 221.071 129.402 223.909L155.6 233.508C159.482 234.931 163.835 234.008 166.806 231.133C169.98 228.061 171.009 223.387 169.418 219.266L135.933 132.523C133.69 126.71 136.914 120.225 142.903 118.507C147.986 117.047 153.368 119.556 155.52 124.388L182.293 184.516C182.562 185.121 183.239 185.431 183.872 185.241C184.528 185.044 184.923 184.378 184.781 183.708L184.423 182.022C183.115 175.867 186.888 169.775 192.981 168.204L193.304 168.121C199.164 166.61 205.087 169.66 207.409 174.986C208.266 169.45 212.678 164.839 218.608 164.077C224.357 163.339 229.797 166.487 232.112 171.612C232.388 166.361 236.265 161.821 241.659 160.907C247.585 159.902 253.283 163.639 254.722 169.475L277.731 262.763L293.684 277.515L292.744 278.533L276.485 263.498L253.377 169.807C252.111 164.676 247.102 161.389 241.891 162.273C236.422 163.199 232.726 168.365 233.614 173.84L234.108 176.887H232.237L231.518 174.086C230.06 168.407 224.6 164.705 218.785 165.452C211.969 166.327 207.398 172.894 208.944 179.59L209.4 181.563H207.619L206.812 177.664C205.572 171.672 199.574 167.935 193.65 169.462L193.327 169.545C187.953 170.931 184.624 176.305 185.778 181.734L186.136 183.42C186.428 184.795 185.617 186.164 184.27 186.568C182.969 186.958 181.58 186.321 181.028 185.08L154.254 124.951Z" fill="#26282B"/>
<path d="M265.159 217.238L180.474 229.534L184.676 187.749L186.442 186.758V184.531L253.871 172.263L265.159 217.238Z" fill="white"/>
<path d="M124.358 153.681H56.3046V193.686H111.376V164.765L125.09 156.243C126.273 155.508 125.752 153.681 124.358 153.681Z" fill="white"/>
<path fill-rule="evenodd" clip-rule="evenodd" d="M55.6119 152.988H124.358C126.449 152.988 127.231 155.728 125.455 156.832L112.068 165.15V194.378H55.6119V152.988ZM56.9974 154.374V192.993H110.683V164.38L124.724 155.655C125.316 155.287 125.055 154.374 124.358 154.374H56.9974Z" fill="#26282B"/>
<path fill-rule="evenodd" clip-rule="evenodd" d="M55.785 174.809H111.074V175.848H55.785V174.809Z" fill="#26282B"/>
<path d="M87.6016 180.351H64.0977V181.515H87.6016V180.351Z" fill="#26282B"/>
<path d="M102.994 185.2H64.0977V186.364H102.994V185.2Z" fill="#26282B"/>
<path fill-rule="evenodd" clip-rule="evenodd" d="M84.2424 166.822L82.9263 169.624L82.9332 169.62C82.7704 169.967 82.2786 169.974 82.1089 169.631C81.8993 169.211 81.6726 168.703 81.4327 168.166C81.3179 167.91 81.2001 167.646 81.0798 167.382C80.6939 166.536 80.1208 165.781 79.5515 165.032C78.7267 163.947 77.9101 162.872 77.6831 161.544C77.3444 159.562 78.0826 157.22 80.5895 156.168C81.478 155.794 82.4719 155.705 83.4178 155.889C85.0172 156.2 86.5088 157.143 87.1865 159.462C87.6921 161.821 86.615 163.265 85.7387 164.311C85.0601 165.123 84.5034 166.28 84.292 166.719C84.2725 166.76 84.2559 166.794 84.2424 166.822ZM84.28 160.923C84.28 161.912 83.4783 162.714 82.4893 162.714C81.5004 162.714 80.6987 161.912 80.6987 160.923C80.6987 159.935 81.5004 159.133 82.4893 159.133C83.4783 159.133 84.28 159.935 84.28 160.923Z" fill="#66C949"/>
<path fill-rule="evenodd" clip-rule="evenodd" d="M316.23 278.53H0.367676V277.491H316.23V278.53Z" fill="#26282B"/>
</svg>
