<svg width="317" height="279" viewBox="0 0 317 279" fill="none" xmlns="http://www.w3.org/2000/svg">
<path d="M270.018 140.436C273.708 140.436 276.699 137.445 276.699 133.755C276.699 130.065 273.708 127.074 270.018 127.074C266.328 127.074 263.336 130.065 263.336 133.755C263.336 137.445 266.328 140.436 270.018 140.436Z" fill="white"/>
<path fill-rule="evenodd" clip-rule="evenodd" d="M270.018 127.42C266.519 127.42 263.683 130.256 263.683 133.755C263.683 137.254 266.519 140.09 270.018 140.09C273.516 140.09 276.352 137.254 276.352 133.755C276.352 130.256 273.516 127.42 270.018 127.42ZM262.99 133.755C262.99 129.874 266.136 126.727 270.018 126.727C273.899 126.727 277.045 129.874 277.045 133.755C277.045 137.636 273.899 140.783 270.018 140.783C266.136 140.783 262.99 137.636 262.99 133.755Z" fill="#26282B"/>
<path fill-rule="evenodd" clip-rule="evenodd" d="M267.963 130.422C269.736 129.414 271.986 130.031 272.994 131.805C274.002 133.578 273.381 135.828 271.612 136.835L271.097 135.932C272.369 135.208 272.815 133.592 272.091 132.318C271.367 131.044 269.752 130.601 268.477 131.325L267.963 130.422Z" fill="#26282B"/>
<path d="M86.8006 59.3677C90.4905 59.3677 93.4818 56.3764 93.4818 52.6864C93.4818 48.9965 90.4905 46.0052 86.8006 46.0052C83.1106 46.0052 80.1193 48.9965 80.1193 52.6864C80.1193 56.3764 83.1106 59.3677 86.8006 59.3677Z" fill="white"/>
<path fill-rule="evenodd" clip-rule="evenodd" d="M86.8006 46.5247C83.3976 46.5247 80.6389 49.2834 80.6389 52.6864C80.6389 56.0895 83.3976 58.8481 86.8006 58.8481C90.2036 58.8481 92.9623 56.0895 92.9623 52.6864C92.9623 49.2834 90.2036 46.5247 86.8006 46.5247ZM79.5998 52.6864C79.5998 48.7095 82.8237 45.4856 86.8006 45.4856C90.7775 45.4856 94.0014 48.7095 94.0014 52.6864C94.0014 56.6633 90.7775 59.8872 86.8006 59.8872C82.8237 59.8872 79.5998 56.6633 79.5998 52.6864Z" fill="#26282B"/>
<path d="M88.8406 46.6702L89.1316 19.9867L106.82 18.629L110.062 76.6406L121.624 79.6747L123.231 82.4837L124.917 88.0185V134.122H116.251L102.657 95.2124L88.7194 80.5856L88.9134 71.6738L89.0138 58.5918" fill="white"/>
<path d="M198.799 201.534L182.808 231.075L187.695 254.981L200.687 250.953L225.23 208.641L198.799 201.534Z" fill="white"/>
<path fill-rule="evenodd" clip-rule="evenodd" d="M198.538 200.926L226.019 208.316L201.034 251.389L187.301 255.647L182.261 230.994L198.538 200.926ZM199.061 202.142L183.355 231.156L188.089 254.315L200.339 250.516L224.44 208.967L199.061 202.142Z" fill="#26282B"/>
<path d="M238.423 169.569L238.613 153.827L255.062 137.953L259.703 113.545L269.21 118.522V143.509L267.662 146.266V167.622L254.442 174.103L240.203 174.608L238.613 169.749" fill="white"/>
<path fill-rule="evenodd" clip-rule="evenodd" d="M237.837 168.727V157.321H238.876V168.727H237.837Z" fill="#26282B"/>
<path fill-rule="evenodd" clip-rule="evenodd" d="M268.182 146.858V165.987H267.143V146.858H268.182Z" fill="#26282B"/>
<path d="M259.713 147.076C256.731 153.411 250.289 157.799 242.825 157.799C232.521 157.799 224.17 149.449 224.17 139.145V114.075C224.17 103.771 232.521 95.4202 242.825 95.4202C253.129 95.4202 261.48 103.771 261.48 114.075" fill="white"/>
<path d="M100.676 69.7238C103.658 76.0587 110.1 80.4471 117.564 80.4471C127.868 80.4471 136.219 72.0963 136.219 61.7922V36.7227C136.219 26.4186 127.868 18.0678 117.564 18.0678C107.26 18.0678 98.9093 26.4186 98.9093 36.7227" fill="white"/>
<path fill-rule="evenodd" clip-rule="evenodd" d="M117.803 17.5483C128.394 17.5483 136.978 26.1316 136.978 36.7227V61.7922C136.978 72.3833 128.394 80.9666 117.803 80.9666C110.13 80.9666 103.509 76.4551 100.445 69.9451L101.385 69.5025C104.284 75.6624 110.548 79.9275 117.803 79.9275C127.82 79.9275 135.939 71.8094 135.939 61.7922V36.7227C135.939 26.7055 127.82 18.5874 117.803 18.5874V17.5483Z" fill="#26282B"/>
<path d="M238.225 99.1435C238.225 99.1435 240.078 105.447 248.519 112C256.96 118.553 262.325 113.954 262.214 117.175C262.155 118.858 262.997 129.921 263.184 132.127C263.246 132.855 264.278 132.945 264.465 132.238L264.659 131.421C264.659 131.421 267.33 124.913 273.831 128.293C275.847 129.343 276.927 132.006 276.269 136.114C276.106 136.509 285.088 127.24 278.978 106.472C272.871 85.7048 253.212 82.4837 238.333 87.3708C223.453 92.2579 220.145 104.917 219.924 110.359C219.702 115.8 224.111 124.462 224.111 124.462L224.267 112.804C224.267 112.804 233.601 110.134 238.222 99.1435H238.225Z" fill="#26282B"/>
<path d="M256.534 86.0408C256.534 86.0408 265.459 73.7139 281.104 76.6025C296.749 79.4911 317.406 113.472 316.184 128.577C314.961 143.682 305.966 128.577 305.966 128.577C305.966 128.577 307.854 139.903 299.524 138.795C291.194 137.683 293.861 128.466 293.861 128.466C293.861 128.466 295.748 148.233 287.976 142.792C280.204 137.35 278.091 129.242 278.091 129.242L267.541 93.1515L256.534 86.0442V86.0408Z" fill="#26282B"/>
<path d="M268.071 165.26C268.071 165.26 293.802 171.913 297.764 179.436C302.679 188.767 305.537 214.197 305.537 214.197H277.108L275.355 250.835L223.55 263.477V233.932C223.55 233.932 218.718 230.49 218.898 224.387C219.044 219.389 219.439 215.174 219.439 215.174C219.439 215.174 210.032 214.751 204.033 211.087C198.037 207.422 195.37 202.313 195.37 202.313C195.37 202.313 210.132 179.561 214.171 177.019C222.916 171.515 238.315 166.957 238.315 166.957C238.315 166.957 239.24 173.687 248.235 173.617C257.23 173.548 268.071 165.26 268.071 165.26Z" fill="#66C949"/>
<path d="M219.224 264.835L202.488 250.911C201.549 250.149 200.341 249.796 199.139 249.931L198.526 250C195.277 250.364 192.17 251.524 189.479 253.377L189.015 254.042L191.498 271.107L195.73 268.205C196.846 267.713 198.152 267.945 199.028 268.79L204.957 274.491L219.221 264.838L219.224 264.835Z" fill="white"/>
<path fill-rule="evenodd" clip-rule="evenodd" d="M199.081 249.415C200.421 249.264 201.768 249.658 202.815 250.508L202.818 250.51L219.994 264.799L219.553 265.241L204.9 275.157L198.668 269.165L198.667 269.164C197.954 268.476 196.895 268.279 195.982 268.662L191.104 272.007L188.471 253.913L189.107 253.003L189.184 252.949C191.946 251.048 195.134 249.857 198.467 249.484C198.467 249.484 198.468 249.484 198.467 249.484L199.081 249.415ZM199.197 250.447L198.583 250.516C195.451 250.867 192.453 251.978 189.85 253.752L189.558 254.171L191.892 270.207L195.477 267.749L195.521 267.729C196.829 267.153 198.36 267.424 199.388 268.416C199.388 268.416 199.388 268.416 199.388 268.416L205.014 273.825L218.361 264.792L202.16 251.314C202.16 251.314 202.159 251.313 202.158 251.312C201.328 250.64 200.259 250.328 199.197 250.447Z" fill="#26282B"/>
<path fill-rule="evenodd" clip-rule="evenodd" d="M190.009 257.318C190.009 257.318 190.009 257.318 189.631 256.962C189.253 256.606 189.253 256.606 189.253 256.605L189.254 256.605L189.255 256.604L189.258 256.601L189.268 256.59C189.276 256.581 189.288 256.569 189.303 256.554C189.334 256.523 189.378 256.479 189.436 256.424C189.551 256.315 189.719 256.162 189.935 255.981C190.369 255.62 191.002 255.147 191.804 254.692C193.407 253.782 195.709 252.932 198.459 253.224L198.35 254.257C195.88 253.995 193.796 254.756 192.317 255.595C191.578 256.015 190.996 256.45 190.6 256.78C190.403 256.945 190.252 257.082 190.152 257.177C190.102 257.225 190.065 257.261 190.041 257.286C190.029 257.298 190.02 257.307 190.015 257.312L190.01 257.318L190.009 257.318Z" fill="#26282B"/>
<path fill-rule="evenodd" clip-rule="evenodd" d="M190.584 261.256C190.584 261.256 190.584 261.256 190.206 260.9C189.828 260.544 189.828 260.544 189.828 260.544L189.828 260.543L189.83 260.542L189.833 260.539L189.843 260.528C189.851 260.519 189.863 260.507 189.878 260.492C189.909 260.461 189.953 260.417 190.011 260.362C190.126 260.253 190.293 260.1 190.51 259.92C190.944 259.559 191.577 259.085 192.379 258.63C193.982 257.72 196.284 256.87 199.034 257.162L198.924 258.196C196.455 257.933 194.371 258.694 192.892 259.533C192.153 259.953 191.571 260.388 191.175 260.718C190.978 260.883 190.827 261.02 190.727 261.115C190.677 261.163 190.64 261.2 190.616 261.224C190.604 261.236 190.595 261.245 190.59 261.25L190.585 261.256L190.584 261.256Z" fill="#26282B"/>
<path fill-rule="evenodd" clip-rule="evenodd" d="M190.757 266.505C190.757 266.505 190.757 266.505 190.39 266.137C190.022 265.769 190.023 265.769 190.023 265.769L190.024 265.768L190.028 265.764L190.041 265.751C190.052 265.741 190.068 265.725 190.088 265.705C190.129 265.666 190.189 265.61 190.265 265.539C190.418 265.399 190.64 265.202 190.917 264.974C191.469 264.519 192.249 263.935 193.152 263.425C194.916 262.43 197.358 261.609 199.447 262.977L198.878 263.846C197.317 262.824 195.372 263.366 193.663 264.33C192.828 264.801 192.099 265.346 191.577 265.776C191.317 265.991 191.11 266.175 190.968 266.305C190.898 266.369 190.844 266.421 190.808 266.455C190.79 266.472 190.777 266.485 190.768 266.494L190.759 266.503L190.757 266.505Z" fill="#26282B"/>
<path fill-rule="evenodd" clip-rule="evenodd" d="M245.988 139.716C245.749 140.504 245.232 141.539 244.14 142.603C242.983 143.731 241.541 144.014 240.432 144.029C239.875 144.037 239.388 143.977 239.04 143.915C238.866 143.884 238.725 143.853 238.626 143.828C238.577 143.816 238.538 143.806 238.51 143.798C238.496 143.794 238.485 143.791 238.477 143.789L238.467 143.786L238.464 143.785L238.462 143.784C238.462 143.784 238.462 143.784 238.613 143.287C238.764 142.79 238.764 142.79 238.764 142.79L238.767 142.791C238.771 142.792 238.778 142.794 238.787 142.796C238.806 142.802 238.835 142.81 238.875 142.819C238.954 142.839 239.072 142.865 239.222 142.892C239.521 142.945 239.941 142.996 240.418 142.99C241.378 142.977 242.518 142.733 243.415 141.859C244.377 140.921 244.804 140.04 244.994 139.413C245.09 139.098 245.127 138.844 245.141 138.675C245.148 138.59 245.149 138.527 245.149 138.488C245.148 138.468 245.148 138.455 245.147 138.448L245.147 138.442C245.147 138.442 245.147 138.443 245.147 138.443L245.147 138.445L245.147 138.446L245.147 138.446C245.148 138.447 245.148 138.447 245.665 138.4C246.182 138.353 246.182 138.353 246.182 138.354L246.182 138.354L246.183 138.356L246.183 138.359L246.184 138.368C246.184 138.375 246.185 138.384 246.185 138.394C246.186 138.415 246.187 138.443 246.188 138.477C246.188 138.546 246.186 138.641 246.177 138.759C246.157 138.995 246.108 139.323 245.988 139.716Z" fill="#26282B"/>
<path d="M246.337 127.517C247.15 127.517 247.809 126.672 247.809 125.63C247.809 124.587 247.15 123.742 246.337 123.742C245.524 123.742 244.865 124.587 244.865 125.63C244.865 126.672 245.524 127.517 246.337 127.517Z" fill="#26282B"/>
<path d="M229.511 127.517C230.324 127.517 230.983 126.672 230.983 125.63C230.983 124.587 230.324 123.742 229.511 123.742C228.698 123.742 228.039 124.587 228.039 125.63C228.039 126.672 228.698 127.517 229.511 127.517Z" fill="#26282B"/>
<path d="M129.178 47.5048C129.991 47.5048 130.65 46.6597 130.65 45.6172C130.65 44.5747 129.991 43.7295 129.178 43.7295C128.365 43.7295 127.706 44.5747 127.706 45.6172C127.706 46.6597 128.365 47.5048 129.178 47.5048Z" fill="#26282B"/>
<path d="M111.046 47.8928C111.859 47.8928 112.518 47.0477 112.518 46.0052C112.518 44.9627 111.859 44.1175 111.046 44.1175C110.233 44.1175 109.574 44.9627 109.574 46.0052C109.574 47.0477 110.233 47.8928 111.046 47.8928Z" fill="#26282B"/>
<path fill-rule="evenodd" clip-rule="evenodd" d="M232.836 134.19L237.072 119.71L238.069 120.002L233.833 134.483L233.833 134.484C233.796 134.608 233.911 134.728 234.038 134.694C234.038 134.694 234.038 134.694 234.038 134.694L237.186 133.846L237.456 134.849L234.308 135.698C233.402 135.941 232.569 135.099 232.836 134.191C232.836 134.19 232.836 134.19 232.836 134.19Z" fill="#26282B"/>
<path fill-rule="evenodd" clip-rule="evenodd" d="M123.378 55.7339L119.057 40.9625L120.054 40.6708L124.395 55.5107C124.61 56.2565 123.929 56.9586 123.175 56.7556L119.67 55.8099L119.94 54.8067L123.378 55.7339Z" fill="#26282B"/>
<path d="M243.168 117.23C243.168 117.812 243.666 118.266 244.245 118.214C245.644 118.089 248.11 117.951 249.887 118.328C251.477 118.668 252.703 118.82 255.418 120.098C255.858 120.306 256.232 119.686 255.869 119.361C254.788 118.391 253.018 117.185 250.497 116.666C247.445 116.032 245.19 116.126 244.037 116.254C243.538 116.309 243.168 116.735 243.168 117.234V117.23Z" fill="#26282B"/>
<path d="M234.471 117.269C234.394 117.93 233.768 118.384 233.116 118.252C231.721 117.968 229.393 117.584 227.651 117.75C226.75 117.837 226.127 117.899 225.694 117.951C225.261 118.003 225.064 117.473 225.389 117.217C226.023 116.714 227.263 116.139 229.674 115.925C231.755 115.738 232.95 115.855 233.636 116.039C234.183 116.184 234.536 116.707 234.471 117.269Z" fill="#26282B"/>
<path d="M115.573 36.7054C115.573 37.2873 115.084 37.7445 114.506 37.7133C113.117 37.6371 110.654 37.5575 108.853 37.7826C106.585 38.0666 104.569 38.8044 103.235 39.3932C102.875 39.5525 102.57 39.0815 102.861 38.8182C103.942 37.8484 105.715 36.6396 108.24 36.1166C111.26 35.4897 113.498 35.5728 114.662 35.6975C115.178 35.753 115.569 36.1859 115.569 36.702L115.573 36.7054Z" fill="#26282B"/>
<path d="M124.266 36.6985L124.273 36.747C124.349 37.3947 124.959 37.8415 125.6 37.7099C126.992 37.4259 129.337 37.038 131.09 37.2042C131.928 37.2839 132.527 37.3462 132.953 37.3947C133.407 37.4467 133.621 36.8648 133.254 36.5981C132.593 36.1132 131.36 35.5867 129.067 35.3789C126.916 35.1884 125.711 35.3165 125.039 35.5105C124.526 35.6594 124.204 36.1721 124.266 36.702V36.6985Z" fill="#26282B"/>
<path fill-rule="evenodd" clip-rule="evenodd" d="M111.057 58.6359C111.057 58.6358 111.057 58.6356 111.513 58.3875C111.97 58.1393 111.97 58.1392 111.97 58.1391L111.971 58.1415L111.978 58.1545C111.985 58.1666 111.996 58.1855 112.01 58.2105C112.04 58.2604 112.084 58.3347 112.143 58.4277C112.262 58.614 112.438 58.8738 112.665 59.1635C113.124 59.7484 113.771 60.4282 114.552 60.8824C115.314 61.3253 116.034 61.4217 116.563 61.4092C116.828 61.4029 117.044 61.3692 117.19 61.3381C117.263 61.3226 117.318 61.3079 117.353 61.2979C117.37 61.2928 117.382 61.289 117.389 61.2868L117.395 61.285L117.394 61.2853L117.393 61.2855L117.393 61.2857C117.392 61.2857 117.392 61.2858 117.568 61.7749C117.743 62.2639 117.743 62.264 117.743 62.2641L117.742 62.2643L117.741 62.2647L117.738 62.2656L117.731 62.268C117.726 62.2699 117.719 62.2722 117.71 62.275C117.693 62.2805 117.671 62.2876 117.642 62.2959C117.585 62.3124 117.505 62.3334 117.406 62.3546C117.207 62.3968 116.926 62.4399 116.587 62.448C115.908 62.464 114.99 62.3387 114.03 61.7807C113.09 61.2339 112.348 60.4417 111.848 59.8048C111.596 59.4836 111.4 59.1951 111.267 58.9858C111.2 58.8809 111.149 58.7956 111.114 58.7354C111.096 58.7053 111.082 58.6815 111.073 58.6646L111.062 58.6446L111.059 58.6387L111.057 58.6368L111.057 58.6359ZM111.97 58.1391C111.97 58.139 111.97 58.1392 111.97 58.1391V58.1391ZM111.97 58.1391C111.97 58.139 111.97 58.1392 111.97 58.1391V58.1391Z" fill="#26282B"/>
<path fill-rule="evenodd" clip-rule="evenodd" d="M95.6683 22.561L137.01 24.0741L135.724 31.1806L135.384 31.1189L136.598 24.4056L95.9851 22.9192L94.0839 44.9912L93.7388 44.9615L95.6683 22.561Z" fill="#26282B"/>
<path fill-rule="evenodd" clip-rule="evenodd" d="M89.4334 80.5724L89.5334 58.5942L88.4943 58.5895L88.3934 80.772L109.218 132.349L123.919 133.228L128.418 103.784L126.159 88.0486L125.131 88.1962L127.367 103.779L123.035 132.135L109.936 131.351L89.4334 80.5724Z" fill="#26282B"/>
<path d="M98.5179 20.4058C98.5179 20.4058 99.5189 16.4088 107.069 16.6305C114.62 16.8521 118.731 17.0738 118.731 17.0738L124.193 27.7347L96.4086 30.2874V21.0708L98.5179 20.4058Z" fill="#66C949"/>
<path d="M84.1648 28.9574C84.1648 28.9574 82.8313 35.5036 84.1648 40.2279C85.4983 44.9488 86.0144 46.1402 86.0144 46.1402C86.0144 46.1402 88.6744 46.5212 89.8382 48.021C91.0019 49.5207 93.8247 49.396 95.1582 44.121C96.4917 38.8459 98.0469 22.1895 98.0469 22.1895L121.149 17.9709L112.726 5.31146L100.887 7.75329L84.9441 22.1895L84.1683 28.9643L84.1648 28.9574Z" fill="#26282B"/>
<path d="M88.7506 74.5487L81.7923 84.7836C81.7923 84.7836 46.9036 98.25 40.4059 108.326C33.9082 118.405 33.929 148.257 33.929 153.29C33.929 154.346 31.9305 154.346 31.9305 154.346L65.5204 151.963L58.0806 191.518L63.9929 206.092L63.0751 211.423L62.7737 246.547L162.688 147.707L155.099 90.8483L128.696 86.2626L121.662 79.7545L121.693 80.0593L122.015 87.3605C122.015 87.3605 120.813 91.2778 119.777 93.8444L119.383 99.9403L117.516 120.06L115.954 120.171L108.32 93.5015L102.647 88.1225" fill="#E0F4DB"/>
<path d="M88.4978 143.612L64.5713 170.732V151.631L37.4826 151.16V162.337L38.4593 188.636C38.5944 192.293 39.1417 195.926 40.1669 199.439C41.9229 205.458 46.4949 212.742 53.3458 213.033C65.0909 213.532 68.6722 208.669 74.3352 201.534C79.9981 194.399 106.422 152.843 106.422 152.843L107.184 151.922" fill="white"/>
<path fill-rule="evenodd" clip-rule="evenodd" d="M65.0909 169.358L88.1082 143.269L88.8874 143.956L64.0518 172.107V152.141L38.0022 151.688V162.327L38.9785 188.616C39.1122 192.235 39.6535 195.826 40.6656 199.293C41.5278 202.249 43.0799 205.505 45.2416 208.048C47.4028 210.59 50.1345 212.377 53.3679 212.514C59.1593 212.76 62.8749 211.684 65.8333 209.714C68.6989 207.806 70.8925 205.039 73.5794 201.651C73.6948 201.505 73.811 201.359 73.9282 201.211C76.74 197.668 84.744 185.524 92.0662 174.23C95.7224 168.591 99.2018 163.174 101.767 159.167C103.05 157.164 104.104 155.513 104.837 154.363C105.204 153.788 105.491 153.338 105.686 153.032L105.983 152.565C105.983 152.564 105.983 152.564 106.422 152.843L105.983 152.564L106.001 152.537L106.784 151.591L107.584 152.253L106.843 153.149L106.562 153.59C106.367 153.897 106.08 154.347 105.713 154.922C104.98 156.072 103.925 157.724 102.642 159.728C100.076 163.736 96.5957 169.154 92.9381 174.796C85.6326 186.064 77.5934 198.265 74.7421 201.857C74.61 202.024 74.4789 202.189 74.3487 202.353C71.7041 205.689 69.4153 208.577 66.4093 210.579C63.225 212.699 59.2774 213.805 53.3238 213.552C49.7062 213.399 46.7265 211.398 44.45 208.721C42.174 206.044 40.562 202.648 39.6682 199.584C38.6299 196.027 38.0767 192.351 37.9402 188.655C37.9402 188.655 37.9402 188.655 37.9402 188.655L36.9631 162.346V150.631L65.0909 151.12V169.358Z" fill="#26282B"/>
<path d="M148.473 76.9489L135.596 119.035C135.194 120.351 136.16 121.691 137.535 121.719L159.152 122.204C160.09 122.225 160.925 121.615 161.192 120.715L173.927 77.6624C174.325 76.3116 173.297 74.9642 171.887 74.9954L150.416 75.4803C149.519 75.5011 148.74 76.0934 148.477 76.9489H148.473Z" fill="#E9E8E8"/>
<path opacity="0.43" d="M155.11 82.979C156.32 82.979 157.302 81.9974 157.302 80.7865C157.302 79.5756 156.32 78.5941 155.11 78.5941C153.899 78.5941 152.917 79.5756 152.917 80.7865C152.917 81.9974 153.899 82.979 155.11 82.979Z" fill="#787878"/>
<path fill-rule="evenodd" clip-rule="evenodd" d="M88.471 74.5061L89.3211 75.1036L82.2688 85.1371L98.5979 104.275L105.466 112.323L107.964 93.692L108.994 93.8301L106.186 114.768L97.8075 104.95L80.9554 85.1987L88.471 74.5061Z" fill="#26282B"/>
<path fill-rule="evenodd" clip-rule="evenodd" d="M89.0842 74.2654L108.94 93.488L116.496 119.886L117.198 119.836L119.573 93.6641H119.662L121.648 87.5505L121.377 79.9729L121.537 79.813L121.904 80.1804C121.537 79.813 121.537 79.8131 121.537 79.813L121.537 79.8126L121.537 79.8123L121.538 79.8115L121.54 79.81L121.543 79.8068C121.545 79.8047 121.548 79.8023 121.55 79.7998C121.556 79.7949 121.562 79.7891 121.57 79.7827C121.583 79.7715 121.607 79.7518 121.641 79.7318C121.668 79.7157 121.738 79.676 121.838 79.6617C121.952 79.6453 122.126 79.6632 122.268 79.7966L129.375 86.2996L129.173 101.81L124.627 114.646L120.29 97.2605L118.152 120.81L115.729 120.982L108.018 94.0412L88.3615 75.0119L89.0842 74.2654ZM120.59 94.1707L124.799 111.045L128.136 101.624L128.329 86.7518L122.467 81.387L122.693 87.6968L120.59 94.1707Z" fill="#26282B"/>
<path fill-rule="evenodd" clip-rule="evenodd" d="M47.1901 43.7095L4.63295 61.5851L4.36469 60.9464L46.9218 43.0708L47.1901 43.7095Z" fill="#26282B"/>
<path fill-rule="evenodd" clip-rule="evenodd" d="M58.6993 52.5432L10.3234 72.2025L10.0626 71.5608L58.4385 51.9014L58.6993 52.5432Z" fill="#26282B"/>
<path fill-rule="evenodd" clip-rule="evenodd" d="M66.5716 61.7004L19.7785 83.6838L19.4839 83.0569L66.277 61.0735L66.5716 61.7004Z" fill="#26282B"/>
<path fill-rule="evenodd" clip-rule="evenodd" d="M72.4961 70.9387L32.1834 91.8449L31.8645 91.2299L72.1772 70.3237L72.4961 70.9387Z" fill="#26282B"/>
<path fill-rule="evenodd" clip-rule="evenodd" d="M76.1852 81.3777L48.2895 98.8792L47.9213 98.2924L75.8171 80.7909L76.1852 81.3777Z" fill="#26282B"/>
<path fill-rule="evenodd" clip-rule="evenodd" d="M30.2112 35.9347L1.61925 46.8311L1.37256 46.1838L29.9645 35.2874L30.2112 35.9347Z" fill="#26282B"/>
<path fill-rule="evenodd" clip-rule="evenodd" d="M47.8565 98.8267L0.789795 50.1737L1.28767 49.692L48.3544 98.3451L47.8565 98.8267Z" fill="#26282B"/>
<path fill-rule="evenodd" clip-rule="evenodd" d="M63.3651 100.443L4.29364 40.471L4.78716 39.9849L63.8586 99.9569L63.3651 100.443Z" fill="#26282B"/>
<path fill-rule="evenodd" clip-rule="evenodd" d="M72.0869 96.9971L12.2915 34.7494L12.7911 34.2696L72.5865 96.5172L72.0869 96.9971Z" fill="#26282B"/>
<path fill-rule="evenodd" clip-rule="evenodd" d="M76.3768 90.5947L25.6075 35.5167L26.1169 35.0472L76.8862 90.1252L76.3768 90.5947Z" fill="#26282B"/>
<path fill-rule="evenodd" clip-rule="evenodd" d="M75.7349 78.3603L39.0001 39.2841L39.5048 38.8096L76.2396 77.8858L75.7349 78.3603Z" fill="#26282B"/>
<path d="M162.792 193.318V202.397L170.121 197.856L162.792 193.318Z" fill="#E0F4DB"/>
<path d="M167.308 102.257C169.445 105.24 171.451 113.282 172.819 120.621L174.945 129.419L176.445 133.904L162.341 148.205L158.947 139.342C158.947 139.342 149.201 133.762 148.203 126.849L147.202 119.936" fill="white"/>
<path fill-rule="evenodd" clip-rule="evenodd" d="M169.852 109.948C168.912 106.645 167.896 103.97 166.886 102.56L167.731 101.955C168.857 103.527 169.913 106.364 170.852 109.663C171.796 112.981 172.642 116.838 173.327 120.512L175.445 129.275L177.039 134.042L162.145 149.145L158.527 139.697C158.456 139.655 158.364 139.599 158.253 139.53C157.979 139.361 157.588 139.112 157.117 138.792C156.175 138.152 154.907 137.225 153.606 136.077C151.028 133.804 148.216 130.574 147.689 126.923L146.688 120.01L147.716 119.861L148.717 126.774C149.188 130.037 151.748 133.054 154.293 135.298C155.553 136.41 156.784 137.31 157.701 137.932C158.158 138.243 158.537 138.484 158.8 138.647C158.931 138.728 159.034 138.79 159.103 138.831C159.137 138.851 159.164 138.867 159.181 138.877L159.2 138.888L159.204 138.891L159.205 138.891L159.366 138.983L162.538 147.266L175.851 133.766L174.446 129.562L172.311 120.73L172.308 120.716C171.626 117.056 170.786 113.228 169.852 109.948Z" fill="#26282B"/>
<path d="M153.949 97.7823C156.949 100.449 160.447 104.446 160.447 104.446L160.696 103.698" fill="white"/>
<path fill-rule="evenodd" clip-rule="evenodd" d="M158.196 102.233C156.948 100.902 155.328 99.24 153.834 97.9118L154.064 97.6529C155.57 98.9916 157.198 100.662 158.449 101.996C159.075 102.663 159.607 103.247 159.982 103.664C160.145 103.845 160.279 103.995 160.378 104.106L160.532 103.643L160.861 103.753L160.516 104.788L160.317 104.56L160.447 104.446C160.317 104.56 160.317 104.56 160.317 104.56L160.307 104.549L160.277 104.515C160.251 104.485 160.212 104.441 160.161 104.384C160.06 104.27 159.912 104.104 159.725 103.896C159.35 103.48 158.82 102.898 158.196 102.233Z" fill="#26282B"/>
<path d="M150.368 104.613C152.865 106.279 156.782 110.359 156.782 110.359L156.865 109.936" fill="white"/>
<path fill-rule="evenodd" clip-rule="evenodd" d="M154.392 108.236C153.101 107.008 151.507 105.58 150.272 104.757L150.464 104.468C151.726 105.311 153.339 106.756 154.631 107.985C155.278 108.6 155.847 109.164 156.254 109.573C156.426 109.745 156.568 109.891 156.676 110.001L156.696 109.903L157.036 109.97L156.888 110.719L156.658 110.479L156.782 110.359C156.658 110.479 156.658 110.479 156.658 110.479L156.646 110.467L156.613 110.433C156.584 110.403 156.541 110.358 156.485 110.301C156.374 110.187 156.211 110.021 156.009 109.817C155.603 109.409 155.037 108.849 154.392 108.236Z" fill="#26282B"/>
<path d="M269.595 147.229C271.772 147.229 273.537 145.464 273.537 143.287C273.537 141.11 271.772 139.345 269.595 139.345C267.418 139.345 265.653 141.11 265.653 143.287C265.653 145.464 267.418 147.229 269.595 147.229Z" fill="#66C949"/>
<path d="M259.703 147.329C259.703 147.287 257.978 157.069 250.358 160.359C242.738 163.649 238.485 160.584 238.485 160.584L238.419 157.287C241.145 158.025 245.121 158.052 249.589 156.521C254.057 154.99 257.67 150.8 258.64 149.258C259.104 148.52 259.699 147.329 259.699 147.329H259.703Z" fill="#26282B"/>
<path d="M100.87 69.9075C100.87 69.8659 102.595 79.6471 110.215 82.9375C117.834 86.2279 122.088 83.1626 122.088 83.1626L121.928 79.7233C119.203 80.461 115.451 80.6342 110.987 79.1033C106.519 77.5724 102.906 73.3815 101.937 71.8402C101.472 71.1024 100.877 69.9109 100.877 69.9109L100.87 69.9075Z" fill="#26282B"/>
<path d="M301.134 215.97H306.351C306.351 215.97 306.586 197.925 302.724 185.661C300.75 179.388 296.268 176.95 291.61 174.099C291.61 174.099 282.622 174.605 279.023 185.068C276.158 193.388 275.047 215.97 275.047 215.97H301.134Z" fill="#66C949"/>
<path fill-rule="evenodd" clip-rule="evenodd" d="M291.742 173.571L291.881 173.656C292.138 173.813 292.395 173.97 292.653 174.126C297.021 176.782 301.292 179.378 303.22 185.504C305.169 191.696 306.079 199.322 306.504 205.378C306.716 208.411 306.808 211.058 306.846 212.948C306.866 213.894 306.872 214.65 306.873 215.17C306.873 215.43 306.873 215.631 306.872 215.768C306.871 215.836 306.871 215.888 306.871 215.923L306.87 215.963L306.87 215.973L306.87 215.976L306.87 215.977C306.87 215.977 306.87 215.977 306.351 215.97L306.87 215.977L306.863 216.49H274.501L274.528 215.945L275.047 215.97C274.528 215.945 274.528 215.945 274.528 215.945L274.531 215.879C274.533 215.835 274.537 215.771 274.541 215.687C274.55 215.519 274.563 215.272 274.581 214.954C274.617 214.319 274.672 213.403 274.747 212.277C274.896 210.027 275.125 206.939 275.443 203.59C276.078 196.916 277.076 189.127 278.532 184.899C280.378 179.53 283.622 176.69 286.422 175.201C287.817 174.459 289.096 174.055 290.03 173.836C290.497 173.726 290.879 173.663 291.146 173.626C291.28 173.608 291.386 173.597 291.459 173.59C291.496 173.586 291.525 173.584 291.545 173.583C291.555 173.582 291.563 173.581 291.569 173.581L291.576 173.58L291.579 173.58L291.58 173.58C291.58 173.58 291.58 173.58 291.609 174.099L291.58 173.58L291.742 173.571ZM291.485 174.632C291.431 174.637 291.365 174.645 291.286 174.656C291.048 174.688 290.699 174.746 290.268 174.847C289.404 175.05 288.211 175.426 286.91 176.118C284.316 177.498 281.266 180.143 279.514 185.237C278.105 189.328 277.115 196.991 276.478 203.688C276.16 207.025 275.932 210.102 275.783 212.346C275.709 213.468 275.655 214.381 275.619 215.013C275.609 215.179 275.601 215.325 275.594 215.451H305.834C305.834 215.367 305.834 215.274 305.834 215.172C305.832 214.657 305.827 213.908 305.808 212.97C305.769 211.093 305.678 208.463 305.467 205.451C305.044 199.418 304.141 191.889 302.229 185.816C300.421 180.072 296.465 177.664 292.064 174.984C291.872 174.867 291.679 174.75 291.485 174.632Z" fill="#26282B"/>
<path fill-rule="evenodd" clip-rule="evenodd" d="M267.538 165.771C267.538 165.771 267.538 165.771 267.662 165.267C267.787 164.763 267.787 164.763 267.787 164.763L267.799 164.766L267.833 164.774C267.863 164.782 267.908 164.793 267.966 164.808C268.083 164.837 268.255 164.881 268.477 164.939C268.92 165.054 269.562 165.224 270.359 165.443C271.951 165.882 274.163 166.52 276.638 167.315C281.579 168.9 287.613 171.123 291.875 173.656L291.344 174.549C287.189 172.08 281.25 169.886 276.321 168.304C273.862 167.515 271.665 166.881 270.082 166.445C269.291 166.227 268.654 166.058 268.215 165.944C267.996 165.887 267.826 165.844 267.711 165.815C267.654 165.8 267.61 165.789 267.581 165.782L267.548 165.774L267.538 165.771Z" fill="#26282B"/>
<path fill-rule="evenodd" clip-rule="evenodd" d="M222.376 196.624C222.376 196.624 222.376 196.624 222.885 196.73C223.393 196.837 223.393 196.837 223.393 196.837L223.359 197.004C223.336 197.114 223.302 197.276 223.259 197.484C223.173 197.9 223.05 198.5 222.9 199.237C222.6 200.71 222.194 202.73 221.772 204.914C220.924 209.292 220.015 214.3 219.744 216.911C219.47 219.554 219.183 222.568 219.514 225.423C219.845 228.271 220.785 230.901 222.918 232.826C223.736 233.566 224.847 234.038 225.787 234.325C226.251 234.467 226.662 234.56 226.956 234.617C227.102 234.646 227.219 234.666 227.298 234.678C227.338 234.684 227.368 234.689 227.388 234.691L227.409 234.694L227.413 234.695L227.414 234.695C227.414 234.695 227.414 234.695 227.35 235.211C227.285 235.726 227.285 235.726 227.285 235.726L227.281 235.726L227.273 235.725C227.266 235.724 227.256 235.722 227.244 235.721C227.219 235.717 227.183 235.712 227.138 235.705C227.047 235.691 226.917 235.669 226.756 235.637C226.435 235.574 225.989 235.473 225.483 235.319C224.483 235.013 223.204 234.486 222.222 233.598C219.834 231.443 218.83 228.533 218.482 225.543C218.136 222.558 218.438 219.435 218.711 216.803C218.987 214.139 219.906 209.083 220.751 204.717C221.175 202.528 221.581 200.505 221.881 199.03C222.032 198.292 222.155 197.69 222.242 197.273C222.285 197.065 222.318 196.903 222.341 196.792L222.376 196.624Z" fill="#26282B"/>
<path fill-rule="evenodd" clip-rule="evenodd" d="M258.616 86.2681C258.634 85.9817 258.881 85.7641 259.167 85.782L259.135 86.3006C259.167 85.782 259.168 85.7821 259.168 85.7821L259.169 85.7821L259.171 85.7823L259.177 85.7827C259.182 85.7831 259.189 85.7836 259.198 85.7843C259.215 85.7857 259.24 85.7878 259.271 85.7909C259.333 85.7971 259.422 85.8072 259.537 85.8231C259.766 85.855 260.096 85.9102 260.513 86.0046C261.347 86.1935 262.528 86.5389 263.939 87.1667C266.763 88.4235 270.5 90.8077 274.218 95.3147C280.763 103.249 281.089 111.448 281.255 115.632C281.278 116.214 281.298 116.718 281.331 117.134C281.354 117.42 281.141 117.67 280.855 117.693C280.569 117.716 280.318 117.502 280.296 117.216C280.261 116.779 280.239 116.256 280.215 115.66C280.043 111.464 279.723 103.621 273.416 95.9759C269.805 91.5989 266.201 89.3106 263.516 88.1161C262.173 87.5183 261.057 87.1933 260.284 87.0181C259.897 86.9305 259.595 86.8803 259.394 86.8523C259.293 86.8383 259.217 86.8298 259.168 86.8249C259.143 86.8224 259.125 86.8209 259.114 86.82L259.103 86.8191L259.102 86.8191L259.102 86.8191" fill="white"/>
<path d="M70.3382 124.185L70.3659 156.421L32.0794 155.638C32.0794 155.638 30.687 116.593 40.7037 107.179C50.8139 97.6785 53.0479 100.093 53.0479 100.093C53.0479 100.093 71.0898 105.859 70.3416 124.185H70.3382Z" fill="#E0F4DB"/>
<path fill-rule="evenodd" clip-rule="evenodd" d="M50.8257 100.568C49.1147 101.116 46.0969 102.824 41.0595 107.558C38.6693 109.804 36.9073 113.884 35.6336 118.851C34.3658 123.796 33.6039 129.527 33.1531 134.982C32.7025 140.434 32.5638 145.595 32.5379 149.394C32.5249 151.293 32.5401 152.851 32.5586 153.933C32.5672 154.441 32.5766 154.844 32.5841 155.129L69.8459 155.891L69.8182 123.666H69.8382C70.0309 114.984 65.8888 109.254 61.64 105.663C59.4717 103.831 57.2781 102.559 55.6258 101.746C54.8003 101.34 54.1117 101.048 53.6315 100.86C53.3915 100.765 53.2037 100.696 53.077 100.651C53.0137 100.629 52.9657 100.613 52.9341 100.602C52.9183 100.597 52.9066 100.593 52.8992 100.59L52.8912 100.588L52.8898 100.587L52.7595 100.546L52.6852 100.465C52.6814 100.463 52.6761 100.459 52.6692 100.455C52.6366 100.436 52.5623 100.399 52.4332 100.372C52.1752 100.317 51.6739 100.296 50.8257 100.568ZM53.3034 99.63C53.2727 99.6076 53.2368 99.5837 53.1952 99.5593C53.0661 99.4835 52.8869 99.406 52.6486 99.3555C52.1717 99.2544 51.4827 99.266 50.5086 99.5782C48.5751 100.198 45.4208 102.033 40.3479 106.8C37.7298 109.261 35.9096 113.592 34.6271 118.593C33.3388 123.617 32.5707 129.413 32.1175 134.896C31.6641 140.382 31.5248 145.571 31.4988 149.387C31.4858 151.295 31.5011 152.861 31.5197 153.951C31.5289 154.496 31.539 154.921 31.5468 155.211C31.5507 155.356 31.5541 155.467 31.5564 155.542C31.5576 155.579 31.5585 155.608 31.5592 155.627L31.5602 155.656C31.5602 155.656 31.5602 155.657 32.0794 155.638L31.5602 155.657L31.5777 156.147L70.8859 156.951L70.8578 124.279L70.8607 124.206C71.243 114.842 66.815 108.676 62.3107 104.87C60.062 102.97 57.792 101.654 56.0848 100.814C55.2305 100.393 54.5154 100.091 54.0119 99.8926C53.7601 99.7935 53.561 99.7205 53.4237 99.6719C53.376 99.6551 53.3358 99.6411 53.3034 99.63Z" fill="#26282B"/>
<path fill-rule="evenodd" clip-rule="evenodd" d="M8.22154 34.8031C10.7004 33.644 14.7117 32.6502 21.0104 33.0325L21.0104 33.0325C31.4662 33.6677 41.1178 38.1618 48.9277 43.3736C56.7434 48.5893 62.7852 54.5709 66.039 58.2885C69.3098 62.0255 73.19 67.7259 75.667 73.9766C78.1361 80.2074 79.276 87.1554 76.7977 93.2618C74.2453 99.5509 68.3358 102.115 61.1483 102.096C53.9812 102.077 45.3199 99.515 36.7127 95.3258C15.4701 84.9871 4.61387 67.6725 1.45722 56.7645L1.45716 56.7643C-0.455054 50.1513 0.347273 45.2844 1.6923 42.0359C2.36111 40.4206 3.15649 39.2235 3.79365 38.4228C4.11226 38.0224 4.39173 37.7206 4.59684 37.5144C4.69943 37.4113 4.78353 37.332 4.84478 37.2762C4.84799 37.2732 4.85113 37.2704 4.85422 37.2676C4.88785 37.2235 4.92937 37.1712 4.97939 37.1119C5.11554 36.9503 5.31439 36.7363 5.58848 36.4904C6.13765 35.9978 6.98318 35.3821 8.22154 34.8031ZM4.58199 40.9187C4.25505 41.4531 3.91932 42.0896 3.61238 42.8309C2.45063 45.6367 1.6701 50.0194 3.45353 56.187C6.45522 66.5593 16.9347 83.3886 37.6221 93.4572C46.0801 97.5738 54.4198 99.9997 61.1538 100.018C67.8674 100.036 72.7591 97.6868 74.8721 92.4803C77.0593 87.091 76.1175 80.7544 73.735 74.7422C71.3604 68.75 67.619 63.2492 64.4752 59.6572C61.3145 56.0459 55.4069 50.1959 47.7741 45.1022C40.1355 40.0047 30.8396 35.7116 20.8844 35.1068L20.9474 34.0697L20.8844 35.1068C14.8562 34.741 11.2043 35.7025 9.10178 36.6856C8.04941 37.1777 7.37464 37.6799 6.9762 38.0373C6.77648 38.2165 6.64469 38.3606 6.56866 38.4509C6.5306 38.496 6.50642 38.5278 6.49461 38.5439C6.49177 38.5477 6.48965 38.5507 6.48822 38.5527L4.58199 41.5133V40.9187Z" fill="#26282B"/>
<path d="M204.445 273.185L206.603 276.985L283.509 277.698C292.722 277.784 300.39 270.64 300.955 261.443L303.756 215.853H277.606L275.874 250.835L218.718 264.987L218.105 264.738L204.445 273.185Z" fill="white"/>
<path fill-rule="evenodd" clip-rule="evenodd" d="M58.0019 101.93C58.002 101.93 58.0021 101.93 58.1567 100.903C58.3114 99.8754 58.3115 99.8755 58.3118 99.8755L58.3217 99.877L58.3478 99.881C58.3703 99.8845 58.4031 99.8897 58.4456 99.8965C58.5307 99.9101 58.6548 99.9305 58.8143 99.9578C59.1332 100.012 59.5936 100.095 60.165 100.207C61.3074 100.432 62.8973 100.776 64.6913 101.256C68.2541 102.209 72.7215 103.722 76.0685 105.954C78.9988 107.908 80.7294 109.136 81.7327 109.88C82.2346 110.252 82.5574 110.506 82.7592 110.67C82.8602 110.752 82.9318 110.813 82.981 110.856C83.0056 110.877 83.0249 110.895 83.0396 110.908C83.0469 110.915 83.0532 110.92 83.0584 110.925L83.0655 110.932L83.0686 110.935L83.07 110.936L83.0706 110.937C83.071 110.937 83.0713 110.937 82.3533 111.689C81.6354 112.44 81.6357 112.44 81.636 112.44L81.6377 112.442L81.6396 112.444L81.6414 112.445C81.6383 112.443 81.63 112.435 81.6154 112.422C81.5861 112.397 81.5324 112.351 81.4467 112.281C81.2749 112.141 80.9779 111.908 80.4949 111.549C79.5283 110.833 77.8282 109.626 74.9155 107.683C71.8582 105.645 67.6581 104.2 64.1543 103.263C62.415 102.798 60.8719 102.464 59.7645 102.246C59.2111 102.138 58.7674 102.058 58.4635 102.006C58.3116 101.98 58.1947 101.961 58.1165 101.948C58.0774 101.942 58.048 101.938 58.0288 101.935L58.0076 101.931L58.0019 101.93Z" fill="#26282B"/>
<path fill-rule="evenodd" clip-rule="evenodd" d="M42.6618 266.087L277.102 33.4377L277.834 34.1752L43.3937 266.824L42.6618 266.087Z" fill="#26282B"/>
<path d="M176.923 154.8C164.517 154.8 154.462 164.858 154.462 177.261C154.462 189.664 164.52 199.723 176.923 199.723C189.326 199.723 199.385 189.664 199.385 177.261C199.385 164.858 189.326 154.8 176.923 154.8ZM173.841 186.222L165.189 177.919L168.354 174.754L174.052 179.61L186.077 168.304L189.108 171.588L173.841 186.222Z" fill="#E0F4DB"/>
<path fill-rule="evenodd" clip-rule="evenodd" d="M242.79 95.9397C232.773 95.9397 224.655 104.058 224.655 114.075V139.145C224.655 149.162 232.773 157.28 242.79 157.28C250.045 157.28 256.309 153.015 259.209 146.855L260.149 147.297C257.084 153.807 250.463 158.319 242.79 158.319C232.199 158.319 223.616 149.736 223.616 139.145V114.075C223.616 103.484 232.199 94.9006 242.79 94.9006C253.381 94.9006 261.965 103.484 261.965 114.075H260.926C260.926 104.058 252.807 95.9397 242.79 95.9397Z" fill="#26282B"/>
<path fill-rule="evenodd" clip-rule="evenodd" d="M76.1143 86.0337C76.1142 86.0335 76.1142 86.0333 77.1441 85.8952C78.1739 85.7572 78.1739 85.7571 78.1739 85.757L78.1745 85.7612L78.1768 85.7778C78.1789 85.7929 78.1821 85.8162 78.1866 85.8473C78.1955 85.9095 78.2092 86.0028 78.2279 86.1243C78.2654 86.3674 78.3228 86.7232 78.402 87.1684C78.5606 88.0594 78.8059 89.3053 79.1522 90.7207C79.8499 93.5724 80.9378 97.0283 82.5053 99.6655C84.1417 102.419 85.2623 104.106 85.9664 105.096C86.3182 105.591 86.5646 105.911 86.7181 106.101C86.7947 106.196 86.8478 106.258 86.8789 106.294C86.8944 106.311 86.9044 106.322 86.909 106.327C86.9107 106.329 86.9116 106.33 86.9119 106.331L86.9104 106.329L86.909 106.327L86.9079 106.326L86.9074 106.326C86.9071 106.326 86.9068 106.325 86.1563 107.044C85.4058 107.763 85.4055 107.762 85.4053 107.762L85.4047 107.761L85.4034 107.76L85.4005 107.757L85.3934 107.749C85.3881 107.744 85.3816 107.737 85.3739 107.728C85.3586 107.712 85.3385 107.689 85.3134 107.66C85.2633 107.603 85.193 107.52 85.1009 107.406C84.917 107.178 84.645 106.824 84.2725 106.3C83.5279 105.253 82.3764 103.516 80.7189 100.727C78.9925 97.8227 77.8464 94.1281 77.1336 91.2146C76.7746 89.7474 76.5205 88.4571 76.356 87.5325C76.2737 87.0699 76.2136 86.6981 76.174 86.4405C76.1541 86.3117 76.1394 86.2114 76.1295 86.1426C76.1246 86.1082 76.1209 86.0816 76.1183 86.0633L76.1154 86.042L76.1143 86.0337Z" fill="#26282B"/>
<path fill-rule="evenodd" clip-rule="evenodd" d="M87.6523 50.2599C86.3779 49.5358 84.7622 49.9816 84.038 51.2531C83.3141 52.5274 83.7599 54.1432 85.0315 54.8673L84.5173 55.7702C82.7479 54.7626 82.1269 52.5131 83.1347 50.7395L83.1349 50.7391C84.1425 48.9697 86.392 48.3488 88.1656 49.3565L87.6523 50.2599Z" fill="#26282B"/>
<path d="M96.187 11.8542C96.187 11.8542 89.3013 6.63456 83.5275 14.632C77.7537 22.6294 77.3069 31.6243 75.6444 33.2903C73.9784 34.9563 79.9739 33.9553 80.0882 33.2903C80.2025 32.6253 78.9764 37.8588 82.6409 36.6292C86.3053 35.3997 85.7719 32.511 85.7719 32.511C85.7719 32.511 85.4187 37.1903 88.4181 36.6292C91.4176 36.0681 92.6368 31.9569 92.6368 31.9569C92.6368 31.9569 92.2592 37.1765 95.1513 36.0647C97.1914 35.2819 96.8554 27.4022 97.6347 22.1826C98.4106 16.963 99.7614 14.5211 101.583 15.297C103.409 16.0728 102.2 4.85774 109.577 6.63456C116.955 8.41138 117.187 24.5309 121.502 28.1504C123.425 29.7644 127.456 32.2755 132.617 31.846C135.63 31.5932 135.644 31.3577 135.644 31.3577L136.299 45.0596L142.28 32.2894C142.28 32.2894 144.168 33.0652 147.5 29.7367C149.197 28.0395 150.205 26.138 150.78 24.6833C151.095 23.8902 150.222 23.1559 149.488 23.5923C148.117 24.4097 146.354 25.3137 145.231 25.3379C143.177 25.383 142.166 23.9629 142.166 23.9629C142.166 23.9629 144.944 21.8536 145.055 19.7442C145.166 17.6349 141.39 21.6319 137.504 16.1906C133.611 10.7458 124.672 0.417419 114.537 0.417419C104.403 0.417419 96.187 11.8542 96.187 11.8542Z" fill="#26282B"/>
<path fill-rule="evenodd" clip-rule="evenodd" d="M102.01 16.9195L101.529 17.615L101.126 16.8707C100.435 15.5919 99.4576 14.6105 98.643 13.945C98.2373 13.6136 97.8762 13.364 97.6182 13.1982C97.4894 13.1154 97.3866 13.0537 97.3173 13.0134C97.2827 12.9933 97.2565 12.9785 97.2396 12.9691C97.2311 12.9645 97.225 12.9611 97.2213 12.9591L97.2178 12.9572C96.9646 12.8225 96.8682 12.508 97.0028 12.2547C97.1374 12.0013 97.452 11.905 97.7054 12.0396L97.4662 12.4897C97.7054 12.0396 97.7052 12.0395 97.7054 12.0396L97.7069 12.0404L97.7094 12.0418L97.7172 12.046C97.7236 12.0495 97.7326 12.0544 97.7439 12.0607C97.7666 12.0733 97.7988 12.0915 97.8396 12.1152C97.9212 12.1626 98.0372 12.2323 98.18 12.324C98.4654 12.5074 98.8593 12.78 99.3004 13.1404C100.035 13.7406 100.913 14.5945 101.635 15.6975C101.722 15.589 101.821 15.4691 101.93 15.3401C102.421 14.7591 103.133 13.9881 104.015 13.23C105.762 11.729 108.266 10.2029 111.094 10.45C112.994 10.616 114.35 11.7667 115.372 13.3278C116.387 14.8777 117.117 16.8949 117.763 18.9293C117.954 19.5302 118.137 20.1317 118.318 20.7262C118.759 22.1726 119.187 23.5779 119.681 24.8337C120.382 26.6163 121.165 27.9562 122.171 28.6252C122.41 28.7841 122.475 29.1066 122.316 29.3455C122.157 29.5844 121.835 29.6493 121.596 29.4905C120.302 28.6303 119.423 27.0179 118.714 25.2139C118.204 23.9177 117.757 22.4497 117.311 20.9864C117.133 20.401 116.954 19.8164 116.773 19.2439C116.127 17.2116 115.432 15.3165 114.503 13.8971C113.581 12.489 112.472 11.6134 111.004 11.4851C108.599 11.2749 106.37 12.5768 104.692 14.0182C103.862 14.7312 103.189 15.4599 102.723 16.011C102.49 16.286 102.311 16.5157 102.189 16.6755C102.129 16.7553 102.083 16.8176 102.053 16.8593C102.038 16.8802 102.027 16.8958 102.02 16.906L102.012 16.9169L102.01 16.9195ZM97.2173 12.9569C97.2173 12.9569 97.2173 12.9569 97.2173 12.9569V12.9569Z" fill="white"/>
<path d="M64.5712 170.732C64.5712 170.732 53.2661 183.645 49.5427 189.644L64.5712 170.732Z" fill="white"/>
<path fill-rule="evenodd" clip-rule="evenodd" d="M64.1802 170.39C64.1803 170.39 64.1804 170.39 64.5713 170.732C64.9621 171.075 64.9621 171.075 64.962 171.075L64.835 171.22C64.7516 171.316 64.6286 171.457 64.4707 171.639C64.1549 172.003 63.6994 172.53 63.1411 173.182C62.0244 174.484 60.497 176.284 58.8535 178.27C55.5584 182.252 51.8242 186.953 49.9842 189.918L49.1013 189.37C50.9846 186.335 54.7647 181.581 58.053 177.607C59.7013 175.615 61.2328 173.811 62.3522 172.506C62.9119 171.853 63.3688 171.324 63.6857 170.958C63.8442 170.776 63.9678 170.634 64.0517 170.537L64.1802 170.39Z" fill="#26282B"/>
<path d="M165.812 109.264C164.447 109.264 163.651 109.919 163.225 108.533C160.748 100.453 152.983 96.4835 150.763 95.4132C149.041 94.582 148.317 92.5142 149.145 90.7928C149.973 89.0714 152.037 88.3441 153.759 89.1684C154.181 89.3693 164.156 94.2252 167.471 102.32C168.195 104.09 171.177 109.617 169.407 110.341C168.978 110.518 166.248 109.264 165.812 109.264Z" fill="white"/>
<path fill-rule="evenodd" clip-rule="evenodd" d="M153.534 89.637C152.072 88.9367 150.317 89.5543 149.613 91.018C148.91 92.4808 149.525 94.2386 150.989 94.9454C153.211 96.017 161.173 100.068 163.721 108.381C163.814 108.682 163.904 108.794 163.955 108.837C163.991 108.868 164.043 108.896 164.178 108.899C164.326 108.902 164.501 108.877 164.767 108.838C164.784 108.836 164.8 108.833 164.817 108.831C165.093 108.791 165.431 108.745 165.812 108.745C165.95 108.745 166.107 108.786 166.219 108.819C166.35 108.857 166.506 108.909 166.671 108.968C166.882 109.042 167.127 109.134 167.378 109.228C167.515 109.279 167.655 109.331 167.792 109.382C168.187 109.527 168.566 109.661 168.869 109.748C169.021 109.792 169.14 109.819 169.224 109.832C169.236 109.834 169.247 109.835 169.256 109.836C169.356 109.769 169.469 109.59 169.435 109.065C169.398 108.494 169.189 107.736 168.886 106.9C168.586 106.073 168.207 105.208 167.855 104.433C167.749 104.199 167.644 103.972 167.544 103.755C167.319 103.265 167.119 102.832 166.99 102.517C165.384 98.5946 162.147 95.4255 159.216 93.1976C156.293 90.9756 153.728 89.729 153.536 89.6376L153.534 89.637ZM169.295 109.839C169.294 109.839 169.294 109.839 169.294 109.839C169.298 109.839 169.298 109.839 169.295 109.839ZM153.982 88.6995C152.002 87.7516 149.629 88.5888 148.677 90.5677C147.725 92.5477 148.558 94.9254 150.537 95.8811L150.537 95.8813C152.755 96.9505 160.323 100.837 162.728 108.686L162.728 108.686C162.849 109.078 163.017 109.403 163.279 109.627C163.554 109.863 163.867 109.931 164.155 109.938C164.395 109.943 164.658 109.904 164.893 109.87C164.918 109.866 164.942 109.862 164.967 109.859C165.234 109.82 165.505 109.785 165.801 109.784C165.801 109.784 165.801 109.784 165.801 109.784C165.801 109.785 165.837 109.79 165.93 109.817C166.032 109.846 166.165 109.891 166.324 109.947C166.528 110.019 166.757 110.105 167.001 110.196C167.141 110.248 167.285 110.302 167.432 110.356C167.828 110.502 168.239 110.648 168.582 110.747C168.753 110.796 168.921 110.837 169.071 110.86C169.145 110.871 169.226 110.879 169.307 110.878C169.381 110.877 169.491 110.868 169.604 110.822C170.383 110.503 170.516 109.686 170.472 108.998C170.425 108.274 170.174 107.403 169.863 106.545C169.548 105.679 169.156 104.784 168.801 104.003C168.686 103.751 168.577 103.513 168.475 103.292C168.256 102.816 168.072 102.417 167.952 102.123L167.952 102.123C166.243 97.9503 162.836 94.6442 159.845 92.3704C156.849 90.0927 154.217 88.8112 153.982 88.6995Z" fill="#26282B"/>
<path d="M159.467 112.25C158.241 112.25 158.064 112.25 157.43 110.698C154.604 103.76 145.637 99.8189 143.313 99.0015C141.512 98.3677 140.559 96.3934 141.189 94.5889C141.82 92.7844 143.791 91.8319 145.595 92.4588C146.038 92.6147 157.745 97.5226 161.943 105.194C162.861 106.871 163.859 109.707 162.179 110.625C161.652 110.913 160.028 112.246 159.467 112.246V112.25Z" fill="white"/>
<path fill-rule="evenodd" clip-rule="evenodd" d="M145.423 92.9491C143.89 92.4173 142.216 93.2267 141.68 94.7603C141.144 96.2938 141.954 97.9725 143.485 98.5115C144.681 98.9322 147.545 100.14 150.474 102.125C153.396 104.104 156.442 106.895 157.911 110.502C158.069 110.888 158.188 111.151 158.294 111.337C158.399 111.521 158.473 111.594 158.525 111.63C158.57 111.662 158.636 111.692 158.783 111.71C158.858 111.719 158.942 111.724 159.043 111.727H159.459C159.462 111.726 159.487 111.722 159.541 111.702C159.61 111.676 159.698 111.635 159.806 111.576C160.022 111.46 160.276 111.296 160.543 111.114C160.738 110.982 160.931 110.845 161.114 110.715C161.182 110.668 161.248 110.621 161.313 110.575C161.541 110.415 161.767 110.258 161.93 110.169C162.471 109.874 162.666 109.243 162.521 108.271C162.38 107.322 161.932 106.255 161.487 105.444C159.454 101.727 155.57 98.6402 152.085 96.4479C150.35 95.3569 148.73 94.4978 147.517 93.902C146.911 93.6042 146.407 93.3727 146.042 93.2112C145.86 93.1305 145.713 93.0675 145.605 93.0227C145.552 93.0003 145.509 92.9827 145.476 92.9698C145.46 92.9633 145.447 92.9583 145.438 92.9546L145.426 92.9503C145.425 92.9496 145.423 92.9492 145.423 92.9491ZM159.986 112.643V112.769H159.442C159.156 112.769 158.888 112.769 158.657 112.741C158.407 112.711 158.159 112.643 157.928 112.481C157.703 112.323 157.537 112.106 157.392 111.853C157.249 111.603 157.108 111.285 156.949 110.895L156.949 110.894C155.592 107.563 152.741 104.915 149.892 102.985C147.049 101.06 144.268 99.8884 143.14 99.4917C141.069 98.7629 139.974 96.4931 140.699 94.4176C141.424 92.3426 143.69 91.2471 145.765 91.9681L145.767 91.9687C146.03 92.061 149.102 93.3449 152.638 95.5683C156.165 97.7869 160.235 100.99 162.399 104.945C162.873 105.81 163.382 106.999 163.549 108.118C163.712 109.213 163.566 110.459 162.428 111.081C162.327 111.136 162.153 111.254 161.911 111.425C161.85 111.467 161.787 111.512 161.721 111.559C161.536 111.69 161.331 111.835 161.128 111.973C160.853 112.16 160.563 112.348 160.3 112.49C160.196 112.547 160.09 112.599 159.986 112.643Z" fill="#26282B"/>
<path d="M155.484 117.764C154.174 117.764 152.921 117.016 152.335 115.748C150.229 111.18 143.894 107.647 141.633 106.673C139.88 105.918 139.066 103.882 139.818 102.126C140.569 100.37 142.599 99.5558 144.359 100.304C144.791 100.487 154.964 104.904 158.625 112.849C159.425 114.588 158.667 116.645 156.928 117.445C156.457 117.66 155.965 117.764 155.48 117.764H155.484Z" fill="white"/>
<path fill-rule="evenodd" clip-rule="evenodd" d="M144.155 100.782C142.659 100.146 140.934 100.838 140.295 102.33C139.657 103.823 140.349 105.554 141.838 106.196C143.004 106.698 145.188 107.844 147.351 109.445C149.506 111.039 151.699 113.128 152.807 115.53C153.304 116.607 154.369 117.244 155.482 117.244C155.891 117.244 156.309 117.156 156.712 116.973C158.188 116.293 158.833 114.545 158.153 113.066C156.379 109.217 153.009 106.191 149.985 104.092C146.97 102 144.353 100.866 144.156 100.782L144.155 100.782ZM144.562 99.8256C142.539 98.9658 140.205 99.9013 139.34 101.921C138.476 103.941 139.412 106.282 141.427 107.15L141.427 107.151C142.523 107.622 144.637 108.729 146.733 110.28C148.838 111.838 150.865 113.799 151.863 115.965L151.863 115.966C152.536 117.423 153.976 118.282 155.48 118.283M144.562 99.8256C144.799 99.9262 147.484 101.092 150.577 103.239C153.664 105.381 157.21 108.536 159.097 112.632L159.097 112.632C160.017 114.631 159.145 116.997 157.145 117.917L157.143 117.918C156.606 118.163 156.042 118.283 155.484 118.283" fill="#26282B"/>
<path d="M153.686 126.703C152.321 126.703 151.029 125.893 150.479 124.552C148.574 119.897 142.398 116.094 140.181 115.021C138.46 114.189 137.736 112.122 138.564 110.4C139.392 108.679 141.456 107.951 143.177 108.776C143.6 108.977 153.031 113.282 156.592 122.242C157.298 124.019 156.765 125.723 154.995 126.447C154.566 126.624 154.122 126.707 153.682 126.707L153.686 126.703Z" fill="white"/>
<path fill-rule="evenodd" clip-rule="evenodd" d="M142.953 109.244C141.491 108.544 139.736 109.162 139.032 110.625C138.329 112.088 138.944 113.846 140.407 114.553L140.408 114.553C141.55 115.106 143.682 116.346 145.774 118.04C147.857 119.726 149.958 121.908 150.96 124.356C151.428 125.494 152.525 126.184 153.686 126.184H153.826C154.152 126.168 154.479 126.098 154.798 125.967L154.799 125.966C155.561 125.654 156.022 125.151 156.233 124.563C156.448 123.967 156.426 123.23 156.109 122.434L156.109 122.434C152.689 113.827 143.69 109.591 142.983 109.258C142.971 109.253 142.962 109.248 142.954 109.245L142.953 109.244ZM152.587 127.068C151.456 126.743 150.48 125.923 149.998 124.75L149.998 124.749C149.095 122.542 147.155 120.495 145.12 118.847C143.094 117.207 141.03 116.009 139.955 115.488L140.181 115.021L139.956 115.488C137.976 114.533 137.144 112.155 138.096 110.175C139.047 108.196 141.421 107.359 143.401 108.307C143.409 108.31 143.419 108.315 143.432 108.321C144.158 108.662 153.497 113.046 157.075 122.05C157.465 123.031 157.529 124.034 157.211 124.916C156.89 125.805 156.2 126.515 155.192 126.928C154.699 127.131 154.188 127.226 153.683 127.226H152.428L152.587 127.068Z" fill="#26282B"/>
<path d="M170.211 111.225L158.944 126.191L152.99 130.503L148.058 122.478L147.791 119.724L166.806 102.361L169.636 108.897L170.211 111.225Z" fill="white"/>
<path d="M117.433 143.789C117.433 143.789 114.232 147.156 113.055 143.301L115.001 141.538L117.436 143.786L117.433 143.789Z" fill="#26282B"/>
<path fill-rule="evenodd" clip-rule="evenodd" d="M115.004 140.834L118.186 143.771L117.803 144.153L117.795 144.161C117.788 144.169 117.777 144.18 117.764 144.193C117.736 144.221 117.698 144.258 117.649 144.305C117.551 144.397 117.411 144.522 117.239 144.66C116.901 144.931 116.415 145.269 115.87 145.476C115.325 145.683 114.653 145.784 114.008 145.471C113.363 145.157 112.875 144.49 112.558 143.453L112.461 143.137L115.004 140.834ZM116.669 143.784L114.998 142.242L113.656 143.457C113.91 144.124 114.212 144.414 114.463 144.536C114.749 144.676 115.098 144.658 115.501 144.505C115.902 144.352 116.29 144.089 116.589 143.85C116.617 143.827 116.643 143.806 116.669 143.784Z" fill="#26282B"/>
<path d="M80.3341 112.277L82.7482 114.692L83.4063 114.027L119.84 147.693L124.976 142.844L89.329 108.862L89.8867 108.225L87.2821 105.839L80.3341 112.277Z" fill="#66C949"/>
<path d="M88.0267 144.343L90.0425 131.144C90.2469 129.807 90.7179 128.529 91.4314 127.379L93.6897 123.742L96.9455 126.34L99.4808 123.392C101.535 120.192 106.335 120.431 106.335 120.431C107.929 120.074 107.184 123.977 108.226 125.235L121.814 135.847L114.977 142.494L114.146 143.969" fill="white"/>
<path fill-rule="evenodd" clip-rule="evenodd" d="M106.577 120.936C106.573 120.934 106.544 120.916 106.449 120.938L106.38 120.953L106.31 120.95L106.309 120.95L106.309 120.95L106.301 120.949C106.294 120.949 106.283 120.949 106.267 120.948C106.235 120.947 106.187 120.946 106.124 120.946C105.998 120.946 105.812 120.949 105.583 120.962C105.122 120.988 104.489 121.055 103.796 121.217C102.398 121.544 100.84 122.237 99.9181 123.673L99.8984 123.703L97.0129 127.058L93.8227 124.513L91.8729 127.653C91.1965 128.743 90.7499 129.954 90.5562 131.222C90.5562 131.222 90.5562 131.222 90.5562 131.222L88.5404 144.422L87.5132 144.265L89.529 131.065C89.7439 129.659 90.2395 128.314 90.99 127.105L93.5568 122.971L96.8781 125.621L99.0638 123.08C100.198 121.338 102.053 120.557 103.56 120.205C104.325 120.027 105.02 119.954 105.523 119.925C105.776 119.91 105.982 119.907 106.126 119.907C106.197 119.907 106.254 119.908 106.293 119.909C106.569 119.861 106.84 119.893 107.085 120.03C107.34 120.172 107.507 120.397 107.619 120.619C107.836 121.045 107.932 121.625 108.002 122.16C108.026 122.338 108.047 122.514 108.067 122.688C108.113 123.074 108.158 123.449 108.226 123.807C108.319 124.3 108.44 124.653 108.596 124.864L122.603 135.804L115.393 142.814L114.598 144.224L113.693 143.714L114.561 142.174L121.025 135.89L107.862 125.61L107.826 125.566C107.476 125.143 107.309 124.549 107.205 124C107.13 123.606 107.078 123.172 107.031 122.769C107.011 122.604 106.992 122.445 106.972 122.295C106.899 121.741 106.818 121.334 106.693 121.09C106.636 120.976 106.591 120.944 106.578 120.937C106.577 120.937 106.577 120.936 106.577 120.936Z" fill="#26282B"/>
<path d="M102.792 129.561C102.283 130.856 101.043 131.646 99.7302 131.646C99.3284 131.646 98.9197 131.573 98.5248 131.417C96.8346 130.752 95.5358 129.886 96.0969 128.158C98.4175 121.044 105.137 119.551 105.84 119.343C107.586 118.834 109.411 119.838 109.917 121.584C109.917 121.584 110.339 123.06 110.367 124.033" fill="white"/>
<path fill-rule="evenodd" clip-rule="evenodd" d="M109.418 121.729C108.992 120.259 107.456 119.414 105.986 119.842C105.95 119.852 105.901 119.866 105.84 119.883C104.635 120.211 98.7084 121.828 96.5909 128.319C96.4733 128.681 96.4629 128.967 96.5106 129.198C96.5582 129.427 96.6706 129.637 96.8521 129.838C97.2315 130.258 97.8796 130.605 98.7151 130.934L98.7156 130.934C99.0475 131.065 99.3913 131.126 99.7302 131.126C100.837 131.126 101.88 130.46 102.308 129.371L103.276 129.751C102.685 131.252 101.249 132.165 99.7302 132.165C99.2655 132.165 98.7919 132.081 98.3341 131.901C97.4796 131.564 96.6333 131.146 96.0811 130.535C95.7968 130.22 95.5841 129.848 95.4931 129.408C95.4023 128.97 95.4399 128.499 95.6027 127.998L95.603 127.997C97.9013 120.951 104.354 119.208 105.553 118.884C105.613 118.867 105.66 118.855 105.693 118.845L105.694 118.844C107.716 118.255 109.83 119.418 110.416 121.44L110.416 121.441L109.92 121.583C110.416 121.441 110.416 121.441 110.416 121.441L110.418 121.447L110.422 121.461C110.425 121.472 110.43 121.49 110.436 121.512C110.448 121.556 110.465 121.62 110.486 121.699C110.527 121.857 110.582 122.078 110.638 122.331C110.749 122.827 110.871 123.479 110.886 124.018L109.848 124.048C109.835 123.613 109.732 123.041 109.624 122.556C109.571 122.319 109.519 122.11 109.48 121.961C109.461 121.887 109.445 121.827 109.434 121.787C109.428 121.767 109.424 121.752 109.421 121.741L109.418 121.73L109.418 121.729Z" fill="#26282B"/>
<path d="M107.676 133.887C107.166 135.182 106.2 135.016 104.887 135.016C104.486 135.016 104.077 134.943 103.682 134.787C101.992 134.122 100.759 132.072 101.427 130.382C103.651 124.743 110.298 122.918 111.001 122.713C112.746 122.204 114.572 123.209 115.077 124.954C115.077 124.954 115.708 127.452 115.708 128.155" fill="white"/>
<path fill-rule="evenodd" clip-rule="evenodd" d="M114.576 125.09C114.147 123.626 112.613 122.784 111.146 123.212L111.146 123.212C111.133 123.216 111.119 123.22 111.103 123.224C110.674 123.348 108.946 123.846 107.047 124.958C105.074 126.113 102.964 127.902 101.911 130.572L101.91 130.573C101.646 131.242 101.745 132.015 102.127 132.722C102.51 133.43 103.15 134.02 103.872 134.304L103.873 134.304C104.205 134.435 104.549 134.496 104.887 134.496C105.043 134.496 105.182 134.498 105.311 134.5C105.481 134.503 105.636 134.505 105.797 134.502C106.066 134.498 106.278 134.479 106.454 134.434C106.622 134.391 106.751 134.325 106.86 134.226C106.971 134.125 107.087 133.965 107.192 133.697L108.159 134.077C108.01 134.456 107.814 134.762 107.56 134.994C107.303 135.228 107.013 135.363 106.712 135.44C106.418 135.516 106.111 135.536 105.814 135.541C105.647 135.544 105.456 135.541 105.267 135.539C105.137 135.537 105.008 135.535 104.887 135.535C104.423 135.535 103.949 135.451 103.491 135.271C102.523 134.89 101.702 134.122 101.213 133.216C100.723 132.309 100.54 131.212 100.944 130.191C102.115 127.223 104.44 125.28 106.522 124.061C108.533 122.884 110.361 122.357 110.811 122.227C110.828 122.222 110.843 122.218 110.856 122.214L111.001 122.713L110.855 122.214C112.877 121.625 114.991 122.788 115.576 124.81L115.579 124.818L115.581 124.827L115.077 124.954C115.581 124.827 115.581 124.827 115.581 124.827L115.581 124.828L115.588 124.856C115.593 124.875 115.6 124.903 115.609 124.938C115.626 125.009 115.651 125.11 115.681 125.234C115.74 125.481 115.82 125.818 115.9 126.178C115.979 126.538 116.06 126.924 116.121 127.267C116.179 127.598 116.227 127.927 116.227 128.155H115.188C115.188 128.03 115.157 127.784 115.098 127.449C115.04 127.126 114.963 126.756 114.885 126.403C114.807 126.051 114.729 125.72 114.671 125.477C114.641 125.356 114.617 125.256 114.6 125.188C114.592 125.153 114.585 125.127 114.58 125.108L114.576 125.09Z" fill="#26282B"/>
<path d="M112.431 137.894C111.922 139.19 110.682 139.979 109.369 139.979C108.968 139.979 108.559 139.907 108.164 139.751C106.474 139.086 105.643 137.174 106.308 135.484C108.531 129.845 114.776 127.881 115.479 127.677C117.225 127.168 119.05 128.172 119.556 129.918L120.2 133.063" fill="white"/>
<path fill-rule="evenodd" clip-rule="evenodd" d="M119.051 130.043C118.618 128.585 117.088 127.748 115.625 128.175L115.624 128.175C115.299 128.27 113.613 128.795 111.742 129.981C109.869 131.167 107.848 132.992 106.791 135.674C106.231 137.097 106.931 138.707 108.354 139.267L108.355 139.267C108.687 139.398 109.03 139.46 109.369 139.46C110.476 139.46 111.519 138.794 111.948 137.704L112.915 138.084C112.325 139.585 110.888 140.499 109.369 140.499C108.905 140.499 108.431 140.415 107.973 140.234C106.016 139.463 105.054 137.25 105.824 135.293L105.824 135.293C106.99 132.336 109.204 130.359 111.185 129.103C113.168 127.847 114.955 127.288 115.334 127.178C117.355 126.588 119.469 127.752 120.055 129.773L120.061 129.793L120.709 132.958L119.691 133.167L119.051 130.043Z" fill="#26282B"/>
<path d="M112.009 144.613C110.318 143.948 109.487 142.037 110.152 140.346C112.376 134.708 118.621 132.744 119.324 132.539C120.463 132.207 121.083 132.436 122.188 133.62C122.825 134.302 123.102 134.534 122.971 135.584C122.87 136.367 122.607 137.122 122.226 137.814L121.579 138.992C121.107 139.411 120.666 138.621 120.337 138.615C119.138 138.601 114.998 142.324 106.415 152.843" fill="white"/>
<path fill-rule="evenodd" clip-rule="evenodd" d="M120.379 132.64C119.666 132.65 118.959 132.887 118.536 133.101L118.116 132.25C118.634 131.988 119.48 131.701 120.365 131.688C121.26 131.675 122.252 131.944 122.936 132.866C123.759 133.976 123.744 135.219 123.42 136.268C123.1 137.306 122.466 138.203 121.952 138.723C121.823 138.853 121.68 138.98 121.527 139.047C121.245 139.173 120.977 139.148 120.753 139.03C120.583 138.941 120.449 138.8 120.376 138.723C120.37 138.717 120.365 138.711 120.36 138.706C120.352 138.699 120.346 138.691 120.339 138.685C116.522 141.851 110.807 147.752 107.416 152.469L106.655 151.909C110.123 147.085 115.953 141.075 119.826 137.88C119.928 137.796 120.051 137.724 120.194 137.692C120.345 137.659 120.486 137.677 120.608 137.724C120.802 137.799 120.95 137.955 121.021 138.029C121.026 138.034 121.03 138.038 121.034 138.043C121.1 138.111 121.137 138.147 121.16 138.166C121.162 138.164 121.164 138.163 121.167 138.161C121.194 138.139 121.233 138.104 121.286 138.05C121.713 137.618 122.255 136.85 122.522 135.984C122.786 135.129 122.772 134.23 122.183 133.437C121.738 132.836 121.084 132.629 120.379 132.64Z" fill="#26282B"/>
<path d="M119.583 136.658L105.937 119.942C106.072 120.213 96.6545 125.799 96.0484 127.025C95.5704 127.992 94.6179 126.606 94.5001 127.545C94.4205 128.165 87.67 145.064 87.8154 145.892C88.4804 149.657 106.079 151.662 106.079 151.662L119.583 136.658Z" fill="white"/>
<path fill-rule="evenodd" clip-rule="evenodd" d="M97.3697 124.73L97.9621 125.089L97.9017 125.188C97.8629 125.253 97.8069 125.345 97.7381 125.459C97.6005 125.687 97.4118 126 97.2074 126.341C96.7979 127.023 96.3281 127.812 96.0793 128.25L95.4772 127.907C95.7306 127.461 96.2047 126.666 96.6134 125.984C96.8182 125.643 97.0072 125.329 97.1451 125.101C97.214 124.987 97.2702 124.894 97.3091 124.83L97.3697 124.73Z" fill="#26282B"/>
<path fill-rule="evenodd" clip-rule="evenodd" d="M311.636 278.72H70.927V277.681H311.636V278.72Z" fill="#26282B"/>
<path fill-rule="evenodd" clip-rule="evenodd" d="M62.2611 246.547V212.531H63.3002V246.547H62.2611Z" fill="#26282B"/>
<path fill-rule="evenodd" clip-rule="evenodd" d="M276.766 215.506H304.136L301.851 252.592L301.85 252.599L301.466 260.56C300.989 270.436 292.844 278.197 282.957 278.197H206.776V277.158H282.957C292.29 277.158 299.978 269.832 300.428 260.51L300.813 252.538L303.031 216.545H277.754L276.028 251.246L219.37 265.366L219.119 264.358L275.028 250.424L276.766 215.506Z" fill="#26282B"/>
<path d="M183.76 217.668L192.281 272.624C192.385 273.3 192.967 273.798 193.649 273.798H231.056C231.821 273.798 232.441 274.418 232.441 275.184V276.33C232.441 277.096 231.821 277.716 231.056 277.716L110.027 277.577C109.345 277.577 108.763 277.078 108.659 276.403L99.6471 218.094C99.5189 217.255 100.167 216.497 101.015 216.497H182.389C183.071 216.497 183.653 216.996 183.757 217.671L183.76 217.668Z" fill="#E9E8E8"/>
<path opacity="0.43" d="M146.565 252.425C149.417 252.425 151.729 250.113 151.729 247.26C151.729 244.408 149.417 242.096 146.565 242.096C143.713 242.096 141.401 244.408 141.401 247.26C141.401 250.113 143.713 252.425 146.565 252.425Z" fill="#787878"/>
</svg>
