<svg width="322" height="247" viewBox="0 0 322 247" fill="none" xmlns="http://www.w3.org/2000/svg">
<path fill-rule="evenodd" clip-rule="evenodd" d="M263.939 155.451H60.9309V154.759H263.939V155.451Z" fill="#E0F4DB"/>
<path d="M185.429 92.7969V156.443C185.429 158.479 187.27 160.126 189.541 160.126H237.557C239.829 160.126 241.67 158.475 241.67 156.443V92.3541C241.67 90.306 239.804 88.6509 237.516 88.6716L189.5 89.1143C187.241 89.135 185.424 90.7777 185.424 92.7969H185.429Z" fill="white"/>
<path d="M194.353 137.054C194.353 137.054 195.934 126.846 196.157 124.045C196.385 121.244 199.314 119.717 201.007 125.957C202.699 132.196 203.94 134.617 205.633 132.833C207.325 131.05 205.86 127.231 207.776 127.231C209.692 127.231 210.933 134.745 213.978 134.617C217.024 134.488 216.912 114.88 220.408 114.752C223.905 114.623 223.342 132.453 224.923 132.581C226.503 132.709 227.873 96.823 232.048 96.9471C236.223 97.0754 238.548 135.515 239.338 136.917C240.129 138.32 238.527 137.728 238.527 137.728L194.353 137.058V137.054Z" fill="#E9E8E8"/>
<path d="M242.413 145.76H192.748V147.162H242.413V145.76Z" fill="#E9E8E8"/>
<path d="M242.413 151.06H192.748V152.463H242.413V151.06Z" fill="#E9E8E8"/>
<path d="M212.162 98.3416H193.257V99.7442H212.162V98.3416Z" fill="#E9E8E8"/>
<path d="M243.299 138.635C243.299 138.635 243.121 138.734 242.409 137.232C239.728 131.567 240.034 101.693 235.321 101.565C230.608 101.437 229.04 135.324 227.257 135.196C225.473 135.068 226.11 117.238 222.163 117.367C218.216 117.495 218.344 137.104 214.906 137.232C211.467 137.36 210.064 129.846 207.9 129.846C205.736 129.846 207.391 133.665 205.48 135.448C203.568 137.232 202.166 134.811 200.258 128.572C198.351 122.332 195.04 123.859 194.784 126.66C194.532 129.461 192.748 137.865 192.748 137.865L192.744 137.869" stroke="#66C949" stroke-width="0.827541"/>
<path fill-rule="evenodd" clip-rule="evenodd" d="M237.165 88.2578C239.639 88.2354 241.737 90.0336 241.737 92.3541V156.443C241.737 158.745 239.667 160.539 237.211 160.539H189.541C187.086 160.539 185.015 158.749 185.015 156.443V93.2106H185.011V92.7968C185.011 90.509 187.054 88.7229 189.496 88.7005L237.165 88.2578ZM185.842 92.6422V156.443C185.842 158.208 187.454 159.712 189.541 159.712H237.211C239.298 159.712 240.91 158.204 240.91 156.443V92.3541C240.91 90.5782 239.276 89.0663 237.173 89.0853L189.504 89.528C187.489 89.5466 185.933 90.9589 185.842 92.6422Z" fill="#26282B"/>
<path fill-rule="evenodd" clip-rule="evenodd" d="M146.379 146.005L172.702 239.176L172.035 239.364L145.712 146.194L146.379 146.005Z" fill="#26282B"/>
<path fill-rule="evenodd" clip-rule="evenodd" d="M146.033 134.576L173.222 231.557L172.555 231.744L145.366 134.763L146.033 134.576Z" fill="#26282B"/>
<path fill-rule="evenodd" clip-rule="evenodd" d="M146.552 124.186L172.876 218.915L172.208 219.101L145.885 124.371L146.552 124.186Z" fill="#26282B"/>
<path fill-rule="evenodd" clip-rule="evenodd" d="M145.513 109.639L173.568 210.603L172.901 210.788L144.846 109.824L145.513 109.639Z" fill="#26282B"/>
<path fill-rule="evenodd" clip-rule="evenodd" d="M148.297 153.892V111.81H148.99V153.892H148.297Z" fill="#26282B"/>
<path fill-rule="evenodd" clip-rule="evenodd" d="M153.146 172.596V130.513H153.839V172.596H153.146Z" fill="#26282B"/>
<path fill-rule="evenodd" clip-rule="evenodd" d="M157.302 186.797V144.714H157.995V186.797H157.302Z" fill="#26282B"/>
<path fill-rule="evenodd" clip-rule="evenodd" d="M162.844 206.539V164.457H163.537V206.539H162.844Z" fill="#26282B"/>
<path fill-rule="evenodd" clip-rule="evenodd" d="M167.693 223.857V181.774H168.386V223.857H167.693Z" fill="#26282B"/>
<path d="M146.125 91.8354H143.701V154.689H146.125V91.8354Z" fill="#26282B"/>
<path d="M145.872 102.458L173.408 201.344V189.914L145.872 92.0674V102.458Z" fill="#E0F4DB"/>
<path fill-rule="evenodd" clip-rule="evenodd" d="M145.526 92.0675L146.206 91.9736L173.754 189.866V201.344L173.074 201.437L145.526 102.506V92.0675ZM146.219 94.5768V102.411L173.062 198.809V189.962L146.219 94.5768Z" fill="#26282B"/>
<path d="M174.274 185.931H171.849V246.89H174.274V185.931Z" fill="#26282B"/>
<path d="M281.471 127.396H277.142L273.852 132.245L278.181 137.094L285.281 131.553L281.471 127.396Z" fill="white"/>
<path fill-rule="evenodd" clip-rule="evenodd" d="M281.151 127.743H276.796V127.05H281.446L285.779 131.572L278.687 137.917L274.126 133.356L274.616 132.866L278.714 136.964L284.783 131.533L281.151 127.743Z" fill="#26282B"/>
<path d="M69.6731 31.1084L75.388 38.3819L71.2317 43.0578L66.729 35.7842L63.6118 33.3597H62.2263L60.1482 30.9352L60.3214 27.9912L66.729 26.0862L69.3267 27.9912L69.6731 31.1084Z" fill="white"/>
<path d="M133.4 23.6479L130.386 29.1723L113.209 45.9915L96.0309 62.8107L106.145 69.1213L134.549 35.2648L141.317 34.3365L144.462 29.4563C144.777 29.0372 144.947 28.5246 144.947 28.0016V26.5157L146.007 22.7508C146.139 22.2867 145.882 21.8053 145.425 21.6529C145.023 21.5178 144.58 21.684 144.365 22.0512L142.582 25.0818L136.198 25.6741C135.876 25.7018 135.582 25.4801 135.53 25.158C135.499 24.9744 135.554 24.7839 135.679 24.6454L137.587 22.498C137.708 22.3629 137.774 22.1863 137.774 22.0027C137.774 21.3966 137.095 21.0433 136.6 21.3931L133.4 23.6479Z" fill="white"/>
<path fill-rule="evenodd" clip-rule="evenodd" d="M67.8117 30.4783L70.5466 31.6461L79.0922 42.6832L73.6002 47.5406L66.2878 36.1293L61.5253 32.2862L67.8117 30.4783ZM62.997 32.5837L66.8104 35.6609L73.7471 46.4859L78.1472 42.5942L70.1091 32.2125L67.7663 31.2121L62.997 32.5837Z" fill="#26282B"/>
<path d="M73.386 77.5967V55.9077L70.9442 45.2156L69.4618 41.901C69.4618 41.901 66.6944 39.7258 63.6707 43.8544C61.7103 46.5318 60.9795 55.0938 63.2758 62.2357C64.9349 67.3999 57.9454 68.0614 55.8256 75.0752C54.0939 80.7971 58.451 86.5535 64.4292 86.5535C69.3787 86.5535 73.3895 82.5427 73.3895 77.5932L73.386 77.5967Z" fill="#26282B"/>
<path d="M77.6982 63.1779C79.3796 63.1779 80.7427 61.8148 80.7427 60.1334C80.7427 58.4519 79.3796 57.0889 77.6982 57.0889C76.0168 57.0889 74.6537 58.4519 74.6537 60.1334C74.6537 61.8148 76.0168 63.1779 77.6982 63.1779Z" fill="white"/>
<path fill-rule="evenodd" clip-rule="evenodd" d="M77.6982 57.4351C76.2081 57.4351 75.0001 58.6431 75.0001 60.1333C75.0001 61.6234 76.2081 62.8314 77.6982 62.8314C79.1884 62.8314 80.3964 61.6234 80.3964 60.1333C80.3964 58.6431 79.1884 57.4351 77.6982 57.4351ZM74.3074 60.1333C74.3074 58.2606 75.8255 56.7424 77.6982 56.7424C79.5709 56.7424 81.0891 58.2606 81.0891 60.1333C81.0891 62.006 79.5709 63.5241 77.6982 63.5241C75.8255 63.5241 74.3074 62.006 74.3074 60.1333Z" fill="#26282B"/>
<path fill-rule="evenodd" clip-rule="evenodd" d="M77.9548 58.9418C77.4051 58.9366 76.9552 59.3785 76.9501 59.9287C76.9449 60.4783 77.3868 60.9282 77.937 60.9334L77.9305 61.6261C76.9983 61.6174 76.2487 60.855 76.2574 59.9222C76.2661 58.99 77.0285 58.2404 77.9612 58.2491L77.9548 58.9418Z" fill="#26282B"/>
<path d="M96.9523 66.7868L93.6445 60.9991L84.2859 58.5054L77.5458 50.4248L75.052 54.2244L80.192 63.4756L85.4254 72.5294L86.4611 73.1598L91.9543 71.764L97.3298 69.0208L96.9176 66.8942" fill="white"/>
<path fill-rule="evenodd" clip-rule="evenodd" d="M96.652 66.5489L94.3037 62.3233L94.6065 62.155L96.9548 66.3806L96.652 66.5489Z" fill="#26282B"/>
<path d="M84.4418 62.8417C86.849 64.5735 90.1359 64.8714 92.8999 63.337C96.7133 61.2173 98.0883 56.4064 95.9686 52.593L90.8113 43.3106C88.6916 39.4971 83.8807 38.1221 80.0673 40.2418C76.2539 42.3615 74.8788 47.1725 76.9985 50.9859" fill="white"/>
<path fill-rule="evenodd" clip-rule="evenodd" d="M84.4418 62.8417C86.849 64.5735 90.1359 64.8714 92.8999 63.337C96.7133 61.2173 98.0883 56.4064 95.9686 52.593L90.8113 43.3106C88.6916 39.4971 83.8807 38.1221 80.0673 40.2418C76.2539 42.3615 74.8788 47.1725 76.9985 50.9859L77.604 50.6493C75.6703 47.1705 76.9246 42.7813 80.4038 40.8473C83.8826 38.9136 88.2718 40.1678 90.2058 43.647C90.2058 43.647 90.2058 43.647 90.2058 43.647L95.3631 52.9294C97.2967 56.4081 96.0426 60.7973 92.5636 62.7314M84.4418 62.8417L84.8463 62.2794C87.0438 63.8603 90.0425 64.1308 92.5633 62.7316" fill="#26282B"/>
<path d="M85.5086 43.3037C85.5086 43.3037 85.1623 45.2225 81.3731 47.55C77.5181 49.9191 76.7631 51.2388 77.4662 52.4094C77.8333 53.019 79.6967 57.1649 80.0812 58.0204C80.2093 58.3045 79.8456 58.5469 79.6309 58.3252L79.3919 58.062C79.3919 58.062 76.7561 56.1882 75.0174 58.9002C74.4979 59.7107 74.4355 61.1065 75.5231 62.4919C75.6651 62.6062 70.9685 60.7186 68.9561 51.7721C66.9438 42.8257 73.5592 37.5887 80.0742 36.3384C86.5893 35.0846 90.4165 39.0919 91.6184 41.0627C92.8202 43.03 92.9692 47.1448 92.9692 47.1448L90.5135 42.8603C90.5135 42.8603 89.4779 46.4244 85.5086 43.3037Z" fill="#26282B"/>
<path d="M85.3726 52.8505C85.6736 52.6833 85.7436 52.2346 85.529 51.8484C85.3143 51.4621 84.8964 51.2846 84.5954 51.4518C84.2944 51.6191 84.2244 52.0678 84.439 52.454C84.6537 52.8403 85.0716 53.0178 85.3726 52.8505Z" fill="#26282B"/>
<path d="M91.5994 49.3838C91.9004 49.2165 91.9704 48.7678 91.7558 48.3816C91.5411 47.9953 91.1232 47.8178 90.8222 47.985C90.5212 48.1523 90.4512 48.601 90.6658 48.9872C90.8805 49.3735 91.2985 49.551 91.5994 49.3838Z" fill="#26282B"/>
<path d="M84.5423 47.9864C84.6635 48.2011 84.57 48.4713 84.3448 48.5717C83.8011 48.8142 82.859 49.2714 82.2805 49.7736C81.761 50.2238 81.3384 50.5356 80.5972 51.5677C80.476 51.734 80.2128 51.5816 80.2786 51.3876C80.4795 50.8057 80.8882 49.9952 81.7125 49.2852C82.7135 48.4228 83.5655 47.9933 84.0193 47.8028C84.2132 47.7197 84.4418 47.8028 84.5423 47.9864Z" fill="#26282B"/>
<path d="M87.6561 46.6113C87.8224 46.8399 88.1445 46.8815 88.3592 46.6979C88.8164 46.3065 89.5992 45.6865 90.2781 45.3887C90.6279 45.2363 90.8738 45.1289 91.0435 45.0596C91.2132 44.9903 91.1786 44.7548 91.0054 44.7236C90.666 44.6682 90.091 44.7098 89.1524 45.1254C88.3419 45.4856 87.9263 45.7731 87.7081 45.9844C87.5349 46.1506 87.5107 46.4173 87.6527 46.6113H87.6561Z" fill="#26282B"/>
<path d="M84.4972 62.9354C84.4972 62.9354 87.1399 66.1842 90.6381 65.8344C94.1364 65.4846 95.0785 63.4757 95.0785 63.4757L94.4238 62.2427C93.5649 63.0774 92.0756 63.8324 90.1083 64.1857C88.141 64.539 86.281 63.8463 85.6056 63.4757C85.28 63.2991 84.4972 62.9354 84.4972 62.9354Z" fill="#26282B"/>
<path fill-rule="evenodd" clip-rule="evenodd" d="M91.1049 56.4325C91.1048 56.4326 91.1046 56.4328 91.3241 56.7007C91.5436 56.9687 91.5434 56.9688 91.5432 56.969L91.5428 56.9693L91.542 56.97L91.5398 56.9717L91.534 56.9763C91.5294 56.98 91.5233 56.9846 91.5159 56.9902C91.501 57.0014 91.4806 57.0163 91.4548 57.0338C91.4033 57.0689 91.3301 57.115 91.2374 57.1639C91.0527 57.2615 90.7861 57.3725 90.4566 57.4273C89.7812 57.5396 88.8888 57.4072 87.9469 56.5559L88.4114 56.042C89.1979 56.7528 89.8779 56.8213 90.3429 56.744C90.5835 56.7039 90.7792 56.6225 90.914 56.5513C90.9812 56.5159 91.0322 56.4835 91.0649 56.4612C91.0812 56.4501 91.0929 56.4416 91.0996 56.4365C91.103 56.434 91.1051 56.4323 91.106 56.4317L91.1057 56.4319L91.1052 56.4323L91.1049 56.4325ZM91.106 56.4317L91.1063 56.4314L91.1064 56.4313C91.1064 56.4313 91.1062 56.4315 91.106 56.4317Z" fill="#26282B"/>
<path fill-rule="evenodd" clip-rule="evenodd" d="M90.5698 52.9419L86.9856 49.375L87.4742 48.884L91.0596 52.4521C91.4178 52.8103 91.2863 53.4127 90.8172 53.592L90.8165 53.5923L89.5488 54.0738L89.3029 53.4262L90.5698 52.945C90.5698 52.945 90.5699 52.945 90.5698 52.945C90.5703 52.9448 90.5709 52.9446 90.5712 52.9444C90.5712 52.9443 90.5713 52.9441 90.5713 52.944C90.5713 52.9441 90.5713 52.9439 90.5713 52.944C90.571 52.9436 90.5705 52.9427 90.5698 52.9419C90.5699 52.942 90.5698 52.9419 90.5698 52.9419Z" fill="#26282B"/>
<path d="M87.0049 46.1265L87.5279 46.8573C87.5279 46.8573 88.9237 45.5411 90.0528 45.0459C91.182 44.5506 91.3066 44.5229 91.3066 44.5229C91.3066 44.5229 90.7906 43.889 88.8233 44.7618C86.8594 45.6347 87.0014 46.1265 87.0014 46.1265H87.0049Z" fill="#26282B"/>
<path d="M71.9417 40.7442C72.3919 40.4428 70.5493 39.9649 69.5934 40.6645C68.6374 41.3676 68.059 43.2206 68.8037 44.6338C69.5518 46.0434 69.6245 45.659 69.6245 45.659C69.6245 45.659 70.4246 41.6204 71.9417 40.7442Z" fill="#66C949"/>
<path d="M90.1292 39.2236C90.1292 39.2236 97.2884 40.1276 97.3611 41.0316C97.4339 41.9356 86.6413 48.9286 82.6062 49.1953C78.5712 49.462 76.403 48.364 76.403 48.364L90.1292 39.2236Z" fill="#66C949"/>
<path d="M69.4099 50.7366C72.9289 51.1591 82.3776 47.8791 85.8377 45.4996C89.2978 43.1201 90.233 39.3067 90.233 39.3067L88.7055 38.0391C88.7055 38.0391 89.8485 39.5076 85.1207 42.417C81.1965 44.8346 72.9635 47.9657 69.306 47.318C69.306 47.318 69.0393 49.2957 69.4099 50.7366Z" fill="#66C949"/>
<path fill-rule="evenodd" clip-rule="evenodd" d="M70.2768 54.6407C67.2583 48.5182 69.8943 42.8008 71.6339 40.3201L72.2011 40.7178C70.5265 43.1057 68.0448 48.5369 70.894 54.326L70.903 54.3418C70.9121 54.3578 70.9261 54.382 70.9447 54.4137C70.9821 54.477 71.0382 54.5704 71.1121 54.6881C71.2601 54.9237 71.4792 55.2563 71.7616 55.6413C72.3279 56.413 73.1425 57.3863 74.1431 58.2103L73.7027 58.745C72.6425 57.8719 71.7894 56.8501 71.2031 56.0511C70.9093 55.6507 70.681 55.304 70.5256 55.0566C70.4478 54.9329 70.3883 54.8338 70.3478 54.7652C70.3276 54.7309 70.3122 54.7041 70.3016 54.6857L70.2895 54.6643L70.2862 54.6584L70.2852 54.6567L70.2849 54.6562C70.2849 54.6561 70.2848 54.6559 70.5875 54.4876L70.2848 54.6559L70.2806 54.6484L70.2768 54.6407Z" fill="white"/>
<path fill-rule="evenodd" clip-rule="evenodd" d="M85.0882 72.7394L79.2971 62.3209L79.9026 61.9844L85.6937 72.4028L85.0882 72.7394Z" fill="#26282B"/>
<path d="M184.411 11.9998V32.5839C184.411 35.6388 186.888 38.1153 189.943 38.1153H295.167C298.561 38.1153 301.311 35.3652 301.311 31.9709V12.0033C301.311 8.94839 298.834 6.47192 295.78 6.47192H189.943C186.888 6.47192 184.411 8.94839 184.411 12.0033V11.9998Z" fill="#E0F4DB"/>
<path fill-rule="evenodd" clip-rule="evenodd" d="M184.065 11.9997C184.067 8.75515 186.698 6.12549 189.943 6.12549H295.78C299.026 6.12549 301.657 8.75702 301.657 12.0032V31.9708C301.657 35.5564 298.752 38.4615 295.167 38.4615H189.943C186.697 38.4615 184.065 35.83 184.065 32.5838V12.0032C184.065 12.002 184.065 12.0009 184.065 11.9997ZM184.758 12.0032V32.5838C184.758 35.4474 187.079 37.7688 189.943 37.7688H295.167C298.37 37.7688 300.965 35.1738 300.965 31.9708V12.0032C300.965 9.1396 298.643 6.81821 295.78 6.81821H189.943C187.079 6.81821 184.758 9.1396 184.758 12.0032Z" fill="#26282B"/>
<path d="M92.9899 105.905H59.2026V109.333H92.9899V105.905Z" fill="white"/>
<path d="M18.6301 99.2648V111.436C18.6301 114.186 20.8607 116.417 23.6108 116.417H123.48C126.358 116.417 128.689 114.086 128.689 111.207V99.2648C128.689 96.7399 126.642 94.6895 124.114 94.6895H23.2055C20.6806 94.6895 18.6301 96.7364 18.6301 99.2648Z" fill="#E0F4DB"/>
<path fill-rule="evenodd" clip-rule="evenodd" d="M18.2838 99.265C18.2838 96.5451 20.4895 94.3433 23.2056 94.3433H124.114C126.834 94.3433 129.036 96.5489 129.036 99.265V111.207C129.036 114.277 126.549 116.763 123.48 116.763H23.6108C20.6694 116.763 18.2838 114.377 18.2838 111.436V99.265ZM23.2056 95.036C20.8717 95.036 18.9765 96.9281 18.9765 99.265V111.436C18.9765 113.995 21.052 116.07 23.6108 116.07H123.48C126.167 116.07 128.343 113.894 128.343 111.207V99.265C128.343 96.9312 126.451 95.036 124.114 95.036H23.2056Z" fill="#26282B"/>
<path d="M95.7019 103.459H26.5514V106.888H95.7019V103.459Z" fill="#66C949"/>
<path d="M63.6291 109.534C66.1159 109.534 68.1318 107.518 68.1318 105.032C68.1318 102.545 66.1159 100.529 63.6291 100.529C61.1424 100.529 59.1265 102.545 59.1265 105.032C59.1265 107.518 61.1424 109.534 63.6291 109.534Z" fill="#E0F4DB"/>
<path fill-rule="evenodd" clip-rule="evenodd" d="M63.6291 100.875C61.3336 100.875 59.4727 102.736 59.4727 105.032C59.4727 107.327 61.3336 109.188 63.6291 109.188C65.9245 109.188 67.7854 107.327 67.7854 105.032C67.7854 102.736 65.9245 100.875 63.6291 100.875ZM58.78 105.032C58.78 102.354 60.951 100.183 63.6291 100.183C66.3071 100.183 68.4781 102.354 68.4781 105.032C68.4781 107.71 66.3071 109.881 63.6291 109.881C60.951 109.881 58.78 107.71 58.78 105.032Z" fill="#26282B"/>
<path d="M63.6291 106.888C64.576 106.888 65.3436 106.121 65.3436 105.174C65.3436 104.227 64.576 103.459 63.6291 103.459C62.6823 103.459 61.9147 104.227 61.9147 105.174C61.9147 106.121 62.6823 106.888 63.6291 106.888Z" fill="#66C949"/>
<path d="M63.6673 111.717L61.9112 113.369H42.7853V123.406H84.7744V113.369H65.3436L63.6673 111.717Z" fill="white"/>
<path fill-rule="evenodd" clip-rule="evenodd" d="M63.6729 111.236L65.4857 113.022H85.1208V123.752H42.439V113.022H61.7739L63.6729 111.236ZM63.6617 112.197L62.0486 113.715H43.1317V123.06H84.428V113.715H65.2017L63.6617 112.197Z" fill="#26282B"/>
<path d="M71.9521 118.117H48.0637V119.302H71.9521V118.117Z" fill="#E9E8E8"/>
<path d="M198.394 14.7603L196.271 12.7653H173.144V0.628906H223.91V12.7653H200.42L198.394 14.7603Z" fill="white"/>
<path fill-rule="evenodd" clip-rule="evenodd" d="M172.798 0.282471H224.257V13.1116H200.562L198.4 15.2408L196.134 13.1116H172.798V0.282471ZM173.491 0.975188V12.4189H196.408L198.388 14.2797L200.278 12.4189H223.564V0.975188H173.491Z" fill="#26282B"/>
<path d="M212.969 5.34277H184.086V6.77324H212.969V5.34277Z" fill="#E9E8E8"/>
<path d="M118.607 123.721C118.607 123.721 114.274 126.672 111.16 126.936C108.046 127.195 111.16 120.279 111.16 120.279L118.607 123.721Z" fill="#26282B"/>
<path d="M24.3278 165.894L53.5639 158.063L70.9234 133.818L84.2652 148.593L64.6335 167.726C62.6628 169.645 60.1205 170.868 57.3946 171.211L22.4921 176.413L24.3312 165.89L24.3278 165.894Z" fill="white"/>
<path fill-rule="evenodd" clip-rule="evenodd" d="M70.8922 133.266L84.7457 148.609L64.8753 167.974C62.8515 169.945 60.2409 171.201 57.4419 171.554L22.0682 176.826L23.8962 166.368L23.1671 166.563L24.8608 164.872L24.7654 165.418L53.3545 157.76L70.8922 133.266ZM24.6339 166.171L22.916 176L57.3475 170.867L57.3514 170.867C60.0025 170.533 62.4751 169.344 64.3918 167.478C64.3918 167.478 64.3919 167.478 64.3918 167.478L83.7847 148.578L70.9546 134.369L53.7734 158.365L24.6339 166.171Z" fill="#26282B"/>
<path d="M89.2839 150.89L88.2414 182.599L85.6091 194.174C84.712 198.116 84.092 202.113 83.7526 206.141L82.3152 223.164L90.8772 228.782L100.807 189.647C101.732 185.997 102.421 182.291 102.868 178.553L105.93 152.895L89.2909 150.886L89.2839 150.89Z" fill="white"/>
<path fill-rule="evenodd" clip-rule="evenodd" d="M89.2293 150.53L106.315 152.593L103.212 178.594C102.764 182.346 102.072 186.067 101.143 189.732L91.0935 229.338L81.9528 223.341L83.4075 206.112C83.4075 206.112 83.4075 206.112 83.4075 206.112C83.7483 202.067 84.3707 198.054 85.2714 194.097C85.2714 194.097 85.2714 194.097 85.2714 194.097L87.8964 182.554L88.9446 150.672L89.2293 150.53ZM89.6179 151.274L88.5865 182.643L85.9469 194.251C85.0534 198.177 84.4358 202.158 84.0978 206.17L82.6777 222.988L90.661 228.226L100.472 189.562C100.472 189.562 100.472 189.562 100.472 189.562C101.393 185.926 102.079 182.234 102.524 178.512C102.524 178.512 102.524 178.512 102.524 178.512L105.545 153.197L89.6179 151.274Z" fill="#26282B"/>
<path d="M84.2618 115.589L111.112 123.753L108.361 157.058C108.361 157.058 88.6329 157.2 76.6211 148.739C64.6094 140.274 63.8925 136.668 63.8925 136.668L84.2618 115.589Z" fill="#66C949"/>
<path d="M104.202 72.7096L111.136 82.8441C112.698 85.1266 113.588 87.8005 113.709 90.5644L114.672 112.589L119.549 123.507C119.549 123.507 114.114 125.484 99.1863 120.881C84.2582 116.278 82.9663 114.74 82.9663 114.74L89.5644 107.352L84.3933 80.5512C83.7248 77.0841 84.5665 73.4474 86.8628 70.7631C87.7253 69.7552 88.7678 68.917 89.9974 68.5498C94.3026 67.2579 104.198 72.7096 104.198 72.7096H104.202Z" fill="white"/>
<path fill-rule="evenodd" clip-rule="evenodd" d="M93.9598 68.9933C92.4425 68.6673 91.0874 68.5843 90.097 68.8815L90.0965 68.8816C88.9535 69.2229 87.9638 70.0092 87.1261 70.9882C84.9038 73.5859 84.0833 77.1134 84.7335 80.4855L89.9371 107.455L83.4754 114.69C83.5072 114.711 83.5426 114.733 83.5818 114.757C83.9186 114.962 84.5315 115.291 85.6174 115.767C87.7892 116.72 91.8302 118.25 99.2884 120.55C106.728 122.844 111.787 123.494 114.974 123.574C116.568 123.614 117.693 123.511 118.414 123.401C118.69 123.359 118.907 123.316 119.068 123.279L114.329 112.67L113.363 90.5795C113.363 90.5795 113.363 90.5795 113.363 90.5795C113.245 87.88 112.375 85.2686 110.85 83.0396L103.965 72.9768C103.952 72.97 103.938 72.9622 103.922 72.9535C103.849 72.9145 103.742 72.8571 103.603 72.7844C103.327 72.639 102.926 72.4325 102.431 72.1885C101.442 71.7002 100.079 71.0632 98.5839 70.4669C97.0873 69.8699 95.4666 69.3171 93.9598 68.9933ZM119.549 123.506C119.667 123.832 119.667 123.832 119.667 123.832L119.666 123.832L119.664 123.833L119.659 123.835C119.655 123.836 119.65 123.838 119.643 123.84C119.629 123.845 119.61 123.851 119.586 123.859C119.537 123.874 119.466 123.894 119.371 123.918C119.182 123.966 118.901 124.028 118.519 124.086C117.754 124.203 116.588 124.307 114.957 124.266C111.695 124.184 106.572 123.521 99.0843 121.212C91.6145 118.909 87.5454 117.369 85.3392 116.402C84.2361 115.918 83.5931 115.575 83.2212 115.348C83.0349 115.234 82.914 115.148 82.8361 115.087C82.797 115.056 82.768 115.03 82.7466 115.01C82.7359 115 82.727 114.991 82.7195 114.983C82.7158 114.979 82.7124 114.976 82.7094 114.972L82.7051 114.967L82.7031 114.965L82.7021 114.964C82.7016 114.963 82.7012 114.963 82.9664 114.74L82.7012 114.963L82.5082 114.733L89.1919 107.25L84.0533 80.6167C83.3665 77.0547 84.2293 73.3087 86.5997 70.5378C87.4868 69.5011 88.5821 68.6109 89.8982 68.2179C91.0603 67.8693 92.5566 67.9833 94.1053 68.3161C95.6648 68.6511 97.3252 69.219 98.8406 69.8234C100.357 70.4285 101.738 71.0737 102.738 71.5673C103.238 71.8142 103.644 72.0234 103.926 72.1712C104.066 72.245 104.176 72.3035 104.25 72.3437C104.263 72.3507 104.275 72.3572 104.286 72.3632H104.384L111.422 82.6484C113.02 84.9843 113.931 87.7208 114.055 90.5491L115.015 112.508L120.017 123.705L119.667 123.832L119.549 123.506Z" fill="#26282B"/>
<path fill-rule="evenodd" clip-rule="evenodd" d="M113.224 7.50462L117.456 6.85693L117.561 7.54168L113.329 8.18937L113.224 7.50462Z" fill="#26282B"/>
<path fill-rule="evenodd" clip-rule="evenodd" d="M113.124 9.82862L116.352 8.25269L116.656 8.87518L113.428 10.4511L113.124 9.82862Z" fill="#26282B"/>
<path fill-rule="evenodd" clip-rule="evenodd" d="M114.377 12.0745L118 9.68115L118.382 10.2591L114.759 12.6525L114.377 12.0745Z" fill="#26282B"/>
<path fill-rule="evenodd" clip-rule="evenodd" d="M96.9374 205.007L84.4581 202.946L84.571 202.263L97.0503 204.324L96.9374 205.007Z" fill="#26282B"/>
<path fill-rule="evenodd" clip-rule="evenodd" d="M83.5425 206.421C83.5236 206.406 83.4579 206.353 83.4247 206.256L84.0804 206.033C84.0481 205.938 83.9847 205.887 83.9695 205.876C83.9463 205.857 83.9265 205.847 83.9193 205.844C83.9101 205.839 83.9033 205.836 83.9006 205.835C83.9008 205.835 83.901 205.835 83.9013 205.835C83.911 205.839 83.9345 205.845 83.9767 205.856C84.0587 205.875 84.1829 205.901 84.3468 205.932C84.6731 205.994 85.139 206.075 85.6999 206.167C86.8209 206.352 88.3115 206.584 89.8018 206.81C91.2918 207.037 92.7802 207.258 93.8962 207.423C94.4542 207.505 94.919 207.574 95.2443 207.621C95.4069 207.645 95.5347 207.664 95.6218 207.677L95.7552 207.696C95.7553 207.696 95.7553 207.696 95.7054 208.039C95.6555 208.382 95.6555 208.382 95.6554 208.382L95.5217 208.362C95.4345 208.349 95.3067 208.331 95.1439 208.307C94.8183 208.259 94.3532 208.191 93.795 208.108C92.6784 207.943 91.189 207.722 89.6977 207.495C88.2067 207.268 86.7126 207.036 85.5872 206.851C85.025 206.758 84.5523 206.676 84.2173 206.613C84.0506 206.581 83.9135 206.553 83.8152 206.529C83.7672 206.518 83.7207 206.505 83.6821 206.493C83.6642 206.487 83.6367 206.477 83.6082 206.462C83.5944 206.456 83.5695 206.442 83.5425 206.421Z" fill="#26282B"/>
<path fill-rule="evenodd" clip-rule="evenodd" d="M95.3293 210.359L83.702 208.645L83.8031 207.959L95.4303 209.674L95.3293 210.359Z" fill="#26282B"/>
<path fill-rule="evenodd" clip-rule="evenodd" d="M41.992 173.508L40.2983 161.652L40.9841 161.554L42.6778 173.41L41.992 173.508Z" fill="#26282B"/>
<path fill-rule="evenodd" clip-rule="evenodd" d="M39.2577 173.872L37.2246 162.408L37.9067 162.287L39.9398 173.751L39.2577 173.872Z" fill="#26282B"/>
<path fill-rule="evenodd" clip-rule="evenodd" d="M37.2239 173.868L35.3778 162.743L36.0612 162.63L37.9073 173.755L37.2239 173.868Z" fill="#26282B"/>
<path fill-rule="evenodd" clip-rule="evenodd" d="M321.462 246.918H0.401367V246.225H321.462V246.918Z" fill="#26282B"/>
<path d="M197.112 24.2333V24.1813H193.389V23.0383H198.529V24.2056L195.325 30.582H193.909L197.116 24.2333H197.112Z" fill="#66C949"/>
<path d="M199.482 28.5314H200.867C200.902 29.148 201.487 29.5393 202.246 29.5393C203.053 29.5393 203.631 29.0821 203.627 28.4171C203.631 27.7348 203.063 27.2568 202.11 27.2568H201.445V26.2039H202.11C202.89 26.2039 203.437 25.764 203.434 25.1059C203.434 24.4721 202.969 24.0461 202.266 24.0461C201.563 24.0461 200.981 24.4409 200.957 25.0748H199.641C199.669 23.8106 200.805 22.9377 202.27 22.9377C203.735 22.9377 204.757 23.8764 204.753 25.0263C204.757 25.8749 204.209 26.481 203.392 26.6576V26.7165C204.448 26.8689 205.037 27.5443 205.034 28.4899C205.037 29.7645 203.863 30.6893 202.249 30.6893C200.635 30.6893 199.52 29.8095 199.482 28.5349V28.5314Z" fill="#66C949"/>
<path d="M206.502 24.4547C206.506 23.5715 207.084 22.8303 208.102 22.8303C209.121 22.8303 209.696 23.5715 209.692 24.4547V24.8531C209.696 25.7363 209.127 26.4706 208.102 26.4706C207.077 26.4706 206.506 25.7293 206.502 24.8531V24.4547ZM212.02 23.0416H212.944L207.759 30.5853H206.835L212.02 23.0416ZM207.472 24.8531C207.475 25.2444 207.631 25.6289 208.102 25.6289C208.573 25.6289 208.729 25.241 208.726 24.8531V24.4547C208.729 24.0634 208.591 23.6685 208.102 23.6685C207.614 23.6685 207.475 24.0668 207.472 24.4547V24.8531ZM210.336 28.7738C210.34 27.8976 210.911 27.1494 211.933 27.1494C212.955 27.1494 213.533 27.8906 213.53 28.7738V29.1722C213.53 30.0484 212.965 30.7966 211.933 30.7966C210.901 30.7966 210.343 30.0484 210.336 29.1722V28.7738ZM211.299 29.1722C211.303 29.5601 211.462 29.948 211.933 29.948C212.404 29.948 212.563 29.5601 212.56 29.1722V28.7738C212.563 28.3825 212.421 27.9876 211.933 27.9876C211.445 27.9876 211.303 28.3825 211.299 28.7738V29.1722Z" fill="#66C949"/>
<path d="M144.982 26.7166L144.334 27.8007L142.322 28.2856" fill="white"/>
<path fill-rule="evenodd" clip-rule="evenodd" d="M144.112 27.4979L144.685 26.5388L145.279 26.8941L144.557 28.1032L142.403 28.6222L142.241 27.9487L144.112 27.4979Z" fill="#26282B"/>
<path fill-rule="evenodd" clip-rule="evenodd" d="M141.584 30.7844L143.784 30.1956L143.963 30.8647L141.764 31.4535L141.584 30.7844Z" fill="#26282B"/>
<path fill-rule="evenodd" clip-rule="evenodd" d="M140.132 32.7561L142.242 32.2539L142.402 32.9278L140.293 33.43L140.132 32.7561Z" fill="#26282B"/>
<path d="M24.3277 165.894L13.452 167.148L15.5614 192.297L20.8814 190.271L20.4312 184.888L25.7235 176.825L24.3277 165.894Z" fill="#E0F4DB"/>
<path fill-rule="evenodd" clip-rule="evenodd" d="M24.6281 165.511L26.0835 176.908L20.7864 184.979L21.2485 190.502L15.2548 192.784L13.079 166.842L24.6281 165.511ZM13.8254 167.453L15.8682 191.81L20.5147 190.04L20.0762 184.798L25.3639 176.742L24.0276 166.277L13.8254 167.453Z" fill="#26282B"/>
<path fill-rule="evenodd" clip-rule="evenodd" d="M22.0051 179.418L23.9956 180.838L23.5933 181.402L22.6605 180.737L22.5751 183.731L21.8827 183.711L22.0051 179.418Z" fill="#26282B"/>
<path d="M82.104 221.873L76.6211 231.352L98.0607 244.659L99.6124 239.184L95.0197 236.333L91.7085 227.276L82.104 221.873Z" fill="#E0F4DB"/>
<path fill-rule="evenodd" clip-rule="evenodd" d="M81.9754 221.403L91.9897 227.037L95.3038 236.102L100.017 239.027L98.2685 245.196L76.1531 231.47L81.9754 221.403ZM82.2323 222.342L77.0889 231.235L97.8527 244.123L99.2079 239.34L94.7353 236.564L91.427 227.515L82.2323 222.342Z" fill="#26282B"/>
<path fill-rule="evenodd" clip-rule="evenodd" d="M94.2907 230.465L94.5017 231.125L93.4107 231.474L95.7642 233.332L95.3349 233.876L91.9596 231.21L94.2907 230.465Z" fill="#26282B"/>
<path fill-rule="evenodd" clip-rule="evenodd" d="M97.6515 242.535L78.2139 230.34L78.582 229.753L98.0197 241.948L97.6515 242.535Z" fill="#26282B"/>
<path fill-rule="evenodd" clip-rule="evenodd" d="M18.438 190.794L16.0931 167.81L16.7823 167.74L19.1271 190.724L18.438 190.794Z" fill="#26282B"/>
<path d="M261.885 152.902L264.143 151.011L262.592 148.974L260.513 150.207L261.885 152.902Z" fill="#26282B"/>
<path fill-rule="evenodd" clip-rule="evenodd" d="M228.258 95.2933L228.573 91.6704L229.264 91.7305L228.948 95.3534L228.258 95.2933Z" fill="#26282B"/>
<path d="M244.529 86.4114C245.979 86.4114 247.154 85.236 247.154 83.786C247.154 82.3361 245.979 81.1606 244.529 81.1606C243.079 81.1606 241.903 82.3361 241.903 83.786C241.903 85.236 243.079 86.4114 244.529 86.4114Z" fill="white"/>
<path fill-rule="evenodd" clip-rule="evenodd" d="M244.529 81.5072C243.27 81.5072 242.25 82.5275 242.25 83.7862C242.25 85.0449 243.27 86.0653 244.529 86.0653C245.787 86.0653 246.808 85.0449 246.808 83.7862C246.808 82.5275 245.787 81.5072 244.529 81.5072ZM241.557 83.7862C241.557 82.145 242.888 80.8145 244.529 80.8145C246.17 80.8145 247.501 82.145 247.501 83.7862C247.501 85.4275 246.17 86.758 244.529 86.758C242.888 86.758 241.557 85.4275 241.557 83.7862Z" fill="#26282B"/>
<path fill-rule="evenodd" clip-rule="evenodd" d="M243.977 82.2372C244.795 81.919 245.72 82.3205 246.04 83.1409C246.358 83.9586 245.956 84.8841 245.136 85.2033L244.885 84.5578C245.346 84.3783 245.575 83.856 245.394 83.3922C245.215 82.931 244.692 82.7022 244.228 82.8827L243.977 82.2372Z" fill="#26282B"/>
<path d="M244.21 81.2058L246.32 71.0436L239.521 69.5127L234.959 91.8875L228.919 92.1611L228.759 95.0082L228.184 96.4178L225.912 113.393L229.282 113.888L238.914 104.315L242.059 94.0591L242.714 85.1958L243.833 85.2616" fill="white"/>
<path d="M239.004 89.7296C237.484 92.0225 234.73 93.3629 231.828 92.9369C227.82 92.3515 225.05 88.6282 225.635 84.6208L227.062 74.8708C227.647 70.8634 231.371 68.0925 235.378 68.6779C239.385 69.2632 242.156 72.9866 241.571 76.994" fill="white"/>
<path d="M229.934 78.0029C230.029 77.6009 229.853 77.2148 229.541 77.1406C229.228 77.0663 228.897 77.332 228.802 77.734C228.706 78.136 228.882 78.5221 229.195 78.5964C229.508 78.6706 229.838 78.4049 229.934 78.0029Z" fill="#26282B"/>
<path d="M237.159 79.8791C237.255 79.4771 237.079 79.0911 236.766 79.0168C236.453 78.9426 236.122 79.2082 236.027 79.6102C235.932 80.0122 236.108 80.3983 236.42 80.4726C236.733 80.5468 237.064 80.2811 237.159 79.8791Z" fill="#26282B"/>
<path d="M243.777 71.0261C243.777 71.0261 243.757 69.3913 240.826 68.7887C237.893 68.1825 236.289 67.8916 236.289 67.8916L233.206 71.5007L243.687 75.0301L244.532 71.4764L243.781 71.0261H243.777Z" fill="#66C949"/>
<path fill-rule="evenodd" clip-rule="evenodd" d="M235.235 69.0069C231.416 68.4492 227.869 71.0893 227.311 74.9071L225.884 84.6571C225.884 84.6572 225.884 84.6571 225.884 84.6571C225.327 88.4754 227.967 92.0228 231.785 92.5804C234.549 92.9862 237.173 91.71 238.622 89.5244L239.2 89.9073C237.608 92.3075 234.725 93.7121 231.684 93.2658C227.487 92.6527 224.586 88.7534 225.199 84.557L226.626 74.807C226.626 74.807 226.626 74.807 226.626 74.807C227.239 70.6102 231.138 67.7085 235.335 68.3215L235.235 69.0069Z" fill="#26282B"/>
<path fill-rule="evenodd" clip-rule="evenodd" d="M230.46 82.7924L232.992 77.2688L233.622 77.5574L231.206 82.8276L232.345 82.694L232.426 83.382L231.01 83.5482C231.01 83.5482 231.01 83.5482 231.01 83.5482" fill="#26282B"/>
<path d="M235.087 76.0416C235.053 76.2667 235.219 76.4745 235.444 76.4953C235.988 76.5438 236.951 76.6546 237.636 76.8451C238.502 77.0841 239.244 77.4859 239.728 77.7907C239.86 77.8738 240.006 77.7076 239.905 77.5863C239.541 77.1465 238.918 76.5784 237.969 76.2286C236.829 75.813 235.957 75.7195 235.496 75.7021C235.292 75.6952 235.115 75.8407 235.087 76.0416Z" fill="#26282B"/>
<path d="M231.707 75.5462V75.5635C231.638 75.8129 231.371 75.9514 231.132 75.8614C230.605 75.6709 229.715 75.3869 229.026 75.3522C228.697 75.3349 228.458 75.3245 228.288 75.3211C228.108 75.3141 228.06 75.0786 228.215 74.992C228.5 74.8431 229.009 74.7045 229.913 74.7565C230.761 74.805 231.222 74.9227 231.471 75.037C231.662 75.1236 231.759 75.3418 231.703 75.5427L231.707 75.5462Z" fill="#26282B"/>
<path fill-rule="evenodd" clip-rule="evenodd" d="M235.156 84.4967C235.156 84.4968 235.156 84.4968 235.434 84.704C235.711 84.9112 235.711 84.9112 235.711 84.9113L235.711 84.9114L235.711 84.9118L235.71 84.9127L235.708 84.9152L235.702 84.9233C235.697 84.9299 235.69 84.939 235.681 84.9504C235.663 84.9731 235.637 85.0048 235.604 85.0432C235.538 85.12 235.442 85.2247 235.322 85.3392C235.085 85.5649 234.736 85.8443 234.315 86.0127C233.881 86.1864 233.49 86.183 233.206 86.1347C233.065 86.1107 232.95 86.0754 232.868 86.0452C232.827 86.03 232.794 86.016 232.77 86.005C232.758 85.9995 232.748 85.9947 232.741 85.991L232.731 85.9861L232.727 85.9843L232.726 85.9835L232.725 85.9832L232.725 85.983C232.725 85.983 232.725 85.9829 232.888 85.6773C233.051 85.3717 233.051 85.3716 233.051 85.3715L233.05 85.3714L233.05 85.3711L233.049 85.3707L233.048 85.3702C233.049 85.3708 233.052 85.3723 233.057 85.3746C233.067 85.3791 233.085 85.3866 233.109 85.3955C233.157 85.4133 233.23 85.4361 233.323 85.4519C233.507 85.4832 233.765 85.4867 234.058 85.3695C234.364 85.247 234.639 85.0328 234.844 84.8377C234.945 84.7418 235.024 84.6543 235.078 84.5914C235.105 84.5601 235.126 84.5351 235.139 84.5186C235.146 84.5103 235.15 84.5042 235.153 84.5005L235.156 84.4968C235.156 84.4965 235.156 84.4964 235.156 84.4963L235.156 84.4965L235.156 84.4966L235.156 84.4967ZM233.048 85.3702C233.048 85.3701 233.048 85.37 233.048 85.37C233.048 85.37 233.048 85.3701 233.048 85.3702L233.048 85.3702Z" fill="#26282B"/>
<path fill-rule="evenodd" clip-rule="evenodd" d="M227.36 69.7932L243.745 71.5819L243.216 80.5024L242.87 80.4819L243.38 71.8904L227.72 70.1809L227.807 72.7417L227.461 72.7534L227.36 69.7932Z" fill="#26282B"/>
<path d="M242.648 70.6765C242.648 70.6765 242.485 69.0659 239.538 68.723C236.587 68.3801 234.98 68.2312 234.98 68.2312L232.25 72.0654L242.908 74.6388L243.431 71.054L242.648 70.6765Z" fill="#66C949"/>
<path d="M247.743 74.8154C247.743 74.8154 247.889 77.4373 247.102 79.1968C246.316 80.9564 246.046 81.3893 246.046 81.3893C246.046 81.3893 244.99 81.3858 244.453 81.9019C243.912 82.418 242.825 82.2102 242.607 80.0835C242.388 77.9569 242.731 71.3899 242.731 71.3899L233.986 68.4355L237.983 63.9917L242.447 65.6161L247.826 72.1381L247.743 74.8154Z" fill="#26282B"/>
<path d="M238.914 89.792C238.914 89.792 237.692 93.4808 234.54 94.3259C231.388 95.171 228.6 93.1205 228.6 93.1205L228.735 91.9914C229.753 92.4348 232.635 93.1309 234.46 92.788C236.286 92.4451 237.927 91.0216 238.391 90.4778C238.613 90.2181 238.914 89.7886 238.914 89.7886V89.792Z" fill="#26282B"/>
<path d="M244.041 67.483C244.041 67.483 247.016 65.8447 248.806 69.2841C250.597 72.7234 250.258 76.2459 250.812 76.9871C251.366 77.7283 249.09 77.001 249.084 76.7343C249.077 76.4676 249.257 78.5734 247.899 77.8876C246.541 77.2018 246.915 76.1073 246.915 76.1073C246.915 76.1073 246.787 77.9465 245.651 77.5586C244.519 77.1707 244.276 75.5012 244.276 75.5012C244.276 75.5012 244.127 77.5517 243.064 76.9559C242.316 76.5334 242.894 73.4889 242.887 71.4177C242.88 69.343 242.496 68.3177 241.744 68.5152C240.989 68.7126 242.097 64.4212 239.129 64.6914C236.157 64.9615 235.153 71.2168 233.269 72.3805C232.431 72.9001 230.72 73.6482 228.738 73.1841C227.582 72.9139 227.589 72.8239 227.589 72.8239L226.553 78.1162L224.953 72.81C224.953 72.81 224.173 73.004 223.069 71.5181C222.504 70.7596 222.223 69.9664 222.081 69.3672C222.005 69.0416 222.386 68.8061 222.646 69.0174C223.131 69.4122 223.768 69.866 224.201 69.9387C224.998 70.0738 225.472 69.5785 225.472 69.5785C225.472 69.5785 224.513 68.5983 224.589 67.774C224.665 66.9462 225.905 68.7161 227.727 66.8215C229.549 64.9269 233.612 61.4183 237.553 61.9967C241.495 62.5716 244.041 67.4899 244.041 67.4899V67.483Z" fill="#26282B"/>
<path fill-rule="evenodd" clip-rule="evenodd" d="M236.359 66.926C236.874 66.3292 237.517 65.8954 238.332 65.9422L238.332 65.9422C239.504 66.0111 240.423 66.7833 241.026 67.476C241.331 67.8267 241.567 68.172 241.728 68.4301C242.049 68.1008 242.395 67.8555 242.683 67.6828C242.88 67.5646 243.053 67.4786 243.179 67.4216C243.242 67.3931 243.293 67.3717 243.329 67.3572C243.347 67.3499 243.361 67.3443 243.372 67.3404L243.384 67.3357L243.388 67.3343L243.389 67.3338L243.39 67.3336C243.39 67.3336 243.39 67.3335 243.507 67.6595C243.624 67.9856 243.624 67.9856 243.624 67.9855L243.617 67.9881C243.611 67.9905 243.601 67.9944 243.587 67.9999C243.56 68.011 243.518 68.0283 243.465 68.0523C243.36 68.1003 243.21 68.1744 243.039 68.277C242.694 68.4836 242.275 68.7979 241.949 69.2348L241.612 69.6867L241.361 69.1818L241.359 69.1771C241.357 69.1732 241.354 69.1669 241.349 69.1584C241.34 69.1413 241.327 69.1154 241.308 69.0819C241.271 69.0148 241.216 68.9175 241.142 68.7997C240.995 68.5633 240.779 68.248 240.503 67.9305C239.941 67.2838 239.181 66.6862 238.292 66.6337C237.78 66.6044 237.327 66.8637 236.883 67.3785C236.436 67.8969 236.042 68.6252 235.653 69.4236C235.544 69.6458 235.436 69.8741 235.327 70.1033C235.054 70.6799 234.778 71.262 234.492 71.7654C234.097 72.4594 233.633 73.0971 233.036 73.3793L232.74 72.7531C233.124 72.5712 233.498 72.1105 233.89 71.4227C234.163 70.9432 234.421 70.3987 234.689 69.8323C234.8 69.5976 234.913 69.3592 235.03 69.1201C235.42 68.3209 235.847 67.5192 236.359 66.926Z" fill="white"/>
<path fill-rule="evenodd" clip-rule="evenodd" d="M241.757 93.6544L242.643 85.5496L243.332 85.6249L242.445 93.7297L241.757 93.6544Z" fill="#26282B"/>
<path d="M240.224 171.702L239.022 197.007C238.745 202.854 242.555 208.108 248.2 209.663L284.021 219.521C284.021 219.521 288.378 216.615 288.489 215.835C288.6 215.056 288.489 209.133 288.489 209.133L255.865 197.177L261.005 173.826L240.224 171.702Z" fill="white"/>
<path fill-rule="evenodd" clip-rule="evenodd" d="M239.895 171.321L261.427 173.52L256.268 196.956L288.831 208.89L288.835 209.127L288.835 209.128L288.835 209.131L288.839 209.383C288.842 209.547 288.846 209.782 288.851 210.066C288.859 210.633 288.87 211.399 288.877 212.189C288.883 212.979 288.887 213.794 288.882 214.462C288.877 215.116 288.863 215.661 288.832 215.884C288.815 215.997 288.767 216.1 288.718 216.182C288.667 216.268 288.602 216.355 288.53 216.441C288.385 216.612 288.193 216.802 287.976 216.997C287.54 217.39 286.975 217.834 286.42 218.248C285.864 218.663 285.313 219.053 284.901 219.339C284.694 219.482 284.523 219.599 284.403 219.681C284.342 219.722 284.295 219.753 284.263 219.775L284.226 219.8L284.216 219.806L284.214 219.808L284.213 219.809C284.213 219.809 284.213 219.809 284.021 219.521L284.213 219.809L284.081 219.896L248.108 209.997C242.307 208.399 238.391 202.999 238.676 196.991L239.895 171.321ZM283.959 219.144C283.976 219.133 283.994 219.121 284.014 219.108C284.132 219.027 284.302 218.911 284.506 218.77C284.914 218.487 285.459 218.101 286.006 217.693C286.554 217.283 287.1 216.854 287.512 216.483C287.719 216.296 287.885 216.131 288 215.994C288.057 215.926 288.097 215.871 288.122 215.829C288.14 215.799 288.145 215.784 288.147 215.781C288.17 215.609 288.184 215.124 288.189 214.457C288.194 213.795 288.191 212.983 288.184 212.195C288.177 211.407 288.167 210.643 288.158 210.076C288.154 209.793 288.15 209.559 288.147 209.395L288.147 209.377L255.462 197.398L260.583 174.131L240.552 172.084L239.368 197.024C239.368 197.024 239.368 197.024 239.368 197.024C239.098 202.708 242.803 207.817 248.292 209.329C248.292 209.329 248.292 209.329 248.292 209.329L283.959 219.144Z" fill="#26282B"/>
<path d="M257.58 121.761L261.757 127.368C262.934 128.948 264.434 130.264 266.156 131.223L268.826 132.709H273.519L277.281 127.69L268.59 122.194L261.92 111.193L254.379 116.922L257.583 121.761H257.58Z" fill="white"/>
<path fill-rule="evenodd" clip-rule="evenodd" d="M262.016 110.685L268.845 121.945L277.783 127.598L273.693 133.056H268.736L265.987 131.526C264.223 130.543 262.686 129.194 261.479 127.576L256.89 121.415H256.939L253.911 116.843L262.016 110.685ZM257.895 121.604L262.035 127.161C263.183 128.702 264.646 129.985 266.324 130.921M266.324 130.921L268.916 132.363H273.346L276.779 127.783L268.337 122.443L261.823 111.702L254.847 117.002L257.895 121.604" fill="#26282B"/>
<path d="M287.183 208.136L298.041 211.492L290.044 240.087L284.997 237.005L287.536 228.266L283.667 219.025L287.183 208.136Z" fill="#E0F4DB"/>
<path fill-rule="evenodd" clip-rule="evenodd" d="M286.958 207.704L298.466 211.261L290.254 240.622L284.591 237.162L287.169 228.287L283.298 219.041L286.958 207.704ZM287.407 208.568L284.036 219.01L287.903 228.245L285.404 236.847L289.834 239.553L297.617 211.723L287.407 208.568Z" fill="#26282B"/>
<path fill-rule="evenodd" clip-rule="evenodd" d="M286.317 221.62L285.655 225.84L284.971 225.733L285.431 222.797L284.406 223.274L284.114 222.646L286.317 221.62Z" fill="#26282B"/>
<path d="M216.089 157.962L197.878 168.391C193.538 170.875 191.096 175.706 191.668 180.673L197.428 230.885L208.92 230.067L208.161 182.543L231.624 171.37L216.093 157.962H216.089Z" fill="white"/>
<path fill-rule="evenodd" clip-rule="evenodd" d="M215.997 157.616H216.222L232.252 171.454L208.511 182.76L209.271 230.39L197.121 231.254L191.324 180.713C191.324 180.713 191.324 180.713 191.324 180.713C190.736 175.608 193.246 170.643 197.706 168.091C197.706 168.091 197.706 168.091 197.706 168.091L215.997 157.616ZM216.051 158.384L198.05 168.692C193.83 171.106 191.456 175.804 192.012 180.633L197.734 230.516L208.568 229.745L207.811 182.326L230.996 171.285L216.051 158.384Z" fill="#26282B"/>
<path d="M228.156 139.636L228.6 146.941L222.009 153.155L202.522 160.089L217.717 181.986L238.675 170.376L238.897 163.985L237.837 186.762L265.165 189.883C265.165 189.883 264.576 153.82 260.891 147.339L257.206 140.859L256.534 138.289L228.156 139.629V139.636Z" fill="white"/>
<path fill-rule="evenodd" clip-rule="evenodd" d="M256.798 137.93L257.529 140.727L261.192 147.168C261.679 148.024 262.1 149.338 262.47 150.951C262.842 152.571 263.169 154.523 263.457 156.675C264.032 160.979 264.451 166.104 264.756 171.02C265.06 175.937 265.249 180.651 265.361 184.135C265.418 185.878 265.455 187.313 265.479 188.312C265.49 188.812 265.498 189.203 265.504 189.469C265.506 189.602 265.508 189.704 265.509 189.773L265.511 189.877C265.511 189.877 265.511 189.877 265.165 189.883L265.511 189.877L265.518 190.272L237.476 187.069L238.223 171.022L217.611 182.44L201.98 159.914L221.824 152.853L228.244 146.8L227.81 139.647V139.299L256.798 137.93ZM238.551 163.974L238.261 170.21L217.823 181.531L203.065 160.263L222.193 153.457L228.955 147.082L228.523 139.959L256.27 138.648L256.882 140.991L260.59 147.511C261.024 148.275 261.428 149.506 261.795 151.106C262.16 152.698 262.484 154.626 262.77 156.767C263.342 161.047 263.76 166.153 264.064 171.063C264.368 175.971 264.556 180.678 264.669 184.158C264.725 185.898 264.763 187.331 264.786 188.329C264.798 188.828 264.806 189.218 264.811 189.483C264.811 189.487 264.811 189.49 264.811 189.494L238.198 186.455L238.935 170.628L239.015 170.584L239.243 164.002L239.243 163.998L238.551 163.969L238.551 163.974Z" fill="#26282B"/>
<path d="M228.156 94.2773L225.812 98.2985C225.812 98.2985 216.204 103.66 214.863 108.017C213.523 112.375 215.982 125.446 215.982 125.446L224.807 121.619L225.659 149.961L264.143 150.751L263.163 147.509L256.613 116.96L263.544 110.587C263.544 110.587 254.75 96.397 249.832 94.8349C244.917 93.2693 241.675 92.7637 241.675 92.7637L241.117 95.5068L237.879 103.885L228.16 94.2773H228.156Z" fill="#66C949"/>
<path fill-rule="evenodd" clip-rule="evenodd" d="M232.928 105.637L227.303 98.9688L226.773 99.4154L233.215 107.051L234.743 102.128L234.081 101.923L232.928 105.637Z" fill="#26282B"/>
<path fill-rule="evenodd" clip-rule="evenodd" d="M245.433 93.5902L241.69 106.597L239.263 102.959L239.84 102.574L241.438 104.97L244.767 93.3987L245.433 93.5902Z" fill="#26282B"/>
<path fill-rule="evenodd" clip-rule="evenodd" d="M264.744 126.899C264.744 126.899 264.744 126.899 264.431 126.752C264.117 126.605 264.117 126.605 264.117 126.605L264.118 126.604L264.119 126.602L264.122 126.595C264.124 126.59 264.128 126.582 264.133 126.572C264.142 126.553 264.156 126.525 264.174 126.49C264.211 126.42 264.264 126.321 264.333 126.202C264.47 125.965 264.673 125.646 264.932 125.318C265.439 124.677 266.22 123.931 267.215 123.801L267.306 124.487C266.59 124.582 265.956 125.14 265.476 125.747C265.242 126.043 265.058 126.333 264.932 126.55C264.869 126.658 264.821 126.747 264.79 126.808C264.774 126.839 264.762 126.863 264.754 126.878C264.751 126.886 264.748 126.892 264.746 126.895L264.744 126.899L264.744 126.899Z" fill="#26282B"/>
<path fill-rule="evenodd" clip-rule="evenodd" d="M272.639 130.219C272.639 130.219 272.639 130.219 272.328 130.067C272.017 129.914 272.017 129.914 272.017 129.914L272.017 129.913L272.018 129.912L272.02 129.907L272.028 129.891C272.036 129.877 272.046 129.857 272.059 129.831C272.086 129.781 272.125 129.71 272.175 129.623C272.276 129.451 272.423 129.216 272.609 128.966C272.974 128.476 273.527 127.879 274.218 127.619L274.462 128.268C273.962 128.455 273.508 128.919 273.165 129.38C272.997 129.604 272.865 129.816 272.774 129.972C272.729 130.05 272.694 130.113 272.671 130.156C272.66 130.178 272.651 130.194 272.646 130.205L272.64 130.216L272.639 130.219Z" fill="#26282B"/>
<path fill-rule="evenodd" clip-rule="evenodd" d="M259.089 131.079L254.662 107.433L255.343 107.306L259.77 130.952L259.089 131.079Z" fill="#26282B"/>
<path fill-rule="evenodd" clip-rule="evenodd" d="M230.212 118.267L225.055 110.763L225.626 110.37L231.241 118.542L216.128 125.762L215.829 125.137L230.212 118.267Z" fill="#26282B"/>
<path d="M256.641 151.34C256.641 151.34 256.821 154.651 260.936 157.394L256.641 151.34Z" fill="white"/>
<path fill-rule="evenodd" clip-rule="evenodd" d="M256.295 151.359C256.295 151.359 256.295 151.359 256.641 151.34C256.987 151.321 256.987 151.321 256.987 151.321L256.987 151.321L256.987 151.32L256.987 151.32C256.987 151.32 256.987 151.32 256.987 151.32L256.987 151.324C256.987 151.328 256.988 151.336 256.989 151.346C256.991 151.366 256.994 151.398 257 151.441C257.012 151.527 257.033 151.657 257.071 151.823C257.147 152.154 257.29 152.629 257.558 153.189C258.092 154.306 259.125 155.771 261.128 157.106L260.744 157.683C258.632 156.275 257.518 154.712 256.933 153.488C256.641 152.877 256.482 152.353 256.396 151.978C256.353 151.79 256.328 151.64 256.314 151.534C256.306 151.481 256.302 151.439 256.299 151.41C256.298 151.395 256.297 151.383 256.296 151.375L256.295 151.364L256.295 151.361L256.295 151.36L256.295 151.359Z" fill="#26282B"/>
<path fill-rule="evenodd" clip-rule="evenodd" d="M287.189 237.218L294.369 211.917L295.036 212.106L287.856 237.408L287.189 237.218Z" fill="#26282B"/>
<path d="M208.698 228.896L210.808 240.067L182.41 246.561L182.777 240.659L191.065 238.619L197.428 230.885L208.698 228.896Z" fill="#E0F4DB"/>
<path fill-rule="evenodd" clip-rule="evenodd" d="M208.975 228.496L211.21 240.33L182.035 247.002L182.447 240.383L190.871 238.31L197.241 230.566L208.975 228.496ZM197.614 231.204L191.259 238.928L183.107 240.934L182.784 246.12L210.405 239.803L208.421 229.297L197.614 231.204Z" fill="#26282B"/>
<path fill-rule="evenodd" clip-rule="evenodd" d="M194.989 234.394L194.087 233.71L194.506 233.158L196.444 234.628L192.403 236.013L192.179 235.358L194.989 234.394Z" fill="#26282B"/>
<path fill-rule="evenodd" clip-rule="evenodd" d="M184.005 243.372L208.884 237.982L209.031 238.659L184.152 244.049L184.005 243.372Z" fill="#26282B"/>
<path fill-rule="evenodd" clip-rule="evenodd" d="M208.222 224.455L196.757 225.2L196.712 224.509L208.177 223.764L208.222 224.455Z" fill="#26282B"/>
<path fill-rule="evenodd" clip-rule="evenodd" d="M277.9 217.811L281.641 207.358L282.293 207.591L278.552 218.044L277.9 217.811Z" fill="#26282B"/>
<path fill-rule="evenodd" clip-rule="evenodd" d="M68.9997 36.5208L66.8557 36.164L66.9694 35.4807L69.1134 35.8375L68.9997 36.5208Z" fill="#26282B"/>
<path fill-rule="evenodd" clip-rule="evenodd" d="M145.319 21.5836C145.146 21.5836 144.987 21.6781 144.904 21.8299L142.97 25.3761L136.518 25.9372C135.588 26.018 135.032 24.9287 135.641 24.2229L137.387 22.201C137.511 22.0579 137.503 21.8438 137.369 21.7101C137.25 21.5905 137.063 21.57 136.92 21.6608L133.666 23.7317L130.74 29.2402L97.4201 61.8729L106.835 67.7165L134.258 35.1191L140.994 33.9101L144.547 28.8117C144.714 28.5732 144.772 28.276 144.709 27.9922L144.476 26.9437L145.775 22.1807C145.857 21.88 145.631 21.5836 145.319 21.5836ZM144.296 21.4982C144.5 21.1238 144.893 20.8909 145.319 20.8909C146.088 20.8909 146.646 21.6216 146.444 22.363L145.19 26.9606L145.386 27.8419C145.491 28.3149 145.393 28.8103 145.116 29.2078L141.398 34.5413L134.627 35.7567L106.979 68.6212L96.3046 61.9958L130.178 28.8204L133.14 23.2454L136.549 21.0764C136.965 20.8113 137.51 20.8711 137.859 21.2202C138.249 21.6106 138.272 22.236 137.912 22.6538L136.165 24.6757C135.962 24.9109 136.148 25.274 136.458 25.2471L142.54 24.7182L144.296 21.4982Z" fill="#26282B"/>
<path d="M85.6956 77.5412C85.6956 81.7598 92.4911 86.4114 101.261 76.8658C107.7 69.859 108.777 68.7194 108.777 68.7194L96.2872 60.6042C96.2872 60.6042 85.7025 70.0806 85.6956 77.5377V77.5412Z" fill="white"/>
<path fill-rule="evenodd" clip-rule="evenodd" d="M96.2537 60.1694L109.314 68.6554L109.029 68.9574L109.028 68.9581L109.016 68.9713L108.971 69.019C108.929 69.0635 108.862 69.1352 108.761 69.2431C108.56 69.4591 108.225 69.8202 107.688 70.4003C106.614 71.5607 104.735 73.5969 101.516 77.1002C97.0883 81.9195 93.0862 83.232 90.129 82.7062C87.183 82.1823 85.3492 79.8327 85.3492 77.5412V77.5378C85.351 75.5965 86.0395 73.5492 87.0453 71.5879C88.0528 69.623 89.3917 67.7193 90.7238 66.0579C92.0568 64.3955 93.3886 62.9689 94.3868 61.9581C94.8862 61.4525 95.3025 61.0504 95.5945 60.7744C95.7405 60.6363 95.8554 60.5298 95.934 60.4575C95.9734 60.4213 96.0037 60.3938 96.0242 60.3751L96.0478 60.3538L96.0539 60.3483L96.0555 60.3468L96.056 60.3464C96.0561 60.3463 96.0562 60.3462 96.2873 60.6043L96.056 60.3464L96.2537 60.1694ZM96.3234 61.0408C96.2552 61.1039 96.1703 61.1832 96.0704 61.2777C95.7835 61.549 95.3728 61.9455 94.8797 62.4449C93.8931 63.4439 92.5783 64.8525 91.2642 66.4913C89.9493 68.1312 88.6407 69.9948 87.6617 71.904C86.6808 73.8167 86.0437 75.7507 86.042 77.5379V77.5412C86.042 79.4684 87.606 81.5539 90.2502 82.0241C92.8833 82.4923 96.6638 81.3578 101.006 76.6315C104.225 73.1279 106.105 71.091 107.179 69.9298C107.705 69.3615 108.038 69.0029 108.242 68.7847L96.3234 61.0408Z" fill="#26282B"/>
<path d="M127.667 28.7671L124.148 32.3865L132.651 38.4651L134.851 35.4622L127.667 28.7671Z" fill="#66C949"/>
<path fill-rule="evenodd" clip-rule="evenodd" d="M267.472 25.5208C266.258 26.7844 264.919 27.7913 263.352 27.9872C261.904 28.1682 260.785 28.0476 259.877 27.7422C258.969 27.4364 258.308 26.9567 257.768 26.4736C257.538 26.268 257.325 26.0577 257.13 25.8648C257.099 25.8344 257.069 25.8044 257.039 25.7749C256.815 25.5536 256.614 25.3609 256.411 25.198C256.018 24.8822 255.642 24.7008 255.148 24.7008C252.671 24.7008 251.61 26.1529 250.499 27.6737C250.296 27.952 250.091 28.2327 249.875 28.5071C249.202 29.364 248.388 30.1756 247.136 30.3229C245.911 30.467 244.41 29.9569 242.389 28.5952C241.436 27.9532 240.519 27.3202 239.636 26.7114C236.789 24.7478 234.307 23.0354 232.183 22.0789C230.799 21.4553 229.651 21.1952 228.71 21.347C227.807 21.4926 227.009 22.0329 226.333 23.2252C225.183 25.2542 223.394 27.0216 221.623 28.3712C219.855 29.7189 218.062 30.6834 216.867 31.0818L216.538 30.096C217.594 29.744 219.287 28.8458 220.993 27.5449C222.698 26.2458 224.372 24.5784 225.429 22.7129C226.225 21.3074 227.267 20.5273 228.545 20.3211C229.785 20.1211 231.159 20.478 232.61 21.1315C234.828 22.1304 237.423 23.9212 240.292 25.9006C241.16 26.4998 242.054 27.1164 242.97 27.7336C244.932 29.0561 246.169 29.3903 247.015 29.2909C247.833 29.1946 248.422 28.675 249.058 27.865C249.236 27.6394 249.415 27.3911 249.602 27.1314C250.708 25.5958 252.102 23.6617 255.148 23.6617C255.953 23.6617 256.552 23.9782 257.062 24.3876C257.311 24.5873 257.545 24.8141 257.769 25.0352C257.8 25.0663 257.832 25.0974 257.863 25.1284C258.059 25.3221 258.251 25.5122 258.46 25.6989C258.937 26.125 259.478 26.5112 260.209 26.7574C260.942 27.004 261.9 27.1216 263.223 26.9562C264.427 26.8057 265.556 26.0159 266.723 24.8009C267.603 23.8845 268.456 22.7823 269.35 21.6257C269.641 21.2489 269.937 20.8663 270.24 20.4825C271.454 18.9426 272.768 17.3999 274.28 16.2889C275.803 15.169 277.55 14.471 279.614 14.6585C283.624 15.0232 286.007 17.1753 287.649 19.5957C288.463 20.7969 289.101 22.0709 289.664 23.2183C289.697 23.2842 289.729 23.3496 289.761 23.4144C290.292 24.4967 290.751 25.4321 291.247 26.1323C292.68 28.1546 293.963 29.1349 294.856 29.6109C295.303 29.8494 295.656 29.9637 295.887 30.0185C296.003 30.046 296.088 30.0587 296.14 30.0645C296.166 30.0674 296.183 30.0687 296.192 30.0691C296.197 30.0694 296.199 30.0694 296.199 30.0694L296.197 30.0694L296.195 30.0694L296.193 30.0694L296.193 30.0694C296.192 30.0694 296.192 30.0694 296.192 30.5889C296.192 31.1084 296.191 31.1084 296.191 31.1084L296.19 31.1084L296.188 31.1084L296.183 31.1084L296.171 31.1081C296.163 31.1079 296.154 31.1076 296.144 31.1071L296.135 31.1066C296.107 31.1051 296.07 31.1023 296.024 31.0971C295.931 31.0867 295.804 31.0669 295.647 31.0294C295.331 30.9544 294.894 30.8089 294.367 30.5278C293.311 29.9648 291.911 28.8669 290.399 26.7329C289.853 25.9615 289.358 24.9534 288.843 23.903C288.806 23.8277 288.769 23.7522 288.732 23.6765C288.167 22.5273 287.558 21.3132 286.789 20.179C285.263 17.9288 283.129 16.0214 279.519 15.6934C277.773 15.5346 276.273 16.1137 274.895 17.1261C273.506 18.1473 272.266 19.5921 271.056 21.126C270.77 21.4888 270.484 21.8578 270.199 22.2266C269.296 23.3946 268.395 24.5603 267.472 25.5208Z" fill="#66C949"/>
<path d="M278.008 127.742H276.622L273.332 131.899L274.198 132.591L278.008 127.742Z" fill="white"/>
<path fill-rule="evenodd" clip-rule="evenodd" d="M126.996 10.6731C129.77 10.6731 132.018 8.42455 132.018 5.65086C132.018 2.87718 129.77 0.628662 126.996 0.628662C124.222 0.628662 121.974 2.87718 121.974 5.65086C121.974 8.42455 124.222 10.6731 126.996 10.6731ZM127.045 1.89649C127.476 1.89649 127.825 1.70002 127.825 1.45765C127.825 1.21529 127.476 1.01882 127.045 1.01882C126.614 1.01882 126.265 1.21529 126.265 1.45765C126.265 1.70002 126.614 1.89649 127.045 1.89649ZM127.825 9.75968C127.825 9.51732 127.476 9.32085 127.045 9.32085C126.614 9.32085 126.265 9.51732 126.265 9.75968C126.265 10.002 126.614 10.1985 127.045 10.1985C127.476 10.1985 127.825 10.002 127.825 9.75968ZM125.439 3.40056C125.554 2.98534 125.355 2.56767 124.994 2.46765C124.633 2.36764 124.247 2.62317 124.132 3.03838C124.017 3.4536 124.217 3.87127 124.578 3.97129C124.938 4.0713 125.324 3.81577 125.439 3.40056ZM124.994 8.74968C125.355 8.64967 125.554 8.23199 125.439 7.81678C125.324 7.40156 124.938 7.14604 124.578 7.24605C124.217 7.34606 124.017 7.76373 124.132 8.17895C124.247 8.59417 124.633 8.84969 124.994 8.74968ZM128.618 3.40056C128.503 2.98534 128.702 2.56767 129.063 2.46765C129.424 2.36764 129.81 2.62317 129.925 3.03838C130.04 3.4536 129.841 3.87127 129.48 3.97129C129.119 4.0713 128.733 3.81577 128.618 3.40056ZM129.063 8.74968C128.702 8.64967 128.503 8.23199 128.618 7.81678C128.733 7.40156 129.119 7.14604 129.48 7.24605C129.841 7.34606 130.04 7.76373 129.925 8.17895C129.81 8.59417 129.424 8.84969 129.063 8.74968ZM127.045 6.47986C127.476 6.47986 127.825 6.13058 127.825 5.69971C127.825 5.26885 127.476 4.91956 127.045 4.91956C126.614 4.91956 126.265 5.26885 126.265 5.69971C126.265 6.13058 126.614 6.47986 127.045 6.47986ZM123.924 5.69971C123.924 6.13058 123.64 6.47986 123.29 6.47986C122.94 6.47986 122.656 6.13058 122.656 5.69971C122.656 5.26885 122.94 4.91956 123.29 4.91956C123.64 4.91956 123.924 5.26885 123.924 5.69971ZM130.799 6.47986C131.149 6.47986 131.433 6.13058 131.433 5.69971C131.433 5.26885 131.149 4.91956 130.799 4.91956C130.449 4.91956 130.165 5.26885 130.165 5.69971C130.165 6.13058 130.449 6.47986 130.799 6.47986Z" fill="#66C949"/>
<path d="M286.293 111.334L293.765 105.033C297.494 101.889 303.064 102.363 306.208 106.091L308.164 108.412C311.308 112.14 310.834 117.711 307.106 120.854L299.633 127.155C297.824 128.68 295.417 129.293 293.1 128.817L286.441 127.451L283.772 124.287L283.551 117.492C283.474 115.128 284.484 112.859 286.293 111.334Z" fill="#66C949"/>
<path fill-rule="evenodd" clip-rule="evenodd" d="M305.997 106.269C302.951 102.658 297.555 102.199 293.943 105.244L286.47 111.545C284.727 113.015 283.752 115.204 283.827 117.483L284.045 124.182L286.59 127.2L293.155 128.547C295.39 129.005 297.711 128.415 299.455 126.944L306.928 120.643C310.54 117.598 310.999 112.201 307.953 108.59L305.997 106.269ZM293.588 104.822C297.432 101.58 303.177 102.069 306.419 105.914L308.375 108.234C311.617 112.079 311.128 117.823 307.284 121.065L299.811 127.366C297.938 128.946 295.444 129.58 293.044 129.087L286.291 127.702L283.5 124.391L283.275 117.501C283.195 115.053 284.242 112.702 286.115 111.123L293.588 104.822Z" fill="#26282B"/>
<path d="M282.872 123.362L287.259 128.565L285.994 129.632L285.108 128.565L276.037 136.214L276.923 137.281L274.602 139.237L270.215 134.034L272.535 132.077L273.44 132.966L282.511 125.318L281.606 124.429L282.872 123.362Z" fill="#26282B"/>
<path d="M49.8137 47.4327L40.6115 50.7294C36.0206 52.374 30.9657 49.9856 29.321 45.3948L28.2974 42.5373C26.6527 37.9465 29.0411 32.8916 33.632 31.2469L42.8342 27.9503C45.0611 27.1525 47.5308 27.4188 49.5364 28.6731L55.3001 32.2775L56.696 36.174L54.5323 42.6184C53.7793 44.8609 52.0406 46.6349 49.8137 47.4327Z" fill="#66C949"/>
<path fill-rule="evenodd" clip-rule="evenodd" d="M29.5808 45.3017C31.174 49.7491 36.071 52.0628 40.5184 50.4695L49.7206 47.1729C51.868 46.4036 53.5446 44.693 54.2707 42.5306L56.4039 36.1769L55.0726 32.4607L49.3901 28.907C47.4561 27.6975 45.0746 27.4407 42.9272 28.21L33.725 31.5066C29.2776 33.0999 26.9638 37.9968 28.5571 42.4442L29.5808 45.3017ZM40.7045 50.9891C35.9701 52.6851 30.7573 50.2221 29.0612 45.4878L28.0376 42.6303C26.3415 37.896 28.8045 32.6831 33.5389 30.9871L42.7411 27.6904C45.0475 26.8642 47.6054 27.14 49.6827 28.4391L55.5276 32.0943L56.988 36.171L54.7938 42.7062C54.014 45.0288 52.2131 46.8662 49.9067 47.6924L40.7045 50.9891Z" fill="#26282B"/>
<path d="M57.2171 37.3552L54.9216 30.9477L56.4802 30.3893L56.9374 31.6984L68.627 27.5237L68.5104 27.1916C68.3864 26.8382 68.5658 26.4501 68.9154 26.3157L69.8688 25.949C70.235 25.8081 70.645 25.9993 70.7725 26.3703L72.2268 30.601C72.348 30.9536 72.1684 31.3389 71.8204 31.4728L70.8181 31.8583C70.4694 31.9924 70.0772 31.8258 69.9315 31.4818L69.928 31.4734L58.2384 35.6481L58.7757 36.7969L57.2171 37.3552Z" fill="#26282B"/>
<path d="M278.108 137.718L277.686 137.105C277.686 137.105 275.746 133.884 275.673 133.454C275.289 131.168 277.388 132.037 277.388 132.037L277.197 131.833C276.799 131.407 276.792 130.746 277.183 130.309C277.589 129.859 278.275 129.81 278.742 130.195L279.324 130.676C279.324 130.676 278.808 129.89 279.622 129.277C280.436 128.664 281.035 129.658 281.232 129.862L284.18 132.928C284.45 133.208 284.419 133.665 284.111 133.904L279.057 137.86C278.756 138.095 278.323 138.029 278.105 137.714L278.108 137.718Z" fill="white"/>
<path fill-rule="evenodd" clip-rule="evenodd" d="M281.028 133.154L278.95 130.557L279.491 130.124L281.569 132.721L281.028 133.154Z" fill="#26282B"/>
<path fill-rule="evenodd" clip-rule="evenodd" d="M278.95 134.713L276.872 132.115L277.413 131.682L279.491 134.28L278.95 134.713Z" fill="#26282B"/>
<path fill-rule="evenodd" clip-rule="evenodd" d="M280.169 129.427C280.088 129.422 279.978 129.442 279.83 129.554C279.529 129.781 279.496 130.008 279.512 130.172C279.522 130.264 279.549 130.347 279.574 130.407C279.587 130.437 279.599 130.46 279.607 130.474C279.611 130.481 279.613 130.486 279.615 130.488L279.615 130.488L280.877 132.41L278.522 130.462L278.522 130.462C278.196 130.195 277.721 130.229 277.441 130.541C277.169 130.844 277.175 131.302 277.45 131.596L277.451 131.597L278.354 133.284L277.256 132.358L277.256 132.357L277.254 132.357C277.251 132.356 277.247 132.354 277.241 132.352C277.229 132.347 277.211 132.341 277.187 132.332C277.138 132.316 277.068 132.294 276.985 132.274C276.813 132.233 276.612 132.206 276.436 132.231C276.268 132.255 276.151 132.32 276.077 132.445C275.994 132.584 275.925 132.862 276.014 133.394C276.014 133.394 276.018 133.407 276.031 133.441C276.046 133.478 276.067 133.528 276.095 133.588C276.151 133.709 276.23 133.864 276.325 134.043C276.514 134.4 276.761 134.839 277.007 135.268C277.253 135.695 277.497 136.11 277.679 136.418C277.771 136.572 277.847 136.699 277.899 136.788C277.926 136.832 277.947 136.867 277.961 136.89L277.977 136.917L278.393 137.521L278.393 137.522C278.499 137.669 278.701 137.698 278.844 137.587L283.897 133.632L283.898 133.631C284.043 133.519 284.059 133.301 283.93 133.168L280.983 130.103L280.983 130.103C280.946 130.064 280.905 130.014 280.872 129.973L280.871 129.971C280.868 129.968 280.865 129.964 280.862 129.96C280.827 129.917 280.79 129.872 280.749 129.824C280.66 129.721 280.562 129.62 280.457 129.545C280.352 129.47 280.257 129.432 280.169 129.427ZM277.821 137.911L277.394 137.292L277.389 137.283L277.686 137.105C277.389 137.283 277.389 137.283 277.389 137.283L277.367 137.247C277.353 137.223 277.332 137.188 277.305 137.143C277.252 137.054 277.175 136.926 277.084 136.771C276.9 136.462 276.655 136.044 276.407 135.613C276.159 135.182 275.907 134.735 275.712 134.368C275.615 134.184 275.53 134.017 275.467 133.88C275.41 133.758 275.35 133.619 275.332 133.512L275.332 133.511C275.229 132.902 275.279 132.432 275.481 132.091C275.693 131.736 276.028 131.59 276.337 131.546C276.434 131.532 276.53 131.527 276.623 131.529C276.461 131.041 276.561 130.484 276.926 130.078L276.926 130.077C277.423 129.525 278.242 129.436 278.844 129.84C278.905 129.556 279.07 129.259 279.413 129C279.673 128.805 279.942 128.72 280.209 128.735C280.469 128.75 280.688 128.859 280.86 128.981C281.031 129.103 281.17 129.251 281.275 129.372C281.322 129.428 281.365 129.481 281.4 129.524C281.403 129.528 281.406 129.532 281.409 129.535C281.449 129.585 281.47 129.609 281.482 129.622L281.482 129.622L284.429 132.687C284.841 133.115 284.795 133.811 284.324 134.177L284.323 134.178L279.271 138.132C278.812 138.491 278.151 138.39 277.82 137.911L277.821 137.911Z" fill="#26282B"/>
<path d="M234.713 126.357L228.998 119.257L219.3 123.933L226.447 133.51C227.407 134.797 228.879 135.604 230.48 135.722L263.114 138.133L268.829 140.038L270.734 141.943L274.371 139.172L273.97 136.501C273.925 136.201 274.261 135.992 274.51 136.165L276.103 137.267V137.376C276.103 137.807 276.427 138.169 276.855 138.217C277.306 138.267 277.716 137.953 277.785 137.505L277.949 136.441C277.985 136.201 277.895 135.96 277.709 135.805L272.639 131.553L263.634 132.072L234.713 126.357Z" fill="white"/>
<path fill-rule="evenodd" clip-rule="evenodd" d="M229.095 118.825L234.904 126.042L263.658 131.724L272.757 131.199L277.932 135.539C278.21 135.772 278.346 136.134 278.291 136.493L278.127 137.557C278.03 138.189 277.452 138.632 276.817 138.561C276.238 138.497 275.794 138.025 275.759 137.45L274.313 136.449L274.744 139.324L270.703 142.402L268.642 140.341L263.046 138.475L230.455 136.067C228.753 135.941 227.19 135.084 226.17 133.717L218.771 123.803L229.095 118.825ZM219.829 124.062L226.725 133.302C227.625 134.509 229.004 135.265 230.506 135.376L263.183 137.791L269.016 139.735L270.765 141.484L273.998 139.021L273.628 136.552C273.538 135.952 274.208 135.534 274.707 135.88L276.449 137.086V137.376C276.449 137.631 276.641 137.844 276.894 137.873C277.16 137.902 277.402 137.717 277.443 137.452L277.606 136.388C277.625 136.268 277.579 136.148 277.487 136.07L272.522 131.906L263.61 132.42L234.522 126.672L228.901 119.688L219.829 124.062Z" fill="#26282B"/>
<path fill-rule="evenodd" clip-rule="evenodd" d="M272.714 140.235L271.768 137.208L272.43 137.001L273.375 140.029L272.714 140.235Z" fill="#26282B"/>
<path fill-rule="evenodd" clip-rule="evenodd" d="M271.249 141.5L270.3 138.472L270.961 138.265L271.91 141.292L271.249 141.5Z" fill="#26282B"/>
<path d="M60.0616 28.9956V31.1049L62.0255 33.2351C62.2437 33.4706 62.5658 33.5745 62.881 33.5052L66.3723 32.7571C66.9507 32.6324 67.2555 31.9986 66.9923 31.4686L66.9126 31.1119L67.7751 30.6651C68.0556 30.4884 68.2149 30.1698 68.1907 29.8407L67.8062 28.5454L69.209 28.0189L67.2209 26.4568C66.8122 26.1347 66.2719 26.0343 65.7731 26.1832L61.1077 27.5859C60.4877 27.773 60.0616 28.3445 60.0616 28.9922V28.9956Z" fill="white"/>
<path fill-rule="evenodd" clip-rule="evenodd" d="M65.674 25.8512C66.2795 25.6704 66.937 25.792 67.4353 26.1847L69.9071 28.1268L68.2301 28.7561L68.5334 29.7779L68.5362 29.8152C68.5697 30.2711 68.3493 30.7127 67.9596 30.9581L67.9473 30.9658L67.3088 31.2966L67.3219 31.3553C67.6504 32.0787 67.23 32.9264 66.4453 33.0956L62.9554 33.8434C62.9551 33.8435 62.9548 33.8435 62.9545 33.8436C62.5176 33.9393 62.0715 33.7942 61.7715 33.4704L61.7709 33.4697L59.7153 31.2402V28.9921C59.7153 28.1911 60.242 27.4853 61.0077 27.2543L65.674 25.8512ZM65.8723 26.515C65.8722 26.515 65.8723 26.515 65.8723 26.515L61.2077 27.9175C60.7335 28.0605 60.408 28.4977 60.408 28.9921V30.9696L62.2796 32.9996C62.2797 32.9997 62.2798 32.9998 62.2799 32.9999C62.4161 33.1466 62.6137 33.2093 62.8067 33.1668L62.8085 33.1665L66.2994 32.4184C66.2993 32.4184 66.2994 32.4184 66.2994 32.4184C66.6567 32.3413 66.845 31.9505 66.6821 31.6226L66.6634 31.585L66.5165 30.927L67.6013 30.365C67.7569 30.2618 67.8493 30.085 67.8467 29.8989L67.3824 28.3344L68.511 27.9108L67.0065 26.7288C66.6875 26.4773 66.2642 26.398 65.8723 26.515Z" fill="#26282B"/>
<path fill-rule="evenodd" clip-rule="evenodd" d="M61.6653 29.2449H62.358V30.3689L64.0412 32.7767L63.4734 33.1736L61.6653 30.587V29.2449Z" fill="#26282B"/>
<path fill-rule="evenodd" clip-rule="evenodd" d="M63.7504 29.0024H64.4431V30.1299L66.1263 32.5377L65.5585 32.9346L63.7504 30.348V29.0024Z" fill="#26282B"/>
<path fill-rule="evenodd" clip-rule="evenodd" d="M66.2684 28.9847V28.2856H65.5757V29.1314L66.6757 31.6125L67.3089 31.3318L66.2684 28.9847Z" fill="#26282B"/>
</svg>
