<svg width="280" height="279" viewBox="0 0 280 279" fill="none" xmlns="http://www.w3.org/2000/svg">
<path d="M181.248 1.10986H98.7143C90.0241 1.10986 82.9792 8.1547 82.9792 16.8449V219.52C82.9792 228.211 90.0241 235.255 98.7143 235.255H181.248C189.938 235.255 196.983 228.211 196.983 219.52V16.8449C196.983 8.1547 189.938 1.10986 181.248 1.10986Z" fill="white"/>
<path fill-rule="evenodd" clip-rule="evenodd" d="M98.7143 2.14895C90.598 2.14895 84.0183 8.72858 84.0183 16.845V219.52C84.0183 227.637 90.598 234.216 98.7143 234.216H181.248C189.365 234.216 195.944 227.637 195.944 219.52V16.845C195.944 8.72858 189.365 2.14895 181.248 2.14895H98.7143ZM81.9402 16.845C81.9402 7.58085 89.4502 0.0708008 98.7143 0.0708008H181.248C190.512 0.0708008 198.022 7.58085 198.022 16.845V219.52C198.022 228.784 190.512 236.294 181.248 236.294H98.7143C89.4502 236.294 81.9402 228.784 81.9402 219.52V16.845Z" fill="#26282B"/>
<path d="M270.235 95.7109L273.83 109.877L261.569 111.446L257.322 95.6866L270.235 95.7109Z" fill="white"/>
<path fill-rule="evenodd" clip-rule="evenodd" d="M256.87 95.3394L270.504 95.365L274.262 110.171L261.313 111.828L256.87 95.3394ZM257.775 96.0338L261.825 111.064L273.398 109.583L269.965 96.0567L257.775 96.0338Z" fill="#26282B"/>
<path fill-rule="evenodd" clip-rule="evenodd" d="M220.155 45.8977C220.155 45.8978 220.156 45.8978 220.106 46.0638C220.057 46.2298 220.057 46.2298 220.057 46.2299L220.057 46.2299L220.055 46.2294C220.053 46.2288 220.05 46.228 220.046 46.2268C220.037 46.2245 220.024 46.2212 220.006 46.2174C219.971 46.2097 219.921 46.2004 219.863 46.1941C219.742 46.1812 219.601 46.1827 219.481 46.2247C219.369 46.2638 219.276 46.3372 219.227 46.4836C219.175 46.6407 219.169 46.9018 219.292 47.3244L219.292 47.3245C219.542 48.1785 219.877 48.6587 220.139 48.9227C220.27 49.055 220.385 49.1344 220.463 49.1798C220.502 49.2026 220.532 49.2169 220.551 49.2251C220.561 49.2292 220.568 49.2318 220.571 49.2331L220.574 49.2342C220.574 49.2342 220.574 49.2342 220.574 49.2342C220.574 49.2342 220.574 49.2341 220.574 49.2341L220.573 49.2339L220.573 49.2338L220.573 49.2337C220.573 49.2337 220.573 49.2336 220.522 49.3992C220.471 49.5648 220.471 49.5648 220.471 49.5648L220.471 49.5647L220.47 49.5645L220.468 49.564L220.464 49.5626C220.461 49.5616 220.457 49.5602 220.452 49.5584C220.443 49.555 220.43 49.55 220.414 49.5433C220.383 49.5298 220.341 49.5093 220.289 49.4793C220.185 49.4192 220.047 49.3214 219.893 49.1666C219.586 48.8566 219.223 48.3237 218.96 47.4217M220.057 46.2299C220.057 46.2299 220.057 46.2299 220.057 46.2299L220.057 46.2299L220.057 46.2299ZM220.155 45.8977L220.155 45.8977L220.155 45.8977ZM220.155 45.8977L220.155 45.8975L220.155 45.8977ZM220.155 45.8975L220.153 45.8971L220.155 45.8975ZM220.153 45.8971L220.149 45.8958L220.153 45.8971ZM220.149 45.8958C220.145 45.8948 220.14 45.8934 220.133 45.8917L220.149 45.8958ZM220.133 45.8917C220.12 45.8883 220.102 45.8839 220.08 45.879L220.133 45.8917ZM220.08 45.879C220.035 45.8692 219.973 45.8576 219.9 45.8497L220.08 45.879ZM219.9 45.8497C219.756 45.8343 219.556 45.8315 219.367 45.8978L219.9 45.8497ZM219.367 45.8978C219.169 45.9668 218.986 46.1113 218.899 46.3747L219.367 45.8978ZM218.899 46.3747C218.815 46.6273 218.827 46.9679 218.96 47.4216L218.899 46.3747Z" fill="#26282B"/>
<path d="M221.599 50.57C223.518 50.57 225.073 49.0146 225.073 47.096C225.073 45.1774 223.518 43.622 221.599 43.622C219.68 43.622 218.125 45.1774 218.125 47.096C218.125 49.0146 219.68 50.57 221.599 50.57Z" fill="white"/>
<path fill-rule="evenodd" clip-rule="evenodd" d="M221.599 43.9684C219.872 43.9684 218.471 45.3687 218.471 47.096C218.471 48.8234 219.872 50.2237 221.599 50.2237C223.326 50.2237 224.727 48.8234 224.727 47.096C224.727 45.3687 223.326 43.9684 221.599 43.9684ZM217.779 47.096C217.779 44.9861 219.489 43.2757 221.599 43.2757C223.709 43.2757 225.419 44.9861 225.419 47.096C225.419 49.2059 223.709 50.9164 221.599 50.9164C219.489 50.9164 217.779 49.206 217.779 47.096Z" fill="#26282B"/>
<path fill-rule="evenodd" clip-rule="evenodd" d="M221.959 45.8864C221.32 45.5548 220.533 45.8023 220.202 46.4383C219.871 47.0768 220.118 47.8646 220.754 48.1949L220.435 48.8096C219.457 48.3017 219.081 47.0945 219.588 46.119C220.095 45.141 221.303 44.765 222.278 45.2716L221.959 45.8864Z" fill="#26282B"/>
<path d="M223.854 43.3829L222.538 29.7225L231.699 28.6835L234.48 58.7543L242.647 59.7865L242.685 63.7662L242.734 65.6815L243.284 88.3299L238.785 88.4927L229.295 72.3455L224.834 60.59L224.695 48.6892L223.206 49.7767" fill="white"/>
<path d="M229.475 55.3393C231.145 58.5743 234.574 60.7321 238.449 60.5901C243.801 60.3961 247.981 55.9004 247.787 50.5457L247.313 37.5226C247.119 32.1714 242.623 27.9908 237.268 28.1848C231.917 28.3787 227.737 32.8745 227.931 38.2292" fill="white"/>
<path d="M53.563 46.0396C53.563 46.0396 57.082 43.8506 60.6322 45.4854C69.1214 49.3958 61.7128 59.319 63.4377 67.9849C65.1625 76.6508 69.8938 78.7289 70.8671 83.3736C71.8403 88.0148 65.3842 90.0514 65.2942 93.4977C65.2041 96.9474 64.0992 98.5372 66.7108 103.268C69.3188 108 64.8993 109.413 64.8993 109.413L54.0236 94.5125L57.4665 87.6996L56.7668 63.2536L53.9371 50.2998L53.5699 46.0396H53.563Z" fill="#26282B"/>
<path d="M55.513 73.1075C57.4947 73.1075 59.1012 71.501 59.1012 69.5192C59.1012 67.5375 57.4947 65.9309 55.513 65.9309C53.5312 65.9309 51.9247 67.5375 51.9247 69.5192C51.9247 71.501 53.5312 73.1075 55.513 73.1075Z" fill="white"/>
<path fill-rule="evenodd" clip-rule="evenodd" d="M55.513 66.2773C53.7225 66.2773 52.2711 67.7288 52.2711 69.5192C52.2711 71.3097 53.7225 72.7611 55.513 72.7611C57.3035 72.7611 58.7549 71.3097 58.7549 69.5192C58.7549 67.7288 57.3035 66.2773 55.513 66.2773ZM51.5784 69.5192C51.5784 67.3462 53.34 65.5846 55.513 65.5846C57.686 65.5846 59.4476 67.3462 59.4476 69.5192C59.4476 71.6923 57.686 73.4539 55.513 73.4539C53.34 73.4539 51.5784 71.6923 51.5784 69.5192Z" fill="#26282B"/>
<path fill-rule="evenodd" clip-rule="evenodd" d="M54.1914 67.7845C55.1173 67.256 56.2912 67.5824 56.8183 68.5059C57.3467 69.4318 57.0203 70.6057 56.0969 71.1327L55.7535 70.5311C56.3471 70.1923 56.5541 69.4405 56.2166 68.8493C55.8778 68.2557 55.126 68.0487 54.5348 68.3861L54.1914 67.7845Z" fill="#26282B"/>
<path d="M39.4974 87.3809L39.591 79.529L47.7962 71.6147L50.1133 59.4402L54.855 61.9201V74.3856L54.6472 86.6952L53.9406 87.9386L47.4879 89.6427L40.3876 89.8955L39.591 87.471" fill="white"/>
<path fill-rule="evenodd" clip-rule="evenodd" d="M39.2931 86.9619V81.2747H39.6394V86.9619H39.2931Z" fill="#26282B"/>
<path d="M50.1167 76.1624C48.6308 79.3212 45.4166 81.5102 41.6933 81.5102C36.5533 81.5102 32.3866 77.3435 32.3866 72.2035V59.6999C32.3866 54.56 36.5533 50.3933 41.6933 50.3933C46.8332 50.3933 50.9999 54.56 50.9999 59.6999" fill="white"/>
<path d="M37.8453 56.6624C37.8453 56.6624 39.2965 58.4392 44.5335 58.6678C49.857 58.8999 51.4191 59.6411 51.3637 61.2482C51.3359 62.0864 51.755 67.6039 51.8486 68.7053C51.8797 69.069 52.3923 69.114 52.4859 68.7607L52.5828 68.352C52.5828 68.352 54.2246 64.9161 57.5635 66.7137C58.561 67.2506 59.4234 68.6533 59.0979 70.7003C59.0147 70.8977 62.7727 66.2669 59.7248 55.9108C56.6768 45.5512 46.8748 43.9476 39.4524 46.3825C32.0299 48.8208 30.3812 55.1349 30.2704 57.8504C30.1596 60.5659 32.359 64.885 32.359 64.885L32.4352 59.0696C32.4352 59.0696 35.5385 62.1453 37.8418 56.6624H37.8453Z" fill="#26282B"/>
<path d="M43.4458 66.4089C43.8514 66.4089 44.1801 65.9871 44.1801 65.4668C44.1801 64.9465 43.8514 64.5247 43.4458 64.5247C43.0403 64.5247 42.7115 64.9465 42.7115 65.4668C42.7115 65.9871 43.0403 66.4089 43.4458 66.4089Z" fill="#26282B"/>
<path d="M35.0536 66.4089C35.4591 66.4089 35.7879 65.9871 35.7879 65.4668C35.7879 64.9465 35.4591 64.5247 35.0536 64.5247C34.6481 64.5247 34.3193 64.9465 34.3193 65.4668C34.3193 65.9871 34.6481 66.4089 35.0536 66.4089Z" fill="#26282B"/>
<path d="M41.5201 60.9295C41.5201 61.2204 41.7695 61.4456 42.057 61.4213C42.7532 61.359 43.9862 61.2897 44.8694 61.4802C45.6626 61.6499 46.2722 61.7261 47.6299 62.3634C47.8481 62.4673 48.0352 62.1591 47.855 61.9963C47.3182 61.5114 46.4315 60.9122 45.1742 60.6524C43.6537 60.3372 42.528 60.3823 41.9531 60.4446C41.7037 60.4723 41.5201 60.6836 41.5201 60.933V60.9295Z" fill="#26282B"/>
<path d="M37.5265 61.2931C37.4884 61.6221 37.1767 61.8507 36.8511 61.7849C36.1549 61.6429 34.9946 61.4524 34.1253 61.5356C33.675 61.5771 33.3633 61.6118 33.1485 61.636C32.9338 61.6603 32.8334 61.397 32.9961 61.2689C33.3113 61.0195 33.9313 60.732 35.1332 60.6246C36.1723 60.5311 36.768 60.59 37.1109 60.6835C37.3845 60.7563 37.5611 61.016 37.5265 61.2966V61.2931Z" fill="#26282B"/>
<path d="M50.1133 76.2871C50.1133 76.2663 49.2544 81.1465 45.4513 82.7848C41.6483 84.423 39.5286 82.8956 39.5286 82.8956L39.4974 81.2504C40.8586 81.6175 42.8398 81.6314 45.0669 80.8694C47.294 80.1074 49.0985 78.0154 49.5799 77.2465C49.812 76.8793 50.1099 76.2836 50.1099 76.2836L50.1133 76.2871Z" fill="#26282B"/>
<path fill-rule="evenodd" clip-rule="evenodd" d="M41.676 50.7397C36.7273 50.7397 32.7157 54.7513 32.7157 59.7V72.2035C32.7157 77.1522 36.7273 81.1638 41.676 81.1638C45.2602 81.1638 48.3551 79.0569 49.786 76.015L50.4128 76.3098C48.872 79.5855 45.5385 81.8565 41.676 81.8565C36.3447 81.8565 32.0229 77.5348 32.0229 72.2035V59.7C32.0229 54.3687 36.3447 50.0469 41.676 50.0469C47.0072 50.0469 51.329 54.3687 51.329 59.7H50.6363C50.6363 54.7513 46.6246 50.7397 41.676 50.7397Z" fill="#26282B"/>
<path d="M204.707 190.686L197.721 265.323L211.163 266.736L225.842 190.066L205.237 186.973L204.707 190.686Z" fill="white"/>
<path fill-rule="evenodd" clip-rule="evenodd" d="M204.944 186.579L226.25 189.777L211.444 267.114L197.344 265.631L204.363 190.645L204.944 186.579ZM205.531 187.367L205.051 190.727L198.098 265.014L210.883 266.358L225.434 190.355L205.531 187.367Z" fill="#26282B"/>
<path d="M236.188 191.659L236.177 192.279L234.774 267.567L247.773 266.736L256.353 184.23L236.188 191.659Z" fill="white"/>
<path fill-rule="evenodd" clip-rule="evenodd" d="M256.755 183.713L248.088 267.063L234.421 267.937L235.845 191.416L256.755 183.713ZM236.53 191.902L235.128 267.197L247.459 266.409L255.951 184.747L236.53 191.902Z" fill="#26282B"/>
<path d="M259.799 145.32L263.249 195.109L233.534 194.046L233.947 170.67L233.036 170.715L228.672 194.222L201.964 189.803L212.046 142.49L259.799 145.32Z" fill="white"/>
<path fill-rule="evenodd" clip-rule="evenodd" d="M211.77 142.127L260.123 144.992L263.621 195.469L233.182 194.379L233.594 171.034L233.326 171.047L228.95 194.619L201.55 190.085L211.77 142.127ZM212.323 142.853L202.378 189.52L228.393 193.825L232.745 170.382L234.299 170.306L233.887 193.712L262.877 194.749L259.474 145.647L212.323 142.853Z" fill="#26282B"/>
<path d="M39.5217 268.655L26.0795 176.568H45.8877C45.8877 176.568 50.3696 268.537 50.3696 268.655C50.3696 268.772 40.5538 273.254 40.5538 273.254L39.5217 268.655Z" fill="white"/>
<path fill-rule="evenodd" clip-rule="evenodd" d="M25.6788 176.222H46.2176L46.2336 176.551L45.8877 176.568C46.2336 176.551 46.2336 176.552 46.2337 176.552L46.9339 190.923C47.3541 199.547 47.9143 211.047 48.4746 222.55C49.5945 245.546 50.7159 268.585 50.7159 268.655C50.7159 268.781 50.6473 268.864 50.6364 268.877L50.6355 268.878C50.6145 268.904 50.5941 268.921 50.5844 268.929C50.5631 268.947 50.5419 268.961 50.5286 268.97C50.4995 268.988 50.4633 269.009 50.4254 269.03C50.3477 269.072 50.2375 269.129 50.1023 269.196C49.8308 269.331 49.4449 269.517 48.9843 269.736C48.0625 270.173 46.8343 270.745 45.6071 271.313C44.3796 271.881 43.1523 272.445 42.2319 272.867C41.7716 273.078 41.3881 273.254 41.1196 273.376L40.6994 273.569L40.6981 273.569L40.6977 273.569C40.6977 273.569 40.6976 273.569 40.5538 273.254L40.6977 273.569L40.3093 273.747L39.1808 268.718L25.6788 176.222ZM40.7982 272.762L40.8314 272.747C41.0998 272.624 41.4831 272.448 41.9431 272.237C42.8631 271.815 44.0897 271.252 45.3162 270.684C46.543 270.117 47.7687 269.546 48.6873 269.11C49.147 268.892 49.528 268.708 49.7932 268.576C49.8812 268.532 49.955 268.495 50.014 268.464C50.0132 268.449 50.0124 268.432 50.0116 268.415C50.0033 268.242 49.9905 267.975 49.9733 267.618C49.9405 266.938 49.8923 265.944 49.831 264.681C49.7085 262.155 49.5334 258.553 49.3233 254.233C48.9031 245.595 48.3429 234.088 47.7827 222.584C47.2224 211.081 46.6622 199.581 46.242 190.957L45.5578 176.915H26.48L39.8624 268.592L40.7982 272.762Z" fill="#26282B"/>
<path d="M54.9692 173.5L82.4424 264.644L86.0965 269.361L96.1201 266.296L72.4188 170.905L54.9692 173.5Z" fill="white"/>
<path fill-rule="evenodd" clip-rule="evenodd" d="M72.6792 170.517L96.5356 266.531L85.9692 269.762L82.1294 264.805L54.5221 173.216L72.6792 170.517ZM55.4166 173.783L82.7556 264.483L86.224 268.96L95.7049 266.061L72.1586 171.294L55.4166 173.783Z" fill="#26282B"/>
<path fill-rule="evenodd" clip-rule="evenodd" d="M39.4605 74.1202C39.4603 74.1202 39.46 74.1201 39.5217 73.7793C39.5835 73.4385 39.5833 73.4385 39.5831 73.4384L39.5827 73.4384L39.5827 73.4383C39.5844 73.4386 39.5879 73.4392 39.5933 73.4399C39.604 73.4414 39.6219 73.4436 39.6461 73.4458C39.6946 73.4503 39.768 73.4545 39.86 73.4526C40.0446 73.4487 40.2995 73.4199 40.5776 73.3209C41.1184 73.1285 41.7925 72.6557 42.2003 71.4579L42.856 71.6812C42.3806 73.0777 41.5515 73.7097 40.8099 73.9736C40.4468 74.1028 40.1156 74.14 39.8746 74.1451C39.7537 74.1477 39.6543 74.1422 39.5833 74.1357C39.5477 74.1325 39.5191 74.129 39.4983 74.1261C39.4879 74.1246 39.4795 74.1234 39.473 74.1223L39.465 74.121L39.4621 74.1205L39.461 74.1203L39.4605 74.1202ZM39.5827 73.4383L39.5822 73.4383L39.5816 73.4382C39.5815 73.4381 39.5818 73.4382 39.5827 73.4383Z" fill="#26282B"/>
<path fill-rule="evenodd" clip-rule="evenodd" d="M39.1915 63.6617L39.8519 63.8706L38.0839 69.4619C38.0738 69.5027 38.1074 69.5465 38.1565 69.54C38.1567 69.54 38.1569 69.5399 38.1571 69.5399L39.7346 69.3081L39.8353 69.9935L38.254 70.2258C37.7156 70.3018 37.2649 69.8004 37.4191 69.2671L37.4203 69.263L39.1915 63.6617Z" fill="#26282B"/>
<path d="M37.918 60.4203L37.7968 61.4733C37.7968 61.4733 35.6078 60.9156 34.1635 61.0507C32.7157 61.1893 32.5737 61.2308 32.5737 61.2308C32.5737 61.2308 32.7434 60.2818 35.2649 60.0567C37.7864 59.8315 37.9215 60.4203 37.9215 60.4203H37.918Z" fill="#26282B"/>
<path d="M30.97 109.416L37.2806 95.8426L34.4059 88.6348C34.4059 88.6348 27.4648 89.0331 24.7217 93.3661C21.982 97.699 17.2057 107.252 17.2057 107.252L20.6104 108.003" fill="white"/>
<path fill-rule="evenodd" clip-rule="evenodd" d="M34.6352 88.2746L37.6578 95.8529L31.2841 109.562L30.656 109.27L36.9036 95.8319L34.179 89.0008C34.1654 89.0021 34.1512 89.0035 34.1365 89.0049C33.9466 89.0238 33.6707 89.0555 33.3304 89.1071C32.6492 89.2102 31.7133 89.3921 30.6946 89.7064C28.6449 90.3388 26.32 91.4888 25.0144 93.5512C23.6529 95.7044 21.7799 99.1641 20.2431 102.094C19.4756 103.558 18.7936 104.886 18.3035 105.848C18.0584 106.33 17.8614 106.719 17.7256 106.988C17.7221 106.995 17.7186 107.002 17.7151 107.009L20.6851 107.665L20.5358 108.341L16.6973 107.494L16.8959 107.097L17.2057 107.251C16.8959 107.097 16.8959 107.097 16.8959 107.097L16.9505 106.988C16.9862 106.917 17.039 106.812 17.107 106.677C17.2432 106.407 17.4407 106.016 17.6862 105.534C18.1772 104.57 18.8605 103.239 19.6296 101.773C21.1658 98.8436 23.0507 95.3606 24.429 93.1808C25.8664 90.9103 28.3838 89.6945 30.4904 89.0445C31.5498 88.7176 32.5207 88.5291 33.2266 88.4222C33.58 88.3687 33.8677 88.3355 34.0681 88.3156C34.1683 88.3057 34.2467 88.299 34.3006 88.2949C34.3276 88.2928 34.3484 88.2913 34.3628 88.2904L34.3794 88.2893L34.384 88.289L34.3858 88.2889C34.3859 88.2889 34.3861 88.2889 34.4059 88.6347L34.3858 88.2889L34.6352 88.2746Z" fill="#26282B"/>
<path fill-rule="evenodd" clip-rule="evenodd" d="M40.1579 103.708H36.4424V103.362H40.423L40.7208 104.463L40.3865 104.553L40.1579 103.708Z" fill="#26282B"/>
<path d="M31.2263 132.162L66.3783 131.656L64.979 106.039L78.7918 103.535C78.7918 103.535 70.5554 87.7064 66.7454 86.8336C59.2295 86.5254 47.2835 87.8415 42.6146 87.7064C37.9492 87.5748 30.7241 90.124 30.7241 90.124" fill="white"/>
<path d="M76.6686 104.023C76.6686 104.023 79.8655 128.518 74.6459 130.066C69.4263 131.614 68.5431 130.156 65.5367 126.44C64.0646 124.621 64.9686 115.471 64.9686 115.471V105.918" fill="white"/>
<path fill-rule="evenodd" clip-rule="evenodd" d="M76.3253 104.068C76.3252 104.068 76.3252 104.068 76.6687 104.023C77.0121 103.979 77.0121 103.979 77.0122 103.979L77.0145 103.997L77.0213 104.05C77.0272 104.097 77.036 104.166 77.0471 104.257C77.0693 104.437 77.1012 104.702 77.14 105.039C77.2174 105.714 77.3222 106.68 77.4315 107.842C77.6501 110.168 77.8873 113.287 77.9609 116.456C78.0345 119.622 77.9454 122.855 77.5053 125.403C77.2855 126.675 76.9749 127.797 76.5408 128.658C76.1085 129.516 75.5278 130.166 74.7444 130.398C72.1139 131.178 70.4768 131.234 69.1043 130.536C68.4276 130.192 67.8398 129.676 67.24 129.027C66.7453 128.492 66.2285 127.85 65.6418 127.122C65.5201 126.971 65.3955 126.816 65.2674 126.658C65.0391 126.375 64.8766 125.98 64.7556 125.538C64.6329 125.09 64.5449 124.564 64.4827 123.997C64.3581 122.862 64.3333 121.531 64.3544 120.268C64.3755 119.002 64.4429 117.795 64.5049 116.905C64.5359 116.459 64.5657 116.093 64.5876 115.838C64.5986 115.71 64.6077 115.61 64.614 115.542C64.6172 115.508 64.6197 115.482 64.6214 115.464L64.6223 115.454V105.918H65.315V115.488L65.3134 115.505L64.9687 115.471C65.3134 115.505 65.3134 115.505 65.3134 115.505L65.3128 115.511L65.3109 115.53C65.3093 115.547 65.3069 115.572 65.3038 115.606C65.2976 115.673 65.2887 115.771 65.2778 115.897C65.2561 116.149 65.2267 116.512 65.196 116.953C65.1345 117.835 65.0679 119.03 65.047 120.279C65.0261 121.53 65.0513 122.828 65.1712 123.921C65.2312 124.467 65.3141 124.954 65.4237 125.355C65.5351 125.761 65.6663 126.049 65.8059 126.222C65.937 126.384 66.0637 126.541 66.1864 126.694C66.773 127.422 67.2715 128.041 67.7487 128.557C68.3231 129.178 68.8461 129.627 69.4184 129.919C70.5441 130.491 71.9584 130.502 74.5475 129.734C75.069 129.579 75.5302 129.125 75.9222 128.347C76.3123 127.572 76.6082 126.526 76.8227 125.285C77.2512 122.804 77.3416 119.624 77.2684 116.472C77.1953 113.325 76.9595 110.223 76.7418 107.907C76.633 106.75 76.5288 105.789 76.4518 105.118C76.4133 104.783 76.3816 104.52 76.3596 104.341C76.3485 104.252 76.3399 104.183 76.3341 104.137L76.3275 104.085L76.3253 104.068Z" fill="#26282B"/>
<path d="M82.2484 265.16L82.6502 278.006H112.278L110.428 271.585H104.086L95.1745 264.599L82.2484 265.16Z" fill="#E0F4DB"/>
<path fill-rule="evenodd" clip-rule="evenodd" d="M95.2875 264.247L104.206 271.238H110.689L112.738 278.353H82.3146L81.8916 264.829L95.2875 264.247ZM82.6054 265.491L82.986 277.66H111.818L110.168 271.931H103.967L95.0617 264.95L82.6054 265.491Z" fill="#26282B"/>
<path d="M50.2067 264.304L51.1696 270.328L52.7767 275.468V278.515H33.1866L34.3885 274.744L37.8417 269.604L39.286 263.986L50.2067 264.304Z" fill="#E0F4DB"/>
<path fill-rule="evenodd" clip-rule="evenodd" d="M39.0195 263.632L50.5035 263.967L51.5077 270.248L53.1231 275.415V278.862H32.7128L34.0735 274.592L37.5211 269.46L39.0195 263.632ZM39.5526 264.34L38.1624 269.748L34.7035 274.896L33.6605 278.169H52.4303V275.521L50.8315 270.407L49.91 264.642L39.5526 264.34Z" fill="#26282B"/>
<path fill-rule="evenodd" clip-rule="evenodd" d="M42.21 266.656L42.258 266.313C42.3061 265.97 42.3061 265.97 42.3062 265.97L42.31 265.971L42.3204 265.972L42.3601 265.978C42.3947 265.983 42.4451 265.991 42.5093 266.001C42.6376 266.021 42.8212 266.051 43.0433 266.09C43.487 266.168 44.087 266.285 44.7089 266.438C45.3286 266.59 45.9808 266.781 46.5245 267.01C46.7963 267.124 47.0497 267.251 47.2613 267.393C47.4692 267.532 47.6601 267.701 47.7783 267.908L47.7787 267.908C47.8684 268.066 47.9644 268.3 47.8645 268.534C47.7609 268.776 47.5206 268.852 47.3711 268.881C47.204 268.914 47.0017 268.916 46.7933 268.908C46.5803 268.9 46.3344 268.88 46.0721 268.857C46.0463 268.855 46.0203 268.853 45.9942 268.851C44.937 268.76 43.5735 268.642 42.3491 268.975C42.349 268.975 42.3491 268.975 42.3491 268.975L39.6997 269.699L39.5171 269.031L42.1671 268.307C43.513 267.941 44.984 268.068 46.0199 268.158C46.0576 268.161 46.0948 268.164 46.1314 268.167C46.3959 268.19 46.6256 268.209 46.8194 268.216C46.9601 268.221 47.0694 268.22 47.1514 268.213C47.1013 268.144 47.0137 268.061 46.8755 267.968C46.7136 267.86 46.5038 267.752 46.2561 267.648C45.7607 267.44 45.1483 267.259 44.5436 267.111C43.9411 266.963 43.357 266.849 42.9227 266.772C42.7058 266.734 42.5269 266.705 42.4025 266.685C42.3403 266.676 42.2918 266.668 42.259 266.663L42.2219 266.658L42.2127 266.657L42.21 266.656ZM47.2911 268.187C47.291 268.187 47.2906 268.187 47.29 268.187L47.2911 268.187Z" fill="#26282B"/>
<path fill-rule="evenodd" clip-rule="evenodd" d="M99.2091 266.432L99.7367 266.881L98.7936 267.989L102.4 268.397L102.323 269.086L97.4229 268.531L99.2091 266.432Z" fill="#26282B"/>
<path d="M210.921 265.368L210.523 278.214H176.739L178.585 271.789H189.083L197.995 264.803L210.921 265.368Z" fill="#E0F4DB"/>
<path fill-rule="evenodd" clip-rule="evenodd" d="M197.882 264.452L211.278 265.037L210.858 278.561H176.279L178.324 271.443H188.963L197.882 264.452ZM198.107 265.155L189.202 272.136H178.846L177.198 277.868H210.187L210.564 265.699L198.107 265.155Z" fill="#26282B"/>
<path d="M235.218 265.392L234.844 270.217L232.544 275.357V278.408H253.866L252.664 274.633L248.172 269.496L247.998 264.561L235.218 265.392Z" fill="#E0F4DB"/>
<path fill-rule="evenodd" clip-rule="evenodd" d="M248.332 264.192L248.513 269.361L252.972 274.459L254.339 278.755H232.198V275.283L234.503 270.13L234.896 265.066L248.332 264.192ZM235.54 265.718L235.184 270.303L232.89 275.431V278.062H253.392L252.356 274.807L247.83 269.632L247.665 264.93L235.54 265.718Z" fill="#26282B"/>
<path fill-rule="evenodd" clip-rule="evenodd" d="M243.707 265.86C243.707 265.86 243.708 265.86 243.756 266.203L243.804 266.546L243.801 266.546L243.792 266.547L243.755 266.553C243.722 266.558 243.673 266.565 243.611 266.575C243.487 266.594 243.308 266.623 243.091 266.661C242.657 266.738 242.072 266.852 241.47 267C240.865 267.149 240.253 267.329 239.757 267.537C239.51 267.641 239.3 267.749 239.138 267.858C239 267.95 238.912 268.033 238.862 268.102C238.944 268.109 239.053 268.11 239.194 268.105C239.388 268.098 239.618 268.079 239.882 268.056C239.919 268.053 239.956 268.05 239.994 268.047C241.03 267.957 242.501 267.83 243.846 268.196L243.847 268.196L246.496 268.92L246.314 269.588L243.665 268.864C243.665 268.864 243.665 268.864 243.665 268.864C242.44 268.531 241.077 268.649 240.019 268.74C239.993 268.742 239.967 268.744 239.941 268.747C239.679 268.769 239.433 268.789 239.22 268.797C239.012 268.805 238.81 268.803 238.642 268.77C238.493 268.741 238.253 268.665 238.149 268.423C238.049 268.189 238.145 267.955 238.235 267.798L238.235 267.797C238.353 267.591 238.544 267.422 238.752 267.282C238.964 267.14 239.217 267.013 239.489 266.899C240.033 266.67 240.685 266.48 241.305 266.327C241.927 266.174 242.527 266.058 242.97 265.979C243.192 265.94 243.376 265.91 243.504 265.89C243.568 265.88 243.619 265.872 243.653 265.867L243.693 265.862L243.704 265.86L243.707 265.86ZM238.724 268.076C238.723 268.076 238.723 268.076 238.722 268.076L238.724 268.076ZM238.735 268.083C238.749 268.093 238.77 268.113 238.786 268.151C238.802 268.188 238.8 268.214 238.799 268.222C238.801 268.214 238.809 268.189 238.837 268.141" fill="#26282B"/>
<path fill-rule="evenodd" clip-rule="evenodd" d="M193.201 268.418L192.255 267.307L192.782 266.858L194.572 268.96L189.669 269.515L189.591 268.827L193.201 268.418Z" fill="#26282B"/>
<path d="M243.952 42.1394C244.375 42.0865 244.664 41.6036 244.596 41.0607C244.528 40.5178 244.13 40.1206 243.707 40.1735C243.283 40.2264 242.995 40.7093 243.063 41.2522C243.131 41.795 243.529 42.1923 243.952 42.1394Z" fill="#26282B"/>
<path d="M234.191 43.5637C234.615 43.5108 234.903 43.0279 234.835 42.485C234.767 41.9422 234.369 41.5449 233.946 41.5978C233.522 41.6507 233.234 42.1336 233.302 42.6765C233.37 43.2194 233.768 43.6166 234.191 43.5637Z" fill="#26282B"/>
<path d="M225.887 30.0619C225.887 30.0619 226.147 27.918 230.088 27.5439C234.03 27.1699 236.181 27.0175 236.181 27.0175L239.713 32.2059L225.43 35.3405L224.83 30.5469L225.883 30.0619H225.887Z" fill="#66C949"/>
<path d="M224.834 60.0048L220.872 64.3169L207.031 70.3297C205.199 71.1263 203.744 72.5949 202.968 74.4341L193.8 96.1542L209.954 101.814L212.195 142.023L259.595 144.735L262.189 140.017C262.189 140.017 257.707 111.131 257.942 105.825C258.178 100.518 257.825 98.5129 257.825 98.5129L274.097 97.0963L264.215 71.9784C263.311 69.682 261.371 67.9502 258.985 67.3164L244.622 63.4926L242.859 61.4422L242.027 72.6815L238.484 80.8486L232.277 72.6815L224.834 60.0048Z" fill="#66C949"/>
<path fill-rule="evenodd" clip-rule="evenodd" d="M246.319 65.9206L248.124 78.7039L243.728 72.0408L242.206 72.9797L241.842 72.3901L243.936 71.0985L247.008 75.7544L245.633 66.0174L246.319 65.9206Z" fill="#26282B"/>
<path fill-rule="evenodd" clip-rule="evenodd" d="M221.308 64.4523L221.945 64.1813L228.016 78.4665L230.551 73.3284L234.437 75.3672L234.115 75.9806L230.858 74.2718L227.969 80.1272L221.308 64.4523Z" fill="#26282B"/>
<path d="M260.921 109.039L257.326 114.154L253.28 122.446C253.246 122.519 254.198 123.26 254.278 123.243L268.558 119.585L273.771 109.624" fill="white"/>
<path fill-rule="evenodd" clip-rule="evenodd" d="M260.638 108.84L261.205 109.238L257.625 114.331L253.692 122.392C253.764 122.455 253.855 122.531 253.951 122.606C254.069 122.699 254.187 122.787 254.279 122.85C254.293 122.859 254.305 122.868 254.317 122.875L268.323 119.288L273.464 109.464L274.078 109.785L268.794 119.883L254.358 123.58L254.352 123.581C254.278 123.597 254.217 123.586 254.195 123.581C254.165 123.575 254.141 123.566 254.126 123.56C254.094 123.547 254.065 123.532 254.042 123.519C253.995 123.493 253.942 123.459 253.888 123.422C253.78 123.348 253.648 123.25 253.522 123.15C253.396 123.051 253.27 122.946 253.175 122.858C253.129 122.815 253.082 122.769 253.045 122.725C253.028 122.705 253.002 122.672 252.98 122.632C252.97 122.612 252.952 122.577 252.942 122.531C252.932 122.486 252.921 122.396 252.968 122.297L252.969 122.294L257.027 113.978L260.638 108.84Z" fill="#26282B"/>
<path d="M50.3452 46.2648C49.7114 46.2128 51.3324 44.6646 52.7178 44.8412C54.1032 45.0179 55.7623 46.5973 55.8004 48.4745C55.8385 50.3553 55.5441 49.9985 55.5441 49.9985C55.5441 49.9985 52.4095 46.2994 50.3487 46.2613L50.3452 46.2648Z" fill="#66C949"/>
<path d="M30.7552 55.1038C30.7552 55.1038 23.9042 60.1295 24.3475 61.1027C24.7909 62.076 39.899 63.1012 44.2043 61.0646C48.5095 59.0315 50.1132 56.6589 50.1132 56.6589L30.7552 55.1038Z" fill="#66C949"/>
<path d="M58.6683 55.1037C55.2879 57.549 43.6883 59.5821 38.7631 59.1076C33.8413 58.6365 30.6964 55.2457 30.6964 55.2457L31.5415 53.0671C31.5415 53.0671 31.2056 55.2318 37.7344 55.5262C43.1584 55.7687 53.421 54.2863 56.8188 51.5223C56.8188 51.5223 58.225 53.4065 58.6649 55.1002L58.6683 55.1037Z" fill="#66C949"/>
<path d="M24.9434 138.836C24.9434 138.836 24.8429 139.037 24.6663 139.414C23.3709 142.168 17.9261 154.363 16.9944 167.019L15.9346 181.404L66.406 180.707L66.974 158.343L75.1065 180.42L84.0322 180.458C84.0322 180.458 67.4624 137.658 67.3446 135.417C67.2268 133.177 67.3446 130.762 67.3446 130.762H28.6702L24.9468 138.836H24.9434Z" fill="#66C949"/>
<path d="M260.374 111.605L257.579 109.721L256.221 111.938L257.62 114.154" fill="white"/>
<path fill-rule="evenodd" clip-rule="evenodd" d="M257.472 109.232L260.567 111.318L260.18 111.892L257.685 110.211L256.629 111.935L257.913 113.97L257.327 114.339L255.813 111.941L257.472 109.232Z" fill="#26282B"/>
<path fill-rule="evenodd" clip-rule="evenodd" d="M263.903 114.42L259.514 111.445L259.903 110.872L264.291 113.847L263.903 114.42Z" fill="#26282B"/>
<path fill-rule="evenodd" clip-rule="evenodd" d="M261.233 109.227C261.233 109.227 261.233 109.227 260.918 109.084C260.602 108.941 260.602 108.941 260.602 108.941L260.602 108.94L260.603 108.939L260.604 108.936L260.61 108.924C260.615 108.913 260.622 108.899 260.631 108.88C260.649 108.842 260.675 108.788 260.71 108.72C260.78 108.584 260.884 108.392 261.02 108.164C261.291 107.708 261.696 107.104 262.226 106.515C263.279 105.346 264.886 104.178 266.968 104.47L266.872 105.156C265.127 104.911 263.732 105.878 262.741 106.979C262.249 107.525 261.871 108.089 261.615 108.518C261.487 108.732 261.391 108.912 261.327 109.036C261.295 109.099 261.271 109.147 261.255 109.18C261.247 109.196 261.242 109.208 261.238 109.216L261.234 109.225L261.233 109.227L261.233 109.227Z" fill="#26282B"/>
<path d="M256.394 121.29L252.868 122.374L260.156 112.98L260.776 113.07L256.394 121.29Z" fill="white"/>
<path d="M178.37 33.4009H101.329C96.4074 33.4009 92.4175 37.3909 92.4175 42.3127V42.5794C92.4175 47.5013 96.4074 51.4912 101.329 51.4912H178.37C183.292 51.4912 187.282 47.5013 187.282 42.5794V42.3127C187.282 37.3909 183.292 33.4009 178.37 33.4009Z" fill="#E9E8E8"/>
<path d="M178.204 142.75H164.086C163.005 142.75 162.129 143.626 162.129 144.707V145.375C162.129 146.456 163.005 147.332 164.086 147.332H178.204C179.284 147.332 180.161 146.456 180.161 145.375V144.707C180.161 143.626 179.284 142.75 178.204 142.75Z" fill="#E9E8E8"/>
<path d="M154.599 5.21426H129.817C127.755 5.21426 126.084 6.88592 126.084 8.94801V9.06231C126.084 11.1244 127.755 12.7961 129.817 12.7961H154.599C156.662 12.7961 158.333 11.1244 158.333 9.06231V8.94801C158.333 6.88592 156.662 5.21426 154.599 5.21426Z" fill="#26282B"/>
<path d="M187.282 59.9043H92.4175V70.5514H187.282V59.9043Z" fill="#E0F4DB"/>
<path fill-rule="evenodd" clip-rule="evenodd" d="M91.5518 122.166H188.148V152.396H91.5518V122.166Z" fill="#E0F4DB"/>
<path d="M187.282 74.912H92.4175V85.5591H187.282V74.912Z" fill="#E0F4DB"/>
<path d="M187.282 89.1924H92.4175V99.8395H187.282V89.1924Z" fill="#E0F4DB"/>
<path d="M102.167 49.1186C105.852 49.1186 108.838 46.132 108.838 42.4478C108.838 38.7635 105.852 35.7769 102.167 35.7769C98.4832 35.7769 95.4966 38.7635 95.4966 42.4478C95.4966 46.132 98.4832 49.1186 102.167 49.1186Z" fill="white"/>
<path d="M107.619 39.2233C108.038 39.2233 108.378 38.8837 108.378 38.4647C108.378 38.0458 108.038 37.7062 107.619 37.7062C107.2 37.7062 106.861 38.0458 106.861 38.4647C106.861 38.8837 107.2 39.2233 107.619 39.2233Z" fill="#66C949"/>
<path d="M183.939 179.332C185.183 179.332 186.191 178.324 186.191 177.081C186.191 175.838 185.183 174.83 183.939 174.83C182.696 174.83 181.688 175.838 181.688 177.081C181.688 178.324 182.696 179.332 183.939 179.332Z" fill="#66C949"/>
<path d="M95.1676 179.305C96.411 179.305 97.4189 178.297 97.4189 177.053C97.4189 175.81 96.411 174.802 95.1676 174.802C93.9242 174.802 92.9163 175.81 92.9163 177.053C92.9163 178.297 93.9242 179.305 95.1676 179.305Z" fill="#E9E8E8"/>
<path opacity="0.43" d="M138.622 38.4647H113.833V39.4518H138.622V38.4647Z" fill="#787878"/>
<path d="M129.447 23.4744H94.468V26.8756H129.447V23.4744Z" fill="#E9E8E8"/>
<path d="M127.396 163.32H92.4175V166.721H127.396V163.32Z" fill="#E9E8E8"/>
<path d="M186.187 163.32H162.129V166.721H186.187V163.32Z" fill="#E9E8E8"/>
<path d="M135.214 175.377H100.235V178.778H135.214V175.377Z" fill="#E9E8E8"/>
<path d="M127.396 111.827H92.4175V115.228H127.396V111.827Z" fill="#E9E8E8"/>
<path opacity="0.43" d="M147.277 42.4478H113.833V43.4349H147.277V42.4478Z" fill="#787878"/>
<path opacity="0.43" d="M147.277 45.5823H113.833V46.5694H147.277V45.5823Z" fill="#787878"/>
<path opacity="0.43" d="M122.966 130.094H98.1775V131.081H122.966V130.094Z" fill="#787878"/>
<path opacity="0.43" d="M110.574 225.89H95.2266V226.877H110.574V225.89Z" fill="#787878"/>
<path opacity="0.43" d="M135.757 225.89H120.41V226.877H135.757V225.89Z" fill="#787878"/>
<path opacity="0.43" d="M162.624 225.89H147.277V226.877H162.624V225.89Z" fill="#787878"/>
<path opacity="0.43" d="M188.331 225.394H172.984V226.382H188.331V225.394Z" fill="#787878"/>
<path opacity="0.43" d="M131.622 134.077H98.1775V135.064H131.622V134.077Z" fill="#787878"/>
<path opacity="0.43" d="M131.622 137.215H98.1775V138.202H131.622V137.215Z" fill="#787878"/>
<path opacity="0.43" d="M180.268 133.983H146.824V134.971H180.268V133.983Z" fill="#787878"/>
<path opacity="0.43" d="M180.268 137.118H146.824V138.105H180.268V137.118Z" fill="#787878"/>
<path opacity="0.43" d="M125.024 186.221H100.235V187.209H125.024V186.221Z" fill="#787878"/>
<path opacity="0.43" d="M133.679 190.205H100.235V191.192H133.679V190.205Z" fill="#787878"/>
<path opacity="0.43" d="M133.679 193.342H100.235V194.33H133.679V193.342Z" fill="#787878"/>
<path opacity="0.43" d="M155.933 197.97H100.235V198.957H155.933V197.97Z" fill="#787878"/>
<path opacity="0.43" d="M155.933 201.108H100.235V202.095H155.933V201.108Z" fill="#787878"/>
<path fill-rule="evenodd" clip-rule="evenodd" d="M195.307 213.726H84.5968V211.994H195.307V213.726Z" fill="#E9E8E8"/>
<path fill-rule="evenodd" clip-rule="evenodd" d="M237.38 27.8351C242.926 27.6343 247.582 31.964 247.783 37.5066L248.258 50.5296C248.459 56.0753 244.129 60.7318 238.586 60.9327C238.586 60.9327 238.587 60.9327 238.586 60.9327C234.572 61.0798 231.021 58.8441 229.292 55.4946L229.908 55.177C231.518 58.2974 234.825 60.3774 238.561 60.2405C243.721 60.0535 247.753 55.7184 247.566 50.5548L247.091 37.5317C246.904 32.3718 242.569 28.3404 237.405 28.5274L237.38 27.8351Z" fill="#26282B"/>
<path fill-rule="evenodd" clip-rule="evenodd" d="M240.886 47.5367L238.405 40.0736L239.062 39.855L241.597 47.4797C241.597 47.4802 241.597 47.4806 241.597 47.481C241.747 47.9265 241.346 48.3499 240.903 48.2513L240.9 48.2508L240.9 48.2508L239.061 47.8282L239.216 47.1531L240.886 47.5367Z" fill="#26282B"/>
<path d="M236.589 37.9069C236.6 38.2083 236.357 38.4576 236.056 38.4507C235.332 38.4369 234.054 38.4403 233.122 38.5927C231.948 38.7832 230.916 39.2058 230.237 39.5348C230.054 39.6249 229.884 39.3859 230.033 39.2439C230.577 38.7174 231.474 38.0593 232.776 37.7407C234.331 37.3597 235.495 37.3597 236.104 37.4013C236.375 37.422 236.586 37.6368 236.596 37.9069H236.589Z" fill="#26282B"/>
<path d="M241.106 37.7373V37.7615C241.161 38.0975 241.487 38.3157 241.816 38.236C242.533 38.0628 243.745 37.8169 244.656 37.8689C245.092 37.8931 245.404 37.9139 245.629 37.9312C245.865 37.9485 245.965 37.6437 245.771 37.5121C245.418 37.2731 244.767 37.0203 243.575 36.958C242.453 36.8991 241.83 36.9891 241.487 37.1034C241.224 37.19 241.068 37.4636 241.109 37.7373H241.106Z" fill="#26282B"/>
<path fill-rule="evenodd" clip-rule="evenodd" d="M234.591 49.4232C234.591 49.4231 234.591 49.423 234.889 49.2468C235.187 49.0706 235.187 49.0705 235.187 49.0705L235.188 49.0712L235.191 49.0773C235.195 49.0832 235.2 49.0924 235.208 49.1048C235.224 49.1295 235.248 49.1665 235.28 49.2128C235.344 49.3058 235.439 49.4354 235.56 49.5793C235.806 49.8708 236.147 50.2031 236.548 50.4166C236.936 50.6232 237.298 50.6585 237.562 50.6432C237.695 50.6355 237.802 50.6151 237.874 50.5974C237.91 50.5885 237.937 50.5804 237.953 50.5751C237.961 50.5725 237.967 50.5705 237.97 50.5696C237.97 50.5696 237.969 50.5698 238.096 50.892C238.223 51.2143 238.223 51.2143 238.223 51.2144L238.222 51.2148L238.22 51.2154L238.216 51.217C238.213 51.2182 238.209 51.2196 238.204 51.2213C238.195 51.2247 238.182 51.2291 238.167 51.2341C238.136 51.2441 238.093 51.2569 238.04 51.27C237.933 51.2962 237.784 51.3243 237.602 51.3348C237.239 51.3558 236.745 51.3063 236.222 51.028C235.712 50.7566 235.305 50.3512 235.031 50.0261C234.892 49.8617 234.784 49.7134 234.709 49.6055C234.672 49.5514 234.643 49.5072 234.623 49.4759C234.613 49.4602 234.606 49.4477 234.6 49.4388L234.594 49.4281L234.592 49.4248L234.591 49.4237L234.591 49.4232ZM237.97 50.5696C237.971 50.5691 237.972 50.5688 237.972 50.5688L237.971 50.5691L237.97 50.5694L237.97 50.5696ZM235.187 49.0705C235.187 49.0704 235.187 49.0704 235.187 49.0705V49.0705Z" fill="#26282B"/>
<path fill-rule="evenodd" clip-rule="evenodd" d="M225.902 30.8517L247.582 30.8553L247.034 34.669L246.691 34.6198L247.182 31.2016L226.232 31.1982L225.665 42.6227L225.319 42.6055L225.902 30.8517Z" fill="#26282B"/>
<path d="M227.421 29.7641C227.421 29.7641 227.865 27.6687 231.792 27.641C235.72 27.6132 237.857 27.6513 237.857 27.6513L240.895 33.0857L226.51 34.9387L226.337 30.1521L227.421 29.7676V29.7641Z" fill="#66C949"/>
<path d="M220.131 34.4746C220.131 34.4746 219.562 37.9001 220.345 40.328C221.128 42.756 221.419 43.3656 221.419 43.3656C221.419 43.3656 222.808 43.5111 223.442 44.2696C224.076 45.0247 225.541 44.9069 226.133 42.1429C226.725 39.379 227.217 30.6958 227.217 30.6958L239.139 28.0669L234.525 21.6489L228.422 23.1417L220.415 30.9417L220.137 34.4746H220.131Z" fill="#26282B"/>
<path d="M229.579 55.4294C229.579 55.4086 230.66 60.4551 234.678 62.0206C238.699 63.5862 242.658 61.2898 242.658 61.2898L242.644 59.7866C241.241 60.2196 237.351 60.7252 235.003 60.0152C232.655 59.3052 230.698 57.1958 230.164 56.4131C229.908 56.039 229.576 55.4294 229.576 55.4294H229.579Z" fill="#26282B"/>
<path d="M226.05 25.3654C226.05 25.3654 222.375 22.785 219.528 27.0452C216.681 31.3089 216.618 35.9882 215.784 36.8853C214.949 37.7824 218.045 37.1485 218.09 36.8022C218.135 36.4558 217.599 39.1955 219.479 38.4889C221.36 37.7824 221.028 36.293 221.028 36.293C221.028 36.293 220.934 38.7314 222.479 38.3816C224.027 38.0317 224.581 35.8739 224.581 35.8739C224.581 35.8739 224.484 38.5928 225.967 37.959C227.013 37.5122 226.687 33.4286 226.995 30.7028C227.3 27.9769 227.955 26.6816 228.918 27.0522C229.88 27.4228 229.042 21.6178 232.908 22.4006C236.773 23.1833 237.199 31.5514 239.509 33.349C240.538 34.1491 242.678 35.3786 245.352 35.0565C246.911 34.8695 246.914 34.7448 246.914 34.7448L247.514 41.8486L250.378 35.1015C250.378 35.1015 251.372 35.4687 253.041 33.6745C253.89 32.7602 254.378 31.7557 254.652 30.9868C254.801 30.5712 254.333 30.204 253.959 30.443C253.263 30.8933 252.363 31.3955 251.781 31.4301C250.714 31.4925 250.163 30.7755 250.163 30.7755C250.163 30.7755 251.566 29.6256 251.583 28.5276C251.601 27.4297 249.716 29.5771 247.593 26.8236C245.47 24.07 240.631 18.8746 235.37 19.0651C230.106 19.2556 226.053 25.355 226.053 25.355L226.05 25.3654Z" fill="#26282B"/>
<path fill-rule="evenodd" clip-rule="evenodd" d="M229.23 27.9246L228.926 28.4009L228.64 27.9132C228.265 27.2741 227.748 26.7901 227.317 26.4636C227.103 26.3011 226.913 26.1799 226.778 26.0999C226.71 26.0599 226.657 26.0304 226.621 26.0113C226.603 26.0017 226.589 25.9948 226.581 25.9904L226.572 25.9859L226.57 25.9852C226.57 25.9852 226.57 25.9853 226.722 25.6737C226.873 25.362 226.873 25.3621 226.873 25.3621L226.874 25.3625L226.875 25.3632L226.88 25.3654L226.895 25.3729C226.907 25.3792 226.925 25.3883 226.947 25.4001C226.991 25.4237 227.054 25.4582 227.131 25.5038C227.284 25.5949 227.497 25.7307 227.735 25.9116C228.112 26.1972 228.562 26.6012 228.949 27.1268C228.976 27.092 229.004 27.0555 229.034 27.0176C229.28 26.7043 229.637 26.287 230.085 25.8731C230.969 25.0557 232.261 24.1984 233.767 24.2748C234.785 24.327 235.53 24.9037 236.099 25.6904C236.662 26.469 237.082 27.4896 237.456 28.5119C237.567 28.8184 237.675 29.1245 237.781 29.4264C238.036 30.1498 238.282 30.8496 238.559 31.4756C238.955 32.3686 239.379 33.0212 239.895 33.3378L239.532 33.9282C238.824 33.4932 238.329 32.6659 237.926 31.7564C237.637 31.1038 237.376 30.3624 237.117 29.6276C237.013 29.3317 236.91 29.037 236.805 28.7495C236.432 27.7291 236.04 26.7898 235.538 26.0965C235.042 25.4115 234.469 25.0045 233.732 24.9666M229.23 27.9246L229.231 27.9236L229.234 27.9181C229.238 27.9129 229.243 27.9047 229.25 27.8939C229.265 27.8721 229.287 27.8393 229.317 27.7972C229.376 27.7129 229.464 27.5913 229.579 27.4452C229.809 27.1524 230.142 26.7644 230.555 26.3817C231.395 25.6059 232.508 24.9046 233.732 24.9666" fill="white"/>
<path fill-rule="evenodd" clip-rule="evenodd" d="M59.2536 59.6453C58.8775 52.0247 53.1904 47.8362 50.0903 46.3339L50.3924 45.7105C53.5948 47.2624 59.556 51.6263 59.9459 59.6207L59.9464 59.6291V59.6376H59.6C59.9464 59.6376 59.9464 59.6375 59.9464 59.6376V59.6386L59.9463 59.6408L59.9463 59.6486L59.946 59.6771C59.9457 59.7019 59.9452 59.738 59.944 59.7847C59.9417 59.8779 59.9371 60.0133 59.9279 60.1846C59.9095 60.5269 59.873 61.0129 59.7999 61.5916C59.654 62.7465 59.3615 64.2812 58.7725 65.7805L58.1277 65.5272C58.6886 64.0997 58.971 62.6262 59.1126 61.5048C59.1833 60.9452 59.2186 60.4759 59.2362 60.1475C59.245 59.9833 59.2493 59.8545 59.2515 59.7674C59.2526 59.7238 59.2531 59.6907 59.2534 59.6688L59.2536 59.6453Z" fill="white"/>
<path fill-rule="evenodd" clip-rule="evenodd" d="M54.3597 86.7228V72.6849H55.0525V86.7228H54.3597Z" fill="#26282B"/>
<path fill-rule="evenodd" clip-rule="evenodd" d="M64.6247 105.959L63.9147 99.9772L64.6026 99.8955L65.3126 105.877L64.6247 105.959Z" fill="#26282B"/>
<path fill-rule="evenodd" clip-rule="evenodd" d="M65.1462 105.806L76.4652 104.039L76.5186 104.382L65.1996 106.148L65.1462 105.806Z" fill="#26282B"/>
<path d="M46.1925 95.1567C46.1925 95.1567 47.0515 95.0632 47.6091 95.9083L46.1925 95.1567Z" fill="white"/>
<path d="M46.9719 93.3902C46.9719 93.3902 47.8309 93.2966 48.3885 94.1418L46.9719 93.3902Z" fill="white"/>
<path d="M40.5123 104.862L39.0957 103.663C38.8948 103.494 38.6523 103.39 38.3926 103.362L36.3352 103.14" fill="white"/>
<path fill-rule="evenodd" clip-rule="evenodd" d="M66.9771 135.365L30.2908 135.317L30.2917 134.624L66.978 134.673L66.9771 135.365Z" fill="#26282B"/>
<path opacity="0.43" d="M250.278 110.282C250.608 110.282 250.877 110.014 250.877 109.683C250.877 109.352 250.608 109.084 250.278 109.084C249.947 109.084 249.678 109.352 249.678 109.683C249.678 110.014 249.947 110.282 250.278 110.282Z" fill="#787878"/>
<path fill-rule="evenodd" clip-rule="evenodd" d="M279.368 278.903H0.764099V277.864H279.368V278.903Z" fill="#26282B"/>
<path d="M78.2168 175.671H66.0596L64.113 155.42L68.0477 152.725L78.2168 175.671Z" fill="#66C949"/>
<path fill-rule="evenodd" clip-rule="evenodd" d="M66.2269 156.258L75.0853 180.297L74.4353 180.536L66.8417 159.929L66.4061 180.424L65.7135 180.409L66.2269 156.258Z" fill="#26282B"/>
<path d="M24.3927 271.301C24.3927 270.456 24.223 269.652 23.9217 268.918C22.0548 269.344 20.6555 271.013 20.6555 273.005C20.6555 274.255 21.2097 275.377 22.0825 276.15C23.4922 275.003 24.3927 273.258 24.3927 271.301Z" fill="#66C949"/>
<path d="M19.9628 273.008C19.9628 270.74 21.5179 268.835 23.6134 268.284C22.5501 266.358 20.4996 265.052 18.1409 265.052C16.7139 265.052 15.4012 265.537 14.3483 266.341C15.3735 267.238 16.0247 268.551 16.0247 270.016C16.0247 272.115 14.6947 273.902 12.8347 274.595C13.9361 276.368 15.8965 277.549 18.1375 277.549C19.3774 277.549 20.5273 277.185 21.5006 276.562C20.5516 275.668 19.9559 274.408 19.9559 273.005L19.9628 273.008Z" fill="#66C949"/>
<path d="M11.8926 271.301C11.8926 272.26 12.1143 273.168 12.5022 273.982C14.1474 273.414 15.332 271.852 15.332 270.019C15.332 268.724 14.7432 267.567 13.8184 266.795C12.6338 267.931 11.8892 269.531 11.8892 271.301H11.8926Z" fill="#66C949"/>
<path d="M161.101 271.301C161.101 270.456 160.931 269.652 160.63 268.918C158.763 269.344 157.363 271.013 157.363 273.005C157.363 274.255 157.918 275.377 158.79 276.15C160.2 275.003 161.101 273.258 161.101 271.301Z" fill="#66C949"/>
<path d="M156.671 273.008C156.671 270.74 158.226 268.835 160.322 268.284C159.258 266.358 157.208 265.053 154.849 265.053C153.422 265.053 152.109 265.537 151.056 266.341C152.082 267.238 152.733 268.551 152.733 270.016C152.733 272.115 151.403 273.902 149.543 274.595C150.644 276.368 152.605 277.549 154.846 277.549C156.086 277.549 157.235 277.186 158.209 276.562C157.26 275.668 156.664 274.408 156.664 273.005L156.671 273.008Z" fill="#66C949"/>
<path d="M148.604 271.301C148.604 272.26 148.826 273.168 149.214 273.982C150.859 273.414 152.043 271.852 152.043 270.019C152.043 268.724 151.454 267.567 150.53 266.795C149.345 267.931 148.6 269.531 148.6 271.301H148.604Z" fill="#66C949"/>
<path d="M138.757 266.885C138.161 266.289 137.472 265.839 136.738 265.534C135.72 267.155 135.91 269.323 137.32 270.733C138.206 271.62 139.391 272.022 140.551 271.949C140.738 270.141 140.139 268.27 138.757 266.885Z" fill="#66C949"/>
<path d="M136.831 271.221C135.228 269.618 134.978 267.169 136.073 265.298C133.957 264.689 131.584 265.215 129.918 266.881C128.91 267.889 128.325 269.16 128.148 270.473C129.506 270.383 130.895 270.851 131.93 271.886C133.413 273.369 133.738 275.575 132.914 277.379C134.947 277.854 137.171 277.303 138.754 275.72C139.63 274.844 140.188 273.77 140.433 272.645C139.131 272.683 137.818 272.212 136.828 271.221H136.831Z" fill="#66C949"/>
<path d="M129.918 275.72C130.597 276.399 131.397 276.884 132.245 277.182C133.007 275.617 132.741 273.673 131.445 272.378C130.531 271.464 129.294 271.062 128.096 271.169C128.061 272.811 128.667 274.467 129.921 275.72H129.918Z" fill="#66C949"/>
<path d="M267.841 265.236C266.996 265.236 266.193 265.406 265.458 265.707C265.884 267.574 267.554 268.973 269.545 268.973C270.796 268.973 271.918 268.419 272.69 267.546C271.544 266.137 269.798 265.236 267.841 265.236Z" fill="#66C949"/>
<path d="M269.549 269.666C267.28 269.666 265.375 268.111 264.825 266.016C262.899 267.079 261.593 269.129 261.593 271.488C261.593 272.915 262.078 274.228 262.881 275.281C263.779 274.255 265.091 273.604 266.556 273.604C268.655 273.604 270.442 274.934 271.135 276.794C272.909 275.693 274.09 273.732 274.09 271.491C274.09 270.251 273.726 269.102 273.103 268.128C272.209 269.077 270.948 269.673 269.545 269.673L269.549 269.666Z" fill="#66C949"/>
<path d="M267.841 277.736C268.801 277.736 269.708 277.515 270.522 277.127C269.954 275.482 268.392 274.297 266.56 274.297C265.264 274.297 264.107 274.886 263.335 275.811C264.471 276.995 266.071 277.74 267.841 277.74V277.736Z" fill="#66C949"/>
<path d="M209.954 101.81L206.065 121.265L214.706 142.608L211.783 145.68L208.423 149.209L192.318 124.833C191.306 123.305 190.957 121.435 191.344 119.644L196.245 97.0063" fill="white"/>
<path fill-rule="evenodd" clip-rule="evenodd" d="M196.584 97.0795L191.683 119.717C191.315 121.417 191.647 123.192 192.607 124.641L208.473 148.655L211.532 145.441L214.302 142.531L205.705 121.299L209.615 101.742L210.294 101.878L206.425 121.231L215.111 142.685L212.034 145.919L208.374 149.763L192.029 125.024C190.966 123.418 190.598 121.453 191.006 119.571C191.006 119.571 191.006 119.571 191.006 119.571L195.907 96.9329L196.584 97.0795Z" fill="#26282B"/>
<path d="M250.045 107.588L243.108 122.897C243.001 123.136 243.174 123.402 243.433 123.402H253.242C253.381 123.402 253.509 123.323 253.568 123.194L260.71 107.885C260.821 107.646 260.648 107.376 260.384 107.376H250.371C250.229 107.376 250.101 107.459 250.045 107.588Z" fill="#E9E8E8"/>
<path d="M248.691 112.904C248.691 112.904 253.131 115.533 257.052 116.049L248.691 112.904Z" fill="white"/>
<path fill-rule="evenodd" clip-rule="evenodd" d="M248.515 113.202C248.515 113.202 248.515 113.202 248.691 112.904C248.868 112.606 248.868 112.606 248.868 112.606L248.87 112.608L248.879 112.613C248.887 112.618 248.899 112.625 248.915 112.634C248.948 112.653 248.996 112.681 249.06 112.717C249.187 112.788 249.373 112.892 249.609 113.017C250.081 113.269 250.752 113.61 251.544 113.967C253.133 114.684 255.187 115.454 257.097 115.706L257.007 116.393C254.997 116.128 252.87 115.326 251.259 114.599C250.451 114.234 249.766 113.886 249.283 113.629C249.042 113.5 248.851 113.394 248.719 113.32C248.654 113.283 248.603 113.254 248.568 113.234C248.551 113.224 248.538 113.216 248.529 113.211L248.519 113.205L248.515 113.202Z" fill="#26282B"/>
<path d="M257.08 117.715C256.976 117.719 256.869 117.715 256.765 117.698C252.591 117.036 248.095 114.234 247.905 114.116C247.178 113.659 246.956 112.696 247.413 111.969C247.87 111.242 248.833 111.02 249.56 111.477C249.606 111.505 253.717 114.061 257.25 114.619C258.102 114.754 258.68 115.55 258.545 116.402C258.427 117.147 257.804 117.684 257.08 117.715Z" fill="white"/>
<path fill-rule="evenodd" clip-rule="evenodd" d="M249.376 111.77C248.811 111.415 248.062 111.587 247.706 112.153C247.352 112.718 247.523 113.466 248.088 113.823C248.09 113.823 248.091 113.824 248.093 113.825C248.356 113.988 252.757 116.712 256.819 117.356L256.822 117.356L256.822 117.356C256.895 117.368 256.978 117.372 257.067 117.369C257.627 117.344 258.111 116.927 258.203 116.348L258.203 116.348C258.308 115.685 257.859 115.066 257.196 114.961M249.744 111.183C248.854 110.625 247.678 110.896 247.12 111.785C246.56 112.675 246.832 113.851 247.721 114.41L247.721 114.41L247.723 114.411C247.725 114.412 247.727 114.414 247.73 114.416C248.006 114.587 252.504 117.373 256.709 118.04C256.842 118.062 256.973 118.065 257.091 118.061V118.061L257.095 118.061C257.981 118.023 258.743 117.366 258.887 116.457C259.052 115.416 258.345 114.442 257.304 114.277L257.304 114.277C255.588 114.006 253.713 113.245 252.248 112.537C250.812 111.844 249.795 111.215 249.744 111.183M249.38 111.773L249.379 111.772L249.376 111.77L249.376 111.77M249.38 111.773L249.384 111.775L249.38 111.773ZM249.384 111.775L249.395 111.782L249.384 111.775ZM249.395 111.782C249.405 111.788 249.418 111.796 249.435 111.807L249.395 111.782ZM249.435 111.807C249.47 111.828 249.519 111.857 249.582 111.895L249.435 111.807ZM249.582 111.895C249.707 111.97 249.888 112.075 250.114 112.203L249.582 111.895ZM250.114 112.203C250.566 112.458 251.201 112.801 251.947 113.161L250.114 112.203ZM251.947 113.161C253.431 113.878 255.379 114.674 257.195 114.961L251.947 113.161Z" fill="#26282B"/>
<path d="M251.909 110.999C251.909 110.999 256.349 113.628 260.27 114.144L251.909 110.999Z" fill="white"/>
<path fill-rule="evenodd" clip-rule="evenodd" d="M251.733 111.297C251.733 111.297 251.733 111.297 251.909 110.999C252.085 110.701 252.085 110.701 252.085 110.701L252.088 110.702L252.097 110.708C252.105 110.712 252.117 110.72 252.133 110.729C252.166 110.748 252.214 110.776 252.278 110.811C252.405 110.883 252.591 110.986 252.827 111.112C253.299 111.364 253.97 111.705 254.762 112.062C256.351 112.779 258.405 113.549 260.315 113.801L260.225 114.487C258.215 114.223 256.088 113.42 254.477 112.694C253.668 112.329 252.984 111.981 252.501 111.724C252.26 111.595 252.068 111.489 251.937 111.415C251.871 111.378 251.821 111.348 251.786 111.328C251.769 111.318 251.756 111.311 251.747 111.305L251.736 111.299L251.733 111.297Z" fill="#26282B"/>
<path d="M260.381 115.696C260.277 115.703 260.17 115.699 260.062 115.685C255.871 115.135 251.303 112.45 251.112 112.336C250.371 111.896 250.125 110.94 250.565 110.202C251.005 109.461 251.957 109.219 252.699 109.655C252.744 109.683 256.921 112.128 260.467 112.596C261.319 112.707 261.922 113.489 261.811 114.345C261.714 115.09 261.101 115.644 260.381 115.696Z" fill="white"/>
<path fill-rule="evenodd" clip-rule="evenodd" d="M252.523 109.954C251.946 109.614 251.205 109.803 250.863 110.379L250.863 110.38C250.522 110.952 250.711 111.695 251.289 112.038L251.291 112.039L251.291 112.039C251.481 112.153 255.995 114.801 260.107 115.342C260.192 115.353 260.277 115.355 260.357 115.35C260.917 115.309 261.393 114.878 261.468 114.3C261.554 113.634 261.085 113.025 260.423 112.939L260.422 112.939C258.598 112.699 256.631 111.954 255.128 111.276C253.665 110.617 252.616 110.009 252.523 109.954L252.523 109.954ZM250.267 110.025C250.805 109.12 251.969 108.824 252.874 109.357L252.877 109.358L252.88 109.36C252.88 109.36 252.881 109.36 252.882 109.361C252.892 109.367 252.955 109.404 253.069 109.468C253.193 109.537 253.371 109.636 253.595 109.755C254.043 109.992 254.674 110.312 255.412 110.645C256.896 111.314 258.79 112.025 260.513 112.252L260.467 112.596L260.512 112.252C261.554 112.388 262.29 113.345 262.155 114.389L262.155 114.39C262.036 115.301 261.287 115.978 260.406 116.041L260.404 116.041C260.277 116.05 260.147 116.045 260.018 116.029L260.017 116.029C255.753 115.468 251.135 112.754 250.935 112.633C250.031 112.096 249.729 110.929 250.267 110.025Z" fill="#26282B"/>
<path d="M246.239 118.013C246.239 118.013 250.499 120.922 254.378 121.691L246.239 118.013Z" fill="white"/>
<path fill-rule="evenodd" clip-rule="evenodd" d="M246.044 118.299C246.044 118.299 246.044 118.299 246.239 118.013C246.434 117.727 246.434 117.727 246.434 117.727L246.437 117.729L246.445 117.734C246.453 117.74 246.465 117.747 246.48 117.758C246.511 117.779 246.558 117.81 246.619 117.849C246.741 117.929 246.92 118.044 247.147 118.185C247.602 118.467 248.249 118.85 249.016 119.258C250.556 120.076 252.555 120.977 254.446 121.352L254.311 122.031C252.322 121.637 250.252 120.699 248.691 119.87C247.908 119.454 247.248 119.062 246.783 118.774C246.55 118.63 246.366 118.512 246.24 118.429C246.177 118.388 246.128 118.356 246.095 118.334C246.079 118.323 246.066 118.314 246.057 118.308L246.047 118.302L246.044 118.299Z" fill="#26282B"/>
<path d="M254.382 123.25C254.281 123.25 254.181 123.239 254.077 123.219C249.931 122.398 245.546 119.426 245.363 119.298C244.653 118.813 244.469 117.843 244.954 117.133C245.439 116.423 246.409 116.24 247.119 116.724C247.167 116.759 251.801 119.745 255.31 120.441C256.155 120.607 256.075 121.147 255.909 121.993C255.764 122.734 255.113 123.25 254.382 123.25Z" fill="white"/>
<path fill-rule="evenodd" clip-rule="evenodd" d="M246.923 117.01C246.372 116.634 245.617 116.776 245.24 117.329C244.863 117.88 245.006 118.635 245.558 119.012L245.561 119.014L245.561 119.014C245.643 119.071 246.773 119.838 248.395 120.692C250.021 121.547 252.119 122.478 254.144 122.879L254.145 122.879C254.228 122.896 254.306 122.904 254.382 122.904C254.95 122.904 255.456 122.502 255.569 121.926L255.569 121.926C255.611 121.713 255.644 121.536 255.66 121.382C255.676 121.227 255.671 121.12 255.653 121.046C255.637 120.98 255.61 120.94 255.567 120.905C255.517 120.864 255.422 120.816 255.243 120.781L255.243 120.781C253.438 120.422 251.366 119.482 249.756 118.642C248.189 117.823 247.025 117.078 246.923 117.01L246.923 117.01ZM244.668 116.938C245.261 116.07 246.446 115.845 247.314 116.438L247.317 116.44L247.32 116.443C247.32 116.443 247.321 116.443 247.323 116.445C247.355 116.465 247.636 116.646 248.103 116.924C248.595 117.217 249.283 117.612 250.077 118.028C251.674 118.862 253.674 119.763 255.377 120.101L255.31 120.441L255.377 120.101C255.621 120.149 255.833 120.23 256 120.364C256.174 120.504 256.276 120.682 256.325 120.879C256.371 121.066 256.369 121.263 256.349 121.452C256.33 121.642 256.29 121.85 256.249 122.059C256.071 122.966 255.275 123.596 254.382 123.596C254.257 123.596 254.134 123.583 254.009 123.558C251.889 123.138 249.722 122.173 248.073 121.305C246.428 120.44 245.277 119.66 245.166 119.583C244.299 118.99 244.075 117.806 244.668 116.938Z" fill="#26282B"/>
<path d="M246.772 115.387C246.772 115.387 251.053 118.262 254.939 119L246.772 115.387Z" fill="white"/>
<path fill-rule="evenodd" clip-rule="evenodd" d="M246.579 115.675C246.579 115.675 246.579 115.675 246.772 115.387C246.965 115.1 246.965 115.1 246.965 115.1L246.968 115.102L246.976 115.107C246.984 115.112 246.996 115.12 247.012 115.13C247.043 115.151 247.09 115.182 247.151 115.221C247.274 115.3 247.454 115.413 247.682 115.552C248.139 115.83 248.789 116.209 249.559 116.61C251.104 117.415 253.11 118.3 255.004 118.66L254.875 119.34C252.882 118.962 250.805 118.041 249.238 117.224C248.452 116.814 247.789 116.428 247.322 116.144C247.088 116.002 246.903 115.885 246.777 115.804C246.713 115.763 246.664 115.731 246.631 115.709C246.614 115.698 246.602 115.69 246.593 115.684L246.583 115.678L246.579 115.675Z" fill="#26282B"/>
<path d="M254.943 120.562C254.846 120.562 254.749 120.552 254.652 120.534C250.499 119.748 246.09 116.807 245.906 116.683C245.193 116.205 245.002 115.235 245.48 114.522C245.958 113.808 246.928 113.618 247.642 114.095C247.683 114.123 252.179 116.87 255.698 117.535C256.543 117.694 256.633 118.446 256.474 119.291C256.332 120.039 255.677 120.559 254.943 120.559V120.562Z" fill="white"/>
<path fill-rule="evenodd" clip-rule="evenodd" d="M247.449 114.383C246.894 114.011 246.139 114.16 245.768 114.714C245.396 115.269 245.545 116.024 246.099 116.395L246.101 116.396L246.101 116.396C246.285 116.521 250.64 119.422 254.715 120.194C254.764 120.202 254.811 120.209 254.857 120.212H254.943C255.514 120.212 256.023 119.807 256.134 119.226C256.21 118.822 256.213 118.495 256.135 118.269C256.098 118.162 256.045 118.082 255.974 118.022C255.902 117.961 255.797 117.906 255.634 117.875L255.634 117.875C253.827 117.534 251.789 116.664 250.213 115.887C248.635 115.109 247.486 114.408 247.45 114.384L247.449 114.383ZM255.289 120.873C256.039 120.734 256.663 120.151 256.814 119.355L256.814 119.355C256.897 118.915 256.928 118.443 256.79 118.043C256.719 117.836 256.601 117.646 256.422 117.494C256.244 117.342 256.022 117.243 255.762 117.195C254.05 116.871 252.081 116.035 250.519 115.265C249.741 114.882 249.071 114.519 248.593 114.249C248.141 113.995 247.869 113.828 247.837 113.809C247.835 113.808 247.834 113.807 247.834 113.807C246.962 113.224 245.777 113.456 245.193 114.329C244.609 115.2 244.841 116.385 245.713 116.97C245.909 117.103 250.364 120.075 254.588 120.875L254.588 120.875L254.591 120.875C254.704 120.895 254.821 120.908 254.943 120.908H255.289V120.873Z" fill="#26282B"/>
<path d="M258.095 112.904L253.346 122.322L254.617 122.872L257.974 121.955L260.374 120.289L264.018 114.477L259.709 111.609L258.095 112.904Z" fill="white"/>
<path fill-rule="evenodd" clip-rule="evenodd" d="M224.488 60.1017V48.8H225.18V60.1017H224.488Z" fill="#26282B"/>
<path fill-rule="evenodd" clip-rule="evenodd" d="M209.75 274.64H179.153V273.947H209.75V274.64Z" fill="#26282B"/>
<path fill-rule="evenodd" clip-rule="evenodd" d="M110.103 273.909H82.8719V273.216H110.103V273.909Z" fill="#26282B"/>
<path fill-rule="evenodd" clip-rule="evenodd" d="M250.877 274.64H233.618V273.947H250.877V274.64Z" fill="#26282B"/>
<path fill-rule="evenodd" clip-rule="evenodd" d="M51.9247 274.64H35.244V273.947H51.9247V274.64Z" fill="#26282B"/>
<path d="M207.468 147.672L208.174 149.504L209.213 152.704L211.336 157.082L220.491 150.051L223.743 153.757C224.301 154.395 225.284 154.415 225.87 153.802C226.361 153.286 226.406 152.49 225.973 151.925L223.009 148.06L220.976 145.275L214.353 141.742" fill="white"/>
<path fill-rule="evenodd" clip-rule="evenodd" d="M212.911 156.365L208.944 159.711L208.497 159.181L212.465 155.836L212.911 156.365Z" fill="#26282B"/>
<path fill-rule="evenodd" clip-rule="evenodd" d="M259.449 160.12L250.877 150.394L251.396 149.936L259.969 159.662L259.449 160.12Z" fill="#26282B"/>
<path fill-rule="evenodd" clip-rule="evenodd" d="M48.9876 246.017H36.491V245.324H48.9876V246.017Z" fill="#26282B"/>
<path fill-rule="evenodd" clip-rule="evenodd" d="M36.7854 248.095H49.3894V248.788H36.7854V248.095Z" fill="#26282B"/>
<path fill-rule="evenodd" clip-rule="evenodd" d="M90.2943 243.578H75.9862V242.886H90.2943V243.578Z" fill="#26282B"/>
<path fill-rule="evenodd" clip-rule="evenodd" d="M91.1567 246.671H76.9214V245.979H91.1567V246.671Z" fill="#26282B"/>
<path fill-rule="evenodd" clip-rule="evenodd" d="M211.764 258.87L199.121 258.281L199.154 257.589L211.796 258.178L211.764 258.87Z" fill="#26282B"/>
<path fill-rule="evenodd" clip-rule="evenodd" d="M248.656 258.87H234.941V258.177H248.656V258.87Z" fill="#26282B"/>
<path fill-rule="evenodd" clip-rule="evenodd" d="M220.816 145.637L214.13 142.036L214.458 141.427L221.28 145.1L226.712 152.394C227.201 153.051 227.11 153.973 226.5 154.522C225.865 155.094 224.89 155.06 224.296 154.445L220.495 150.508L211.229 157.676L208.953 153.124L207.041 147.735L207.693 147.504L209.591 152.852L211.472 156.613L220.562 149.58L224.794 153.963C225.129 154.31 225.679 154.33 226.037 154.007C226.38 153.698 226.432 153.178 226.156 152.807L220.816 145.637Z" fill="#26282B"/>
<path fill-rule="evenodd" clip-rule="evenodd" d="M71.0749 91.071C69.398 88.093 66.1263 86.38 62.7236 86.6983L44.4698 88.4055L44.4053 87.7158L62.6591 86.0086C66.3341 85.6649 69.8674 87.5149 71.6785 90.7311L75.3867 97.3163L79.0948 103.902L65.4024 106.359L66.2579 131.17L65.5656 131.194L64.6894 105.783L78.0129 103.392L71.0749 91.071Z" fill="#26282B"/>
<path d="M74.026 116.995L57.5047 100.131L53.3034 91.5062C53.151 91.1979 52.8877 90.9555 52.5656 90.8342L45.0081 87.9698L45.1397 90.0965L47.8343 91.4681L47.7478 91.5477L47.3148 91.804C47.0481 91.9599 46.8853 92.2474 46.8819 92.5556L46.7987 93.2761L45.1362 96.5561L54.3009 105.489C54.3009 105.489 62.0212 122.956 67.0296 128.279" fill="white"/>
<path d="M31.3408 131.362C33.2492 124.085 30.0766 109.638 30.0766 109.638L20.6141 108.003C20.6141 108.003 16.8284 123.503 18.5082 130.004C20.1881 136.505 25.6536 141.028 29.3492 136.848" fill="white"/>
<path fill-rule="evenodd" clip-rule="evenodd" d="M46.2271 95.5013C46.0381 95.5202 45.8688 95.3833 45.8483 95.1941C45.8276 95.0039 45.9649 94.833 46.1551 94.8123L46.1926 95.1566C46.1551 94.8123 46.1553 94.8123 46.1555 94.8123L46.1558 94.8122L46.1567 94.8121L46.1586 94.8119L46.1633 94.8115C46.1669 94.8111 46.1714 94.8108 46.1766 94.8104C46.1872 94.8096 46.201 94.8087 46.2178 94.8081C46.2514 94.8069 46.2972 94.8065 46.3527 94.8093C46.4634 94.8148 46.6154 94.8329 46.788 94.8828C47.1374 94.9838 47.5666 95.2148 47.8983 95.7175C48.0036 95.8771 47.9596 96.092 47.7999 96.1973C47.6403 96.3027 47.4254 96.2586 47.3201 96.099C47.0941 95.7565 46.815 95.6117 46.5955 95.5482C46.4837 95.5159 46.3861 95.5045 46.3183 95.5011C46.2846 95.4995 46.2589 95.4998 46.2433 95.5004C46.2356 95.5007 46.2304 95.501 46.2281 95.5012M46.2271 95.5013C46.2271 95.5013 46.2271 95.5013 46.2271 95.5013L46.2271 95.5013Z" fill="#26282B"/>
<path fill-rule="evenodd" clip-rule="evenodd" d="M47.0064 93.7348C46.8174 93.7538 46.6481 93.6168 46.6276 93.4277C46.6068 93.2375 46.7442 93.0665 46.9344 93.0458L46.9719 93.3902C46.9344 93.0458 46.9346 93.0458 46.9348 93.0458L46.9351 93.0458L46.936 93.0457L46.9379 93.0455L46.9426 93.045C46.9462 93.0447 46.9507 93.0443 46.9559 93.0439C46.9665 93.0431 46.9803 93.0423 46.9971 93.0417C47.0307 93.0404 47.0765 93.0401 47.132 93.0428C47.2427 93.0483 47.3947 93.0664 47.5673 93.1163C47.9167 93.2174 48.3459 93.4483 48.6776 93.951C48.7829 94.1107 48.7389 94.3255 48.5792 94.4309C48.4196 94.5362 48.2047 94.4922 48.0994 94.3325C47.8734 93.9901 47.5943 93.8453 47.3748 93.7818C47.263 93.7494 47.1654 93.7381 47.0976 93.7347C47.0639 93.733 47.0382 93.7334 47.0226 93.7339C47.0149 93.7342 47.0097 93.7346 47.0074 93.7347M47.0064 93.7348C47.0064 93.7348 47.0064 93.7348 47.0064 93.7348L47.0064 93.7348Z" fill="#26282B"/>
<path fill-rule="evenodd" clip-rule="evenodd" d="M46.6566 90.881C46.7359 90.7069 46.9413 90.6301 47.1154 90.7094L48.9857 91.5615C49.1598 91.6408 49.2366 91.8462 49.1573 92.0202C49.078 92.1943 48.8726 92.2711 48.6986 92.1918L46.8282 91.3398C46.6541 91.2605 46.5773 91.0551 46.6566 90.881Z" fill="#26282B"/>
<path fill-rule="evenodd" clip-rule="evenodd" d="M44.6292 87.4557L52.6875 90.5099C52.6876 90.5099 52.6878 90.51 52.6879 90.51C53.0941 90.663 53.4235 90.9676 53.6138 91.3525L53.6147 91.3543L57.7914 99.9281L74.2733 116.752L73.7785 117.237L57.2179 100.333L52.9928 91.6595C52.9927 91.6592 52.9925 91.659 52.9924 91.6587C52.8779 91.4276 52.6811 91.2476 52.4435 91.1582L52.4428 91.1579L45.3868 88.4837L45.4731 89.8774L48.4356 91.3853L47.9554 91.8271L47.4895 92.1029C47.3306 92.1958 47.2303 92.3696 47.2281 92.5593L47.2279 92.5773L47.1356 93.3772L45.5601 96.4855L54.5905 105.287L54.6176 105.348L54.3008 105.488C54.6176 105.348 54.6175 105.348 54.6176 105.348L54.6396 105.398C54.6543 105.431 54.6761 105.48 54.7049 105.545C54.7625 105.673 54.8476 105.863 54.9578 106.107C55.1783 106.594 55.4989 107.295 55.8993 108.155C56.7002 109.873 57.82 112.219 59.0958 114.731C60.3719 117.243 61.8025 119.917 63.2249 122.294C64.6505 124.676 66.0564 126.739 67.2817 128.042L66.7772 128.516C65.4983 127.157 64.0611 125.04 62.6305 122.65C61.1968 120.254 59.7582 117.564 58.4782 115.044C57.1979 112.524 56.0746 110.17 55.2714 108.447C54.8698 107.586 54.5481 106.881 54.3268 106.392C54.2161 106.148 54.1305 105.957 54.0725 105.827C54.0464 105.769 54.0259 105.723 54.0113 105.69L44.7121 96.6263L46.4617 93.1746L46.5358 92.5321C46.5471 92.113 46.7708 91.721 47.139 91.5054L47.1415 91.5039L44.8061 90.3152L44.6292 87.4557Z" fill="#26282B"/>
<path fill-rule="evenodd" clip-rule="evenodd" d="M20.3542 107.607L30.3648 109.336L30.4147 109.564L30.0764 109.638C30.4147 109.564 30.4147 109.563 30.4147 109.564L30.4171 109.575L30.424 109.607C30.4301 109.635 30.439 109.676 30.4504 109.73C30.4734 109.839 30.5067 109.998 30.5485 110.204C30.6319 110.615 30.7488 111.21 30.8831 111.947C31.1515 113.42 31.4896 115.46 31.768 117.729C32.3224 122.249 32.6485 127.74 31.6757 131.449L31.0056 131.274C31.9412 127.706 31.6352 122.336 31.0804 117.813C30.8041 115.561 30.4683 113.534 30.2016 112.071C30.0682 111.339 29.9522 110.749 29.8696 110.342C29.836 110.176 29.808 110.041 29.7866 109.939L20.8755 108.4C20.8524 108.498 20.8244 108.619 20.7921 108.759C20.6922 109.194 20.5514 109.823 20.3875 110.598C20.0597 112.149 19.6402 114.283 19.2732 116.619C18.906 118.956 18.5922 121.49 18.4743 123.841C18.3561 126.198 18.4368 128.344 18.8434 129.917C19.6682 133.109 21.4165 135.785 23.3707 137.147C24.3448 137.826 25.3514 138.167 26.3119 138.111C27.2651 138.055 28.2174 137.605 29.0896 136.618L29.6086 137.077C28.6329 138.181 27.5162 138.734 26.3526 138.802C25.1965 138.87 24.0387 138.457 22.9746 137.716C20.8521 136.236 19.0277 133.4 18.1727 130.09C17.7393 128.413 17.6633 126.183 17.7825 123.806C17.902 121.422 18.2196 118.862 18.5889 116.512C18.9583 114.16 19.3802 112.014 19.7098 110.455C19.8746 109.675 20.0163 109.043 20.1169 108.604C20.1673 108.385 20.2073 108.215 20.2348 108.099C20.2485 108.041 20.2592 107.997 20.2664 107.967L20.2746 107.933L20.2774 107.921C20.2774 107.921 20.2774 107.921 20.6139 108.003L20.2774 107.921L20.3542 107.607Z" fill="#26282B"/>
<path d="M34.3853 85.7703L34.7801 102.971C34.7905 103.435 35.1646 103.805 35.6287 103.816L46.442 103.989C46.9477 103.996 47.3495 103.573 47.3183 103.071L46.1961 85.8223C46.1684 85.372 45.7978 85.0222 45.344 85.0153L35.2615 84.8906C34.7732 84.8837 34.3783 85.2854 34.3887 85.7738L34.3853 85.7703Z" fill="#E9E8E8"/>
<path opacity="0.43" d="M37.2807 88.0529C37.6116 88.0529 37.8799 87.7846 37.8799 87.4537C37.8799 87.1228 37.6116 86.8545 37.2807 86.8545C36.9498 86.8545 36.6815 87.1228 36.6815 87.4537C36.6815 87.7846 36.9498 88.0529 37.2807 88.0529Z" fill="#787878"/>
<path d="M21.5906 124.608C22.5985 121.927 24.7736 115.474 25.6568 113.749C27.69 109.77 32.0679 98.6272 32.0679 98.6272L32.248 96.1438C32.3277 95.0216 32.9892 94.0275 33.9902 93.5149L35.8606 92.5624C36.4182 92.2784 37.0901 92.6109 37.201 93.2274C37.2564 93.5253 37.1629 93.8266 36.9516 94.0449L35.4138 95.1393C35.0328 95.4095 34.8423 95.8736 34.9219 96.3343L35.2475 98.1873L43.5463 96.9958C44.045 96.9231 44.4953 97.311 44.4953 97.8167C44.4953 98.17 44.2702 98.4852 43.9376 98.5995L36.6052 100.653C36.5048 100.681 36.5186 100.83 36.6225 100.837L39.286 101.052C40.0446 101.114 40.7442 101.474 41.2326 102.056L42.14 103.144C42.431 103.49 42.4933 103.975 42.3063 104.384C42.0465 104.948 41.3884 105.211 40.81 104.979L40.5156 104.862L39.9788 106.538C39.8679 106.881 39.5458 107.11 39.1856 107.099L38.8912 107.092C38.5206 107.082 38.2712 106.59 38.195 106.226L38.2608 105.921L36.7784 105.766L33.3495 111.411C33.3495 111.411 32.8403 133.409 28.9923 137.198" fill="white"/>
<path fill-rule="evenodd" clip-rule="evenodd" d="M35.9908 103.103C36.0113 102.913 36.1821 102.775 36.3723 102.796L38.4293 103.018C38.4292 103.018 38.4293 103.018 38.4293 103.018C38.7583 103.053 39.0658 103.185 39.3192 103.399L40.7359 104.597C40.882 104.721 40.9002 104.939 40.7767 105.085C40.6531 105.231 40.4346 105.25 40.2885 105.126L38.8721 103.928C38.8721 103.928 38.8721 103.928 38.8721 103.928C38.7238 103.803 38.5462 103.727 38.3558 103.706L36.2981 103.485C36.1079 103.464 35.9703 103.293 35.9908 103.103Z" fill="#26282B"/>
<path fill-rule="evenodd" clip-rule="evenodd" d="M36.8602 93.2887C36.7905 92.9014 36.369 92.6922 36.0179 92.8711L34.1482 93.8232C34.1482 93.8233 34.1482 93.8232 34.1482 93.8232C33.2544 94.281 32.6646 95.1679 32.5936 96.1683L32.5936 96.1689L32.4097 98.7048L32.3904 98.7539L32.068 98.6272C32.3904 98.7539 32.3904 98.7538 32.3904 98.7539L32.3406 98.8803C32.308 98.9631 32.2599 99.0848 32.198 99.2412C32.0742 99.554 31.8951 100.005 31.6738 100.559C31.2314 101.666 30.6201 103.185 29.9453 104.827C28.5978 108.108 26.9896 111.902 25.9654 113.907C25.5363 114.745 24.78 116.764 23.9964 118.937C23.7004 119.758 23.4013 120.599 23.1165 121.399C22.6531 122.702 22.2276 123.898 21.9149 124.729L21.2665 124.486C21.5774 123.659 21.9989 122.474 22.4602 121.177C22.7454 120.376 23.0458 119.532 23.3447 118.702C24.1214 116.548 24.8944 114.479 25.3486 113.592C26.3574 111.617 27.9548 107.85 29.3045 104.564C29.9783 102.924 30.5887 101.408 31.0306 100.302C31.2515 99.7489 31.4303 99.2984 31.5539 98.9863C31.6157 98.8302 31.6636 98.7087 31.6962 98.6262L31.7264 98.5495L31.9027 96.1193C31.9027 96.1191 31.9027 96.119 31.9027 96.1188C31.9911 94.8751 32.7245 93.7741 33.8325 93.2067L35.7035 92.2538C36.4672 91.8648 37.3891 92.3201 37.5418 93.1651C37.6178 93.5753 37.4879 93.989 37.2005 94.2858L37.1784 94.3086L35.6142 95.4219C35.3427 95.6144 35.2064 95.9452 35.2633 96.2749C35.2633 96.275 35.2633 96.2752 35.2633 96.2753L35.5307 97.7968L43.4964 96.6531C43.4965 96.6531 43.4966 96.6531 43.4968 96.6531C44.204 96.5501 44.8417 97.0996 44.8417 97.8167C44.8417 98.3176 44.523 98.7646 44.0503 98.927L44.0408 98.9303L38.0607 100.605L39.3145 100.707C40.1646 100.776 40.9498 101.18 41.498 101.833L41.4986 101.834L42.4054 102.921C42.4055 102.921 42.4056 102.921 42.4057 102.921C42.7834 103.371 42.8633 103.999 42.6213 104.528L42.6211 104.528C42.2919 105.244 41.4697 105.586 40.7325 105.32L40.3087 106.644L40.3084 106.645C40.1506 107.133 39.6912 107.46 39.1766 107.445C39.1763 107.445 39.176 107.445 39.1757 107.445L38.8832 107.438L38.8816 107.438C38.5352 107.429 38.293 107.197 38.1486 106.99C37.999 106.775 37.9019 106.516 37.8561 106.297L37.8411 106.226L36.9606 106.133L33.6935 111.512C33.6924 111.552 33.691 111.605 33.6891 111.669C33.6844 111.832 33.6771 112.071 33.6663 112.376C33.6448 112.987 33.6098 113.862 33.5558 114.925C33.4478 117.05 33.2635 119.925 32.9586 122.919C32.6538 125.911 32.2277 129.032 31.6343 131.647C31.3377 132.954 30.9975 134.143 30.6064 135.129C30.2179 136.11 29.7675 136.921 29.2354 137.445L28.7494 136.951C29.1793 136.528 29.5866 135.822 29.9624 134.874C30.3357 133.933 30.6666 132.781 30.9588 131.493C31.5432 128.918 31.9659 125.829 32.2694 122.848C32.5728 119.87 32.7563 117.008 32.864 114.89C32.9178 113.831 32.9526 112.959 32.974 112.352C32.9847 112.048 32.992 111.811 32.9967 111.649C32.999 111.569 33.0007 111.507 33.0017 111.466L33.0033 111.404L33.0033 111.403C33.0033 111.403 33.0033 111.403 33.3496 111.411L33.0033 111.403L33.0054 111.311L36.5964 105.398L38.6809 105.617L38.5503 106.223C38.5849 106.351 38.6434 106.488 38.717 106.594C38.8086 106.725 38.8761 106.745 38.9006 106.746C38.9008 106.746 38.9009 106.746 38.901 106.746L39.1939 106.753L39.1957 106.753C39.4011 106.759 39.5853 106.629 39.6492 106.432C39.6492 106.432 39.6492 106.432 39.6492 106.432L40.2992 104.402L40.9391 104.658C41.3458 104.821 41.8087 104.636 41.9916 104.239C42.1235 103.951 42.0787 103.609 41.8749 103.366L41.8742 103.366L40.9674 102.279C40.9673 102.279 40.9674 102.279 40.9674 102.279C40.5389 101.768 39.9247 101.452 39.2579 101.397C39.2579 101.397 39.258 101.397 39.2579 101.397L36.5967 101.182C36.085 101.146 36.0585 100.446 36.5124 100.32C36.5127 100.32 36.513 100.32 36.5132 100.32L43.8333 98.269C44.0213 98.2006 44.149 98.0195 44.149 97.8167C44.149 97.5226 43.8865 97.2963 43.5963 97.3386L43.5956 97.3387L34.9646 98.5779L34.5809 96.3942L34.5807 96.3933C34.4785 95.8019 34.7231 95.2047 35.2134 94.8569C35.2133 94.857 35.2134 94.8569 35.2134 94.8569L36.7221 93.7832C36.8432 93.6461 36.8933 93.4669 36.8606 93.2908L36.8602 93.2887Z" fill="#26282B"/>
</svg>
