<svg id="line" viewBox="0 0 64 64" xmlns="http://www.w3.org/2000/svg"><g fill="rgb(0,0,0)"><g><path d="m38.09326 47.10596c-.44287 0-.88916-.03955-1.33301-.11963l-11.78564-2.13037c-.81543-.14746-1.35693-.92773-1.20947-1.74268.14697-.81543.93408-1.35498 1.74268-1.20947l11.78564 2.13037c1.44971.26367 2.93848-.20312 3.98047-1.24463l2.21924-2.21924c.58594-.58594 1.53516-.58594 2.12109 0 .58594.58545.58594 1.53564 0 2.12109l-2.21924 2.21924c-1.41748 1.41797-3.33105 2.19531-5.30176 2.19531z"/><path d="m20.61719 40.25781c-.71143 0-1.34326-.50879-1.47412-1.23389l-2.13037-11.78613c-.43701-2.41846.33936-4.8999 2.07715-6.63721l6.4126-6.41309c.58594-.58594 1.53516-.58594 2.12109 0 .58594.58545.58594 1.53516 0 2.12109l-6.4126 6.41309c-1.04248 1.04248-1.5083 2.53125-1.24609 3.98291l2.13037 11.78613c.14746.81494-.39404 1.59521-1.20947 1.74268-.08984.01611-.17969.02441-.26855.02441z"/><path d="m10.75635 60.50049c-.65039 0-1.27881-.25586-1.75-.72803l-4.7793-4.7793c-.59912-.59912-.8501-1.45117-.67041-2.2793.1792-.82812.75977-1.5 1.55322-1.79736l1.96777-.73828 12.48096-12.48145c.5625-.5625 1.55859-.5625 2.12109 0l4.62207 4.62256c.58594.58594.58594 1.53516 0 2.12109l-12.48047 12.48193-.73828 1.96777c-.29736.79346-.96973 1.37402-1.79785 1.55371-.17627.03809-.35352.05664-.52881.05664zm-3.83789-7.05859 3.63916 3.63916.56885-1.5166c.0752-.2002.19238-.38232.34375-.53369l11.6499-11.65088-2.50098-2.50098-11.6499 11.65039c-.15137.15137-.3335.26855-.53369.34375z"/><path d="m20.16943 49.95459c-.38379 0-.76758-.14648-1.06055-.43945l-4.62402-4.62451c-.58594-.58594-.58594-1.53564 0-2.12109.58594-.58594 1.53516-.58594 2.12109 0l4.62402 4.62451c.58594.58594.58594 1.53564 0 2.12109-.29297.29297-.67676.43945-1.06055.43945z"/><path d="m15.22021 54.9043c-.38379 0-.76758-.14648-1.06055-.43945l-4.62451-4.62451c-.58594-.58545-.58594-1.53564 0-2.12109.58594-.58594 1.53516-.58594 2.12109 0l4.62451 4.62451c.58594.58545.58594 1.53564 0 2.12109-.29297.29297-.67676.43945-1.06055.43945z"/></g><g><path d="m48.75 38.93457c-.10693 0-.21533-.01123-.32227-.03516-.49951-.10986-.90869-.4668-1.08545-.94678-1.80615-4.90967-4.60205-9.2793-8.30957-12.98682-3.7085-3.70801-8.07812-6.50391-12.9873-8.31006-.48047-.17676-.8374-.58594-.94727-1.08545-.10986-.5.04248-1.021.4043-1.38281l8.53271-8.5332c2.36279-2.36182 6.05029-2.83203 8.96631-1.14404 7.41699 4.29541 12.19434 9.07373 16.48926 16.49365 1.68555 2.91309 1.21631 6.59375-1.14062 8.95068l-8.53955 8.54053c-.28418.28418-.66699.43945-1.06055.43945zm-19.52051-24.23193c4.45264 1.94141 8.45605 4.67334 11.92432 8.14209 3.46826 3.46777 6.19971 7.4707 8.14111 11.92334l6.93408-6.93457c1.39746-1.39795 1.6709-3.58838.66504-5.32666-4.06299-7.01904-8.37939-11.33691-15.396-15.40039-1.7417-1.0083-3.93848-.7334-5.3418.66895l-6.92676 6.92725z"/><path d="m44.72656 15.11523c-.38379 0-.76758-.14648-1.06055-.43945-1.31787-1.31787-2.46143-1.96289-3.18896-2.27246-.38281-.16309-.81592-.08691-1.09912.19629l-1.36816 1.36914c-.58594.58594-1.53564.58545-2.12158.00049-.58594-.58594-.58594-1.53564-.00049-2.12158l1.36865-1.36914c1.1543-1.15283 2.88037-1.48242 4.396-.83545 1.4126.60107 2.80371 1.58057 4.13477 2.91162.58594.58545.58594 1.53564 0 2.12109-.29297.29297-.67676.43945-1.06055.43945z"/></g></g></svg>