<svg width="20" height="20" viewBox="0 0 20 20" fill="none" xmlns="http://www.w3.org/2000/svg">
<g clip-path="url(#clip0_1476_9974)">
<path fill-rule="evenodd" clip-rule="evenodd" d="M3.21433 6.25C3.21433 3.83375 5.17308 1.875 7.58933 1.875C10.0056 1.875 11.9643 3.83375 11.9643 6.25C11.9643 8.66625 10.0056 10.625 7.58933 10.625C5.17308 10.625 3.21433 8.66625 3.21433 6.25ZM3.13347 12.8322C4.31911 12.2002 5.77961 11.875 7.58933 11.875C11.2367 11.875 13.8322 13.6197 14.8019 15.5278L14.8094 15.5425L14.8101 15.5439L14.8219 15.5664C14.854 15.628 14.937 15.7914 15.0129 15.9798C15.0766 16.1378 15.1834 16.4252 15.1785 16.6933C15.1744 16.9197 15.1052 17.137 15.0178 17.3125C14.9305 17.488 14.7988 17.6742 14.6207 17.8139C14.3841 17.9996 14.1235 18.0686 13.8757 18.0983C13.6527 18.1251 13.3848 18.125 13.0981 18.125H2.0806C1.79381 18.125 1.52594 18.1251 1.30301 18.0983C1.0552 18.0686 0.794604 17.9996 0.557962 17.8139C0.379871 17.6742 0.248186 17.488 0.160814 17.3125C0.0734412 17.137 0.00430462 16.9197 0.000165315 16.6933C-0.00285372 16.5282 0.0360549 16.3718 0.0696654 16.262C0.106128 16.1429 0.152898 16.027 0.196348 15.9291C0.283367 15.733 0.374728 15.5697 0.396799 15.5308L0.399791 15.5256L0.40541 15.5159L0.409392 15.5091C1.07203 14.3879 1.94286 13.4667 3.13347 12.8322Z" fill="black"/>
<path fill-rule="evenodd" clip-rule="evenodd" d="M16.6667 6.125C17.15 6.125 17.5417 6.51675 17.5417 7V8.625H19.1667C19.65 8.625 20.0417 9.01675 20.0417 9.5C20.0417 9.98325 19.65 10.375 19.1667 10.375H17.5417V12C17.5417 12.4832 17.15 12.875 16.6667 12.875C16.1835 12.875 15.7917 12.4832 15.7917 12V10.375H14.1667C13.6835 10.375 13.2917 9.98325 13.2917 9.5C13.2917 9.01675 13.6835 8.625 14.1667 8.625H15.7917V7C15.7917 6.51675 16.1835 6.125 16.6667 6.125Z" fill="black"/>
</g>
<defs>
<clipPath id="clip0_1476_9974">
<rect width="20" height="20" fill="white"/>
</clipPath>
</defs>
</svg>
