<svg width="20" height="20" viewBox="0 0 20 20" fill="none" xmlns="http://www.w3.org/2000/svg">
<path fill-rule="evenodd" clip-rule="evenodd" d="M6.66618 7.50033C6.66618 4.27866 9.27785 1.66699 12.4995 1.66699C15.7212 1.66699 18.3328 4.27866 18.3328 7.50033C18.3328 10.722 15.7212 13.3337 12.4995 13.3337C12.2342 13.3337 11.9726 13.3159 11.7159 13.2814C11.5284 13.2562 11.4111 13.2405 11.3256 13.2323C11.3103 13.2308 11.2978 13.2298 11.2877 13.229C11.2852 13.2313 11.2825 13.2337 11.2795 13.2364C11.2349 13.277 11.1763 13.3354 11.0714 13.4403L6.81262 17.6991C6.80286 17.7088 6.79285 17.7189 6.7826 17.7292C6.67099 17.8414 6.53046 17.9827 6.35849 18.0881C6.20937 18.1794 6.0468 18.2468 5.87674 18.2876C5.68063 18.3347 5.48135 18.3342 5.32309 18.3337C5.30856 18.3337 5.29437 18.3337 5.28056 18.3337L3.80625 18.3337C3.59593 18.3337 3.39111 18.3337 3.21765 18.3195C3.02716 18.304 2.80238 18.2673 2.57619 18.152C2.26259 17.9922 2.00762 17.7372 1.84783 17.4236C1.73258 17.1975 1.69586 16.9727 1.6803 16.7822C1.66612 16.6087 1.66615 16.4039 1.66617 16.1936L1.66617 14.7193C1.66617 14.7055 1.66614 14.6913 1.6661 14.6767C1.66568 14.5185 1.66514 14.3192 1.71223 14.1231C1.75305 13.953 1.82039 13.7905 1.91177 13.6413C2.01715 13.4694 2.15844 13.3288 2.27065 13.2172C2.28095 13.207 2.29101 13.197 2.30078 13.1872L6.55953 8.92846C6.66446 8.82352 6.72279 8.7649 6.76339 8.72032C6.76609 8.71736 6.76855 8.71462 6.7708 8.71211C6.77006 8.70203 6.76902 8.6895 6.76755 8.67425C6.75929 8.58873 6.74365 8.47139 6.71845 8.28389C6.68394 8.02722 6.66618 7.76563 6.66618 7.50033ZM12.4995 3.33366C10.1983 3.33366 8.33284 5.19914 8.33284 7.50033C8.33284 7.69115 8.34562 7.87856 8.37025 8.06182L8.37225 8.07666C8.39486 8.24486 8.41487 8.39364 8.4265 8.51409C8.43768 8.62988 8.44893 8.78681 8.42588 8.94798C8.39432 9.16857 8.33955 9.33065 8.23083 9.52516C8.11508 9.73225 7.93222 9.91394 7.78188 10.0633C7.76691 10.0782 7.75227 10.0927 7.73804 10.107L3.47929 14.3657C3.4021 14.4429 3.36371 14.4816 3.337 14.5108C3.3363 14.5116 3.33563 14.5124 3.33499 14.5131C3.33494 14.514 3.3349 14.515 3.33485 14.516C3.33304 14.5556 3.33284 14.6101 3.33284 14.7193V16.167C3.33284 16.4141 3.33349 16.5493 3.34143 16.6465C3.34174 16.6503 3.34206 16.654 3.34238 16.6574C3.34584 16.6578 3.3495 16.6581 3.35337 16.6584C3.45052 16.6663 3.58574 16.667 3.83284 16.667H5.28056C5.38972 16.667 5.44421 16.6668 5.48379 16.665C5.48482 16.6649 5.48582 16.6649 5.48677 16.6648C5.48748 16.6642 5.48822 16.6635 5.48899 16.6628C5.51825 16.6361 5.55692 16.5977 5.63411 16.5205L9.89286 12.2618C9.90709 12.2476 9.92164 12.2329 9.93652 12.2179C10.0859 12.0676 10.2676 11.8848 10.4747 11.769C10.6692 11.6603 10.8313 11.6055 11.0519 11.574C11.213 11.5509 11.37 11.5622 11.4857 11.5733C11.6062 11.585 11.755 11.605 11.9232 11.6276L11.938 11.6296C12.1213 11.6542 12.3087 11.667 12.4995 11.667C14.8007 11.667 16.6662 9.80151 16.6662 7.50033C16.6662 5.19914 14.8007 3.33366 12.4995 3.33366ZM11.6662 7.50033C11.6662 7.04009 12.0393 6.66699 12.4995 6.66699H12.5078C12.9681 6.66699 13.3412 7.04009 13.3412 7.50033C13.3412 7.96056 12.9681 8.33366 12.5078 8.33366H12.4995C12.0393 8.33366 11.6662 7.96056 11.6662 7.50033Z" fill="#284B73"/>
</svg>
