<svg height="512" viewBox="0 0 32 32" width="512" xmlns="http://www.w3.org/2000/svg"><g id="plus_calendar"><path d="m23 15c-4.4111328 0-8 3.5888672-8 8s3.5888672 8 8 8 8-3.5888672 8-8-3.5888672-8-8-8zm0 14c-3.3085938 0-6-2.6914063-6-6s2.6914063-6 6-6 6 2.6914063 6 6-2.6914062 6-6 6zm1-7h3v2h-3v3h-2v-3h-3v-2h3v-3h2zm2-19h-3v-2h-2v2h-12v-2h-2v2h-3c-1.6499023 0-3 1.3500977-3 3v20c0 1.6499023 1.3500977 3 3 3h11.0097656c-.4697266-.6098633-.8598633-1.2797852-1.1699219-2h-9.8398437c-.5498047 0-1-.4501953-1-1v-15h24v2.8398438c.7202148.3100586 1.3901367.7001953 2 1.1699219v-9.0097657c0-1.6499023-1.3500977-3-3-3zm1 6h-24v-3c0-.5498047.4501953-1 1-1h22c.5498047 0 1 .4501953 1 1zm-17 8h-4v-2h4zm7-2v.0097656c-.75.5600586-1.4301758 1.2402344-1.9902344 1.9902344h-2.0097656v-2zm-11 6h4v2h-4z"/></g></svg>