<svg width="24" height="24" viewBox="0 0 24 24" fill="none" xmlns="http://www.w3.org/2000/svg">
<g id="Icon/change location">
<path id="Icon (Stroke)" fill-rule="evenodd" clip-rule="evenodd" d="M17.6452 7.06031C15.3357 4.41492 11.4058 3.68253 8.24971 5.50469C6.09124 6.75088 4.78594 8.90717 4.54052 11.2129C4.48206 11.7621 3.98947 12.1599 3.44029 12.1014C2.89111 12.043 2.49329 11.5504 2.55175 11.0012C2.86193 8.08714 4.51421 5.35198 7.24971 3.77264C11.3786 1.38885 16.553 2.45662 19.4319 6.0807L19.5406 5.67523C19.6835 5.14177 20.2318 4.82519 20.7653 4.96813C21.2988 5.11107 21.6154 5.65941 21.4724 6.19287L20.7404 8.92492C20.6717 9.1811 20.5041 9.39952 20.2744 9.53213C20.0448 9.66474 19.7718 9.70067 19.5156 9.63203L16.7836 8.89998C16.2501 8.75704 15.9335 8.2087 16.0765 7.67523C16.2194 7.14177 16.7677 6.82519 17.3012 6.96813L17.6452 7.06031ZM20.5588 11.8987C21.108 11.9572 21.5058 12.4498 21.4474 12.9989C21.1372 15.913 19.4849 18.6482 16.7494 20.2275C12.6208 22.6112 7.44661 21.5436 4.5676 17.92L4.45909 18.3249C4.31615 18.8584 3.76782 19.175 3.23435 19.032C2.70088 18.8891 2.3843 18.3408 2.52724 17.8073L3.25929 15.0752C3.40223 14.5418 3.95057 14.2252 4.48404 14.3681L7.21609 15.1002C7.74955 15.2431 8.06614 15.7915 7.9232 16.3249C7.78025 16.8584 7.23192 17.175 6.69845 17.032L6.35372 16.9397C8.66323 19.5852 12.5933 20.3176 15.7494 18.4955C17.9079 17.2493 19.2132 15.093 19.4586 12.7872C19.5171 12.2381 20.0096 11.8403 20.5588 11.8987Z" fill="#757474"/>
<path id="Icon (Stroke)_2" fill-rule="evenodd" clip-rule="evenodd" d="M12 8.5C10.6457 8.5 9.5 9.63732 9.5 11.1C9.5 11.7858 9.79844 12.4755 10.3942 13.2712C10.8355 13.8606 11.3841 14.4387 12 15.0696C12.6159 14.4387 13.1645 13.8606 13.6058 13.2712C14.2016 12.4755 14.5 11.7858 14.5 11.1C14.5 9.63732 13.3543 8.5 12 8.5ZM7.5 11.1C7.5 8.58623 9.48835 6.5 12 6.5C14.5116 6.5 16.5 8.58623 16.5 11.1C16.5 12.4024 15.9234 13.5127 15.2067 14.4699C14.6119 15.2644 13.8503 16.0407 13.1215 16.7836C12.9851 16.9226 12.8498 17.0605 12.717 17.1971C12.5287 17.3907 12.2701 17.5 12 17.5C11.7299 17.5 11.4713 17.3907 11.283 17.1971C11.1502 17.0605 11.0149 16.9226 10.8785 16.7836C10.1497 16.0407 9.38813 15.2644 8.79327 14.4699C8.07656 13.5127 7.5 12.4024 7.5 11.1ZM10.9883 11.1C10.9883 10.5477 11.436 10.1 11.9883 10.1H12.0117C12.564 10.1 13.0117 10.5477 13.0117 11.1C13.0117 11.6523 12.564 12.1 12.0117 12.1H11.9883C11.436 12.1 10.9883 11.6523 10.9883 11.1Z" fill="#757474"/>
</g>
</svg>
