<svg fill="none" height="24" viewBox="0 0 24 24" width="24" xmlns="http://www.w3.org/2000/svg"><path clip-rule="evenodd" d="m16 3c.5523 0 1 .44772 1 1v1h4c.5523 0 1 .44772 1 1 0 .55229-.4477 1-1 1h-4v1c0 .55228-.4477 1-1 1s-1-.44772-1-1v-4c0-.55228.4477-1 1-1zm-14 3c0-.55228.44772-1 1-1h9c.5523 0 1 .44772 1 1 0 .55229-.4477 1-1 1h-9c-.55228 0-1-.44772-1-1zm6 3c.55228 0 1 .44772 1 1v4c0 .5523-.44772 1-1 1s-1-.4477-1-1v-1h-4c-.55228 0-1-.4477-1-1s.44772-1 1-1h4v-1c0-.55228.44772-1 1-1zm3 3c0-.5523.4477-1 1-1h9c.5523 0 1 .4477 1 1s-.4477 1-1 1h-9c-.5523 0-1-.4477-1-1zm5 3c.5523 0 1 .4477 1 1v1h4c.5523 0 1 .4477 1 1s-.4477 1-1 1h-4v1c0 .5523-.4477 1-1 1s-1-.4477-1-1v-4c0-.5523.4477-1 1-1zm-14 3c0-.5523.44772-1 1-1h9c.5523 0 1 .4477 1 1s-.4477 1-1 1h-9c-.55228 0-1-.4477-1-1z" fill="rgb(0,0,0)" fill-rule="evenodd"/></svg>