<svg width="20" height="20" viewBox="0 0 20 20" fill="none" xmlns="http://www.w3.org/2000/svg">
<path d="M7.49935 9.16667V10.8333M7.49935 5V6.66667M7.49935 13.3333V15M1.66602 12.6471V14.5C1.66602 16.1569 3.00916 17.5 4.66602 17.5H15.3327C16.9895 17.5 18.3327 16.1569 18.3327 14.5V12.6471C18.3327 12.5658 18.2668 12.5 18.1856 12.5V12.5C16.8861 12.5 15.8327 11.4466 15.8327 10.1471V9.85294C15.8327 8.55345 16.8861 7.5 18.1856 7.5V7.5C18.2668 7.5 18.3327 7.43416 18.3327 7.35294V5.5C18.3327 3.84315 16.9895 2.5 15.3327 2.5H4.66602C3.00916 2.5 1.66602 3.84315 1.66602 5.5V7.35294C1.66602 7.43416 1.73186 7.5 1.81307 7.5V7.5C3.11257 7.5 4.16602 8.55345 4.16602 9.85294V10.1471C4.16602 11.4466 3.11257 12.5 1.81307 12.5V12.5C1.73186 12.5 1.66602 12.5658 1.66602 12.6471Z" stroke="black" stroke-width="1.25" stroke-linecap="round" stroke-linejoin="round"/>
</svg>
